<svg xmlns="http://www.w3.org/2000/svg" xmlns:xlink="http://www.w3.org/1999/xlink" width="295" height="349" viewBox="0 0 295 349">
  <defs>
    <clipPath id="clip-path">
      <rect id="Rectángulo_421146" data-name="Rectángulo 421146" width="295" height="349" transform="translate(1125 878)" fill="#fff" stroke="#707070" stroke-width="1"/>
    </clipPath>
    <clipPath id="clip-path-2">
      <rect id="Rectángulo_421858" data-name="Rectángulo 421858" width="571" height="861" transform="translate(-0.237 -0.003)" fill="none"/>
    </clipPath>
    <clipPath id="clip-path-4">
      <rect id="Rectángulo_421860" data-name="Rectángulo 421860" width="7.625" height="5.702" fill="none"/>
    </clipPath>
    <clipPath id="clip-path-7">
      <rect id="Rectángulo_421864" data-name="Rectángulo 421864" width="90.801" height="58.679" fill="none"/>
    </clipPath>
    <clipPath id="clip-path-8">
      <rect id="Rectángulo_421865" data-name="Rectángulo 421865" width="89.669" height="57.548" fill="none"/>
    </clipPath>
    <clipPath id="clip-path-9">
      <rect id="Rectángulo_421866" data-name="Rectángulo 421866" width="64.594" height="41.744" fill="none"/>
    </clipPath>
    <clipPath id="clip-path-10">
      <rect id="Rectángulo_421867" data-name="Rectángulo 421867" width="63.789" height="40.938" fill="none"/>
    </clipPath>
    <clipPath id="clip-path-11">
      <rect id="Rectángulo_421870" data-name="Rectángulo 421870" width="51.517" height="33.063" fill="none"/>
    </clipPath>
    <clipPath id="clip-path-12">
      <rect id="Rectángulo_421871" data-name="Rectángulo 421871" width="51.518" height="33.06" fill="none"/>
    </clipPath>
    <clipPath id="clip-path-13">
      <rect id="Rectángulo_421872" data-name="Rectángulo 421872" width="51.515" height="33.06" fill="none"/>
    </clipPath>
  </defs>
  <g id="Enmascarar_grupo_1159127" data-name="Enmascarar grupo 1159127" transform="translate(-1125 -878)" clip-path="url(#clip-path)">
    <g id="Grupo_1223858" data-name="Grupo 1223858" transform="translate(3948.68 -3561.83)">
      <g id="Grupo_1223834" data-name="Grupo 1223834" transform="translate(-2951.442 4323.833)">
        <g id="Grupo_1223833" data-name="Grupo 1223833" transform="translate(0 0)" clip-path="url(#clip-path-2)">
          <g id="Grupo_1223829" data-name="Grupo 1223829" transform="translate(175.447 166.269)" opacity="0.6">
            <g id="Grupo_1223828" data-name="Grupo 1223828">
              <g id="Grupo_1223827" data-name="Grupo 1223827" clip-path="url(#clip-path-4)">
                <path id="Trazado_1057982" data-name="Trazado 1057982" d="M520.329,487.42l-5.488,4.731H512.7l6.61-5.7Z" transform="translate(-512.704 -486.45)" fill="#686874"/>
              </g>
            </g>
          </g>
          <g id="Grupo_1223832" data-name="Grupo 1223832" transform="translate(175.447 171.971)" opacity="0.6">
            <g id="Grupo_1223831" data-name="Grupo 1223831">
              <g id="Grupo_1223830" data-name="Grupo 1223830" clip-path="url(#clip-path-4)">
                <path id="Trazado_1057983" data-name="Trazado 1057983" d="M520.329,507.87l-5.488-4.731H512.7l6.61,5.7Z" transform="translate(-512.704 -503.139)" fill="#686874"/>
              </g>
            </g>
          </g>
          <path id="Trazado_1057984" data-name="Trazado 1057984" d="M681.292,996.919a143.353,143.353,0,0,1,24.071,11.951v-.079a143.329,143.329,0,0,0-24.071-11.872m-76.731,1.035a78.579,78.579,0,0,0-15.674,10.557,63.549,63.549,0,0,0-17.826,25c-4.889,12.606-5.548,26.876-1.9,41.266a85.326,85.326,0,0,0,5.736,15.763h.048c-9.087-18.913-10.69-39.243-3.8-57,4.011-10.338,13.071-24.895,33.46-35.506a80.027,80.027,0,0,1,35.943-8.749,79.788,79.788,0,0,0-35.984,8.674m67.664-144.173H672.2c-16.716,0-27.173,4.694-39.281,10.133C619.272,870.051,603.8,877,575.2,879.063c-24.8,1.783-52.912,3.809-71.709-15.022-19.364-19.4-17.434-49.441-15.7-61.456l0-.007,0,0a94.331,94.331,0,0,0-5.88-23.556,67.805,67.805,0,0,0-9.231-16.5,47.407,47.407,0,0,0-15.657-13.272,45.526,45.526,0,0,0-24.191-4.831,59.409,59.409,0,0,0-7.226.926v.109c9.863-1.872,20.884-1.561,31.376,3.871,25.11,13,30,46.633,30.723,53.257a98.624,98.624,0,0,0-.342,25.834,71.117,71.117,0,0,0,4.691,18.373,52.826,52.826,0,0,0,11.38,17.317c8.281,8.295,19.118,13.249,33.128,15.151,12.9,1.746,27.177.717,38.649-.109,28.612-2.06,44.095-9.016,57.756-15.151,12.1-5.435,22.544-10.129,39.243-10.129h.021a114.631,114.631,0,0,1,33.138,5.381v-.137a114.653,114.653,0,0,0-33.138-5.326m-66.957-134.6c-13.751-1.694-42.373-5.213-64.2-26.637-11.332-11.12-15.1-21.468-18.752-31.478-3.392-9.3-6.6-18.093-15.411-27.283a70.727,70.727,0,0,0-24.229-16.187,104.73,104.73,0,0,0-26.35-6.816,147.275,147.275,0,0,0-30.726-.687v.092c19.589-1.483,57.862-.714,81.244,23.658,8.8,9.173,12.005,17.956,15.394,27.252,3.649,10.017,7.424,20.375,18.769,31.509,21.851,21.444,50.49,24.966,64.254,26.658,7.43.916,27.17,3.341,48.884-.13a107.833,107.833,0,0,0,32.974-10.543,83.371,83.371,0,0,0,18.243-12.825v-.137c-17.573,16.32-47.965,29.961-100.1,23.552M672.73,549.493a69.448,69.448,0,0,0-23.361-2.207c-7.571.7-13.911,2.9-18.848,6.549-7.7,5.685-10.181,13.757-12.8,22.305-3.082,10.037-6.573,21.417-19.313,30.99-10.789,8.11-22.271,11.783-34.133,10.925-17.536-1.274-29.237-12.36-33.453-17.068l-.062.055a55.111,55.111,0,0,0,10.84,9.279,47.517,47.517,0,0,0,22.667,7.817,47.026,47.026,0,0,0,22.2-3.881A57.786,57.786,0,0,0,598.46,607.2a46.3,46.3,0,0,0,13.276-15.278,83.838,83.838,0,0,0,6.064-15.753c2.62-8.534,5.094-16.6,12.77-22.264,9.7-7.164,25.062-8.739,42.141-4.328a89.9,89.9,0,0,1,32.653,16.108v-.106a89.949,89.949,0,0,0-32.633-16.084" transform="translate(-279.911 -360.081)" fill="#686874"/>
          <path id="Trazado_1057985" data-name="Trazado 1057985" d="M606.083,414.673a62.038,62.038,0,0,1-3.191,19.09l-.082-.027c6.272-18.9,3-38.823-7.56-52.526h.079a50.975,50.975,0,0,1,8.056,15.517,57.392,57.392,0,0,1,2.7,17.946" transform="translate(-391.603 -250.894)" fill="#686874"/>
          <path id="Trazado_1057986" data-name="Trazado 1057986" d="M981.392,375.509a41.681,41.681,0,0,1-.909,8.233,33.009,33.009,0,0,1-8.848,16.839c-5.637,5.63-13.307,8.8-22.175,9.159-.567.021-1.134.034-1.7.034a47.431,47.431,0,0,1-19.692-4.352c-3.088-1.452-12.483-5.88-17.58-16.562a32.37,32.37,0,0,1-3.143-13.351h.068a32.486,32.486,0,0,0,3.15,13.313c5.087,10.659,14.461,15.073,17.543,16.525a46.705,46.705,0,0,0,19.477,4.328c8.667,0,17.434-2.6,24-9.156,8.2-8.189,9.672-18.793,9.733-25.011.014-1.148-.024-2.145-.075-2.952l.085-.007c.055.84.089,1.835.075,2.959" transform="translate(-597.073 -245.193)" fill="#686874"/>
          <path id="Trazado_1057987" data-name="Trazado 1057987" d="M479.281,1856.795c.137,13.525-5.06,27.105-14.632,38.239a68.812,68.812,0,0,1-16.9,14.168,71.926,71.926,0,0,1-8.7,4.424.7.7,0,0,1-.1-.051c24.184-10.253,40.5-32.5,40.255-56.776-.184-17.97-10.676-41.819-33.282-51.716a52.776,52.776,0,0,0-20.314-4.376v-.085A52.853,52.853,0,0,1,445.948,1805a54.448,54.448,0,0,1,24.546,21.84,59.69,59.69,0,0,1,8.787,29.951" transform="translate(-279.911 -1185.387)" fill="#686874"/>
        </g>
      </g>
      <rect id="Rectángulo_421863" data-name="Rectángulo 421863" width="254.098" height="1.196" transform="translate(-2792.937 4782.558)" fill="#686874"/>
      <g id="Grupo_1223857" data-name="Grupo 1223857" transform="translate(-2951.442 4323.833)">
        <g id="Grupo_1223856" data-name="Grupo 1223856" transform="translate(0 0)" clip-path="url(#clip-path-2)">
          <g id="Grupo_1223837" data-name="Grupo 1223837" transform="translate(188.209 189.726)" opacity="0.17">
            <g id="Grupo_1223836" data-name="Grupo 1223836">
              <g id="Grupo_1223835" data-name="Grupo 1223835" clip-path="url(#clip-path-7)">
                <path id="Trazado_1057988" data-name="Trazado 1057988" d="M637.953,555.11H552.97a2.913,2.913,0,0,0-2.909,2.909V610.88a2.913,2.913,0,0,0,2.909,2.909h84.983a2.913,2.913,0,0,0,2.909-2.909V558.019a2.913,2.913,0,0,0-2.909-2.909" transform="translate(-550.061 -555.11)" fill="#686874"/>
              </g>
            </g>
          </g>
          <g id="Grupo_1223840" data-name="Grupo 1223840" transform="translate(195.936 183.576)" opacity="0.37">
            <g id="Grupo_1223839" data-name="Grupo 1223839">
              <g id="Grupo_1223838" data-name="Grupo 1223838" clip-path="url(#clip-path-8)">
                <path id="Trazado_1057989" data-name="Trazado 1057989" d="M660.006,594.661H575.023a2.346,2.346,0,0,1-2.343-2.343V539.457a2.346,2.346,0,0,1,2.343-2.343h84.983a2.346,2.346,0,0,1,2.343,2.343v52.861a2.346,2.346,0,0,1-2.343,2.343" transform="translate(-572.68 -537.113)" fill="#f2f2fb"/>
              </g>
            </g>
          </g>
          <path id="Trazado_1057990" data-name="Trazado 1057990" d="M658.916,594.137H573.933a2.913,2.913,0,0,1-2.909-2.909V538.367a2.912,2.912,0,0,1,2.909-2.909h84.983a2.912,2.912,0,0,1,2.909,2.909v52.861a2.913,2.913,0,0,1-2.909,2.909m-84.983-57.547a1.78,1.78,0,0,0-1.778,1.777v52.861a1.78,1.78,0,0,0,1.778,1.778h84.983a1.779,1.779,0,0,0,1.777-1.778V538.367a1.779,1.779,0,0,0-1.777-1.777Z" transform="translate(-375.653 -352.446)" fill="#686874"/>
          <path id="Trazado_1057991" data-name="Trazado 1057991" d="M675.681,596.264a1.943,1.943,0,0,1-1.939-1.942V584.037a1.937,1.937,0,0,1,2.732-1.771l11.479,5.134a1.94,1.94,0,0,1,0,3.541l-11.479,5.151a1.924,1.924,0,0,1-.795.172m0-13.7a1.477,1.477,0,0,0-1.474,1.477v10.285a1.472,1.472,0,0,0,2.079,1.346l11.479-5.151a1.475,1.475,0,0,0,0-2.692l-11.479-5.134a1.47,1.47,0,0,0-.6-.131" transform="translate(-443.279 -383.15)" fill="#686874"/>
          <path id="Trazado_1057992" data-name="Trazado 1057992" d="M670.084,683.431H603.839a1.513,1.513,0,0,1-1.511-1.511v-.989a1.513,1.513,0,0,1,1.511-1.511h66.245a1.513,1.513,0,0,1,1.511,1.511v.989a1.513,1.513,0,0,1-1.511,1.511m-66.245-3.183a.684.684,0,0,0-.683.683v.989a.684.684,0,0,0,.683.683h66.245a.684.684,0,0,0,.683-.683v-.989a.684.684,0,0,0-.683-.683Z" transform="translate(-396.263 -447.226)" fill="#686874"/>
          <path id="Trazado_1057993" data-name="Trazado 1057993" d="M573.414,666.437h87.717a.388.388,0,0,0,0-.776h-6.914a.388.388,0,0,0,0,.776h6.914v-.776H573.414a.388.388,0,0,0,0,.776" transform="translate(-376.98 -438.167)" fill="#686874"/>
          <g id="Grupo_1223843" data-name="Grupo 1223843" transform="translate(263.635 156.338)" opacity="0.17">
            <g id="Grupo_1223842" data-name="Grupo 1223842">
              <g id="Grupo_1223841" data-name="Grupo 1223841" clip-path="url(#clip-path-9)">
                <path id="Trazado_1057994" data-name="Trazado 1057994" d="M833.367,457.379H772.912a2.072,2.072,0,0,0-2.07,2.07v37.6a2.072,2.072,0,0,0,2.07,2.07h60.455a2.072,2.072,0,0,0,2.07-2.07v-37.6a2.072,2.072,0,0,0-2.07-2.07" transform="translate(-770.842 -457.379)" fill="#686874"/>
              </g>
            </g>
          </g>
          <g id="Grupo_1223846" data-name="Grupo 1223846" transform="translate(269.132 151.965)" opacity="0.37">
            <g id="Grupo_1223845" data-name="Grupo 1223845">
              <g id="Grupo_1223844" data-name="Grupo 1223844" clip-path="url(#clip-path-10)">
                <path id="Trazado_1057995" data-name="Trazado 1057995" d="M849.056,485.516H788.6a1.669,1.669,0,0,1-1.667-1.667v-37.6a1.669,1.669,0,0,1,1.667-1.667h60.456a1.669,1.669,0,0,1,1.667,1.667v37.6a1.669,1.669,0,0,1-1.667,1.667" transform="translate(-786.933 -444.578)" fill="#f2f2fb"/>
              </g>
            </g>
          </g>
          <path id="Trazado_1057996" data-name="Trazado 1057996" d="M848.28,485.143H787.825a2.072,2.072,0,0,1-2.07-2.07v-37.6a2.072,2.072,0,0,1,2.07-2.069H848.28a2.072,2.072,0,0,1,2.07,2.069v37.6a2.072,2.072,0,0,1-2.07,2.07M787.825,444.2a1.266,1.266,0,0,0-1.264,1.264v37.6a1.266,1.266,0,0,0,1.264,1.264H848.28a1.266,1.266,0,0,0,1.264-1.264v-37.6a1.266,1.266,0,0,0-1.264-1.264Z" transform="translate(-517.025 -291.838)" fill="#686874"/>
          <path id="Trazado_1057997" data-name="Trazado 1057997" d="M860.206,486.657a1.382,1.382,0,0,1-1.38-1.382v-7.317a1.378,1.378,0,0,1,1.944-1.26l8.166,3.652a1.38,1.38,0,0,1,0,2.519l-8.166,3.664a1.372,1.372,0,0,1-.565.123m0-9.749a1.051,1.051,0,0,0-1.049,1.051v7.317a1.047,1.047,0,0,0,1.479.957l8.166-3.664a1.049,1.049,0,0,0,0-1.915L860.635,477a1.045,1.045,0,0,0-.429-.093" transform="translate(-565.133 -313.681)" fill="#686874"/>
          <path id="Trazado_1057998" data-name="Trazado 1057998" d="M856.225,548.665H809.1a1.076,1.076,0,0,1-1.075-1.075v-.7a1.076,1.076,0,0,1,1.075-1.075h47.126a1.076,1.076,0,0,1,1.075,1.075v.7a1.076,1.076,0,0,1-1.075,1.075M809.1,546.4a.486.486,0,0,0-.486.486v.7a.486.486,0,0,0,.486.486h47.126a.487.487,0,0,0,.486-.486v-.7a.487.487,0,0,0-.486-.486Z" transform="translate(-531.686 -359.263)" fill="#686874"/>
          <path id="Trazado_1057999" data-name="Trazado 1057999" d="M787.455,536.576h62.4a.276.276,0,0,0,0-.552h-4.918a.276.276,0,0,0,0,.552h4.918v-.552h-62.4a.276.276,0,0,0,0,.552" transform="translate(-517.969 -352.819)" fill="#686874"/>
          <path id="Trazado_1058000" data-name="Trazado 1058000" d="M723.2,782.071V918.822H481.779V782.071a6.476,6.476,0,0,1,6.477-6.476H716.728a6.476,6.476,0,0,1,6.476,6.476" transform="translate(-316.897 -510.544)" fill="#686874"/>
          <rect id="Rectángulo_421868" data-name="Rectángulo 421868" width="226.637" height="128.47" transform="translate(173.311 271.991)" fill="#fff"/>
          <path id="Trazado_1058001" data-name="Trazado 1058001" d="M724.131,1188.726v15.644a8.758,8.758,0,0,1-8.758,8.7H493.464a8.757,8.757,0,0,1-8.758-8.755v-15.591Z" transform="translate(-318.824 -782.536)" fill="#f8f8fe"/>
          <path id="Trazado_1058002" data-name="Trazado 1058002" d="M713.257,1211.954H491.726a9.965,9.965,0,0,1-9.947-9.961v-16.8H723.2v16.851a9.959,9.959,0,0,1-9.947,9.907m-229.07-24.345v14.385a7.553,7.553,0,0,0,7.539,7.548H713.257a7.548,7.548,0,0,0,7.539-7.5v-14.432Z" transform="translate(-316.897 -780.212)" fill="#686874"/>
          <path id="Trazado_1058003" data-name="Trazado 1058003" d="M810.4,1285.732H755.353c.007-.022.013-.044.019-.07a80.874,80.874,0,0,0,2.769-25.047h48.776a62.752,62.752,0,0,0,.347,11.985,61.95,61.95,0,0,0,3.113,13.062c.01.025.016.048.025.07" transform="translate(-497.009 -829.866)" fill="#f8f8fe"/>
          <path id="Trazado_1058004" data-name="Trazado 1058004" d="M809.182,1284.614H750.7l.442-1.577a79.7,79.7,0,0,0,2.732-24.69l-.058-1.262H805.14l-.086,1.287a61.681,61.681,0,0,0,.34,11.755,60.872,60.872,0,0,0,3.052,12.806l.008.021Zm-55.329-2.412h51.794A63.313,63.313,0,0,1,803,1270.427a64.088,64.088,0,0,1-.426-10.93H756.328a82.107,82.107,0,0,1-2.475,22.7" transform="translate(-493.943 -827.541)" fill="#686874"/>
          <path id="Trazado_1058005" data-name="Trazado 1058005" d="M802.96,1335.6v1.254H732.409V1335.6a1.547,1.547,0,0,1,.013-.21,1.672,1.672,0,0,1,1.661-1.464h67.2a1.669,1.669,0,0,1,1.658,1.464,1.145,1.145,0,0,1,.016.21" transform="translate(-481.904 -878.134)" fill="#686874"/>
          <rect id="Rectángulo_421869" data-name="Rectángulo 421869" width="226.627" height="128.207" transform="translate(173.436 272.254)" fill="#f8f8fe"/>
          <path id="Trazado_1058006" data-name="Trazado 1058006" d="M732.327,923.768H503.287V793.149h229.04ZM505.7,921.356H729.915V795.561H505.7Z" transform="translate(-331.057 -522.101)" fill="#4e4e57"/>
          <g id="Grupo_1223849" data-name="Grupo 1223849" transform="translate(339.434 282.192)" opacity="0.37">
            <g id="Grupo_1223848" data-name="Grupo 1223848">
              <g id="Grupo_1223847" data-name="Grupo 1223847" clip-path="url(#clip-path-11)">
                <path id="Trazado_1058007" data-name="Trazado 1058007" d="M1042.884,858.832H994.06a1.348,1.348,0,0,1-1.346-1.346V827.117a1.348,1.348,0,0,1,1.346-1.346h48.824a1.348,1.348,0,0,1,1.346,1.346v30.369a1.348,1.348,0,0,1-1.346,1.346" transform="translate(-992.714 -825.77)" fill="#f2f2fb"/>
              </g>
            </g>
          </g>
          <path id="Trazado_1058008" data-name="Trazado 1058008" d="M1042.257,858.531H993.433a1.673,1.673,0,0,1-1.671-1.672V826.49a1.673,1.673,0,0,1,1.671-1.671h48.824a1.673,1.673,0,0,1,1.671,1.671v30.369a1.674,1.674,0,0,1-1.671,1.672m-48.824-33.062a1.022,1.022,0,0,0-1.021,1.021v30.369a1.022,1.022,0,0,0,1.021,1.021h48.824a1.022,1.022,0,0,0,1.021-1.021V826.49a1.022,1.022,0,0,0-1.021-1.021Z" transform="translate(-652.653 -542.952)" fill="#686874"/>
          <path id="Trazado_1058009" data-name="Trazado 1058009" d="M1051.888,859.753a1.116,1.116,0,0,1-1.114-1.116v-5.909a1.112,1.112,0,0,1,1.57-1.017l6.594,2.949a1.115,1.115,0,0,1,0,2.034l-6.6,2.96a1.106,1.106,0,0,1-.456.1m0-7.873a.849.849,0,0,0-.847.849v5.909a.849.849,0,0,0,.847.849.838.838,0,0,0,.347-.076l6.595-2.959a.847.847,0,0,0,0-1.547l-6.594-2.949a.845.845,0,0,0-.347-.075" transform="translate(-691.505 -560.592)" fill="#686874"/>
          <path id="Trazado_1058010" data-name="Trazado 1058010" d="M1048.674,909.832h-38.059a.869.869,0,0,1-.868-.868V908.4a.869.869,0,0,1,.868-.868h38.059a.869.869,0,0,1,.868.868v.568a.869.869,0,0,1-.868.868M1010.615,908a.393.393,0,0,0-.393.393v.568a.393.393,0,0,0,.393.393h38.059a.393.393,0,0,0,.392-.393V908.4a.393.393,0,0,0-.392-.393Z" transform="translate(-664.494 -597.404)" fill="#686874"/>
          <path id="Trazado_1058011" data-name="Trazado 1058011" d="M993.135,900.069h50.395a.223.223,0,0,0,0-.446h-3.972a.223.223,0,0,0,0,.446h3.972v-.446H993.135a.223.223,0,0,0,0,.446" transform="translate(-653.415 -592.2)" fill="#686874"/>
          <g id="Grupo_1223852" data-name="Grupo 1223852" transform="translate(339.392 320.134)" opacity="0.37">
            <g id="Grupo_1223851" data-name="Grupo 1223851">
              <g id="Grupo_1223850" data-name="Grupo 1223850" clip-path="url(#clip-path-12)">
                <path id="Trazado_1058012" data-name="Trazado 1058012" d="M1042.763,969.89H993.939a1.348,1.348,0,0,1-1.346-1.346V938.174a1.348,1.348,0,0,1,1.346-1.346h48.824a1.348,1.348,0,0,1,1.346,1.346v30.369a1.348,1.348,0,0,1-1.346,1.346" transform="translate(-992.593 -936.829)" fill="#f2f2fb"/>
              </g>
            </g>
          </g>
          <path id="Trazado_1058013" data-name="Trazado 1058013" d="M1042.136,969.588H993.312a1.673,1.673,0,0,1-1.671-1.672V937.547a1.673,1.673,0,0,1,1.671-1.671h48.824a1.673,1.673,0,0,1,1.671,1.671v30.369a1.673,1.673,0,0,1-1.671,1.672m-48.824-33.062a1.022,1.022,0,0,0-1.021,1.021v30.369a1.022,1.022,0,0,0,1.021,1.022h48.824a1.022,1.022,0,0,0,1.021-1.022V937.547a1.022,1.022,0,0,0-1.021-1.021Z" transform="translate(-652.574 -616.068)" fill="#686874"/>
          <path id="Trazado_1058014" data-name="Trazado 1058014" d="M1051.767,970.81a1.116,1.116,0,0,1-1.114-1.116v-5.909a1.112,1.112,0,0,1,1.57-1.017l6.594,2.949a1.115,1.115,0,0,1,0,2.035l-6.595,2.959a1.109,1.109,0,0,1-.457.1m0-7.873a.849.849,0,0,0-.847.849v5.909a.849.849,0,0,0,.847.849.838.838,0,0,0,.347-.075l6.595-2.959a.848.848,0,0,0,0-1.547l-6.595-2.949a.843.843,0,0,0-.347-.075" transform="translate(-691.425 -633.708)" fill="#686874"/>
          <path id="Trazado_1058015" data-name="Trazado 1058015" d="M1048.552,1020.89h-38.059a.869.869,0,0,1-.868-.868v-.568a.869.869,0,0,1,.868-.868h38.059a.869.869,0,0,1,.868.868v.568a.869.869,0,0,1-.868.868m-38.059-1.829a.393.393,0,0,0-.393.393v.568a.393.393,0,0,0,.393.392h38.059a.393.393,0,0,0,.392-.392v-.568a.393.393,0,0,0-.392-.393Z" transform="translate(-664.414 -670.521)" fill="#686874"/>
          <path id="Trazado_1058016" data-name="Trazado 1058016" d="M993.013,1011.125h50.395a.223.223,0,0,0,0-.446h-3.972a.223.223,0,0,0,0,.446h3.972v-.446H993.013a.223.223,0,0,0,0,.446" transform="translate(-653.335 -665.316)" fill="#686874"/>
          <g id="Grupo_1223855" data-name="Grupo 1223855" transform="translate(339.351 358.076)" opacity="0.37">
            <g id="Grupo_1223854" data-name="Grupo 1223854">
              <g id="Grupo_1223853" data-name="Grupo 1223853" clip-path="url(#clip-path-13)">
                <path id="Trazado_1058017" data-name="Trazado 1058017" d="M1042.641,1080.947H993.817a1.348,1.348,0,0,1-1.346-1.346v-30.369a1.348,1.348,0,0,1,1.346-1.346h48.824a1.348,1.348,0,0,1,1.347,1.346V1079.6a1.348,1.348,0,0,1-1.347,1.346" transform="translate(-992.471 -1047.887)" fill="#f2f2fb"/>
              </g>
            </g>
          </g>
          <path id="Trazado_1058018" data-name="Trazado 1058018" d="M1042.014,1080.646H993.19a1.673,1.673,0,0,1-1.671-1.671v-30.369a1.673,1.673,0,0,1,1.671-1.671h48.824a1.673,1.673,0,0,1,1.671,1.671v30.369a1.673,1.673,0,0,1-1.671,1.671m-48.824-33.062a1.022,1.022,0,0,0-1.021,1.021v30.369A1.022,1.022,0,0,0,993.19,1080h48.824a1.022,1.022,0,0,0,1.021-1.021v-30.369a1.022,1.022,0,0,0-1.021-1.021Z" transform="translate(-652.493 -689.185)" fill="#686874"/>
          <path id="Trazado_1058019" data-name="Trazado 1058019" d="M1051.645,1081.868a1.116,1.116,0,0,1-1.114-1.116v-5.909a1.112,1.112,0,0,1,1.57-1.018l6.595,2.949a1.115,1.115,0,0,1,0,2.035l-6.6,2.96a1.109,1.109,0,0,1-.456.1m0-7.873a.849.849,0,0,0-.847.849v5.909a.846.846,0,0,0,1.194.774l6.595-2.96a.847.847,0,0,0,0-1.547l-6.594-2.95a.849.849,0,0,0-.346-.075" transform="translate(-691.345 -706.825)" fill="#686874"/>
          <path id="Trazado_1058020" data-name="Trazado 1058020" d="M1048.431,1131.947h-38.059a.869.869,0,0,1-.868-.868v-.568a.869.869,0,0,1,.868-.868h38.059a.869.869,0,0,1,.869.868v.568a.869.869,0,0,1-.869.868m-38.059-1.829a.393.393,0,0,0-.393.393v.568a.393.393,0,0,0,.393.392h38.059a.393.393,0,0,0,.393-.392v-.568a.393.393,0,0,0-.393-.393Z" transform="translate(-664.334 -743.638)" fill="#686874"/>
          <path id="Trazado_1058021" data-name="Trazado 1058021" d="M992.892,1122.183h50.395a.223.223,0,0,0,0-.446h-3.972a.223.223,0,0,0,0,.446h3.972v-.446H992.892a.223.223,0,0,0,0,.446" transform="translate(-653.255 -738.433)" fill="#686874"/>
          <path id="Trazado_1058022" data-name="Trazado 1058022" d="M678.956,910H524.192V824.269H678.956Zm-153.739-1.025H677.931V825.294H525.217Z" transform="translate(-344.821 -542.59)" fill="#686874"/>
          <path id="Trazado_1058023" data-name="Trazado 1058023" d="M956.124,943.6a9.091,9.091,0,0,1,1.554-4.187l2.344-4.077c-1.525-.266-2.855,1.138-3.41,2.583s-.673,3.06-1.455,4.395c-1.378,2.354-4.39,3.2-6.229,5.21-2.122,2.322-2.344,5.761-2.356,8.906a6.87,6.87,0,0,1-.838,4.038c-.767,1.071-2.106,1.611-2.9,2.661a6.7,6.7,0,0,0-.923,4.248,64.644,64.644,0,0,0,.766,8.719l.211.125c1.147.012,1.356-1.673,2.21-2.438a4.394,4.394,0,0,1,1.842-.728,7.189,7.189,0,0,0,5.112-6.488c.053-1.507-.347-3.161.476-4.424a5.752,5.752,0,0,1,2.007-1.609c1.961-1.172,3.892-2.7,4.611-4.869a8.752,8.752,0,0,0-.938-6.569c-.895-1.768-2.122-3.513-2.08-5.494" transform="translate(-619.827 -615.693)" fill="#f283cb"/>
          <path id="Trazado_1058024" data-name="Trazado 1058024" d="M876.234,999.85a5.159,5.159,0,0,0-1.189-2.917,3.814,3.814,0,0,0-.911-1.043,4.485,4.485,0,0,0-1.425-.535c-2.692-.732-5.294-2.656-5.826-5.394-.323-1.664.089-3.6-.993-4.9-1.156-1.392-3.324-1.236-4.943-2.046a4.407,4.407,0,0,1-2.3-2.95c-.075-.343-.292-.809-.617-.675a.521.521,0,0,0-.216.21,5.4,5.4,0,0,0-.213,4.625,5.559,5.559,0,0,0,1.129,2.124c.9.961,2.246,1.331,3.375,2.006a5.575,5.575,0,0,1,2.685,6.161c-.255.8-.731,1.514-.912,2.329a3.859,3.859,0,0,0,1.008,3.4,5.127,5.127,0,0,0,3.275,1.514,1.769,1.769,0,0,1,1.142.34c.476.48.144,1.274.1,1.948-.112,1.564,1.423,2.687,2.779,3.475s2.9,1.884,2.825,3.45l.322-.9c-.225-2.807-.441-5.7.436-8.377a6.735,6.735,0,0,0,.474-1.841" transform="translate(-564.057 -644.698)" fill="#f283cb"/>
          <path id="Trazado_1058025" data-name="Trazado 1058025" d="M957.667,937.661a23.967,23.967,0,0,0-5.044,10.193c-.193.94-.3,1.81-.4,2.652a23.213,23.213,0,0,1-1.263,5.673,25.523,25.523,0,0,1-2.867,5.519c-.089.136-.174.264-.253.386A45.292,45.292,0,0,0,942,976.946l-.138.625-1.4,6.394h-.443l1.427-6.492.136-.62a45.664,45.664,0,0,1,5.891-15c.079-.125.163-.253.253-.391a24.693,24.693,0,0,0,2.823-5.429,22.673,22.673,0,0,0,1.239-5.579c.106-.848.215-1.728.41-2.685a21.232,21.232,0,0,1,.837-2.948,23.961,23.961,0,0,1,1.856-3.921,29.341,29.341,0,0,1,2.438-3.511Z" transform="translate(-618.587 -617.063)" fill="#686874"/>
          <path id="Trazado_1058026" data-name="Trazado 1058026" d="M877.221,1016.864q.509.751.962,1.527h-.506c-.217-.37-.448-.734-.687-1.09-.052-.079-.1-.155-.155-.231l-.027-.04-.008-.049a22.946,22.946,0,0,0-2.649-7.44,25.738,25.738,0,0,0-2.271-3.543,25.135,25.135,0,0,1-2.71-4.427,22.838,22.838,0,0,1-1.32-3.329,12.886,12.886,0,0,0-.513-1.415s-.25-.53-.59-1.1c-.737-1.225-3.117-3.456-6.785-5.676l.225-.372c3.986,2.413,6.225,4.647,6.932,5.826.353.59.6,1.12.612,1.142a13.146,13.146,0,0,1,.535,1.465,21.8,21.8,0,0,0,1.3,3.274,24.465,24.465,0,0,0,2.669,4.356,26.075,26.075,0,0,1,2.3,3.6,23.7,23.7,0,0,1,2.56,6.821c.046.231.09.465.128.7" transform="translate(-565.88 -651.489)" fill="#686874"/>
          <path id="Trazado_1058027" data-name="Trazado 1058027" d="M907.314,915.016a18.4,18.4,0,0,1,1.793-3.456,11.616,11.616,0,0,0-2.552-13.831,17.943,17.943,0,0,1-2.827-2.523,5.2,5.2,0,0,1,1.447-7.286,12.6,12.6,0,0,0-4.782,4.156,6.424,6.424,0,0,0-.562,6.107,10.017,10.017,0,0,1,1,2.029,4.961,4.961,0,0,1-.755,3.25,32.776,32.776,0,0,0-3.212,7.786c-.576,2.757-.229,5.869,1.637,7.978a7.609,7.609,0,0,1,1.56,1.941,3.76,3.76,0,0,1,.23,1.491c-.027,2.169-.894,4.259-.953,6.427-.1,3.824,2.266,7.221,4.532,10.3l.976.165a17.815,17.815,0,0,0,4.835-8.384,16.554,16.554,0,0,0-1-8.755c-.866-2.4-2.073-4.941-1.37-7.4" transform="translate(-590.009 -584.495)" fill="#f283cb"/>
          <path id="Trazado_1058028" data-name="Trazado 1058028" d="M913.59,963.081h-.435l-.888-11.8c-.008-.049-.016-.1-.025-.145-2.035-11.893-2.511-20.5-1.408-25.581.755-3.475.8-5.886.88-10.682a13.85,13.85,0,0,0-.544-4.361,13.67,13.67,0,0,0-2.4-4.574l.34-.269a14.092,14.092,0,0,1,2.473,4.717,14.28,14.28,0,0,1,.562,4.492c-.084,4.828-.125,7.25-.891,10.768-1.1,5.038-.612,13.641,1.437,25.564,0,.005,0,.009,0,.014Z" transform="translate(-598.017 -596.179)" fill="#686874"/>
          <path id="Trazado_1058029" data-name="Trazado 1058029" d="M662.448,872.334a22.359,22.359,0,1,0,29.568-11.219,22.36,22.36,0,0,0-29.568,11.219" transform="translate(-434.545 -565.549)" fill="#907dff"/>
          <path id="Trazado_1058030" data-name="Trazado 1058030" d="M702.471,791.231a9.207,9.207,0,1,0,13.009-.55,9.207,9.207,0,0,0-13.009.55" transform="translate(-460.596 -518.878)" fill="#bdb6ff"/>
          <path id="Trazado_1058031" data-name="Trazado 1058031" d="M701.76,1027.794a16.493,16.493,0,0,1-.126,2.027H652.191a16.482,16.482,0,0,1-.124-2.027c0-.486.023-.968.064-1.446.917-10.425,11.663-18.648,24.781-18.648a30.228,30.228,0,0,1,7.379.9c10.118,2.539,17.468,10.172,17.468,19.192" transform="translate(-429.009 -663.354)" fill="#765ae6"/>
          <path id="Trazado_1058032" data-name="Trazado 1058032" d="M736.2,1031.519H702.24q-.247-.97-.492-1.938a17.885,17.885,0,0,1,4.5-14,15.724,15.724,0,0,1,10.4-5.266c.093-.006.186-.013.278-.017,7.06-.379,14.077,4.529,16.513,12.151q1.381,4.532,2.756,9.068" transform="translate(-461.646 -665.053)" fill="#765ae6"/>
          <path id="Trazado_1058033" data-name="Trazado 1058033" d="M749.129,807.166c-.251,1.321.263,2.528,1.148,2.7s1.807-.766,2.058-2.086-.262-2.528-1.148-2.7-1.807.766-2.058,2.086" transform="translate(-492.87 -529.943)" fill="#bdb6ff"/>
          <path id="Trazado_1058034" data-name="Trazado 1058034" d="M699.124,807.166c.251,1.321-.263,2.528-1.148,2.7s-1.807-.766-2.058-2.086.263-2.528,1.148-2.7,1.807.766,2.058,2.086" transform="translate(-457.837 -529.943)" fill="#bdb6ff"/>
          <path id="Trazado_1058035" data-name="Trazado 1058035" d="M768.344,942.382a6.611,6.611,0,0,1-3.786-2.272,13.194,13.194,0,0,1-1.514-3.281c-.311-.782-.767-1.931-1.325-3.344q-.127,7.856-.252,15.713a18.315,18.315,0,0,0,6.878-6.815" transform="translate(-501.034 -614.493)" fill="#746ad3"/>
          <path id="Trazado_1058036" data-name="Trazado 1058036" d="M716.513,792.457l1.672-2.651a6.942,6.942,0,0,0-1.96-5.245c-.26-.254-2.055-2-4.035-1.844a7.026,7.026,0,0,1-1.672.057,7.684,7.684,0,0,1-1.9-.518,5.575,5.575,0,0,0-3.574.346c-2.09.733-4.789,2.817-4.784,5.534a4.662,4.662,0,0,0,.692,2.363l1.268,1.96.749-3.285a12.692,12.692,0,0,1,12.162-.346l1.383,3.632" transform="translate(-460.737 -514.813)"/>
          <path id="Trazado_1058037" data-name="Trazado 1058037" d="M554.3,892.015l30.7-20.87a54.65,54.65,0,0,1,19.8-1.284c1.835.224,3.569.532,5.2.9L602.9,892.6l-31.235,16.339c-12.351,3.69-22.023-.09-23.481-5.108-1.471-5.065,5.469-11.257,6.114-11.82" transform="translate(-360.485 -572.352)" fill="#907dff"/>
          <path id="Trazado_1058038" data-name="Trazado 1058038" d="M736.507,1048.022h-9.3v-12.676l9.3,12.676" transform="translate(-478.477 -681.556)" fill="#7156db"/>
          <path id="Trazado_1058039" data-name="Trazado 1058039" d="M646.638,885.792l-3.878,18.153a.8.8,0,0,0,1.568.335l3.877-18.153a.8.8,0,0,0-1.567-.335" transform="translate(-422.869 -582.693)" fill="#b8b1fc"/>
          <path id="Trazado_1058040" data-name="Trazado 1058040" d="M600.826,901.8l-1.89,8.848a.8.8,0,0,0,1.567.335l1.89-8.847a.8.8,0,0,0-1.567-.335" transform="translate(-394.016 -593.232)" fill="#b8b1fc"/>
          <path id="Trazado_1058041" data-name="Trazado 1058041" d="M719.1,1009.515c-1.1-5.955-2.1-10.305-2.492-11.753a7.761,7.761,0,0,0-1.379-2.9,6.2,6.2,0,0,0-.437-.493h-.008v-.156a.724.724,0,0,0-.677-.764h-2.691a.724.724,0,0,0-.677.764v.156h-.038a2.2,2.2,0,0,1-.653.155,2.339,2.339,0,0,1-.934-.286h0v0h-9.763v0a2.335,2.335,0,0,1-.934.286,2.2,2.2,0,0,1-.653-.155h-.038v-.156a.724.724,0,0,0-.677-.764h-2.691a.724.724,0,0,0-.677.764v.156h-.007a6.118,6.118,0,0,0-.438.493,7.763,7.763,0,0,0-1.379,2.9c-.391,1.448-1.387,5.8-2.492,11.753a3.425,3.425,0,0,0,2.022,3.57,2.546,2.546,0,0,0,1.044.148,2.9,2.9,0,0,0,2.575-1.359l2.339-5.91.482-.052h.313a2.3,2.3,0,0,0,1.689.766c.057,0,.114,0,.17-.007s.112.007.17.007a2.3,2.3,0,0,0,1.689-.766H706.5a2.3,2.3,0,0,0,1.689.766c.057,0,.114,0,.17-.007s.112.007.169.007a2.3,2.3,0,0,0,1.689-.766h.426l.483.052,2.339,5.91a2.9,2.9,0,0,0,2.575,1.359,2.547,2.547,0,0,0,1.044-.148,3.424,3.424,0,0,0,2.022-3.57" transform="translate(-453.559 -653.971)" fill="#4e4e57"/>
          <path id="Trazado_1058042" data-name="Trazado 1058042" d="M610.474,938.449l6.161,5.01a.8.8,0,0,0,1.022-1.234l-6.161-5.01a.8.8,0,0,0-1.023,1.234" transform="translate(-401.434 -616.828)" fill="#c1bafc"/>
          <path id="Trazado_1058043" data-name="Trazado 1058043" d="M650.239,985.806a28.71,28.71,0,0,0,3.723,2.6l-2.989,7.9c-6.537,2.232-12.6-.952-13.752-5.1-1.372-4.94,4.282-10.991,7.4-10.513,1.586.243,1.942,2.084,5.616,5.114" transform="translate(-419.096 -645.555)" fill="#bdb6ff"/>
          <path id="Trazado_1058044" data-name="Trazado 1058044" d="M675.684,1002.635a11.835,11.835,0,0,0,3.506,3.716c1.405.946,4.332,2.918,7.246,1.721,2.777-1.141,4.508-4.734,3.623-6.793-.493-1.149-1.465-1.04-5.435-3.714-2.667-1.8-3.126-2.451-3.079-3.079.073-.994,1.434-2.241,2.626-2.717a3.933,3.933,0,0,0,1.45-.906,1.93,1.93,0,0,0,.543-.906,1.477,1.477,0,0,0,0-.815c-.378-.8-3.8-.665-6.522.906a9.867,9.867,0,0,0-3.631,3.69,10.889,10.889,0,0,0-.327,8.9" transform="translate(-444.023 -650.818)" fill="#bdb6ff"/>
          <path id="Trazado_1058045" data-name="Trazado 1058045" d="M702.342,1028.328a7.253,7.253,0,0,0,5.678,1.759c.541-.094.312-.917-.227-.823a6.521,6.521,0,0,1-5.02-1.673c-.439-.331-.865.411-.431.738" transform="translate(-461.989 -676.395)" fill="#907dff"/>
          <path id="Trazado_1058046" data-name="Trazado 1058046" d="M698.911,1038.573a9.51,9.51,0,0,0,5.11,1.03c.544-.042.549-.9,0-.854a8.655,8.655,0,0,1-4.679-.914c-.489-.248-.922.488-.431.738" transform="translate(-459.708 -683.161)" fill="#907dff"/>
          <path id="Trazado_1058047" data-name="Trazado 1058047" d="M588.764,956.709l-7.88,21.331L546,961.838c-.413-.324-5.644-4.581-5.063-11.379a12.409,12.409,0,0,1,7.88-10.734,12.2,12.2,0,0,1,12.228,2.581l27.717,14.4" transform="translate(-355.816 -618.16)" fill="#9887ff"/>
          <path id="Trazado_1058048" data-name="Trazado 1058048" d="M567.1,977.421l9.717-7.579a.8.8,0,0,0-.986-1.264l-9.716,7.579a.8.8,0,0,0,.986,1.264" transform="translate(-372.219 -637.484)" fill="#c1bafc"/>
          <path id="Trazado_1058049" data-name="Trazado 1058049" d="M647.708,979.155l4.92-3.837a.8.8,0,0,0-.986-1.264l-4.92,3.837a.8.8,0,0,0,.986,1.264" transform="translate(-425.29 -641.089)" fill="#c1bafc"/>
          <path id="Trazado_1058050" data-name="Trazado 1058050" d="M631.664,1017.409l6.161,5.01a.8.8,0,0,0,1.022-1.234l-6.161-5.01a.8.8,0,0,0-1.022,1.234" transform="translate(-415.385 -668.813)" fill="#c1bafc"/>
          <path id="Trazado_1058051" data-name="Trazado 1058051" d="M793.152,892.015l-30.7-20.87a54.65,54.65,0,0,0-19.8-1.284c-1.835.224-3.569.532-5.2.9L744.55,892.6l31.234,16.339c12.351,3.69,22.023-.09,23.481-5.108,1.471-5.065-5.469-11.257-6.114-11.82" transform="translate(-485.227 -572.352)" fill="#907dff"/>
          <path id="Trazado_1058052" data-name="Trazado 1058052" d="M809.752,885.792l3.878,18.153a.8.8,0,0,1-1.567.335l-3.877-18.153a.8.8,0,0,1,1.567-.335" transform="translate(-531.779 -582.693)" fill="#b8b1fc"/>
          <path id="Trazado_1058053" data-name="Trazado 1058053" d="M859.392,901.8l1.89,8.848a.8.8,0,0,1-1.567.335l-1.89-8.847a.8.8,0,0,1,1.567-.335" transform="translate(-564.46 -593.232)" fill="#b8b1fc"/>
          <path id="Trazado_1058054" data-name="Trazado 1058054" d="M841.519,938.449l-6.161,5.01a.8.8,0,0,1-1.023-1.234l6.161-5.01a.8.8,0,0,1,1.022,1.234" transform="translate(-548.817 -616.828)" fill="#c1bafc"/>
          <path id="Trazado_1058055" data-name="Trazado 1058055" d="M784.051,985.806a28.718,28.718,0,0,1-3.723,2.6l2.989,7.9c6.537,2.232,12.6-.952,13.752-5.1,1.372-4.94-4.282-10.991-7.4-10.513-1.586.243-1.942,2.084-5.616,5.114" transform="translate(-513.452 -645.555)" fill="#bdb6ff"/>
          <path id="Trazado_1058056" data-name="Trazado 1058056" d="M761.56,1002.635a11.836,11.836,0,0,1-3.506,3.716c-1.405.946-4.332,2.918-7.246,1.721-2.777-1.141-4.507-4.734-3.623-6.793.493-1.149,1.465-1.04,5.435-3.714,2.667-1.8,3.126-2.451,3.08-3.079-.073-.994-1.434-2.241-2.626-2.717a3.934,3.934,0,0,1-1.45-.906,1.929,1.929,0,0,1-.543-.906,1.476,1.476,0,0,1,0-.815c.378-.8,3.8-.665,6.521.906a9.866,9.866,0,0,1,3.631,3.69,10.889,10.889,0,0,1,.327,8.9" transform="translate(-491.479 -650.818)" fill="#bdb6ff"/>
          <path id="Trazado_1058057" data-name="Trazado 1058057" d="M752.3,1027.591c-1.467,1.107-3.123,2-5.02,1.673-.538-.093-.768.73-.227.824a7.259,7.259,0,0,0,5.678-1.759c.433-.327.008-1.069-.431-.738" transform="translate(-491.342 -676.395)" fill="#907dff"/>
          <path id="Trazado_1058058" data-name="Trazado 1058058" d="M756.563,1037.836a8.666,8.666,0,0,1-4.679.914c-.548-.043-.545.812,0,.854a9.511,9.511,0,0,0,5.111-1.03c.49-.249.058-.986-.431-.738" transform="translate(-494.456 -683.162)" fill="#907dff"/>
          <path id="Trazado_1058059" data-name="Trazado 1058059" d="M785.945,956.709l7.88,21.331,34.882-16.2c.413-.324,5.644-4.581,5.064-11.379a12.409,12.409,0,0,0-7.881-10.734,12.2,12.2,0,0,0-12.228,2.581l-27.716,14.4" transform="translate(-517.15 -618.16)" fill="#9887ff"/>
          <path id="Trazado_1058060" data-name="Trazado 1058060" d="M878.064,977.421l-9.717-7.579a.8.8,0,0,1,.986-1.264l9.716,7.579a.8.8,0,0,1-.986,1.264" transform="translate(-571.201 -637.484)" fill="#c1bafc"/>
          <path id="Trazado_1058061" data-name="Trazado 1058061" d="M806.7,979.155l-4.92-3.837a.8.8,0,0,1,.986-1.264l4.92,3.837a.8.8,0,0,1-.986,1.264" transform="translate(-527.374 -641.089)" fill="#c1bafc"/>
          <path id="Trazado_1058062" data-name="Trazado 1058062" d="M820.329,1017.409l-6.161,5.01a.8.8,0,0,1-1.023-1.234l6.161-5.01a.8.8,0,0,1,1.022,1.234" transform="translate(-534.866 -668.813)" fill="#c1bafc"/>
          <path id="Trazado_1058063" data-name="Trazado 1058063" d="M696.73,785.118a11.362,11.362,0,0,1,5.762-7.379,11.215,11.215,0,0,1,6.132-1.33,10.446,10.446,0,0,1,6.077,2.684,11.411,11.411,0,0,1,3.484,6.306.673.673,0,0,1-.472.809.684.684,0,0,1-.831-.459,9.729,9.729,0,0,0-7.6-7.934,9.547,9.547,0,0,0-5.715.866,11.852,11.852,0,0,0-1.626.938c-.08.055-.158.113-.236.169-.1.07.118-.094-.035.027a10.926,10.926,0,0,0-1.3,1.2,9.965,9.965,0,0,0-2.333,4.455c-.2.824-1.5.475-1.3-.35" transform="translate(-458.4 -511.055)" fill="#f7f7fe"/>
          <path id="Trazado_1058064" data-name="Trazado 1058064" d="M717.317,786.121a.759.759,0,0,0,.2-.025.79.79,0,0,0,.558-.943,11.509,11.509,0,0,0-3.52-6.37,10.64,10.64,0,0,0-6.148-2.715,11.64,11.64,0,0,0-12.022,8.8.734.734,0,0,0,.139.649.9.9,0,0,0,.683.315h0a.705.705,0,0,0,.715-.561,9.853,9.853,0,0,1,2.306-4.4,10.7,10.7,0,0,1,1.286-1.187l.114-.083.151-.107a11.766,11.766,0,0,1,1.609-.929,9.838,9.838,0,0,1,4.2-.984,8.044,8.044,0,0,1,1.44.127,9.651,9.651,0,0,1,7.508,7.84.781.781,0,0,0,.785.576m-9.775-9.857c.281,0,.563.013.839.038a10.4,10.4,0,0,1,6.006,2.653,11.275,11.275,0,0,1,3.447,6.241.557.557,0,0,1-.385.675.569.569,0,0,1-.681-.368,9.891,9.891,0,0,0-7.7-8.028,8.3,8.3,0,0,0-1.484-.131,10.08,10.08,0,0,0-4.306,1.007,11.939,11.939,0,0,0-1.643.948l-.155.11-.046.033a.246.246,0,0,0-.078.058,10.936,10.936,0,0,0-1.313,1.212,10.083,10.083,0,0,0-2.36,4.506.468.468,0,0,1-.481.38.649.649,0,0,1-.494-.226.5.5,0,0,1-.093-.45,11.185,11.185,0,0,1,5.7-7.3,11.4,11.4,0,0,1,5.225-1.353" transform="translate(-458.169 -510.831)" fill="#686874"/>
          <path id="Trazado_1058065" data-name="Trazado 1058065" d="M754.031,802.9v5.317a.936.936,0,0,0,.948.923,2.456,2.456,0,0,0,.479-.047,2.313,2.313,0,0,0,1.88-2.25v-2.569a2.313,2.313,0,0,0-1.88-2.25,2.456,2.456,0,0,0-.479-.048.958.958,0,0,0-.671.271.908.908,0,0,0-.278.653" transform="translate(-496.139 -527.915)" fill="#f7f7fe"/>
          <path id="Trazado_1058066" data-name="Trazado 1058066" d="M754.748,809.034a2.592,2.592,0,0,0,.5-.05,2.439,2.439,0,0,0,1.976-2.364v-2.569a2.439,2.439,0,0,0-1.976-2.364,2.569,2.569,0,0,0-.5-.05,1.077,1.077,0,0,0-.756.3,1.021,1.021,0,0,0-.313.736v5.316a1.056,1.056,0,0,0,1.069,1.04m0-7.163a2.306,2.306,0,0,1,.455.045,2.2,2.2,0,0,1,1.784,2.135v2.569a2.2,2.2,0,0,1-1.784,2.135,2.348,2.348,0,0,1-.455.045.818.818,0,0,1-.828-.806v-5.316a.789.789,0,0,1,.242-.57.833.833,0,0,1,.586-.236" transform="translate(-495.907 -527.689)" fill="#686874"/>
          <path id="Trazado_1058067" data-name="Trazado 1058067" d="M694.469,802.9v5.317a.936.936,0,0,1-.948.923,2.463,2.463,0,0,1-.48-.047,2.314,2.314,0,0,1-1.88-2.25v-2.569a2.314,2.314,0,0,1,1.88-2.25,2.463,2.463,0,0,1,.48-.048.958.958,0,0,1,.671.271.908.908,0,0,1,.278.653" transform="translate(-454.747 -527.915)" fill="#f7f7fe"/>
          <path id="Trazado_1058068" data-name="Trazado 1058068" d="M693.289,809.034a1.056,1.056,0,0,0,1.069-1.04v-5.316a1.02,1.02,0,0,0-.313-.736,1.077,1.077,0,0,0-.756-.3,2.574,2.574,0,0,0-.5.05,2.439,2.439,0,0,0-1.976,2.364v2.569a2.439,2.439,0,0,0,1.976,2.364,2.6,2.6,0,0,0,.5.05m0-7.163a.833.833,0,0,1,.586.236.79.79,0,0,1,.243.57v5.316a.818.818,0,0,1-.828.806,2.351,2.351,0,0,1-.455-.045,2.2,2.2,0,0,1-1.784-2.135v-2.569a2.2,2.2,0,0,1,1.784-2.135,2.306,2.306,0,0,1,.455-.045" transform="translate(-454.516 -527.689)" fill="#686874"/>
          <path id="Trazado_1058069" data-name="Trazado 1058069" d="M693.041,785.16c.028.009.054.02.081.031l-.045-.08a12.2,12.2,0,0,1,5.763-7.38,10.764,10.764,0,0,1,6.132-1.329,10.613,10.613,0,0,1,6.077,2.684,10.856,10.856,0,0,1,3.468,6.211,2.3,2.3,0,0,1,1.431,2.112v2.569a2.314,2.314,0,0,1-1.879,2.25.925.925,0,0,1-.648-.876v-5.316a.909.909,0,0,1,.277-.653.97.97,0,0,1,.189-.141,10.516,10.516,0,0,0-8.515-8.071,10.817,10.817,0,0,0-11.8,8.422.9.9,0,0,1,.116.443v5.316a.925.925,0,0,1-.648.876,2.314,2.314,0,0,1-1.88-2.25v-2.569a2.314,2.314,0,0,1,1.88-2.25" transform="translate(-454.747 -511.048)" fill="#e65aa1"/>
          <path id="Trazado_1058070" data-name="Trazado 1058070" d="M692.816,792.123l.03-.01a1.041,1.041,0,0,0,.731-.987V785.81a1.02,1.02,0,0,0-.11-.459,10.748,10.748,0,0,1,10.289-8.388,9.489,9.489,0,0,1,1.363.1,10.4,10.4,0,0,1,8.4,7.9,1.111,1.111,0,0,0-.137.112,1.021,1.021,0,0,0-.313.736v5.317a1.041,1.041,0,0,0,.731.987l.03.01.032-.006a2.439,2.439,0,0,0,1.976-2.365v-2.569a2.409,2.409,0,0,0-1.444-2.194,10.949,10.949,0,0,0-3.495-6.216,10.7,10.7,0,0,0-6.147-2.714c-.312-.028-.627-.043-.939-.043a11,11,0,0,0-5.262,1.386,12.251,12.251,0,0,0-5.814,7.427,2.438,2.438,0,0,0-1.927,2.354v2.569a2.439,2.439,0,0,0,1.976,2.365Zm10.941-15.4a10.99,10.99,0,0,0-10.533,8.613l-.01.043.022.038a.79.79,0,0,1,.1.387v5.317a.8.8,0,0,1-.536.754,2.2,2.2,0,0,1-1.751-2.128v-2.569a2.2,2.2,0,0,1,1.75-2.128l.042.017.326.139-.194-.342a12.01,12.01,0,0,1,5.692-7.262,10.767,10.767,0,0,1,5.145-1.357c.3,0,.613.014.917.042a10.457,10.457,0,0,1,6.007,2.654,10.72,10.72,0,0,1,3.43,6.144l.011.063.06.025a2.178,2.178,0,0,1,1.359,2v2.569a2.2,2.2,0,0,1-1.752,2.128.8.8,0,0,1-.536-.754V785.81a.791.791,0,0,1,.242-.57.859.859,0,0,1,.166-.124l.075-.043-.02-.083a10.64,10.64,0,0,0-8.615-8.16,9.685,9.685,0,0,0-1.4-.1" transform="translate(-454.516 -510.821)" fill="#686874"/>
          <path id="Trazado_1058071" data-name="Trazado 1058071" d="M696.043,818.973a19.4,19.4,0,0,0,6.026,6.773c.264.186-.05.573-.314.387a19.94,19.94,0,0,1-6.181-6.972c-.15-.283.32-.467.469-.187" transform="translate(-457.634 -539.011)"/>
          <path id="Trazado_1058072" data-name="Trazado 1058072" d="M713.782,839.711l2.846.484a1.06,1.06,0,0,0,1.226-.839,1.037,1.037,0,0,0-.862-1.193l-2.846-.484a1.06,1.06,0,0,0-1.226.839,1.037,1.037,0,0,0,.861,1.193" transform="translate(-469.063 -551.408)"/>
          <path id="Trazado_1058073" data-name="Trazado 1058073" d="M992.664,624.1l-8.523-6.354c-.521-1.711-.272-3.326.7-4.081a2.189,2.189,0,0,1,.882-.406,27,27,0,0,1,3.591,1.383,27.475,27.475,0,0,1,7.552,5.272l-4.2,4.185" transform="translate(-647.46 -403.666)" fill="#f9abff"/>
          <path id="Trazado_1058074" data-name="Trazado 1058074" d="M989.968,625.9l11.337,6.494c4.436,3.4,9.839,2.048,11.3-.7,1.231-2.309.075-6.348-3.429-8.824l-16.089-8.878q-1.562,5.953-3.123,11.907" transform="translate(-651.472 -404.151)" fill="#de6ae6"/>
          <path id="Trazado_1058075" data-name="Trazado 1058075" d="M829.486,751.062l38.228.031.007-9.009c-2.055-1.018-15.843-7.563-28.767-.023a29.686,29.686,0,0,0-9.468,9" transform="translate(-545.816 -486.108)" fill="#f9b5ff"/>
          <path id="Trazado_1058076" data-name="Trazado 1058076" d="M917.472,641.442l-19.05,27.327-23.735-5.778,24.389-36.471a11.972,11.972,0,0,1,18.4,14.922" transform="translate(-575.574 -410.363)" fill="#ae54dd"/>
          <path id="Trazado_1058077" data-name="Trazado 1058077" d="M1001.435,653.136,969.1,630.444a11.33,11.33,0,0,0-5.133.958,9.749,9.749,0,0,0-4.808,4.084c-3.831,7.422,5.679,19.05,5.685,19.056l.018.021.008.009.034.039a1.71,1.71,0,0,1,.271.516c.051.177,3.786,4.459,15.656,17.777a14.284,14.284,0,0,0,20.606-19.768" transform="translate(-630.589 -414.973)" fill="#ae54dd"/>
          <path id="Trazado_1058078" data-name="Trazado 1058078" d="M1010.858,700.365l-28.389,3.378c-.747.089-.74-1.083,0-1.171l28.389-3.378c.747-.089.74,1.083,0,1.171" transform="translate(-646.167 -460.241)" fill="#686874"/>
          <path id="Trazado_1058079" data-name="Trazado 1058079" d="M951.478,669.408l-15.215-21.149c-.441-.613.575-1.2,1.011-.591l15.215,21.149c.441.613-.575,1.2-1.011.591" transform="translate(-616.043 -426.153)" fill="#686874"/>
          <path id="Trazado_1058080" data-name="Trazado 1058080" d="M1046.864,671.048l-16.845,7.3-2.342-4.743,11.223-8.257,7.964,5.7" transform="translate(-676.298 -437.962)" fill="#f9abff"/>
          <path id="Trazado_1058081" data-name="Trazado 1058081" d="M1012.766,693.512l-11.269,1.573a5.9,5.9,0,0,1,5.012-6.674l5.959.534q.149,2.283.3,4.566" transform="translate(-659.024 -453.146)" fill="#f9abff"/>
          <path id="Trazado_1058082" data-name="Trazado 1058082" d="M1010.247,698.186l-.275-.013c.084-1.774.781-3.367,1.694-3.874a5.669,5.669,0,0,1,1.636-.538,5.033,5.033,0,0,1,.585-.058l.012.274a4.88,4.88,0,0,0-.554.055,5.492,5.492,0,0,0-1.546.507c-.682.379-1.46,1.683-1.552,3.648" transform="translate(-664.642 -456.629)" fill="#de6ae6"/>
          <path id="Trazado_1058083" data-name="Trazado 1058083" d="M1004.281,697.351l-.275.009a6.042,6.042,0,0,1,.941-3.562,4.047,4.047,0,0,1,1.233-1.175,3.9,3.9,0,0,1,1.018-.429l.07.265a3.623,3.623,0,0,0-.946.4,3.8,3.8,0,0,0-1.153,1.1,5.76,5.76,0,0,0-.889,3.393" transform="translate(-660.712 -455.636)" fill="#de6ae6"/>
          <path id="Trazado_1058084" data-name="Trazado 1058084" d="M1049.4,595.016a12.407,12.407,0,0,0-6.012,1.327c-4.107,2.127-5.735,6.138-6.793,8.744a23.131,23.131,0,0,0-1.657,7.634l9.393,4.83,9-7.1c2.6-2.046,5.86-7.569,3.911-11.471-1.743-3.491-7.005-3.91-7.846-3.966" transform="translate(-681.08 -391.654)" fill="#de6ae6"/>
          <path id="Trazado_1058085" data-name="Trazado 1058085" d="M1074.7,629.46a16.181,16.181,0,0,1-6.994-5.689q1.253,4.691,2.506,9.382l4.487-3.693" transform="translate(-702.654 -410.588)" fill="#c158c8"/>
          <path id="Trazado_1058086" data-name="Trazado 1058086" d="M1070.922,602.754a13.83,13.83,0,1,1-17.83-8.039,13.83,13.83,0,0,1,17.83,8.039" transform="translate(-687.146 -390.866)" fill="#e970f2"/>
          <path id="Trazado_1058087" data-name="Trazado 1058087" d="M955.68,725.943l32.779-.331c5.909-4.031,8.516-11.016,6.619-16.943-1.9-5.953-7.563-8.373-8.474-8.745l-42.629,5.934a10.5,10.5,0,0,0-4.985,6.06,10.1,10.1,0,0,0,.179,6.041c.041.111.077.2.1.261,1.941,4.832,8.493,7.837,16.409,7.724" transform="translate(-617.659 -460.724)" fill="#c166f2"/>
          <path id="Trazado_1058088" data-name="Trazado 1058088" d="M969.074,716.732l23.332-4.459-.585-.373a4.758,4.758,0,0,0,3.961,4.51,4.863,4.863,0,0,0,5.207-2.526c.229-.463-.562-.846-.791-.382-1.679,3.391-7.486,2.482-7.515-1.635,0-.286-.344-.419-.586-.373l-23.333,4.459c-.539.1-.227.881.308.779" transform="translate(-637.329 -468.337)" fill="#9c3fcc"/>
          <path id="Trazado_1058089" data-name="Trazado 1058089" d="M1066.279,543.153a7.12,7.12,0,0,0,4.177,8.646,6.09,6.09,0,0,0,7.886-4.337,7.121,7.121,0,0,0-4.177-8.646,6.09,6.09,0,0,0-7.886,4.337" transform="translate(-701.528 -354.426)" fill="#f9abff"/>
          <path id="Trazado_1058090" data-name="Trazado 1058090" d="M1067.662,540.644a27.744,27.744,0,0,1,2.363,2.083,28.7,28.7,0,0,1,2.738,3.129c.592,2.279,1.816,4.136,3.286,4.393,2.384.416,5.028-3.444,4.726-6.821-.317-3.54-3.77-5.41-4.811-5.973a5.816,5.816,0,0,0-4.027-.863c-2.85.582-4.117,3.652-4.276,4.052" transform="translate(-702.623 -353.132)"/>
          <path id="Trazado_1058091" data-name="Trazado 1058091" d="M1080.312,559.238a1.552,1.552,0,0,0,.747,1.928,1.329,1.329,0,0,0,1.608-1.087,1.552,1.552,0,0,0-.747-1.928,1.329,1.329,0,0,0-1.608,1.087" transform="translate(-710.901 -367.348)" fill="#f9abff"/>
          <path id="Trazado_1058092" data-name="Trazado 1058092" d="M988.522,862.217l26.414-27.635-6.513-6.225c-2.155.784-16.409,6.241-19.877,20.8a29.688,29.688,0,0,0-.025,13.064" transform="translate(-650.047 -545.281)" fill="#f9b5ff"/>
          <path id="Trazado_1058093" data-name="Trazado 1058093" d="M924.259,733.464q8.745,13.727,17.483,27.459c.12.185.237.37.354.555l4.582,7.2q9.852-6.687,19.7-13.37-11.513-17.68-23.029-35.359a12.226,12.226,0,0,0-19.09,13.52" transform="translate(-607.825 -472.239)" fill="#c166f2"/>
          <path id="Trazado_1058094" data-name="Trazado 1058094" d="M976.564,822.768c.12.185.237.37.354.555L994.44,811.9l-.358-.553Z" transform="translate(-642.647 -534.083)" fill="#9c3fcc"/>
          <rect id="Rectángulo_421873" data-name="Rectángulo 421873" width="13.527" height="0.659" transform="translate(338.257 289.407) rotate(-33.554)" fill="#9c3fcc"/>
          <path id="Trazado_1058095" data-name="Trazado 1058095" d="M1033.162,621.525l6.324,13.117,19.428-9.508,5.217-18.67c.24-5.536-3.924-9.689-8.054-9.609-2.968.057-5.835,2.3-7.139,5.583q-.8,5.591-1.606,11.183l-14.171,7.905" transform="translate(-679.91 -392.866)" fill="#f682ff"/>
          <path id="Trazado_1058096" data-name="Trazado 1058096" d="M1103.634,620.019a1.309,1.309,0,1,0-1.472-1.123,1.31,1.31,0,0,0,1.472,1.123m-.281-2.085a.795.795,0,1,1-.682.894.8.8,0,0,1,.682-.894" transform="translate(-725.329 -406.403)" fill="#f9abff"/>
          <path id="Trazado_1058097" data-name="Trazado 1058097" d="M1107.14,644.525a1.956,1.956,0,1,0-2.2-1.677,1.958,1.958,0,0,0,2.2,1.677m-.453-3.367a1.442,1.442,0,1,1-1.237,1.622,1.444,1.444,0,0,1,1.237-1.622" transform="translate(-727.155 -421.688)" fill="#f9abff"/>
          <path id="Trazado_1058098" data-name="Trazado 1058098" d="M1083.417,636.232a.784.784,0,1,0-.882-.673.785.785,0,0,0,.882.673m-.141-1.045a.27.27,0,1,1-.232.3.271.271,0,0,1,.232-.3" transform="translate(-712.41 -417.765)" fill="#f9abff"/>
          <path id="Trazado_1058099" data-name="Trazado 1058099" d="M1085.239,668.933a2.535,2.535,0,1,0-2.85-2.174,2.537,2.537,0,0,0,2.85,2.174m-.608-4.515a2.021,2.021,0,1,1-1.733,2.272,2.023,2.023,0,0,1,1.733-2.272" transform="translate(-712.304 -436.999)" fill="#f9abff"/>
          <path id="Trazado_1058100" data-name="Trazado 1058100" d="M1110,662.519a.8.8,0,1,0-.9-.686.8.8,0,0,0,.9.686m-.145-1.077a.286.286,0,1,1-.246.322.286.286,0,0,1,.246-.322" transform="translate(-729.898 -435.05)" fill="#f9abff"/>
          <path id="Trazado_1058101" data-name="Trazado 1058101" d="M1062,659.906a1.7,1.7,0,1,0-1.908-1.455,1.7,1.7,0,0,0,1.908,1.455m-.384-2.853a1.182,1.182,0,1,1-1.014,1.33,1.184,1.184,0,0,1,1.014-1.33" transform="translate(-697.632 -432.155)" fill="#f9abff"/>
          <path id="Trazado_1058102" data-name="Trazado 1058102" d="M1060.7,679.07a.97.97,0,1,0-1.091-.832.971.971,0,0,0,1.091.832m-.19-1.414a.456.456,0,1,1-.391.513.457.457,0,0,1,.391-.513" transform="translate(-697.317 -445.724)" fill="#f9abff"/>
          <path id="Trazado_1058103" data-name="Trazado 1058103" d="M1083.052,648.765a1.924,1.924,0,1,0-2.163-1.65,1.926,1.926,0,0,0,2.163,1.65m-.444-3.3a1.41,1.41,0,1,1-1.209,1.585,1.411,1.411,0,0,1,1.209-1.585" transform="translate(-711.32 -424.522)" fill="#f9abff"/>
          <path id="Trazado_1058104" data-name="Trazado 1058104" d="M1096.62,607.226a.628.628,0,1,0-.706-.538.628.628,0,0,0,.706.538m-.1-.735a.114.114,0,1,1-.1.128.113.113,0,0,1,.1-.128" transform="translate(-721.22 -398.873)" fill="#f9abff"/>
          <path id="Trazado_1058105" data-name="Trazado 1058105" d="M1111.009,454.75c-1.468-1.188-5.255.051-6.964,2.382-1.409,1.921-.507,3.357-1.985,4.811-1.874,1.844-4.1.3-5.855,1.962-2.129,2.014-.1,5.447-2.117,7.145-1.8,1.513-4.164-.586-6.053.768-2.44,1.75-2.973,8.469.979,11.3,2.486,1.782,6.5,1.846,8.11-.025,2.147-2.488-.916-7.271,1.361-9.142,1.287-1.058,2.667.14,3.941-.984,2.03-1.79-.382-5.787,1.643-7.727,1.226-1.175,2.524-.1,4.385-1.152,3.2-1.8,4.428-7.824,2.555-9.341" transform="translate(-714.778 -299.009)"/>
          <path id="Trazado_1058106" data-name="Trazado 1058106" d="M1094.842,534.234a2.157,2.157,0,1,1-2.781-1.254,2.158,2.158,0,0,1,2.781,1.254" transform="translate(-717.769 -350.723)"/>
          <path id="Trazado_1058107" data-name="Trazado 1058107" d="M965.819,614.643l-11.363-.594a5.9,5.9,0,0,1,6.187-5.6l5.749,1.656-.573,4.54" transform="translate(-628.092 -400.494)" fill="#f9abff"/>
          <path id="Trazado_1058108" data-name="Trazado 1058108" d="M963.156,618.239l-.267-.065c.419-1.726,1.405-3.158,2.4-3.483a5.675,5.675,0,0,1,1.708-.218,5.01,5.01,0,0,1,.585.054l-.041.272a4.895,4.895,0,0,0-.554-.051,5.489,5.489,0,0,0-1.613.2c-.742.243-1.753,1.375-2.217,3.287" transform="translate(-633.644 -404.466)" fill="#de6ae6"/>
          <path id="Trazado_1058109" data-name="Trazado 1058109" d="M957.21,616.131l-.271-.043a6.037,6.037,0,0,1,1.6-3.319,4.05,4.05,0,0,1,1.433-.919,3.913,3.913,0,0,1,1.081-.228l.018.274a3.617,3.617,0,0,0-1,.213,3.8,3.8,0,0,0-1.34.861,5.764,5.764,0,0,0-1.518,3.162" transform="translate(-629.727 -402.59)" fill="#de6ae6"/>
          <path id="Trazado_1058110" data-name="Trazado 1058110" d="M818.446,1185.6l-25.086-4.623-6.567,32.087c.042.824.406,6.264,4.894,9.59a12.174,12.174,0,0,0,6.69,2.316,7.823,7.823,0,0,0,5.019-1.1,7.242,7.242,0,0,0,2.821-4.122l12.229-34.144" transform="translate(-517.708 -777.436)" fill="#8156e8"/>
          <path id="Trazado_1058111" data-name="Trazado 1058111" d="M842.554,1161.885l-35.273-5.731-1.452,8.935c1.733,1.316,13.407,9.864,26.543,4.312a28.773,28.773,0,0,0,10.181-7.516" transform="translate(-530.242 -761.092)" fill="#bda3ff"/>
          <path id="Trazado_1058112" data-name="Trazado 1058112" d="M805.69,1198.976l-.485.77a34.08,34.08,0,0,0,22.682,5.086l-.115-.9a33.169,33.169,0,0,1-22.082-4.953" transform="translate(-529.83 -789.284)" fill="#bda3ff"/>
          <path id="Trazado_1058113" data-name="Trazado 1058113" d="M586.188,1252.5l-12.852-10.488c1.084-4.948,3.778-13.364,11.1-20.04a33.694,33.694,0,0,1,4.322-3.34l17.455,9.427L586.188,1252.5" transform="translate(-377.175 -802.224)" fill="#8a5ff5"/>
          <path id="Trazado_1058114" data-name="Trazado 1058114" d="M478.78,1296l32.213,3.158a8.538,8.538,0,1,0,2.1-16.946l-30.54,4.682L478.78,1296" transform="translate(-314.923 -844.087)" fill="#8b96c7"/>
          <path id="Trazado_1058115" data-name="Trazado 1058115" d="M448.69,1293.519a6.5,6.5,0,0,0-.429,1.743c-.133.7-.221,1.321-.237,1.485-.137,1.451,1.916,4.033,4.645,5.286,2.3,1.056,7.275,2.174,9.669-.924,2.363-3.057.8-8.39-1.3-9.07-1.669-.539-2.568,2.212-5.876,2.441-3.076.213-5.662-1.934-6.467-.962" transform="translate(-294.67 -850.509)" fill="#a5ded8"/>
          <path id="Trazado_1058116" data-name="Trazado 1058116" d="M464.773,1287.879c-2.271.414-2.634.751-2.635.956,0,.329.938.371,2.927,1.22a8.383,8.383,0,0,0,2.727,1.01,2.963,2.963,0,0,0,2.021-.41c.106-.075.81-.57.779-1.012-.037-.527-1.13-1.189-5.819-1.765" transform="translate(-303.966 -847.815)" fill="#a5ded8"/>
          <path id="Trazado_1058117" data-name="Trazado 1058117" d="M448.186,1305.559a11.177,11.177,0,0,0,5.107,2.906.355.355,0,0,1-.163.691,11.891,11.891,0,0,1-5.427-3.077c-.325-.321.158-.843.483-.521" transform="translate(-294.392 -859.388)" fill="#4bb8ad"/>
          <path id="Trazado_1058118" data-name="Trazado 1058118" d="M448.434,1300.422q2.835,1.231,5.765,2.214c.43.145.271.837-.162.691q-3.017-1.013-5.936-2.278c-.42-.182-.084-.808.333-.627" transform="translate(-294.598 -856.051)" fill="#4bb8ad"/>
          <path id="Trazado_1058119" data-name="Trazado 1058119" d="M511.413,1301.752l-.66-19.408,25.019-1.537a9.512,9.512,0,0,1-2.157,18.887l-22.2,2.058" transform="translate(-335.973 -843.159)" fill="#8a5ff5"/>
          <path id="Trazado_1058120" data-name="Trazado 1058120" d="M753.435,1272.956l-.124-.022c-.437-.069-1.2-.083-9.891-.813l-1.55-.13c-3.246-.275-15-1.453-30.893-3.1-7.719.487-13.57,6.4-13.859,12.993-.218,4.98,2.759,9.841,7.536,12.473l50.678.511c.889-.448,6.071-3.153,7.208-8.327,1.747-7.953-7.908-13.359-9.105-13.58" transform="translate(-458.662 -835.311)" fill="#956bff"/>
          <path id="Trazado_1058121" data-name="Trazado 1058121" d="M878.467,1222.312,856.7,1204.448l-23.48,27.489c-.4.818-2.953,6.267-.394,11.878a13.436,13.436,0,0,0,5.226,5.81,8.634,8.634,0,0,0,5.438,1.613,7.99,7.99,0,0,0,4.926-2.475l30.049-26.451" transform="translate(-547.276 -792.887)" fill="#956bff"/>
          <path id="Trazado_1058122" data-name="Trazado 1058122" d="M941.177,1207.011l-31.013-24.374-6.174,7.856c.971,2.2,7.683,16.689,23.338,18.341a31.763,31.763,0,0,0,13.849-1.823" transform="translate(-594.867 -778.528)" fill="#bda3ff"/>
          <path id="Trazado_1058123" data-name="Trazado 1058123" d="M894.161,1222.159l-.88.485a37.616,37.616,0,0,0,19.2,17.026l.371-.933a36.609,36.609,0,0,1-18.686-16.577" transform="translate(-587.817 -804.547)" fill="#bda3ff"/>
          <path id="Trazado_1058124" data-name="Trazado 1058124" d="M956.794,1258.2a5.765,5.765,0,0,0-4.453.641,3.762,3.762,0,0,0-1.73,2.359c-.322,1.634.711,3.7,1.957,3.831,1.375.149,2.907-2.021,4.555-6.449l.1-.27-.278-.075-.151-.038m-4.267,6.294c-.828-.2-1.673-1.817-1.4-3.193a3.239,3.239,0,0,1,1.5-2.019,5.211,5.211,0,0,1,3.906-.607c-1.452,3.825-2.87,5.948-3.9,5.836a.809.809,0,0,1-.1-.017" transform="translate(-625.522 -828.157)" fill="#464fbd"/>
          <path id="Trazado_1058125" data-name="Trazado 1058125" d="M969.924,1257.976l-.163.352c-1.1,2.372-.946,4.85.388,6.312a4.683,4.683,0,0,0,2.18,1.328,1.273,1.273,0,0,0,1.181-.154c1.1-1-1.565-5.253-1.592-5.3-.154-.244-.646-.958-.987-1.394-.09-.115-.179-.223-.179-.223-.18-.22-.37-.437-.563-.644Zm2.529,7.484a4.185,4.185,0,0,1-1.917-1.172c-1.125-1.233-1.293-3.311-.459-5.374.092.1.183.212.271.32,0,0,.085.1.171.214.326.416.812,1.121.957,1.351.863,1.364,2.2,4.155,1.682,4.629a.866.866,0,0,1-.705.032" transform="translate(-637.689 -828.128)" fill="#464fbd"/>
          <path id="Trazado_1058126" data-name="Trazado 1058126" d="M978.962,1249.349a1.7,1.7,0,0,0-1.629.844,1.454,1.454,0,0,0-.152,1.06,1.339,1.339,0,0,1-.022.676c-.376,1.1-2.448,1.322-2.469,1.324a4.253,4.253,0,0,1-2.984-.931l-.325.41a4.784,4.784,0,0,0,3.362,1.041c.248-.025,2.436-.289,2.91-1.675a1.825,1.825,0,0,0,.046-.919.957.957,0,0,1,.083-.718c.271-.453.9-.7,1.1-.589a.662.662,0,0,1,.167.294,1.479,1.479,0,0,0,.621.811,1.348,1.348,0,0,0,.164.082l.2-.482a.87.87,0,0,1-.1-.051.985.985,0,0,1-.4-.556,1,1,0,0,0-.387-.549.673.673,0,0,0-.185-.074" transform="translate(-639.235 -822.432)" fill="#464fbd"/>
          <path id="Trazado_1058127" data-name="Trazado 1058127" d="M870.847,1195.37a4.507,4.507,0,0,0-3.083,1.69,2.941,2.941,0,0,0-.619,2.2c.213,1.284,1.536,2.514,2.483,2.267,1.047-.268,1.573-2.276,1.564-5.968v-.225l-.224.022-.121.013m-1.4,5.776c-.661.08-1.723-.87-1.9-1.952a2.533,2.533,0,0,1,.543-1.889,4.071,4.071,0,0,1,2.692-1.515c-.013,3.2-.469,5.139-1.257,5.342a.638.638,0,0,1-.076.014" transform="translate(-570.589 -786.887)" fill="#464fbd"/>
          <path id="Trazado_1058128" data-name="Trazado 1058128" d="M879.865,1194.242l-.023.3a4.53,4.53,0,0,0,2.016,4.513,3.66,3.66,0,0,0,1.959.374,1,1,0,0,0,.822-.436c.533-1.039-2.586-3.415-2.618-3.439-.18-.136-.736-.524-1.1-.749-.1-.059-.192-.114-.192-.114-.192-.112-.391-.218-.589-.317Zm3.9,4.783a3.272,3.272,0,0,1-1.724-.332,4.016,4.016,0,0,1-1.81-3.807c.1.052.192.1.286.16,0,0,.091.053.185.11.352.215.9.6,1.071.726,1.006.761,2.751,2.437,2.5,2.926-.053.1-.243.185-.507.217" transform="translate(-578.956 -786.167)" fill="#464fbd"/>
          <path id="Trazado_1058129" data-name="Trazado 1058129" d="M884.735,1181.94a1.33,1.33,0,0,0-.961,1.065,1.133,1.133,0,0,0,.18.817,1.049,1.049,0,0,1,.169.5c.026.905-1.429,1.639-1.444,1.646a3.325,3.325,0,0,1-2.439.137l-.125.389a3.74,3.74,0,0,0,2.746-.16c.175-.086,1.7-.879,1.671-2.024a1.423,1.423,0,0,0-.219-.684.75.75,0,0,1-.136-.548c.074-.406.466-.763.644-.733.056.01.124.084.2.169a1.151,1.151,0,0,0,.677.423,1.072,1.072,0,0,0,.142.015l.016-.408a.727.727,0,0,1-.088-.009.772.772,0,0,1-.446-.3.776.776,0,0,0-.434-.3.519.519,0,0,0-.155,0" transform="translate(-579.149 -778.065)" fill="#464fbd"/>
          <path id="Trazado_1058130" data-name="Trazado 1058130" d="M599.962,1224.384a18.327,18.327,0,1,0,18.33-18.33,18.328,18.328,0,0,0-18.33,18.33" transform="translate(-394.705 -793.944)" fill="#956bff"/>
          <path id="Trazado_1058131" data-name="Trazado 1058131" d="M672.667,1280.091a18.3,18.3,0,0,0,6.243-3.975q-1.205-5.737-2.411-11.474-1.915,7.725-3.832,15.449" transform="translate(-442.572 -832.516)" fill="#8156e8"/>
          <path id="Trazado_1058132" data-name="Trazado 1058132" d="M628.855,1247.293l-19.327-5.868,13.986-35.4a11.616,11.616,0,0,1,9.029-.679c4.524,1.715,7.532,6.68,7.21,12.284l-10.9,29.66" transform="translate(-401.003 -793.057)" fill="#956bff"/>
          <path id="Trazado_1058133" data-name="Trazado 1058133" d="M608.867,1144.192a9.169,9.169,0,1,0,11.293-6.374,9.169,9.169,0,0,0-11.293,6.374" transform="translate(-400.345 -748.797)" fill="#bda3ff"/>
          <path id="Trazado_1058134" data-name="Trazado 1058134" d="M614.767,1139.724a18.046,18.046,0,0,0,6.174,7.644c.942,3.013,2.784,5.416,4.928,5.656,3.475.388,7.176-4.974,6.617-9.479-.587-4.723-5.668-6.984-7.2-7.665-1.553-.691-3.554-1.587-5.877-.871-3.177.979-4.447,4.194-4.643,4.715" transform="translate(-404.452 -746.997)"/>
          <path id="Trazado_1058135" data-name="Trazado 1058135" d="M629.474,1165.433a1.817,1.817,0,1,0,2.3-1.571,1.982,1.982,0,0,0-2.3,1.571" transform="translate(-414.074 -766.13)" fill="#bda3ff"/>
          <path id="Trazado_1058136" data-name="Trazado 1058136" d="M645.337,1152.089c8.05.776,13.886,3.735,14.122,6.85.184,2.438-3.023,5.521-6.006,8.387a37.219,37.219,0,0,1-2.976,2.572l-7.353-7.772,6.05,8.554-3.616,2.436-1.67-2.071.715,2.715-2.348,1.581-6.072-14.536,9.155-8.716" transform="translate(-418.551 -758.415)"/>
          <path id="Trazado_1058137" data-name="Trazado 1058137" d="M611.988,1140.228a3.708,3.708,0,0,0-1.654-2.7,3.537,3.537,0,0,0-2.472-.357,4.655,4.655,0,0,0-3.266,2.492,4.557,4.557,0,0,0,1.22,5.151,3.615,3.615,0,0,1,1.133-2.878c.546-.433,1.074-.446,2.426-.818a22.818,22.818,0,0,0,2.612-.89" transform="translate(-397.526 -748.542)"/>
          <path id="Trazado_1058138" data-name="Trazado 1058138" d="M618.785,1154.749l.092-.2c-.227-.1-5.553-2.59-5.363-5.912a3.233,3.233,0,0,1,.229-1.011l-.205-.082a3.443,3.443,0,0,0-.245,1.08c-.2,3.472,5.259,6.019,5.492,6.126" transform="translate(-403.478 -755.422)"/>
          <path id="Trazado_1058139" data-name="Trazado 1058139" d="M651.5,1145.51l.156-.156a18.451,18.451,0,0,0-9.975-5.223,17.438,17.438,0,0,0-5.032-.081c-.4-.8-2.867-5.3-7.958-6a10.3,10.3,0,0,0-6.394,1.292l.109.192a10.077,10.077,0,0,1,6.255-1.265c5.16.709,7.566,5.418,7.824,5.953l.034.072.08-.01a17.274,17.274,0,0,1,5.046.069,18.233,18.233,0,0,1,9.855,5.161" transform="translate(-409.408 -746.479)"/>
          <rect id="Rectángulo_421874" data-name="Rectángulo 421874" width="37.136" height="2.072" transform="translate(160.789 457.444)" fill="#f8f8fe"/>
          <path id="Trazado_1058140" data-name="Trazado 1058140" d="M467.939,1340.236h38.407v-3.344H467.939Zm37.136-1.272H469.211v-.8h35.864Z" transform="translate(-307.786 -880.084)" fill="#686874"/>
          <path id="Trazado_1058141" data-name="Trazado 1058141" d="M433.5,1283.859H392.618l-9.682-31.632h40.878Z" transform="translate(-244.57 -824.343)" fill="#f8f8fe"/>
          <path id="Trazado_1058142" data-name="Trazado 1058142" d="M390.492,1283.27H432.7l-10.071-32.9H380.421ZM430.98,1282H391.432l-9.292-30.361h39.549Z" transform="translate(-243.182 -823.118)" fill="#686874"/>
          <path id="Trazado_1058143" data-name="Trazado 1058143" d="M446.354,1285.721a3.837,3.837,0,0,1,.723,1.956c.012.139.964-.024.945-.253a3.834,3.834,0,0,0-.724-1.955c-.153-.212-1,.18-.945.253" transform="translate(-293.573 -846.187)" fill="#898996"/>
          <path id="Trazado_1058144" data-name="Trazado 1058144" d="M539.977,1309.09l32.327,1.625a8.538,8.538,0,1,0,1.295-17.027l-30.283,6.127-3.338,9.275" transform="translate(-355.213 -851.639)" fill="#bda3ff"/>
          <path id="Trazado_1058145" data-name="Trazado 1058145" d="M508.987,1310.023a6.5,6.5,0,0,0-.346,1.762c-.1.7-.158,1.331-.166,1.495-.068,1.456,2.1,3.937,4.89,5.059,2.348.945,7.37,1.826,9.614-1.382,2.215-3.165.4-8.419-1.733-9-1.693-.46-2.461,2.331-5.753,2.717-3.062.359-5.747-1.663-6.506-.654" transform="translate(-334.472 -861.002)" fill="#bda3ff"/>
          <path id="Trazado_1058146" data-name="Trazado 1058146" d="M524.425,1304.538c-2.249.521-2.6.875-2.586,1.079.015.328.954.327,2.982,1.08a8.377,8.377,0,0,0,2.772.88,2.961,2.961,0,0,0,2-.505c.1-.079.782-.607.73-1.048-.062-.525-1.185-1.134-5.9-1.486" transform="translate(-343.271 -858.783)" fill="#bda3ff"/>
          <path id="Trazado_1058147" data-name="Trazado 1058147" d="M508.644,1323.194a11.178,11.178,0,0,0,5.239,2.661.355.355,0,0,1-.129.7,11.893,11.893,0,0,1-5.567-2.815c-.339-.306.117-.849.457-.543" transform="translate(-334.205 -871.005)" fill="#724dd1"/>
          <path id="Trazado_1058148" data-name="Trazado 1058148" d="M508.648,1318.049q2.89,1.094,5.864,1.938c.436.124.311.823-.13.7q-3.061-.868-6.037-1.994c-.428-.162-.122-.8.3-.642" transform="translate(-334.252 -867.661)" fill="#724dd1"/>
          <path id="Trazado_1058149" data-name="Trazado 1058149" d="M561.562,1314.175v-19.154l27.85-2.967a9.512,9.512,0,0,1-1.257,18.968l-26.593,3.153" transform="translate(-369.424 -850.564)" fill="#956bff"/>
          <path id="Trazado_1058150" data-name="Trazado 1058150" d="M578.55,1299.275v17.85c0,.179.945.038.945-.253v-17.85c0-.179-.945-.038-.945.253" transform="translate(-380.608 -855.099)" fill="#724dd1"/>
          <path id="Trazado_1058151" data-name="Trazado 1058151" d="M590.717,1297.877v15.568c0,.393.945.2.945-.118V1297.76c0-.394-.945-.2-.945.117" transform="translate(-388.618 -854.176)" fill="#724dd1"/>
          <path id="Trazado_1058152" data-name="Trazado 1058152" d="M1052.785,1064.574a23.824,23.824,0,0,1-20.423-22.94l3.527-12.366,4.622,1.276-3.558-5,7.989-28.007q2.077,1.623,2.6,1.222.721-.554-1.527-4.978l10.688-37.472,4.793,17.557q-1.5,3.537-1.051,3.806.331.2,1.715-1.374,4.578,16.768,9.156,33.535-3.561,4.956-2.9,5.607.544.534,3.93-1.825l7.575,27.743c.019.91.076,13.879-10.072,20.423-7.049,4.547-14.708,3.21-17.065,2.8" transform="translate(-679.383 -629.518)" fill="#dbabff"/>
          <rect id="Rectángulo_421875" data-name="Rectángulo 421875" width="0.614" height="90.434" transform="translate(376.453 349.723)" fill="#686875"/>
          <rect id="Rectángulo_421876" data-name="Rectángulo 421876" width="28.096" height="0.614" transform="translate(376.465 394.873) rotate(-77.071)" fill="#686875"/>
          <rect id="Rectángulo_421877" data-name="Rectángulo 421877" width="0.614" height="9.373" transform="matrix(0.791, -0.612, 0.612, 0.791, 370.782, 375.02)" fill="#686875"/>
          <rect id="Rectángulo_421878" data-name="Rectángulo 421878" width="27.481" height="0.614" transform="matrix(0.58, -0.815, 0.815, 0.58, 376.512, 425.992)" fill="#686875"/>
          <rect id="Rectángulo_421879" data-name="Rectángulo 421879" width="0.614" height="18.436" transform="translate(364.359 397.276) rotate(-41.309)" fill="#686875"/>
          <rect id="Rectángulo_421880" data-name="Rectángulo 421880" width="0.614" height="16.803" transform="matrix(0.558, -0.83, 0.83, 0.558, 361.951, 420.828)" fill="#686875"/>
          <path id="Trazado_1058153" data-name="Trazado 1058153" d="M1087.537,1291.621h-15.031a5.383,5.383,0,0,1-5.383-5.383v-21.926h25.8v21.926a5.383,5.383,0,0,1-5.383,5.383" transform="translate(-702.268 -832.299)" fill="#686874"/>
          <path id="Trazado_1058154" data-name="Trazado 1058154" d="M1065.247,1294.788H1090.7a.635.635,0,0,0,0-1.269h-25.453a.635.635,0,0,0,0,1.269" transform="translate(-700.63 -851.528)" fill="#ebacff"/>
          <path id="Trazado_1058155" data-name="Trazado 1058155" d="M1065.5,1309.887h25.537a.635.635,0,0,0,0-1.269H1065.5a.635.635,0,0,0,0,1.269" transform="translate(-700.793 -861.469)" fill="#ebacff"/>
          <path id="Trazado_1058156" data-name="Trazado 1058156" d="M639.52,747.839h-5.893a2.2,2.2,0,0,1-2.251-2.334l.819-12.648h8.758l.818,12.648a2.2,2.2,0,0,1-2.251,2.334" transform="translate(-415.384 -482.407)" fill="#686874"/>
          <path id="Trazado_1058157" data-name="Trazado 1058157" d="M645.635,655.217v26.521a.33.33,0,0,0,.659,0V655.217a.33.33,0,0,0-.659,0" transform="translate(-424.775 -431.082)" fill="#686874"/>
          <path id="Trazado_1058158" data-name="Trazado 1058158" d="M645.184,641.086c.038,1.654-.759,3.584-1.523,3.584s-1.561-1.931-1.523-3.584a5.636,5.636,0,0,1,1.523-3.584,5.636,5.636,0,0,1,1.523,3.584" transform="translate(-422.471 -419.628)" fill="#f283cb"/>
          <path id="Trazado_1058159" data-name="Trazado 1058159" d="M632.143,665.666c1.341,1.347,2.205,3.586,1.569,4.192s-2.829-.372-4.106-1.779a6.475,6.475,0,0,1-1.569-4.192,6.474,6.474,0,0,1,4.107,1.779" transform="translate(-413.188 -436.999)" fill="#f283cb"/>
          <path id="Trazado_1058160" data-name="Trazado 1058160" d="M648.691,673.533c-1.489,1.5-2.451,3.985-1.743,4.657s3.143-.413,4.563-1.977a7.193,7.193,0,0,0,1.743-4.658,7.2,7.2,0,0,0-4.563,1.977" transform="translate(-425.483 -442.048)" fill="#f283cb"/>
          <path id="Trazado_1058161" data-name="Trazado 1058161" d="M628.1,692.914c1.875,1.885,3.085,5.016,2.194,5.863s-3.956-.521-5.744-2.489a9.055,9.055,0,0,1-2.194-5.862,9.055,9.055,0,0,1,5.744,2.488" transform="translate(-409.449 -454.471)" fill="#f283cb"/>
          <path id="Trazado_1058162" data-name="Trazado 1058162" d="M649.2,702.922c-1.875,1.885-3.085,5.017-2.194,5.863s3.956-.521,5.744-2.489a9.055,9.055,0,0,0,2.194-5.862,9.054,9.054,0,0,0-5.744,2.488" transform="translate(-425.483 -461.061)" fill="#f283cb"/>
          <path id="Trazado_1058163" data-name="Trazado 1058163" d="M543.042,1854.833a2.134,2.134,0,1,1-2.135-2.135,2.134,2.134,0,0,1,2.135,2.135" transform="translate(-354.42 -1219.674)" fill="#dbabff"/>
          <path id="Trazado_1058164" data-name="Trazado 1058164" d="M993.67,1843.66a3.16,3.16,0,1,1-3.16-3.16,3.16,3.16,0,0,1,3.16,3.16" transform="translate(-649.749 -1211.642)" fill="#dbabff"/>
          <path id="Trazado_1058165" data-name="Trazado 1058165" d="M786.819,1516.486a2.153,2.153,0,1,1-2.153-2.153,2.153,2.153,0,0,1,2.153,2.153" transform="translate(-514.891 -996.905)" fill="#dbabff"/>
          <path id="Trazado_1058166" data-name="Trazado 1058166" d="M1216.629,994.94a4.871,4.871,0,1,1-4.871-4.871,4.871,4.871,0,0,1,4.871,4.871" transform="translate(-794.284 -651.747)" fill="#dbabff"/>
          <path id="Trazado_1058167" data-name="Trazado 1058167" d="M485.784,722.82a3.642,3.642,0,1,1-3.643-3.642,3.642,3.642,0,0,1,3.643,3.642" transform="translate(-314.738 -473.401)" fill="#dbabff"/>
          <path id="Trazado_1058168" data-name="Trazado 1058168" d="M585.192,747.915a1.415,1.415,0,1,1-1.415-1.415,1.415,1.415,0,0,1,1.415,1.415" transform="translate(-383.118 -491.389)" fill="#dbabff"/>
          <path id="Trazado_1058169" data-name="Trazado 1058169" d="M915.048,408.776a1.837,1.837,0,1,1-1.837-1.837,1.837,1.837,0,0,1,1.837,1.837" transform="translate(-599.728 -267.833)" fill="#dbabff"/>
          <path id="Trazado_1058170" data-name="Trazado 1058170" d="M1154.5,552.156a2.167,2.167,0,1,1-2.167-2.167,2.167,2.167,0,0,1,2.167,2.167" transform="translate(-756.942 -362.013)" fill="#dbabff"/>
          <path id="Trazado_1058171" data-name="Trazado 1058171" d="M1115.575,1442.028a4.014,4.014,0,1,1,4.014-4.014,4.019,4.019,0,0,1-4.014,4.014m0-7a2.989,2.989,0,1,0,2.989,2.989,2.992,2.992,0,0,0-2.989-2.989" transform="translate(-731.525 -944.016)" fill="#686874"/>
          <path id="Trazado_1058172" data-name="Trazado 1058172" d="M838.8,1970.195a7.347,7.347,0,1,1,7.348-7.347,7.356,7.356,0,0,1-7.348,7.347m0-13.67a6.323,6.323,0,1,0,6.323,6.323,6.33,6.33,0,0,0-6.323-6.323" transform="translate(-547.112 -1287.355)" fill="#686874"/>
          <path id="Trazado_1058173" data-name="Trazado 1058173" d="M619.527,450.13a3.527,3.527,0,1,1,3.527-3.527,3.531,3.531,0,0,1-3.527,3.527m0-6.028a2.5,2.5,0,1,0,2.5,2.5,2.5,2.5,0,0,0-2.5-2.5" transform="translate(-405.264 -291.625)" fill="#686874"/>
          <path id="Trazado_1058174" data-name="Trazado 1058174" d="M806.259,750.852a2.676,2.676,0,1,1,2.676-2.676,2.679,2.679,0,0,1-2.676,2.676m0-4.327a1.651,1.651,0,1,0,1.651,1.651,1.653,1.653,0,0,0-1.651-1.651" transform="translate(-528.763 -490.731)" fill="#686874"/>
          <path id="Trazado_1058175" data-name="Trazado 1058175" d="M1018.152,564.858a3.933,3.933,0,1,1,3.933-3.933,3.938,3.938,0,0,1-3.933,3.933m0-6.841a2.908,2.908,0,1,0,2.908,2.908,2.912,2.912,0,0,0-2.908-2.908" transform="translate(-667.438 -366.623)" fill="#686874"/>
          <path id="Trazado_1058176" data-name="Trazado 1058176" d="M613.4,1419.291a3.062,3.062,0,1,1,3.062-3.062,3.066,3.066,0,0,1-3.062,3.062m0-5.1a2.037,2.037,0,1,0,2.037,2.037,2.039,2.039,0,0,0-2.037-2.037" transform="translate(-401.533 -930.3)" fill="#686874"/>
        </g>
      </g>
      <rect id="Rectángulo_421882" data-name="Rectángulo 421882" width="571" height="861" transform="translate(-2951.68 4323.83)" fill="none"/>
    </g>
  </g>
</svg>
