<svg xmlns="http://www.w3.org/2000/svg" xmlns:xlink="http://www.w3.org/1999/xlink" width="113" height="113" viewBox="0 0 113 113">
  <defs>
    <filter id="Trazado_982547" x="0" y="0" width="113" height="113" filterUnits="userSpaceOnUse">
      <feOffset dy="3" input="SourceAlpha"/>
      <feGaussianBlur stdDeviation="3" result="blur"/>
      <feFlood flood-opacity="0.161"/>
      <feComposite operator="in" in2="blur"/>
      <feComposite in="SourceGraphic"/>
    </filter>
  </defs>
  <g id="Grupo_1223803" data-name="Grupo 1223803" transform="translate(-325.651 -1423.801)">
    <g id="Grupo_1211531" data-name="Grupo 1211531" transform="translate(0 -678)">
      <g id="Grupo_1210969" data-name="Grupo 1210969" transform="translate(334.651 2107.801)">
        <g id="Grupo_1210937" data-name="Grupo 1210937" transform="translate(0 0)">
          <g id="Grupo_1174742" data-name="Grupo 1174742">
            <g id="Grupo_1163948" data-name="Grupo 1163948">
              <g id="Grupo_1158168" data-name="Grupo 1158168" transform="translate(0)">
                <g id="Grupo_1152576" data-name="Grupo 1152576">
                  <g id="Grupo_1148633" data-name="Grupo 1148633">
                    <g id="Grupo_1148525" data-name="Grupo 1148525">
                      <g transform="matrix(1, 0, 0, 1, -9, -6)" filter="url(#Trazado_982547)">
                        <g id="Trazado_982547-2" data-name="Trazado 982547" transform="translate(9 6)" fill="#fbe7b2">
                          <path d="M 47.5 93.5 C 41.28937149047852 93.5 35.26533508300781 92.28397369384766 29.59518623352051 89.88570404052734 C 24.11771965026855 87.56893157958984 19.19813346862793 84.25196075439453 14.97309303283691 80.02691650390625 C 10.74804019927979 75.80186462402344 7.431066513061523 70.88229370117188 5.114293098449707 65.40481567382812 C 2.716026782989502 59.73468017578125 1.5 53.71062850952148 1.5 47.5 C 1.5 41.28937149047852 2.716026782989502 35.26533508300781 5.114293098449707 29.59518623352051 C 7.431066513061523 24.11771965026855 10.74804019927979 19.19813346862793 14.97309303283691 14.97309303283691 C 19.19813346862793 10.74804019927979 24.11771965026855 7.431066513061523 29.59518623352051 5.114293098449707 C 35.26533508300781 2.716026782989502 41.28937149047852 1.5 47.5 1.5 C 53.71062850952148 1.5 59.73468017578125 2.716026782989502 65.40481567382812 5.114293098449707 C 70.88229370117188 7.431066513061523 75.80186462402344 10.74804019927979 80.02691650390625 14.97309303283691 C 84.25196075439453 19.19813346862793 87.56893157958984 24.11771965026855 89.88570404052734 29.59518623352051 C 92.28397369384766 35.26533508300781 93.5 41.28937149047852 93.5 47.5 C 93.5 53.71062850952148 92.28397369384766 59.73468017578125 89.88570404052734 65.40481567382812 C 87.56893157958984 70.88229370117188 84.25196075439453 75.80186462402344 80.02691650390625 80.02691650390625 C 75.80186462402344 84.25196075439453 70.88229370117188 87.56893157958984 65.40481567382812 89.88570404052734 C 59.73468017578125 92.28397369384766 53.71062850952148 93.5 47.5 93.5 Z" stroke="none"/>
                          <path d="M 47.5 3 C 41.49121475219727 3 35.66376876831055 4.176155090332031 30.17950439453125 6.495796203613281 C 24.88084411621094 8.736953735351562 20.12152099609375 11.94598388671875 16.03375244140625 16.03375244140625 C 11.94598388671875 20.12152099609375 8.736953735351562 24.88084411621094 6.495796203613281 30.17950439453125 C 4.176155090332031 35.66376876831055 3 41.49121475219727 3 47.5 C 3 53.50878524780273 4.176155090332031 59.33623123168945 6.495796203613281 64.82049560546875 C 8.736953735351562 70.11915588378906 11.94598388671875 74.87847900390625 16.03375244140625 78.96624755859375 C 20.12152099609375 83.05401611328125 24.88084411621094 86.26304626464844 30.17950439453125 88.50419616699219 C 35.66376876831055 90.82384490966797 41.49121475219727 92 47.5 92 C 53.50878524780273 92 59.33623123168945 90.82384490966797 64.82049560546875 88.50419616699219 C 70.11915588378906 86.26304626464844 74.87847900390625 83.05401611328125 78.96624755859375 78.96624755859375 C 83.05401611328125 74.87847900390625 86.26304626464844 70.11915588378906 88.50419616699219 64.82049560546875 C 90.82384490966797 59.33623123168945 92 53.50878524780273 92 47.5 C 92 41.49121475219727 90.82384490966797 35.66376876831055 88.50419616699219 30.17950439453125 C 86.26304626464844 24.88084411621094 83.05401611328125 20.12152099609375 78.96624755859375 16.03375244140625 C 74.87847900390625 11.94598388671875 70.11915588378906 8.736953735351562 64.82049560546875 6.495796203613281 C 59.33623123168945 4.176155090332031 53.50878524780273 3 47.5 3 M 47.5 0 C 73.7335205078125 0 95 21.2664794921875 95 47.5 C 95 73.7335205078125 73.7335205078125 95 47.5 95 C 21.2664794921875 95 0 73.7335205078125 0 47.5 C 0 21.2664794921875 21.2664794921875 0 47.5 0 Z" stroke="none" fill="#f5b104"/>
                        </g>
                      </g>
                    </g>
                  </g>
                </g>
              </g>
            </g>
          </g>
        </g>
      </g>
    </g>
    <g id="experiencia" transform="translate(344.877 1446.962)">
      <g id="Grupo_1223780" data-name="Grupo 1223780" transform="translate(52.768 23.171)">
        <g id="Grupo_1223779" data-name="Grupo 1223779">
          <path id="Trazado_1057934" data-name="Trazado 1057934" d="M390.5,196.488h-1.069a5.205,5.205,0,0,0-.737-1.777l.756-.756a.448.448,0,0,0,0-.634l-.895-.895a.448.448,0,0,0-.634,0l-.756.756a5.205,5.205,0,0,0-1.777-.737v-1.069a.448.448,0,0,0-.448-.448h-1.266a.448.448,0,0,0-.448.448v1.069a5.207,5.207,0,0,0-1.777.737l-.756-.756a.448.448,0,0,0-.634,0l-.895.895a.448.448,0,0,0,0,.634l.756.756a5.206,5.206,0,0,0-.737,1.777h-1.069a.448.448,0,0,0-.448.448V198.2a.448.448,0,0,0,.448.448h1.069a5.205,5.205,0,0,0,.737,1.776l-.756.757a.448.448,0,0,0,0,.634l.895.9a.448.448,0,0,0,.634,0l.756-.757a5.2,5.2,0,0,0,1.777.737v1.069a.448.448,0,0,0,.448.448h1.266a.448.448,0,0,0,.448-.448v-1.069a5.2,5.2,0,0,0,1.777-.737l.756.757a.448.448,0,0,0,.634,0l.895-.9a.448.448,0,0,0,0-.634l-.756-.757a5.2,5.2,0,0,0,.737-1.776H390.5a.448.448,0,0,0,.448-.448v-1.266A.448.448,0,0,0,390.5,196.488Z" transform="translate(-377.667 -190.929)" fill="#83e1e5"/>
        </g>
      </g>
      <g id="Grupo_1223782" data-name="Grupo 1223782" transform="translate(56.872 27.274)">
        <g id="Grupo_1223781" data-name="Grupo 1223781">
          <circle id="Elipse_12614" data-name="Elipse 12614" cx="2.537" cy="2.537" r="2.537" fill="#ecf4f7"/>
        </g>
      </g>
      <g id="Grupo_1223784" data-name="Grupo 1223784" transform="translate(41.964 0.607)">
        <g id="Grupo_1223783" data-name="Grupo 1223783">
          <path id="Trazado_1057935" data-name="Trazado 1057935" d="M311.153,22.622H290.22a1.576,1.576,0,0,1-1.576-1.576V6.576A1.576,1.576,0,0,1,290.22,5h20.932a1.576,1.576,0,0,1,1.576,1.576V21.046A1.576,1.576,0,0,1,311.153,22.622Z" transform="translate(-288.644 -5)" fill="#ecf4f7"/>
        </g>
      </g>
      <g id="Grupo_1223786" data-name="Grupo 1223786" transform="translate(45.118 7.575)">
        <g id="Grupo_1223785" data-name="Grupo 1223785">
          <path id="Trazado_1057936" data-name="Trazado 1057936" d="M321.288,66.7h-6.172a.485.485,0,0,1-.485-.485V62.9a.485.485,0,0,1,.485-.485h6.172a.485.485,0,0,1,.485.485v3.315A.485.485,0,0,1,321.288,66.7Z" transform="translate(-314.631 -62.417)" fill="#83e1e5"/>
        </g>
      </g>
      <g id="Grupo_1223788" data-name="Grupo 1223788" transform="translate(55.923 7.575)">
        <g id="Grupo_1223787" data-name="Grupo 1223787">
          <path id="Trazado_1057937" data-name="Trazado 1057937" d="M404.151,66.7h5.009a.485.485,0,0,0,.485-.485V62.9a.485.485,0,0,0-.485-.485h-5.009a.485.485,0,0,0-.485.485v3.315A.485.485,0,0,0,404.151,66.7Z" transform="translate(-403.666 -62.417)" fill="#83e1e5"/>
        </g>
      </g>
      <g id="Grupo_1223790" data-name="Grupo 1223790" transform="translate(41.964 0.607)">
        <g id="Grupo_1223789" data-name="Grupo 1223789">
          <path id="Trazado_1057938" data-name="Trazado 1057938" d="M312.729,8.773v-2.2A1.576,1.576,0,0,0,311.152,5H290.22a1.576,1.576,0,0,0-1.576,1.576v2.2Z" transform="translate(-288.644 -5)" fill="#aab1ba"/>
        </g>
      </g>
      <g id="Grupo_1223792" data-name="Grupo 1223792" transform="translate(17.726 6.138)">
        <g id="Grupo_1223791" data-name="Grupo 1223791">
          <path id="Trazado_1057939" data-name="Trazado 1057939" d="M113.153,61.09V50.575H91.092a2.177,2.177,0,0,0-2.177,2.177V84.737h9.613a3.307,3.307,0,1,1,0,6.614H88.915v5.556a2.177,2.177,0,0,0,2.177,2.177h22.567a2.177,2.177,0,0,0,2.177-2.177V62.666H114.73A1.576,1.576,0,0,1,113.153,61.09Z" transform="translate(-88.915 -50.575)" fill="#83e1e5"/>
        </g>
      </g>
      <g id="Grupo_1223794" data-name="Grupo 1223794" transform="translate(44.646 24.11)">
        <g id="Grupo_1223793" data-name="Grupo 1223793">
          <path id="Trazado_1057940" data-name="Trazado 1057940" d="M313.358,204.373a2.85,2.85,0,0,0,0-5.7H310.74v22.8h2.618a2.85,2.85,0,1,0,0-5.7,2.85,2.85,0,1,0,0-5.7,2.85,2.85,0,1,0,0-5.7Z" transform="translate(-310.74 -198.672)" fill="#fddf7f"/>
        </g>
      </g>
      <g id="Grupo_1223796" data-name="Grupo 1223796" transform="translate(8.5 24.11)">
        <g id="Grupo_1223795" data-name="Grupo 1223795" transform="translate(0)">
          <path id="Trazado_1057941" data-name="Trazado 1057941" d="M34.068,234.634v-5.425H24.3a2.177,2.177,0,0,1-2.177-2.177v-5.556h9.613a3.307,3.307,0,1,0,0-6.614H22.12V198.673a3.749,3.749,0,0,0-3.7,3.127l-5.528,32.834Z" transform="translate(-12.894 -198.673)" fill="#fddf7f"/>
        </g>
      </g>
      <g id="Grupo_1223798" data-name="Grupo 1223798" transform="translate(24.066 6.138)">
        <g id="Grupo_1223797" data-name="Grupo 1223797">
          <path id="Trazado_1057942" data-name="Trazado 1057942" d="M154.235,55.542h-11.9a1.167,1.167,0,0,1-1.167-1.167v-3.8H155.4v3.8A1.167,1.167,0,0,1,154.235,55.542Z" transform="translate(-141.163 -50.575)" fill="#aab1ba"/>
        </g>
      </g>
      <g id="Grupo_1223800" data-name="Grupo 1223800" transform="translate(23.459 14.997)">
        <g id="Grupo_1223799" data-name="Grupo 1223799">
          <circle id="Elipse_12615" data-name="Elipse 12615" cx="7.726" cy="7.726" r="7.726" fill="#ecf4f7"/>
        </g>
      </g>
      <g id="Grupo_1223802" data-name="Grupo 1223802" transform="translate(26.405 18.56)">
        <g id="Grupo_1223801" data-name="Grupo 1223801">
          <path id="Trazado_1057943" data-name="Trazado 1057943" d="M167.907,158.619h-.487a3.268,3.268,0,1,0-4.411,0h-.487a2.088,2.088,0,0,0-2.088,2.088v2.465a7.727,7.727,0,0,0,9.561,0v-2.465A2.088,2.088,0,0,0,167.907,158.619Z" transform="translate(-160.434 -152.939)" fill="#fddf7f"/>
        </g>
      </g>
      <path id="Trazado_1057944" data-name="Trazado 1057944" d="M33.96,2a.607.607,0,0,1,.607-.607h.793V.607a.607.607,0,0,1,1.214,0V1.4h.793a.607.607,0,1,1,0,1.214h-.793V3.4a.607.607,0,0,1-1.214,0v-.79h-.793A.607.607,0,0,1,33.96,2Zm22.846,39.48h-.793v-.79a.607.607,0,1,0-1.214,0v.79h-.793a.607.607,0,0,0,0,1.214H54.8v.79a.607.607,0,1,0,1.214,0V42.7h.793a.607.607,0,1,0,0-1.214Zm5.746-11.673a3.143,3.143,0,1,1-3.143-3.143A3.147,3.147,0,0,1,62.552,29.811Zm-1.214,0a1.93,1.93,0,1,0-1.93,1.93A1.932,1.932,0,0,0,61.338,29.811Zm5.317-.633v1.266A1.056,1.056,0,0,1,65.6,31.5H65a5.779,5.779,0,0,1-.446,1.074L64.98,33a1.055,1.055,0,0,1,0,1.492l-.9.9a1.057,1.057,0,0,1-1.492,0l-.423-.424a5.773,5.773,0,0,1-1.074.446V36a1.056,1.056,0,0,1-1.055,1.055H58.775A1.056,1.056,0,0,1,57.72,36v-.6a5.768,5.768,0,0,1-1.074-.446l-.423.423a1.056,1.056,0,0,1-1.492,0l-.9-.9a1.055,1.055,0,0,1,0-1.492l.423-.423a5.772,5.772,0,0,1-.446-1.074h-.6a1.056,1.056,0,0,1-1.055-1.055V29.178a1.056,1.056,0,0,1,1.055-1.055h.6a5.783,5.783,0,0,1,.446-1.074l-.423-.423a1.057,1.057,0,0,1,0-1.492l.9-.9a1.056,1.056,0,0,1,1.492,0l.423.423a5.785,5.785,0,0,1,1.074-.446v-.6a1.056,1.056,0,0,1,1.055-1.055h1.266A1.056,1.056,0,0,1,61.1,23.619v.6a5.776,5.776,0,0,1,1.074.446l.423-.423a1.056,1.056,0,0,1,1.492,0l.9.9a1.057,1.057,0,0,1,0,1.492l-.423.423A5.776,5.776,0,0,1,65,28.123h.6a1.056,1.056,0,0,1,1.055,1.055Zm-1.214.158h-.91a.607.607,0,0,1-.594-.482,4.582,4.582,0,0,0-.651-1.57.607.607,0,0,1,.079-.761l.645-.644-.671-.671-.644.644a.607.607,0,0,1-.761.079,4.583,4.583,0,0,0-1.57-.651.607.607,0,0,1-.482-.594v-.91h-.949v.91a.607.607,0,0,1-.482.594,4.584,4.584,0,0,0-1.57.651.607.607,0,0,1-.761-.079l-.644-.644-.671.671.645.644a.607.607,0,0,1,.079.761,4.588,4.588,0,0,0-.651,1.57.607.607,0,0,1-.594.482h-.91v.949h.91a.607.607,0,0,1,.594.482,4.581,4.581,0,0,0,.651,1.57.607.607,0,0,1-.079.761l-.645.645.671.671.644-.645a.606.606,0,0,1,.761-.079,4.582,4.582,0,0,0,1.57.651.607.607,0,0,1,.482.594v.91h.949v-.91a.607.607,0,0,1,.482-.594,4.582,4.582,0,0,0,1.57-.651.607.607,0,0,1,.761.079l.644.645.671-.671-.645-.645a.607.607,0,0,1-.079-.761,4.581,4.581,0,0,0,.651-1.569.607.607,0,0,1,.594-.482h.91v-.949ZM17.726,15.6A.607.607,0,0,0,18.332,15V14.43a.607.607,0,0,0-1.214,0V15A.607.607,0,0,0,17.726,15.6Zm-.607-3.438V8.314A2.787,2.787,0,0,1,19.9,5.531h19.9a.607.607,0,1,1,0,1.214h-.894V9.938a1.776,1.776,0,0,1-1.774,1.774h-11.9a1.776,1.776,0,0,1-1.774-1.774V6.744H19.9a1.572,1.572,0,0,0-1.57,1.57v3.851a.607.607,0,1,1-1.213,0Zm7.554-5.421V9.938a.561.561,0,0,0,.56.56h11.9a.561.561,0,0,0,.56-.56V6.744ZM28.7,9.228h1.943a.607.607,0,0,0,0-1.214H28.7a.607.607,0,0,0,0,1.214ZM44.949,3.1h.8a.607.607,0,1,0,0-1.214h-.8a.607.607,0,1,0,0,1.214Zm2.938,0h.8a.607.607,0,1,0,0-1.214h-.8a.607.607,0,1,0,0,1.214ZM33.114,9.228h.554a.607.607,0,1,0,0-1.214h-.554a.607.607,0,1,0,0,1.214Zm-6.488,41.76a.607.607,0,0,0,.607.607h7.9a.607.607,0,1,0,0-1.214h-7.9A.607.607,0,0,0,26.626,50.988Zm22.59-21.177a3.453,3.453,0,0,1,0,5.7,3.453,3.453,0,0,1,0,5.7,3.456,3.456,0,0,1-1.953,6.308H45.252v4.949a2.787,2.787,0,0,1-2.784,2.784H30.281v4.819a.607.607,0,0,1-1.214,0V55.253H19.9a2.782,2.782,0,0,1-2.783-2.784h0V47.52H14.555a.607.607,0,1,1,0-1.214H27.338a2.7,2.7,0,1,0,0-5.4H14.555a.607.607,0,1,1,0-1.214h2.564V24.775a3.133,3.133,0,0,0-2.492,2.563L9.1,60.172a.607.607,0,0,1-.6.506.614.614,0,0,1-.1-.009.607.607,0,0,1-.5-.7L13.43,27.136a4.342,4.342,0,0,1,3.689-3.591V17.262a.607.607,0,1,1,1.214,0V39.693h9.006a3.914,3.914,0,1,1,0,7.827H18.332v4.949a1.57,1.57,0,0,0,1.57,1.57H42.469a1.572,1.572,0,0,0,1.57-1.57V20.143a.607.607,0,1,1,1.214,0V23.5h2.011a3.456,3.456,0,0,1,1.953,6.308ZM47.264,41.819H45.252v4.487h2.011a2.244,2.244,0,0,0,0-4.487Zm0-5.7H45.252v4.487h2.011a2.244,2.244,0,0,0,0-4.487Zm0-5.7H45.252v4.487h2.011a2.244,2.244,0,0,0,0-4.487Zm2.244-3.457a2.246,2.246,0,0,0-2.244-2.244H45.252V29.2h2.011a2.246,2.246,0,0,0,2.244-2.244Zm-12.934-.633a.607.607,0,0,1-1.214,0,1.483,1.483,0,0,0-1.481-1.481h-.263a3.872,3.872,0,0,1-.916.548l-.014.006q-.077.033-.156.062l-.02.008q-.083.03-.167.057l-.008,0c-.059.018-.119.036-.18.051l-.022.005c-.05.013-.1.024-.151.035l-.062.012-.114.021-.072.011-.111.014-.072.008-.121.009-.062,0c-.061,0-.122,0-.184,0s-.123,0-.184,0l-.062,0-.121-.009-.072-.008-.11-.014-.072-.011-.114-.02-.063-.012-.149-.034-.024-.006q-.09-.023-.179-.051l-.009,0q-.083-.026-.166-.056l-.021-.008q-.078-.029-.154-.061L29.67,25.4a3.866,3.866,0,0,1-.915-.548h-.263a1.483,1.483,0,0,0-1.481,1.481.607.607,0,1,1-1.214,0,2.7,2.7,0,0,1,2.008-2.606,3.875,3.875,0,1,1,6.758,0,2.7,2.7,0,0,1,2.009,2.605Zm-8.049-4.5a2.655,2.655,0,0,0,.9,1.99c.04.036.081.07.123.1l.064.049q.068.05.14.1l.055.036c.053.033.108.062.163.091l.052.027c.058.029.118.055.178.079l.046.018c.063.024.128.046.193.065l.039.011c.068.019.137.035.206.049l.032.006c.072.013.145.024.218.031l.023,0c.077.007.155.011.233.011s.156,0,.233-.011l.023,0c.073-.007.146-.018.218-.031l.032-.006c.069-.013.138-.03.206-.049l.039-.011c.065-.019.129-.041.192-.065l.046-.018c.06-.024.119-.05.178-.079l.053-.027c.055-.028.11-.058.163-.091l.056-.036c.047-.03.094-.062.139-.1l.064-.049c.042-.033.083-.067.122-.1a2.661,2.661,0,1,0-4.425-1.991ZM29,26.071a.607.607,0,0,0-.607.607v1.4a.607.607,0,0,0,1.214,0v-1.4A.607.607,0,0,0,29,26.071Zm4.376,0a.607.607,0,0,0-.607.607v1.4a.607.607,0,0,0,1.214,0v-1.4A.607.607,0,0,0,33.373,26.071Zm6.145-3.348a8.333,8.333,0,1,1-8.333-8.333A8.343,8.343,0,0,1,39.519,22.723Zm-1.214,0a7.12,7.12,0,1,0-7.12,7.12,7.127,7.127,0,0,0,7.12-7.12ZM23.459,32.7a.607.607,0,0,0,0,1.214h.993a.607.607,0,1,0,0-1.214Zm3.615,0a.607.607,0,1,0,0,1.214h.993a.607.607,0,1,0,0-1.214Zm4.608,0h-.993a.607.607,0,0,0,0,1.214h.993a.607.607,0,1,0,0-1.214Zm3.615,0H34.3a.607.607,0,0,0,0,1.214H35.3a.607.607,0,1,0,0-1.214Zm2.622,0a.607.607,0,0,0,0,1.214h.993a.607.607,0,1,0,0-1.214ZM66.656,2.183v14.47a2.185,2.185,0,0,1-2.183,2.183H43.54a2.185,2.185,0,0,1-2.183-2.183V2.183A2.186,2.186,0,0,1,43.54,0H64.473A2.185,2.185,0,0,1,66.656,2.183Zm-24.085,0v1.59H65.442V2.183a.97.97,0,0,0-.969-.969H43.54A.97.97,0,0,0,42.571,2.183Zm22.871,14.47V4.986H42.571V16.652a.97.97,0,0,0,.969.969H64.473A.97.97,0,0,0,65.442,16.652ZM52.866,8.06v3.315a1.093,1.093,0,0,1-1.092,1.092H45.6a1.093,1.093,0,0,1-1.092-1.092V8.06A1.093,1.093,0,0,1,45.6,6.968h6.172A1.093,1.093,0,0,1,52.866,8.06Zm-1.214.122H45.724v3.072h5.928ZM62.508,8.06v3.315a1.093,1.093,0,0,1-1.092,1.092H56.408a1.093,1.093,0,0,1-1.092-1.092V8.06a1.093,1.093,0,0,1,1.092-1.092h5.009A1.093,1.093,0,0,1,62.508,8.06Zm-1.214.122H56.529v3.072h4.765ZM52.26,13.824H45.118a.607.607,0,1,0,0,1.214H52.26a.607.607,0,1,0,0-1.214Zm9.642,0H55.923a.607.607,0,1,0,0,1.214H61.9a.607.607,0,0,0,0-1.214Z" fill="#1c1d21"/>
    </g>
  </g>
</svg>
