<svg xmlns="http://www.w3.org/2000/svg" xmlns:xlink="http://www.w3.org/1999/xlink" width="295" height="295" viewBox="0 0 295 295">
  <defs>
    <clipPath id="clip-path">
      <rect id="Rectángulo_422379" data-name="Rectángulo 422379" width="295" height="295" transform="translate(180 5750)" fill="#fff" stroke="#707070" stroke-width="1"/>
    </clipPath>
    <linearGradient id="linear-gradient" y1="0.5" x2="1" y2="0.5" gradientUnits="objectBoundingBox">
      <stop offset="0.003" stop-color="#389ee9"/>
      <stop offset="1" stop-color="#3864e9"/>
    </linearGradient>
    <linearGradient id="linear-gradient-2" x1="0" y1="0.5" y2="0.5" xlink:href="#linear-gradient"/>
    <linearGradient id="linear-gradient-3" x1="-7179.071" y1="6967.707" x2="-7178.555" y2="6966.861" gradientUnits="objectBoundingBox">
      <stop offset="0" stop-color="#00192a"/>
      <stop offset="0.298" stop-color="#28233c"/>
      <stop offset="0.586" stop-color="#462b4a"/>
      <stop offset="0.83" stop-color="#593052"/>
      <stop offset="1" stop-color="#603255"/>
    </linearGradient>
    <linearGradient id="linear-gradient-4" x1="506.633" y1="335.951" x2="506.633" y2="334.863" xlink:href="#linear-gradient-3"/>
    <linearGradient id="linear-gradient-5" x1="0" y1="0.5" y2="0.5" xlink:href="#linear-gradient"/>
    <linearGradient id="linear-gradient-6" x1="4969.529" y1="4798.297" x2="4970.534" y2="4798.297" gradientUnits="objectBoundingBox">
      <stop offset="0" stop-color="#eaa653"/>
      <stop offset="0.997" stop-color="#eacd53"/>
    </linearGradient>
    <linearGradient id="linear-gradient-7" x1="0" y1="0.5" y2="0.5" xlink:href="#linear-gradient"/>
  </defs>
  <g id="Grupo_1226213" data-name="Grupo 1226213" transform="translate(-220 -5750)">
    <rect id="Rectángulo_422385" data-name="Rectángulo 422385" width="192" height="295" transform="translate(323 5750)" fill="#e761e1"/>
    <g id="Enmascarar_grupo_1159133" data-name="Enmascarar grupo 1159133" transform="translate(40)" clip-path="url(#clip-path)">
      <g id="Grupo_1226212" data-name="Grupo 1226212" transform="translate(-3966.082 -147.938)">
        <g id="OBJECTS_1_" transform="translate(4146.082 5906.641)">
          <g id="Grupo_1226192" data-name="Grupo 1226192" transform="translate(33.734 0)">
            <g id="Grupo_1226188" data-name="Grupo 1226188" transform="translate(100.574)" opacity="0.5">
              <path id="Trazado_1059993" data-name="Trazado 1059993" d="M256.675,50.684H232a2.728,2.728,0,0,1-2.728-2.728V33.369A2.728,2.728,0,0,1,232,30.641h24.68a2.728,2.728,0,0,1,2.728,2.728V47.956A2.728,2.728,0,0,1,256.675,50.684Z" transform="translate(-229.268 -30.641)" fill="#fff" opacity="0.5"/>
              <g id="Grupo_1226187" data-name="Grupo 1226187" transform="translate(5.289 10.021)" opacity="0.5">
                <g id="Grupo_1226186" data-name="Grupo 1226186">
                  <g id="Grupo_1226185" data-name="Grupo 1226185">
                    <rect id="Rectángulo_422381" data-name="Rectángulo 422381" width="19.556" height="6.504" fill="#fff"/>
                  </g>
                </g>
              </g>
            </g>
            <path id="Trazado_1059994" data-name="Trazado 1059994" d="M93.929,64.4H65.616a1.234,1.234,0,0,1-1.231-1.231h0a1.234,1.234,0,0,1,1.231-1.231H93.929a1.234,1.234,0,0,1,1.231,1.231h0A1.235,1.235,0,0,1,93.929,64.4Z" transform="translate(-64.385 -42.848)" fill="url(#linear-gradient)"/>
            <path id="Trazado_1059995" data-name="Trazado 1059995" d="M312.687,365.733H284.374a1.234,1.234,0,0,1-1.231-1.231h0a1.234,1.234,0,0,1,1.231-1.231h28.313a1.234,1.234,0,0,1,1.231,1.231h0A1.235,1.235,0,0,1,312.687,365.733Z" transform="translate(-149.706 -160.375)" fill="#ff6e5f"/>
            <g id="Grupo_1226190" data-name="Grupo 1226190" transform="translate(127.28 211.481)">
              <path id="Trazado_1059996" data-name="Trazado 1059996" d="M312.237,406H276.949a3.9,3.9,0,0,1-3.9-3.9V381.245a3.9,3.9,0,0,1,3.9-3.9h35.288a3.9,3.9,0,0,1,3.9,3.9V402.1A3.9,3.9,0,0,1,312.237,406Z" transform="translate(-273.049 -377.345)" fill="#fff" opacity="0.5"/>
              <g id="Grupo_1226189" data-name="Grupo 1226189" transform="translate(12.047 8.024)">
                <rect id="Rectángulo_422382" data-name="Rectángulo 422382" width="18.96" height="12.61" transform="translate(0.018)" fill="none" stroke="#0d1333" stroke-linecap="round" stroke-linejoin="round" stroke-miterlimit="10" stroke-width="1"/>
                <line id="Línea_3374" data-name="Línea 3374" x2="18.96" y2="12.61" transform="translate(0.018)" fill="none" stroke="#0d1333" stroke-linecap="round" stroke-linejoin="round" stroke-miterlimit="10" stroke-width="1"/>
                <line id="Línea_3375" data-name="Línea 3375" x1="18.995" y2="12.557" transform="translate(0 0.026)" fill="none" stroke="#0d1333" stroke-linecap="round" stroke-linejoin="round" stroke-miterlimit="10" stroke-width="1"/>
              </g>
            </g>
            <path id="Trazado_1059997" data-name="Trazado 1059997" d="M355.507,136.207h-2.2a2.268,2.268,0,0,1-2.262-2.262v-2.2a2.268,2.268,0,0,1,2.262-2.262h2.2a2.268,2.268,0,0,1,2.262,2.262v2.2A2.269,2.269,0,0,1,355.507,136.207Z" transform="translate(-176.192 -69.194)" fill="url(#linear-gradient-2)"/>
            <path id="Trazado_1059998" data-name="Trazado 1059998" d="M195.769,322.137h-2.2a2.269,2.269,0,0,1-2.262-2.262v-2.2a2.268,2.268,0,0,1,2.262-2.262h2.2a2.268,2.268,0,0,1,2.262,2.262v2.2A2.268,2.268,0,0,1,195.769,322.137Z" transform="translate(-113.89 -141.711)" fill="#ff6e5f"/>
            <g id="Grupo_1226191" data-name="Grupo 1226191" transform="translate(198.517 62.888)" opacity="0.5">
              <path id="Trazado_1059999" data-name="Trazado 1059999" d="M417.707,137.323h-.268a.269.269,0,0,0-.091.019,1.861,1.861,0,0,0-.217-.522.275.275,0,0,0,.079-.052l.189-.189a.286.286,0,0,0,0-.4l-.251-.251a.285.285,0,0,0-.4,0l-.19.188a.291.291,0,0,0-.051.077,1.848,1.848,0,0,0-.523-.218.276.276,0,0,0,.018-.09v-.268a.286.286,0,0,0-.285-.285h-.356a.286.286,0,0,0-.287.285v.268a.281.281,0,0,0,.018.09,1.844,1.844,0,0,0-.522.218.281.281,0,0,0-.051-.077l-.19-.188a.284.284,0,0,0-.4,0l-.251.251a.286.286,0,0,0,0,.4l.189.189a.274.274,0,0,0,.079.052,1.842,1.842,0,0,0-.217.522.276.276,0,0,0-.092-.019h-.267a.286.286,0,0,0-.286.286v.356a.286.286,0,0,0,.286.286h.267a.282.282,0,0,0,.094-.019,1.856,1.856,0,0,0,.218.521.285.285,0,0,0-.081.054l-.19.189a.285.285,0,0,0,0,.4l.252.251a.285.285,0,0,0,.4,0l.19-.189a.274.274,0,0,0,.054-.082,1.848,1.848,0,0,0,.52.217.278.278,0,0,0-.02.1v.267a.287.287,0,0,0,.287.286h.356a.286.286,0,0,0,.285-.286v-.267a.28.28,0,0,0-.02-.1,1.848,1.848,0,0,0,.52-.217.288.288,0,0,0,.054.082l.19.188a.286.286,0,0,0,.4,0l.251-.251a.285.285,0,0,0,0-.4l-.189-.189a.272.272,0,0,0-.081-.054,1.853,1.853,0,0,0,.218-.521.279.279,0,0,0,.093.019h.268a.286.286,0,0,0,.285-.286v-.356A.287.287,0,0,0,417.707,137.323Zm-2.173,1.4a.938.938,0,1,1,.938-.938A.938.938,0,0,1,415.534,138.721Z" transform="translate(-398.901 -134.36)" fill="#fff"/>
              <path id="Trazado_1060000" data-name="Trazado 1060000" d="M403.776,139.744h-.8a.856.856,0,0,0-.269.047,5.581,5.581,0,0,0-.646-1.564.844.844,0,0,0,.221-.156l.569-.568a.86.86,0,0,0,0-1.216l-.757-.757a.86.86,0,0,0-1.216,0l-.569.569a.855.855,0,0,0-.154.219,5.592,5.592,0,0,0-1.563-.65.848.848,0,0,0,.045-.262v-.8a.86.86,0,0,0-.86-.86H396.7a.86.86,0,0,0-.86.86v.8a.848.848,0,0,0,.045.262,5.6,5.6,0,0,0-1.563.649.876.876,0,0,0-.154-.219l-.569-.569a.86.86,0,0,0-1.216,0l-.757.758a.86.86,0,0,0,0,1.216l.568.569a.838.838,0,0,0,.221.156,5.6,5.6,0,0,0-.645,1.564.856.856,0,0,0-.269-.047h-.8a.86.86,0,0,0-.86.86v1.07a.86.86,0,0,0,.86.86h.8a.844.844,0,0,0,.273-.049,5.612,5.612,0,0,0,.65,1.561.841.841,0,0,0-.231.161l-.569.569a.86.86,0,0,0,0,1.216l.758.757a.861.861,0,0,0,1.216,0l.569-.569a.856.856,0,0,0,.162-.233,5.588,5.588,0,0,0,1.561.646.852.852,0,0,0-.051.28v.8a.86.86,0,0,0,.86.86h1.071a.86.86,0,0,0,.86-.86v-.8a.849.849,0,0,0-.051-.28,5.609,5.609,0,0,0,1.562-.646.848.848,0,0,0,.162.234l.569.568a.86.86,0,0,0,1.216,0l.757-.757a.86.86,0,0,0,0-1.216l-.569-.569a.853.853,0,0,0-.231-.16,5.6,5.6,0,0,0,.65-1.561.849.849,0,0,0,.273.049h.8a.861.861,0,0,0,.86-.86v-1.071A.858.858,0,0,0,403.776,139.744Zm-6.539,4.209a2.823,2.823,0,1,1,2.822-2.823A2.823,2.823,0,0,1,397.237,143.953Z" transform="translate(-389.837 -133.741)" fill="#fff"/>
            </g>
          </g>
          <g id="Grupo_1226204" data-name="Grupo 1226204" transform="translate(130.772 88.692)">
            <g id="Grupo_1226202" data-name="Grupo 1226202" transform="translate(49.026 -17.755)">
              <g id="Grupo_1226193" data-name="Grupo 1226193" transform="translate(87.833 75.416)">
                <path id="Trazado_1060001" data-name="Trazado 1060001" d="M472.493,398.3s-3.585.307-4.9-.715a17.687,17.687,0,0,1,3.112,9.134c.015,3.661.478,5.295.041,7.514,0,0,.352,1.507,1.244-.011s.9-7.953.9-7.953a38.534,38.534,0,0,1-.021,9.619s.563,1.78,1.6.224a17.944,17.944,0,0,0,1.406-2.393s.755.506,1.669-1.681c.578-1.385.8-5.286.886-7.963a7.834,7.834,0,0,0-1.639-2.446C475.923,400.993,472.494,399.349,472.493,398.3Z" transform="translate(-456.773 -325.723)" fill="#c66960"/>
                <path id="Trazado_1060002" data-name="Trazado 1060002" d="M465.11,289.489H451.319s1.675,15.333,4.032,30.606c2.387,15.466,5.456,30.88,5.3,31.773-.584,3.309.168,8.456,1.486,9.478s4.9.715,4.9.715c0,1.052,3.429,2.7,4.3,3.329a7.845,7.845,0,0,1,1.639,2.446c.43.828.9,1.781,1.429,2.762,1.276,2.359,2.668,1.568,2.668,1.568s-3.307-10.487-3.721-10.73-5.116-7.093-5.8-9.723c-.3-1.138.545-17.223,0-32.632C467.024,303.955,465.11,289.489,465.11,289.489Z" transform="translate(-451.319 -289.489)" fill="#e07769"/>
                <path id="Trazado_1060003" data-name="Trazado 1060003" d="M466.313,326.438a7.151,7.151,0,0,0-4.553.555" transform="translate(-454.819 -301.825)" fill="none" stroke="#0d1333" stroke-linecap="round" stroke-linejoin="round" stroke-miterlimit="10" stroke-width="1"/>
                <path id="Trazado_1060004" data-name="Trazado 1060004" d="M465.11,289.489H451.319s.761,6.962,1.978,16.173l12.9-6.348C465.629,293.417,465.11,289.489,465.11,289.489Z" transform="translate(-451.319 -289.489)" fill="#c66960"/>
              </g>
              <path id="Trazado_1060005" data-name="Trazado 1060005" d="M430.886,198.336c2.493-2.06,4.118-5.914.094-10.418-2.2-2.466-4.853-2.222-7.113-.911.673-4.937-.648-10.45-7.144-10.938a9.883,9.883,0,0,0-9.09,5.159c-2.044-1.55-4.958-2.072-8.1.655-3.334,2.892-4.512,7.783-4.485,11.6-2.422.368-4.933,2.464-4.788,8.029.115,4.425,2.212,6.13,4.522,6.341a10.89,10.89,0,0,0,.124,7.7c2.282,5.264,7.481,6.41,10.936,3.654a4.546,4.546,0,0,0,3.36,4.81c5.672,2.087,9.413-.5,11.021-4.014,2.364,2.727,5.961,3.921,10.491-.375,5.052-4.79,4.08-7.942,1.673-9.931,2.017-.124,3.8-1.565,4.267-5.922C437.072,199.828,433.891,198.512,430.886,198.336Z" transform="translate(-343.015 -176.044)" fill="url(#linear-gradient-3)"/>
              <g id="Grupo_1226194" data-name="Grupo 1226194" transform="translate(48.961 96.916)">
                <path id="Trazado_1060006" data-name="Trazado 1060006" d="M434.342,440.274H417.554l-2.75-88.63H412.35l-2.647,88.63H392.915s-.434-95,.868-103.827a37.126,37.126,0,0,1,5.355-14.617c11.614,6.874,28.98,0,28.98,0a37.125,37.125,0,0,1,5.355,14.617C434.776,345.276,434.342,440.274,434.342,440.274Z" transform="translate(-392.846 -321.83)" fill="#444343"/>
                <line id="Línea_3376" data-name="Línea 3376" x1="16.901" transform="translate(12.332 29.807)" fill="none" stroke="#fff" stroke-linecap="round" stroke-linejoin="round" stroke-miterlimit="10" stroke-width="1"/>
              </g>
              <g id="Grupo_1226197" data-name="Grupo 1226197" transform="translate(0 52.678)">
                <g id="Grupo_1226196" data-name="Grupo 1226196">
                  <g id="Grupo_1226195" data-name="Grupo 1226195">
                    <path id="Trazado_1060007" data-name="Trazado 1060007" d="M372.934,276.268a29.6,29.6,0,0,1-13.307-1.435L355.161,288.6l-21.426-16.449.652-11.273a1.743,1.743,0,0,0-2.488,1.094l-.553,1.943-3.688-7.906s-.941-1.06-1.667-.624-.834.841-.684,1.431,2.053,5.6,2.053,5.6-1.942-2.524-3.426-1.6.281,3.575.281,3.575-1.812-2.18-2.961-1.258.417,3.289.417,3.289-1.542-1.117-2.238-.395.2,1.92,1.978,4.15c.6.752,4.023,5.6,5.651,6.065,0,0,18.781,19.888,25.427,26.127,1.968,1.848,6.806,5.834,10.8-.177C365.144,299.4,373.209,275.714,372.934,276.268Z" transform="translate(-319.196 -255.285)" fill="#e07769"/>
                  </g>
                </g>
                <path id="Trazado_1060008" data-name="Trazado 1060008" d="M391.426,286.124a29.6,29.6,0,0,1-13.307-1.435l-3.757,11.59,11.452,5.939C388.58,294.7,391.6,285.783,391.426,286.124Z" transform="translate(-337.689 -265.142)" fill="#c66960"/>
                <path id="Trazado_1060009" data-name="Trazado 1060009" d="M329.766,266.015s2.173,3.267.871,4.245-4.015-2.272-4.015-2.272,2.835,3.345,1.7,4.206c-.85.645-1.937-.235-1.937-.235" transform="translate(-321.606 -258.882)" fill="none" stroke="#0d1333" stroke-linecap="round" stroke-linejoin="round" stroke-miterlimit="10" stroke-width="1"/>
                <path id="Trazado_1060010" data-name="Trazado 1060010" d="M328.991,276.9s3.609-2.315,5.785,1.378" transform="translate(-322.48 -262.291)" fill="none" stroke="#0d1333" stroke-linecap="round" stroke-linejoin="round" stroke-miterlimit="10" stroke-width="1"/>
                <path id="Trazado_1060011" data-name="Trazado 1060011" d="M322.8,274.953s1.571,1.067,2.493.078-2.4-2.995-2.4-2.995" transform="translate(-320.403 -260.901)" fill="none" stroke="#0d1333" stroke-linecap="round" stroke-linejoin="round" stroke-miterlimit="10" stroke-width="1"/>
                <path id="Trazado_1060012" data-name="Trazado 1060012" d="M377.247,326.773s2.07.228,2.656-1.095" transform="translate(-338.656 -278.882)" fill="none" stroke="#0d1333" stroke-linecap="round" stroke-linejoin="round" stroke-miterlimit="10" stroke-width="1"/>
              </g>
              <g id="Grupo_1226198" data-name="Grupo 1226198" transform="translate(54.4 19.92)">
                <path id="Trazado_1060013" data-name="Trazado 1060013" d="M407.988,209.489a3.48,3.48,0,1,1-3.48-3.48A3.48,3.48,0,0,1,407.988,209.489Z" transform="translate(-401.028 -206.009)" fill="#e07769"/>
                <path id="Trazado_1060014" data-name="Trazado 1060014" d="M405.534,208.409a2.3,2.3,0,0,0,.137,3.2" transform="translate(-402.335 -206.814)" fill="none" stroke="#0d1333" stroke-linecap="round" stroke-linejoin="round" stroke-miterlimit="10" stroke-width="1"/>
                <path id="Trazado_1060015" data-name="Trazado 1060015" d="M404.935,210.93s1.27-1.454,4.4.158" transform="translate(-402.338 -207.457)" fill="none" stroke="#0d1333" stroke-linecap="round" stroke-linejoin="round" stroke-miterlimit="10" stroke-width="1"/>
              </g>
              <path id="Trazado_1060016" data-name="Trazado 1060016" d="M407.09,215.666a1.669,1.669,0,1,1-.794-1.421" transform="translate(-347.541 -188.767)" fill="none" stroke="#707070" stroke-miterlimit="10" stroke-width="3"/>
              <path id="Trazado_1060017" data-name="Trazado 1060017" d="M429.459,202.26h0c-10.456-1.027-13.692-10.408-13.692-10.408-3.351,6.926-6.835,8.953-8.893,9.521a15.673,15.673,0,0,0-.124,1.958,14.02,14.02,0,0,0,5.278,11.275h0a10.131,10.131,0,0,0,6.1,2.083,10,10,0,0,0,5.262-1.516l0,0c.148-.088.286-.184.427-.277A13.909,13.909,0,0,0,429.5,203.33C429.5,202.97,429.483,202.613,429.459,202.26Z" transform="translate(-348.546 -181.343)" fill="#e07769"/>
              <path id="Trazado_1060018" data-name="Trazado 1060018" d="M422.173,211.021l-.983-.2a1.633,1.633,0,0,1-1.176-2.253l1.144-2.629a6.666,6.666,0,0,0,.5-3.541" transform="translate(-352.946 -184.88)" fill="none" stroke="#0d1333" stroke-linecap="round" stroke-linejoin="round" stroke-miterlimit="10" stroke-width="1"/>
              <g id="Grupo_1226199" data-name="Grupo 1226199" transform="translate(61.488 23.809)" opacity="0.5">
                <path id="Trazado_1060019" data-name="Trazado 1060019" d="M413.953,211.871c-.778-.143-.88,1.052-.88,1.052s-.608-1.034-1.248-.57,1.195,2.447,1.651,2.343S414.731,212.014,413.953,211.871Z" transform="translate(-411.69 -211.859)" fill="#eb2730"/>
              </g>
              <path id="Trazado_1060020" data-name="Trazado 1060020" d="M414.661,199.474a5.327,5.327,0,0,0-1.9.978" transform="translate(-350.559 -183.898)" fill="none" stroke="#0d1333" stroke-linecap="round" stroke-linejoin="round" stroke-miterlimit="10" stroke-width="1"/>
              <path id="Trazado_1060021" data-name="Trazado 1060021" d="M422.616,218.887s-.667-.84-1.183-.2,1.2,3.018,1.937,2.8c.7-.207.971-2.976.189-3.3C422.821,217.878,422.616,218.887,422.616,218.887Z" transform="translate(-353.436 -190.151)" fill="#eb2730"/>
              <path id="Trazado_1060022" data-name="Trazado 1060022" d="M421.113,220.367a3.05,3.05,0,0,0,3.057-1" transform="translate(-353.361 -190.568)" fill="none" stroke="#0d1333" stroke-linecap="round" stroke-linejoin="round" stroke-miterlimit="10" stroke-width="1"/>
              <g id="Grupo_1226200" data-name="Grupo 1226200" transform="translate(72.705 23.809)" opacity="0.5">
                <path id="Trazado_1060023" data-name="Trazado 1060023" d="M428.889,211.871c.778-.143.88,1.052.88,1.052s.608-1.034,1.248-.57-1.195,2.447-1.651,2.343S428.11,212.014,428.889,211.871Z" transform="translate(-428.563 -211.859)" fill="#eb2730"/>
              </g>
              <path id="Trazado_1060024" data-name="Trazado 1060024" d="M429.453,199.474a5.327,5.327,0,0,1,1.9.978" transform="translate(-356.156 -183.898)" fill="none" stroke="#0d1333" stroke-linecap="round" stroke-linejoin="round" stroke-miterlimit="10" stroke-width="1"/>
              <path id="Trazado_1060025" data-name="Trazado 1060025" d="M428.439,205.216a.689.689,0,1,0,.689-.689A.689.689,0,0,0,428.439,205.216Z" transform="translate(-355.816 -185.592)" fill="#0d1333"/>
              <path id="Trazado_1060026" data-name="Trazado 1060026" d="M416,205.216a.689.689,0,1,1-.689-.689A.689.689,0,0,1,416,205.216Z" transform="translate(-351.184 -185.592)" fill="#0d1333"/>
              <path id="Trazado_1060027" data-name="Trazado 1060027" d="M431.778,226.928l0,0Z" transform="translate(-356.935 -193.101)" fill="none"/>
              <path id="Trazado_1060028" data-name="Trazado 1060028" d="M433.74,226.778v0Z" transform="translate(-357.593 -193.051)" fill="#f4dfb5"/>
              <path id="Trazado_1060029" data-name="Trazado 1060029" d="M433.755,225.53c-.005.264-.011.542-.015.829C433.745,226.072,433.75,225.795,433.755,225.53Z" transform="translate(-357.593 -192.633)" fill="#ddc497"/>
              <path id="Trazado_1060030" data-name="Trazado 1060030" d="M414.69,226.078h0c.02,1.069.035,2.309.031,3.455h0C414.725,228.389,414.71,227.147,414.69,226.078Z" transform="translate(-351.207 -192.816)" fill="#ddc497"/>
              <path id="Trazado_1060031" data-name="Trazado 1060031" d="M433.706,229.525h0c0-.9.009-1.857.023-2.728C433.714,227.667,433.7,228.62,433.706,229.525Z" transform="translate(-357.582 -193.057)" fill="#ddc497"/>
              <path id="Trazado_1060032" data-name="Trazado 1060032" d="M414.687,225.914c0,.035,0,.074,0,.109h0C414.688,225.987,414.688,225.95,414.687,225.914Z" transform="translate(-351.206 -192.761)" fill="#f4897d"/>
              <path id="Trazado_1060033" data-name="Trazado 1060033" d="M432.208,226.511c-.142.094-.28.19-.427.277Q432,226.656,432.208,226.511Z" transform="translate(-356.937 -192.962)" fill="#f4897d"/>
              <g id="Grupo_1226201" data-name="Grupo 1226201" transform="translate(79.411 19.981)">
                <path id="Trazado_1060034" data-name="Trazado 1060034" d="M438.7,209.581a3.48,3.48,0,1,0,3.48-3.48A3.48,3.48,0,0,0,438.7,209.581Z" transform="translate(-438.667 -206.101)" fill="#e07769"/>
                <path id="Trazado_1060035" data-name="Trazado 1060035" d="M444.289,208.5a2.3,2.3,0,0,1-.137,3.2" transform="translate(-440.495 -206.906)" fill="none" stroke="#0d1333" stroke-linecap="round" stroke-linejoin="round" stroke-miterlimit="10" stroke-width="1"/>
                <path id="Trazado_1060036" data-name="Trazado 1060036" d="M443.047,211.021s-1.27-1.454-4.4.158" transform="translate(-438.651 -207.549)" fill="none" stroke="#0d1333" stroke-linecap="round" stroke-linejoin="round" stroke-miterlimit="10" stroke-width="1"/>
              </g>
              <path id="Trazado_1060037" data-name="Trazado 1060037" d="M441.311,215.666a1.669,1.669,0,1,1-.794-1.421" transform="translate(-359.012 -188.767)" fill="none" stroke="#707070" stroke-miterlimit="10" stroke-width="3"/>
              <path id="Trazado_1060038" data-name="Trazado 1060038" d="M387.913,301.26l-2.361-23.608-14.713-2.93a62.717,62.717,0,0,1,6.872-18.4c7.42-12.647,22.09-16.1,22.09-16.1h12.9s14.67,3.457,22.091,16.1a62.7,62.7,0,0,1,6.872,18.4l-14.713,2.93L424.59,301.26s-6.819,4.469-18.339,4.469S387.913,301.26,387.913,301.26Z" transform="translate(-336.508 -197.556)" fill="#ffb1a5"/>
              <path id="Trazado_1060039" data-name="Trazado 1060039" d="M427.4,237.6c-.07-.716-.1-5.435-.1-6.705a10.046,10.046,0,0,1-6.514,2.292v0h-.057v0a9.408,9.408,0,0,1-6.039-2.042c-.005,1.173-.031,5.786-.1,6.455,0,0,1.253,1.875,6.163,1.875S427.4,237.6,427.4,237.6Z" transform="translate(-351.174 -194.432)" fill="#e07769"/>
              <path id="Trazado_1060040" data-name="Trazado 1060040" d="M420.759,231.393h.056v0a10.044,10.044,0,0,0,6.514-2.292c0-.9.009-1.857.023-2.728v-.013c0-.287.01-.565.015-.829a10.521,10.521,0,0,1-.89.652q-.211.144-.427.277l0,0a10,10,0,0,1-5.262,1.516,10.133,10.133,0,0,1-6.1-2.083c.02,1.068.035,2.31.031,3.455a9.411,9.411,0,0,0,6.039,2.042Z" transform="translate(-351.207 -192.633)" fill="#c66960"/>
            </g>
            <g id="Grupo_1226203" data-name="Grupo 1226203" transform="translate(0 18.893)" opacity="0.5">
              <rect id="Rectángulo_422383" data-name="Rectángulo 422383" width="91.327" height="71.032" fill="#fff"/>
              <path id="Trazado_1060041" data-name="Trazado 1060041" d="M278.923,319.372V314.3a1.691,1.691,0,1,1,3.383,0v5.074a1.691,1.691,0,0,1-3.383,0Z" transform="translate(-245.099 -256.797)" fill="#8995c7"/>
              <path id="Trazado_1060042" data-name="Trazado 1060042" d="M267.833,315.047V303.208a1.691,1.691,0,0,1,3.383,0v11.838a1.691,1.691,0,1,1-3.383,0Z" transform="translate(-240.773 -252.471)" fill="#efc459"/>
              <path id="Trazado_1060043" data-name="Trazado 1060043" d="M256.742,317.21v-8.456a1.691,1.691,0,0,1,3.383,0v8.456a1.691,1.691,0,1,1-3.383,0Z" transform="translate(-236.448 -254.634)" fill="#f76c5e"/>
              <path id="Trazado_1060044" data-name="Trazado 1060044" d="M245.652,309.639v-20.3a1.691,1.691,0,1,1,3.383,0v20.3a1.691,1.691,0,1,1-3.383,0Z" transform="translate(-232.122 -247.064)" fill="#55cdf2"/>
              <path id="Trazado_1060045" data-name="Trazado 1060045" d="M234.561,313.966v-13.53a1.691,1.691,0,0,1,3.383,0v13.53a1.691,1.691,0,1,1-3.383,0Z" transform="translate(-227.796 -251.39)" fill="#55cdf2"/>
              <path id="Trazado_1060046" data-name="Trazado 1060046" d="M323.286,308.754a1.689,1.689,0,0,1,1.691-1.691H341.89a1.691,1.691,0,1,1,0,3.382H324.977A1.69,1.69,0,0,1,323.286,308.754Z" transform="translate(-262.401 -254.634)" fill="#c0c1bf"/>
              <path id="Trazado_1060047" data-name="Trazado 1060047" d="M309.422,319.844a1.689,1.689,0,0,1,1.691-1.691h25.369a1.691,1.691,0,1,1,0,3.382H311.113A1.69,1.69,0,0,1,309.422,319.844Z" transform="translate(-256.994 -258.96)" fill="#c0c1bf"/>
              <path id="Trazado_1060048" data-name="Trazado 1060048" d="M248.425,250.527a1.69,1.69,0,0,1,1.691-1.691h13.53a1.691,1.691,0,1,1,0,3.383h-13.53A1.69,1.69,0,0,1,248.425,250.527Z" transform="translate(-233.204 -231.924)" fill="#c0c1bf"/>
              <path id="Trazado_1060049" data-name="Trazado 1060049" d="M235.051,251.742a1.715,1.715,0,1,1,1.2.49A1.779,1.779,0,0,1,235.051,251.742Z" transform="translate(-227.796 -231.938)" fill="#c0c1bf"/>
              <path id="Trazado_1060050" data-name="Trazado 1060050" d="M234.561,236.664a1.69,1.69,0,0,1,1.691-1.691h5.074a1.691,1.691,0,1,1,0,3.383h-5.074A1.69,1.69,0,0,1,234.561,236.664Z" transform="translate(-227.796 -226.518)" fill="#c0c1bf"/>
              <path id="Trazado_1060051" data-name="Trazado 1060051" d="M265.06,236.664a1.69,1.69,0,0,1,1.691-1.691h3.382a1.691,1.691,0,1,1,0,3.383h-3.382A1.69,1.69,0,0,1,265.06,236.664Z" transform="translate(-239.692 -226.518)" fill="#c0c1bf"/>
              <path id="Trazado_1060052" data-name="Trazado 1060052" d="M254.46,237.879a1.779,1.779,0,0,1-.49-1.2,1.741,1.741,0,0,1,.49-1.2,1.691,1.691,0,1,1,0,2.4Z" transform="translate(-235.366 -226.531)" fill="#c0c1bf"/>
              <circle id="Elipse_12630" data-name="Elipse 12630" cx="17.758" cy="17.758" r="17.758" transform="translate(45.623 43.929) rotate(-89.845)" fill="#55cdf2"/>
              <path id="Trazado_1060053" data-name="Trazado 1060053" d="M304.13,242.569h.031L316.907,256.5c-.012.014-.015.035-.035.035h-18.5l-.024-.024A17.717,17.717,0,0,1,304.13,242.569Z" transform="translate(-252.669 -229.48)" fill="#efc459"/>
              <path id="Trazado_1060054" data-name="Trazado 1060054" d="M307.837,239.608h0c.163-.148.331-.291.5-.434.054-.046.107-.094.162-.139.152-.126.308-.246.464-.366.075-.058.148-.117.224-.174.148-.111.3-.217.453-.323.088-.061.174-.124.263-.183.147-.1.3-.193.447-.288.1-.062.2-.124.3-.184.146-.088.3-.173.444-.257.107-.06.215-.121.323-.179.146-.078.293-.154.442-.228q.174-.088.35-.171c.145-.069.292-.135.439-.2q.187-.082.375-.16c.145-.06.292-.118.439-.175.131-.05.264-.1.4-.146s.292-.1.439-.15.279-.088.419-.13.289-.086.434-.125.3-.076.445-.112.285-.07.429-.1.312-.063.47-.093c.14-.026.279-.054.42-.077.166-.027.334-.049.5-.071.135-.018.27-.038.406-.054.178-.02.357-.033.537-.048.129-.01.256-.024.385-.031.2-.012.4-.016.608-.021.109,0,.218-.009.328-.01.314,0,.63,0,.947.018l.024.024v18.5c0,.015-.019.017-.028.028l-12.747-13.935A.179.179,0,0,0,307.837,239.608Z" transform="translate(-256.376 -226.519)" fill="#f76c5e"/>
            </g>
          </g>
          <g id="Grupo_1226211" data-name="Grupo 1226211" transform="translate(0 33.363)">
            <g id="Grupo_1226208" data-name="Grupo 1226208">
              <path id="Trazado_1060055" data-name="Trazado 1060055" d="M17.557,184.752c-25.921-12.785,16.8-34.515,7.125-41.006C13.449,136.21,7.2,113.038,21.646,95.595s41.1-7.356,41.1-7.356c4.455-1.926,10.961-1.975,14.732,2.355,6.375,7.322-.809,16.8-4.976,17.6h0a82.566,82.566,0,0,1-2.855-8.723,13.586,13.586,0,0,0-9.547,8.767,17.192,17.192,0,0,0-.874,4.728c-.166,3.266.275,16.35-11.951,15.537q-.248-.226-.517-.428c-.062-.046-.129-.086-.192-.13-.12-.084-.239-.17-.365-.247-.076-.046-.157-.085-.234-.129-.118-.066-.235-.135-.357-.2-.086-.042-.176-.075-.264-.113-.12-.052-.237-.107-.359-.153-.094-.035-.192-.061-.287-.091-.121-.039-.241-.082-.365-.115-.1-.026-.2-.043-.3-.065-.124-.027-.246-.058-.372-.078-.106-.017-.214-.024-.321-.036-.126-.014-.249-.033-.377-.04-.11-.007-.223,0-.335,0s-.237-.009-.357,0l-.024,0h-.024c-.106,0-.209.021-.314.03s-.237.017-.353.034c-.2.028-.4.068-.59.112l-.06.012a7.056,7.056,0,0,0-5.085,4.718c-.012.037-.024.074-.035.111-.047.157-.088.315-.125.476-.019.082-.036.163-.052.246q-.036.191-.062.385c-.015.112-.027.224-.037.338s-.016.227-.02.342c0,.059-.01.116-.01.175,0,.128,0,.255.007.381h0v0a6.912,6.912,0,0,0,.066.7c0,.009,0,.017,0,.025.033.223.077.442.13.657l.01.045c.053.209.117.414.187.615l.02.058q.107.295.24.576c.01.022.02.045.03.066.088.184.185.362.289.537.013.023.027.046.041.069q.156.257.334.5l.051.069q.178.238.376.459l.059.066q.2.218.416.419l.066.06c.146.132.3.258.454.377l.071.053q.238.177.49.334l.074.045q.256.155.525.289l.073.035c.182.087.369.168.559.24l.07.024c.194.071.392.134.594.188l.061.015c.206.053.415.1.628.132l.047.007c.218.034.44.059.664.071h.028q.347.019.7,0a7.014,7.014,0,0,0,4.874-2.277l.416,9.414s.054.063.152.181v34.267S39.328,195.177,17.557,184.752Z" transform="translate(-9.082 -85.338)" fill="url(#linear-gradient-4)"/>
              <path id="Trazado_1060056" data-name="Trazado 1060056" d="M88.689,188.464c-7.426-.332-16.693-2.225-20.125-8.392,0-.009-.009-.018-.013-.026a7.063,7.063,0,0,1-1.077,1.655c0-.031,0-.062,0-.093.226,4.944.423,10.356.343,11.865-.132,2.5-1.8,4.808-9.165,6.1,25.043,9.016,42.545-1.69,42.545-1.69-.745-.073-1.431-.158-2.224-.226-7.447-.637-8.762-2.683-9.113-5.158-.09-.633-.183-2.146-.273-4.065,0,.02,0,.042,0,.062C89.291,188.487,88.992,188.477,88.689,188.464Z" transform="translate(-28.414 -122.276)" fill="#e07769"/>
              <path id="Trazado_1060057" data-name="Trazado 1060057" d="M64.7,147.411a7.067,7.067,0,0,0,1.1-1.67l.014-.027c0,.009.009.018.013.026,3.432,6.167,12.7,8.06,20.125,8.392.315.014.626.024.934.033a46.705,46.705,0,0,0,8.105-.4,4.064,4.064,0,0,0,2.735-1.618c1.988-2.689,1.278-8.105.715-12.811a38.384,38.384,0,0,0-1-5.3l1.334-1.168a2.89,2.89,0,0,0-.18-4.494l-4.071-3.025a11.8,11.8,0,0,1-3.88-5c-.368-.9-.8-1.957-1.258-3.115a82.564,82.564,0,0,1-2.855-8.723,13.586,13.586,0,0,0-9.547,8.767,17.188,17.188,0,0,0-.874,4.728c-.166,3.266.275,16.35-11.951,15.537a7.031,7.031,0,0,0-5.007-1.83,7.054,7.054,0,1,0,.575,14.1,7.014,7.014,0,0,0,4.874-2.277c.036-.039.069-.082.1-.123" transform="translate(-25.96 -94.377)" fill="#e07769"/>
              <path id="Trazado_1060058" data-name="Trazado 1060058" d="M63.754,158.706s-3.942,2.01-2.163,5.992" transform="translate(-29.382 -113.953)" fill="none" stroke="#0d1333" stroke-linecap="round" stroke-linejoin="round" stroke-miterlimit="10" stroke-width="1"/>
              <path id="Trazado_1060059" data-name="Trazado 1060059" d="M61.292,163.461s3.438-1.718,7.977,3.609" transform="translate(-29.445 -115.705)" fill="none" stroke="#0d1333" stroke-linecap="round" stroke-linejoin="round" stroke-miterlimit="10" stroke-width="1"/>
              <path id="Trazado_1060060" data-name="Trazado 1060060" d="M217.464,429.312s-5.166,3.663-8.077,3.287c2.536.845,9.58,5.541,12.867,11.082s5.447,7.608,6.762,11.364c0,0,1.878,1.972,1.878-1.127s-5.729-12.867-5.729-12.867,6.1,7.905,8.546,14.613c0,0,2.442,2.2,2.63-1.088a31.6,31.6,0,0,0,0-4.884s1.6.094,1.033-4.039c-.357-2.617-3.5-8.734-5.758-12.87-1.956-1.226-3.57-2.14-4.668-2.25C225.072,430.345,218.4,430.909,217.464,429.312Z" transform="translate(-87.206 -219.496)" fill="#c66960"/>
              <path id="Trazado_1060061" data-name="Trazado 1060061" d="M205.493,385.741c-.845,0-14.088-6.2-17.469-9.58-2.9-2.9-20.538-33.145-25.505-41.706.962,13.972-5.6,21.5-6.942,22.876,7.027,7.1,20.593,21.132,22.116,25.216,2.066,5.541,7.8,12.679,10.707,13.055s8.077-3.287,8.077-3.287c.939,1.6,7.608,1.033,9.486,1.221,1.1.11,2.711,1.024,4.668,2.25,1.39.872,2.952,1.9,4.63,2.915,4.039,2.442,5.447,0,5.447,0S206.338,385.741,205.493,385.741Z" transform="translate(-66.219 -182.5)" fill="#e07769"/>
              <path id="Trazado_1060062" data-name="Trazado 1060062" d="M110.8,285.54a44.841,44.841,0,0,0-.7-5.348c-3.663-19.159-5.635-33.811-5.353-44.517s4.227-28.457-17.469-26.485c0,0-17.5,10.707-42.545,1.69,0,0-20.568,5.072-21.695,20s12.4,35.783,12.961,44.8-2.536,24.794,6.2,35.5c0,0,30.43,9.3,61.423-2.536,0,0,.086-.079.237-.234C105.2,307.038,111.762,299.512,110.8,285.54Z" transform="translate(-14.5 -133.584)" fill="url(#linear-gradient-5)"/>
              <path id="Trazado_1060063" data-name="Trazado 1060063" d="M109.315,192.686c0,.117.01.233.015.348C109.325,192.918,109.32,192.8,109.315,192.686Z" transform="translate(-48.175 -127.206)" fill="#ffc0bb"/>
              <path id="Trazado_1060064" data-name="Trazado 1060064" d="M109.355,193.586c0-.109-.01-.219-.015-.33C109.345,193.366,109.35,193.477,109.355,193.586Z" transform="translate(-48.185 -127.429)" fill="#edaeab"/>
              <path id="Trazado_1060065" data-name="Trazado 1060065" d="M94.993,183.66c0-.11-.01-.221-.015-.334s-.01-.239-.015-.359q-.015-.346-.029-.7c0-.092-.007-.184-.011-.277-.005-.145-.012-.292-.017-.439l-.011-.291-.016-.436c0-.1-.008-.211-.012-.317-.02-.539-.039-1.083-.058-1.63l-.006-.166-.018-.536c0-.069,0-.138-.007-.207-.308-.009-.619-.019-.934-.033-7.426-.332-16.693-2.225-20.125-8.392h-.027a7.092,7.092,0,0,1-1.1,1.67s0,.01,0,.015q.017.306.035.636c0,.042,0,.083.007.126.006.117.013.236.019.356l.009.175q.01.195.021.4c0,.052.005.1.008.158.007.129.013.257.02.389.006.115.012.232.018.35q.013.253.026.512c0,.1.01.2.015.3.007.148.015.3.022.448l.009.179c.007.144.014.289.021.434,0,.08.008.16.012.24.007.142.013.283.02.426,0,.054,0,.109.008.163q.023.493.046.995c0,.031,0,.062,0,.093a7.076,7.076,0,0,0,1.077-1.655c0,.008.009.018.013.026,3.432,6.167,12.7,8.06,20.125,8.392.3.013.6.024.9.032,0-.02,0-.041,0-.062,0-.109-.01-.219-.015-.33S95,183.777,94.993,183.66Z" transform="translate(-33.853 -118.18)" fill="#c66960"/>
              <g id="Grupo_1226205" data-name="Grupo 1226205" transform="translate(59.162 37.387)" opacity="0.5">
                <path id="Trazado_1060066" data-name="Trazado 1060066" d="M110.212,146.643c-1.457-.2-1.548,2.026-1.548,2.026s-1.213-1.871-2.364-.955,2.419,4.444,3.257,4.215S111.669,146.845,110.212,146.643Z" transform="translate(-106.073 -146.63)" fill="#eb2730"/>
              </g>
              <path id="Trazado_1060067" data-name="Trazado 1060067" d="M121.914,141.607l1.334-1.168a2.89,2.89,0,0,0-.18-4.494L119,132.92a11.8,11.8,0,0,1-3.88-5" transform="translate(-50.438 -101.947)" fill="none" stroke="#0d1333" stroke-linecap="round" stroke-linejoin="round" stroke-miterlimit="10" stroke-width="1"/>
              <path id="Trazado_1060068" data-name="Trazado 1060068" d="M106.277,122.223a9.891,9.891,0,0,0-3.455,1.971" transform="translate(-45.643 -99.724)" fill="none" stroke="#0d1333" stroke-linecap="round" stroke-linejoin="round" stroke-miterlimit="10" stroke-width="1"/>
              <path id="Trazado_1060069" data-name="Trazado 1060069" d="M109.448,133.67a1.279,1.279,0,1,1-1.335-1.222A1.279,1.279,0,0,1,109.448,133.67Z" transform="translate(-47.229 -103.711)" fill="#0d1333"/>
              <path id="Trazado_1060070" data-name="Trazado 1060070" d="M119.519,157.524s1.169-1.614,2.178-.475-1.983,5.7-3.366,5.356c-1.309-.328-2.048-5.444-.623-6.11C119.054,155.668,119.519,157.524,119.519,157.524Z" transform="translate(-51.147 -112.962)" fill="#eb2730"/>
              <path id="Trazado_1060071" data-name="Trazado 1060071" d="M121.98,160.413a5.666,5.666,0,0,1-5.756-1.6" transform="translate(-50.87 -113.995)" fill="none" stroke="#0d1333" stroke-linecap="round" stroke-linejoin="round" stroke-miterlimit="10" stroke-width="1"/>
              <path id="Trazado_1060072" data-name="Trazado 1060072" d="M73.859,171.022a3.612,3.612,0,1,1-3.768-3.449A3.612,3.612,0,0,1,73.859,171.022Z" transform="translate(-31.531 -117.41)" fill="url(#linear-gradient-6)"/>
              <path id="Trazado_1060073" data-name="Trazado 1060073" d="M182.962,192.859c-.564-.141-8.171,0-10.566.986s-12.538,8.312-19.441,14.229-46.349,34.938-46.349,34.938l-7.711-5.967-2.136-1.652c-2.419,1.35-6.357,5.081-10.278,9.912a69.5,69.5,0,0,0-4.927,6.83c1.163.9,2.6,2,4.187,3.193,5.2,3.931,11.943,8.875,15.371,10.789,6.058,3.381,9.016.7,11.693-1.127s37.332-38.6,40.009-41.7,2.817-.986,5.494-1.69,7.749-5.917,9.861-7.467,1.268-6.48,1.69-8.452-1.55-2.958-1.127-2.969,5.494-6.329,5.494-6.329C183.243,196.241,183.525,193,182.962,192.859Z" transform="translate(-37.348 -127.256)" fill="#e07769"/>
              <g id="Grupo_1226206" data-name="Grupo 1226206" transform="translate(17.556 86.876)">
                <path id="Trazado_1060074" data-name="Trazado 1060074" d="M37.864,253.873l23.668,18.971.126-.148c-.427-1.835,2.8-7.623,7.783-13.76,5.487-6.76,11.011-11.369,12.351-10.31L56.319,227.764" transform="translate(-37.864 -227.764)" fill="none" stroke="#0d1333" stroke-linecap="round" stroke-linejoin="round" stroke-miterlimit="10" stroke-width="1"/>
                <path id="Trazado_1060075" data-name="Trazado 1060075" d="M110.1,262.146l-.2-.168a.682.682,0,0,1,.162.218Z" transform="translate(-65.958 -241.108)" fill="none" stroke="#0d1333" stroke-linecap="round" stroke-linejoin="round" stroke-miterlimit="10" stroke-width="1"/>
                <path id="Trazado_1060076" data-name="Trazado 1060076" d="M109.886,261.97l-.007,0,.009.007Z" transform="translate(-65.952 -241.104)" fill="none" stroke="#0d1333" stroke-linecap="round" stroke-linejoin="round" stroke-miterlimit="10" stroke-width="1"/>
              </g>
              <path id="Trazado_1060077" data-name="Trazado 1060077" d="M76.847,297a.792.792,0,0,0,.239.452c.868.7,3.531-1.021,6.8-4.189-1.585-1.2-3.023-2.3-4.187-3.193C77.686,293.3,76.587,295.88,76.847,297Z" transform="translate(-35.497 -165.187)" fill="#182f54"/>
              <path id="Trazado_1060078" data-name="Trazado 1060078" d="M108.724,262.1a.685.685,0,0,0-.162-.218l-.01-.008c-.382-.3-1.107-.142-2.072.4l2.136,1.652A2.685,2.685,0,0,0,108.724,262.1Z" transform="translate(-47.07 -154.13)" fill="#182f54"/>
              <g id="Grupo_1226207" data-name="Grupo 1226207" transform="translate(5.192 174.832)">
                <path id="Trazado_1060079" data-name="Trazado 1060079" d="M101.76,371.959c-.151.155-.237.234-.237.234C70.53,384.027,40.1,374.729,40.1,374.729L17.594,450.061H67.525l8.265-22.55v22.55h42.451S127.355,407.93,101.76,371.959Z" transform="translate(-17.594 -371.959)" fill="#efefef"/>
                <path id="Trazado_1060080" data-name="Trazado 1060080" d="M51.054,385.741s33.913,11.388,67.825-3.548" transform="translate(-30.644 -375.951)" fill="none" stroke="#0d1333" stroke-linecap="round" stroke-linejoin="round" stroke-miterlimit="10" stroke-width="2"/>
                <path id="Trazado_1060081" data-name="Trazado 1060081" d="M64.845,393.9s-7.863,13.8-26.131,21.6" transform="translate(-25.831 -380.518)" fill="none" stroke="#0d1333" stroke-linecap="round" stroke-linejoin="round" stroke-miterlimit="10" stroke-width="2"/>
                <path id="Trazado_1060082" data-name="Trazado 1060082" d="M151.6,386.375s5.235,16.039,17.237,23.791" transform="translate(-69.859 -377.582)" fill="none" stroke="#0d1333" stroke-linecap="round" stroke-linejoin="round" stroke-miterlimit="10" stroke-width="2"/>
                <path id="Trazado_1060083" data-name="Trazado 1060083" d="M113,463.032l8.828,22.55H113Z" transform="translate(-54.806 -407.48)" fill="#c1bfbf"/>
                <path id="Trazado_1060084" data-name="Trazado 1060084" d="M115.666,393.9l1.749,29.07L113,424.048V436.07" transform="translate(-54.806 -380.518)" fill="none" stroke="#0d1333" stroke-linecap="round" stroke-linejoin="round" stroke-miterlimit="10" stroke-width="2"/>
                <path id="Trazado_1060085" data-name="Trazado 1060085" d="M111.591,399.929a1.1,1.1,0,1,1-1.1-1.1A1.1,1.1,0,0,1,111.591,399.929Z" transform="translate(-53.394 -382.438)" fill="none" stroke="#0d1333" stroke-linecap="round" stroke-linejoin="round" stroke-miterlimit="10" stroke-width="2"/>
              </g>
            </g>
            <g id="Grupo_1226210" data-name="Grupo 1226210" transform="translate(49.121 2.765)" opacity="0.5">
              <path id="Trazado_1060086" data-name="Trazado 1060086" d="M265.094,108.309H164.5V221.453h96.852a4.525,4.525,0,0,0,4.512-4.512V108.257A6.292,6.292,0,0,1,265.094,108.309Z" transform="translate(-118.82 -97.042)" fill="#fff"/>
              <path id="Trazado_1060087" data-name="Trazado 1060087" d="M90.382,108.31a6.3,6.3,0,0,1-.77-.052V216.941a4.525,4.525,0,0,0,4.512,4.512h41.168V108.31Z" transform="translate(-89.611 -97.042)" fill="#fff"/>
              <path id="Trazado_1060088" data-name="Trazado 1060088" d="M232.144,89.871H94.124a4.525,4.525,0,0,0-4.512,4.512v6.7a6.3,6.3,0,0,0,.77.052h145.5a6.3,6.3,0,0,0,.77-.052v-6.7A4.525,4.525,0,0,0,232.144,89.871Z" transform="translate(-89.611 -89.871)" fill="#fff"/>
              <path id="Trazado_1060089" data-name="Trazado 1060089" d="M295.358,96.385a1.8,1.8,0,1,1-1.8-1.8A1.8,1.8,0,0,1,295.358,96.385Z" transform="translate(-168.455 -91.71)" fill="#ff6e5f"/>
              <circle id="Elipse_12631" data-name="Elipse 12631" cx="1.798" cy="1.798" r="1.798" transform="translate(130.499 2.877)" fill="url(#linear-gradient-7)"/>
              <circle id="Elipse_12632" data-name="Elipse 12632" cx="1.798" cy="1.798" r="1.798" transform="translate(137.691 2.877)" fill="#efc459"/>
              <line id="Línea_3377" data-name="Línea 3377" x2="147.045" transform="translate(0 23.653)" fill="none" stroke="#0d1333" stroke-linecap="round" stroke-linejoin="round" stroke-miterlimit="10" stroke-width="1"/>
              <g id="XMLID_2_" transform="translate(58.877 44.138)">
                <g id="Grupo_1226209" data-name="Grupo 1226209">
                  <path id="XMLID_39_" d="M260.628,166.588l-12.234.645,2.2,2.962-9.473,7.046-5-6.721L186.134,207.7l3.373,4.536,45.456-33.805,5,6.721,14.009-10.419,2.52,3.388Z" transform="translate(-186.134 -163.931)" fill="#55cdf2"/>
                  <path id="XMLID_38_" d="M260.628,166.588l-12.234.645,2.2,2.962-9.473,7.046-5-6.721L186.134,207.7l3.373,4.536,45.456-33.805,5,6.721,14.009-10.419,2.52,3.388Z" transform="translate(-186.134 -163.931)" fill="#55cdf2"/>
                  <g id="XMLID_37_" transform="translate(58.777)">
                    <path id="Trazado_1060090" data-name="Trazado 1060090" d="M298.6,162.232l-16.108,1.485,2.2,2.963" transform="translate(-282.493 -162.232)" fill="none" stroke="#f76c5e" stroke-miterlimit="10" stroke-width="4"/>
                  </g>
                  <path id="XMLID_36_" d="M242.087,199.489,256.6,188.7l5,6.721L275.605,185" transform="translate(-207.957 -171.112)" fill="none" stroke="#efc459" stroke-miterlimit="10" stroke-width="4"/>
                </g>
              </g>
              <path id="Trazado_1060091" data-name="Trazado 1060091" d="M180.6,115.713a2.617,2.617,0,1,1-2.617-2.617A2.617,2.617,0,0,1,180.6,115.713Z" transform="translate(-123.058 -98.929)" fill="url(#linear-gradient-5)"/>
              <path id="Trazado_1060092" data-name="Trazado 1060092" d="M193.473,115.713a2.617,2.617,0,1,1-2.617-2.617A2.617,2.617,0,0,1,193.473,115.713Z" transform="translate(-128.078 -98.929)" fill="url(#linear-gradient-2)"/>
              <path id="Trazado_1060093" data-name="Trazado 1060093" d="M206.344,115.713a2.617,2.617,0,1,1-2.617-2.617A2.617,2.617,0,0,1,206.344,115.713Z" transform="translate(-133.098 -98.929)" fill="url(#linear-gradient-2)"/>
              <path id="Trazado_1060094" data-name="Trazado 1060094" d="M219.215,115.713A2.617,2.617,0,1,1,216.6,113.1,2.617,2.617,0,0,1,219.215,115.713Z" transform="translate(-138.118 -98.929)" fill="url(#linear-gradient-2)"/>
              <path id="Trazado_1060095" data-name="Trazado 1060095" d="M232.086,115.713a2.617,2.617,0,1,1-2.617-2.617A2.617,2.617,0,0,1,232.086,115.713Z" transform="translate(-143.139 -98.929)" fill="url(#linear-gradient-2)"/>
              <path id="Trazado_1060096" data-name="Trazado 1060096" d="M244.956,115.713a2.617,2.617,0,1,1-2.617-2.617A2.617,2.617,0,0,1,244.956,115.713Z" transform="translate(-148.158 -98.929)" fill="url(#linear-gradient-5)"/>
              <rect id="Rectángulo_422384" data-name="Rectángulo 422384" width="147.045" height="1.088" transform="translate(0 11.215)" fill="#a6a6a6"/>
              <line id="Línea_3378" data-name="Línea 3378" x2="147.045" transform="translate(0 11.215)" fill="none" stroke="#0d1333" stroke-linecap="round" stroke-linejoin="round" stroke-miterlimit="10" stroke-width="1"/>
              <path id="Trazado_1060097" data-name="Trazado 1060097" d="M138,142.718H122.329a1.079,1.079,0,0,1-1.075-1.075h0a1.078,1.078,0,0,1,1.075-1.075H138a1.079,1.079,0,0,1,1.075,1.075h0A1.079,1.079,0,0,1,138,142.718Z" transform="translate(-101.953 -109.644)" fill="#a6a6a6"/>
              <path id="Trazado_1060098" data-name="Trazado 1060098" d="M115.811,141.642a1.075,1.075,0,1,1-1.075-1.075A1.076,1.076,0,0,1,115.811,141.642Z" transform="translate(-98.991 -109.644)" fill="#a6a6a6"/>
              <path id="Trazado_1060099" data-name="Trazado 1060099" d="M138,156.191H122.329a1.079,1.079,0,0,1-1.075-1.075h0a1.079,1.079,0,0,1,1.075-1.075H138a1.079,1.079,0,0,1,1.075,1.075h0A1.079,1.079,0,0,1,138,156.191Z" transform="translate(-101.953 -114.899)" fill="#a6a6a6"/>
              <path id="Trazado_1060100" data-name="Trazado 1060100" d="M115.811,155.115a1.075,1.075,0,1,1-1.075-1.075A1.076,1.076,0,0,1,115.811,155.115Z" transform="translate(-98.991 -114.899)" fill="#a6a6a6"/>
              <path id="Trazado_1060101" data-name="Trazado 1060101" d="M138,169.664H122.329a1.079,1.079,0,0,1-1.075-1.075h0a1.079,1.079,0,0,1,1.075-1.075H138a1.079,1.079,0,0,1,1.075,1.075h0A1.079,1.079,0,0,1,138,169.664Z" transform="translate(-101.953 -120.153)" fill="#a6a6a6"/>
              <path id="Trazado_1060102" data-name="Trazado 1060102" d="M115.811,168.589a1.075,1.075,0,1,1-1.075-1.075A1.076,1.076,0,0,1,115.811,168.589Z" transform="translate(-98.991 -120.154)" fill="#a6a6a6"/>
              <path id="Trazado_1060103" data-name="Trazado 1060103" d="M138,183.137H122.329a1.079,1.079,0,0,1-1.075-1.075h0a1.079,1.079,0,0,1,1.075-1.075H138a1.079,1.079,0,0,1,1.075,1.075h0A1.079,1.079,0,0,1,138,183.137Z" transform="translate(-101.953 -125.408)" fill="#a6a6a6"/>
              <path id="Trazado_1060104" data-name="Trazado 1060104" d="M115.811,182.062a1.075,1.075,0,1,1-1.075-1.075A1.076,1.076,0,0,1,115.811,182.062Z" transform="translate(-98.991 -125.409)" fill="#a6a6a6"/>
              <path id="Trazado_1060105" data-name="Trazado 1060105" d="M138,196.611H122.329a1.079,1.079,0,0,1-1.075-1.075h0a1.079,1.079,0,0,1,1.075-1.075H138a1.079,1.079,0,0,1,1.075,1.075h0A1.079,1.079,0,0,1,138,196.611Z" transform="translate(-101.953 -130.663)" fill="#a6a6a6"/>
              <path id="Trazado_1060106" data-name="Trazado 1060106" d="M115.811,195.535a1.075,1.075,0,1,1-1.075-1.075A1.076,1.076,0,0,1,115.811,195.535Z" transform="translate(-98.991 -130.663)" fill="#a6a6a6"/>
              <path id="Trazado_1060107" data-name="Trazado 1060107" d="M138,210.084H122.329a1.079,1.079,0,0,1-1.075-1.075h0a1.079,1.079,0,0,1,1.075-1.075H138a1.079,1.079,0,0,1,1.075,1.075h0A1.079,1.079,0,0,1,138,210.084Z" transform="translate(-101.953 -135.918)" fill="#a6a6a6"/>
              <path id="Trazado_1060108" data-name="Trazado 1060108" d="M115.811,209.008a1.075,1.075,0,1,1-1.075-1.075A1.076,1.076,0,0,1,115.811,209.008Z" transform="translate(-98.991 -135.918)" fill="#a6a6a6"/>
              <path id="Trazado_1060109" data-name="Trazado 1060109" d="M138,223.557H122.329a1.079,1.079,0,0,1-1.075-1.075h0a1.079,1.079,0,0,1,1.075-1.075H138a1.079,1.079,0,0,1,1.075,1.075h0A1.079,1.079,0,0,1,138,223.557Z" transform="translate(-101.953 -141.173)" fill="#a6a6a6"/>
              <path id="Trazado_1060110" data-name="Trazado 1060110" d="M115.811,222.481a1.075,1.075,0,1,1-1.075-1.075A1.076,1.076,0,0,1,115.811,222.481Z" transform="translate(-98.991 -141.173)" fill="#a6a6a6"/>
              <path id="Trazado_1060111" data-name="Trazado 1060111" d="M138,237.03H122.329a1.079,1.079,0,0,1-1.075-1.075h0a1.079,1.079,0,0,1,1.075-1.075H138a1.079,1.079,0,0,1,1.075,1.075h0A1.079,1.079,0,0,1,138,237.03Z" transform="translate(-101.953 -146.428)" fill="#a6a6a6"/>
              <path id="Trazado_1060112" data-name="Trazado 1060112" d="M115.811,235.954a1.075,1.075,0,1,1-1.075-1.075A1.075,1.075,0,0,1,115.811,235.954Z" transform="translate(-98.991 -146.428)" fill="#a6a6a6"/>
            </g>
          </g>
        </g>
      </g>
    </g>
  </g>
</svg>
