<svg xmlns="http://www.w3.org/2000/svg" xmlns:xlink="http://www.w3.org/1999/xlink" width="108" height="108" viewBox="0 0 108 108">
  <defs>
    <filter id="Trazado_904820" x="0" y="0" width="108" height="108" filterUnits="userSpaceOnUse">
      <feOffset dy="3" input="SourceAlpha"/>
      <feGaussianBlur stdDeviation="3" result="blur"/>
      <feFlood flood-opacity="0.161"/>
      <feComposite operator="in" in2="blur"/>
      <feComposite in="SourceGraphic"/>
    </filter>
  </defs>
  <g id="Grupo_1226214" data-name="Grupo 1226214" transform="translate(-197.999 -4156.719)">
    <g id="Grupo_1226182" data-name="Grupo 1226182" transform="translate(0 -2795.927)">
      <g id="Grupo_1225798" data-name="Grupo 1225798" transform="translate(206.999 6958.646)">
        <g id="Grupo_1225716" data-name="Grupo 1225716" transform="translate(0 0)">
          <g id="Grupo_1211534" data-name="Grupo 1211534">
            <g id="Grupo_1173585" data-name="Grupo 1173585" transform="translate(0 0)">
              <g id="Grupo_1173428" data-name="Grupo 1173428">
                <g id="Grupo_1171958" data-name="Grupo 1171958">
                  <g id="Grupo_1167341" data-name="Grupo 1167341">
                    <g id="Grupo_1166792" data-name="Grupo 1166792">
                      <g transform="matrix(1, 0, 0, 1, -9, -6)" filter="url(#Trazado_904820)">
                        <g id="Trazado_904820-2" data-name="Trazado 904820" transform="translate(9 6)" fill="#efecfa">
                          <path d="M 44.99999618530273 88.50003814697266 C 39.12687301635742 88.50003814697266 33.43022155761719 87.35011291503906 28.06829643249512 85.08219909667969 C 22.88852119445801 82.89134979248047 18.23629570007324 79.75462341308594 14.24084663391113 75.75917053222656 C 10.24540901184082 71.76372528076172 7.108683586120605 67.11149597167969 4.917821407318115 61.93172454833984 C 2.649921178817749 56.56979751586914 1.499996185302734 50.87314605712891 1.499996185302734 45.00002288818359 C 1.499996185302734 39.12689971923828 2.649921178817749 33.43024826049805 4.917821407318115 28.06832313537598 C 7.108683586120605 22.88854789733887 10.24540901184082 18.2363224029541 14.24084663391113 14.24087333679199 C 18.23629570007324 10.24543571472168 22.88852119445801 7.108710289001465 28.06829643249512 4.917848110198975 C 33.43022155761719 2.649947881698608 39.12687301635742 1.500022888183594 44.99999618530273 1.500022888183594 C 50.87311935424805 1.500022888183594 56.56977081298828 2.649947881698608 61.93169784545898 4.917848110198975 C 67.11147308349609 7.108710289001465 71.76369476318359 10.24543571472168 75.75914764404297 14.24087333679199 C 79.75458526611328 18.2363224029541 82.89131164550781 22.88854789733887 85.08216857910156 28.06832313537598 C 87.35007476806641 33.43024826049805 88.5 39.12689971923828 88.5 45.00002288818359 C 88.5 50.87314605712891 87.35007476806641 56.56979751586914 85.08216857910156 61.93172454833984 C 82.89131164550781 67.11149597167969 79.75458526611328 71.76372528076172 75.75914764404297 75.75917053222656 C 71.76369476318359 79.75462341308594 67.11147308349609 82.89134979248047 61.93169784545898 85.08219909667969 C 56.56977081298828 87.35011291503906 50.87311935424805 88.50003814697266 44.99999618530273 88.50003814697266 Z" stroke="none"/>
                          <path d="M 44.99999618530273 3.000007629394531 C 39.32870864868164 3.000007629394531 33.82865142822266 4.110069274902344 28.65262603759766 6.299354553222656 C 23.65165710449219 8.414581298828125 19.15968322753906 11.44335174560547 15.301513671875 15.30153656005859 C 11.44333648681641 19.15970611572266 8.414566040039062 23.65166473388672 6.299339294433594 28.65265274047852 C 4.110054016113281 33.82867813110352 2.999992370605469 39.3287353515625 2.999992370605469 45.00002288818359 C 2.999992370605469 50.67131042480469 4.110054016113281 56.17135238647461 6.299339294433594 61.34739685058594 C 8.414566040039062 66.34836578369141 11.44333648681641 70.84032440185547 15.301513671875 74.69850921630859 C 19.15968322753906 78.55667877197266 23.65165710449219 81.58544921875 28.65262603759766 83.70068359375 C 33.82865142822266 85.88996887207031 39.32870864868164 87.00002288818359 44.99999618530273 87.00002288818359 C 50.67128372192383 87.00002288818359 56.17134094238281 85.88996887207031 61.34736633300781 83.70068359375 C 66.34834289550781 81.58544921875 70.84030914306641 78.55667877197266 74.69847869873047 74.69850921630859 C 78.55665588378906 70.84032440185547 81.58542633056641 66.34836578369141 83.70065307617188 61.34739685058594 C 85.88993835449219 56.17135238647461 87 50.67131042480469 87 45.00002288818359 C 87 39.3287353515625 85.88993835449219 33.82867813110352 83.70065307617188 28.65265274047852 C 81.58542633056641 23.65166473388672 78.55665588378906 19.15970611572266 74.69847869873047 15.30153656005859 C 70.84030914306641 11.44335174560547 66.34834289550781 8.414581298828125 61.34736633300781 6.299354553222656 C 56.17134094238281 4.110069274902344 50.67128372192383 3.000007629394531 44.99999618530273 3.000007629394531 M 44.99999618530273 7.62939453125e-06 C 69.85281372070312 7.62939453125e-06 90 20.14720916748047 90 45.00002288818359 C 90 69.85282135009766 69.85281372070312 90.00002288818359 44.99999618530273 90.00002288818359 C 20.14717864990234 90.00002288818359 -7.62939453125e-06 69.85282135009766 -7.62939453125e-06 45.00002288818359 C -7.62939453125e-06 20.14720916748047 20.14717864990234 7.62939453125e-06 44.99999618530273 7.62939453125e-06 Z" stroke="none" fill="#6c4dd8"/>
                        </g>
                      </g>
                    </g>
                  </g>
                </g>
              </g>
            </g>
          </g>
        </g>
      </g>
    </g>
    <g id="Layer_x0020_1" transform="translate(-20.287 4176.2)">
      <path id="Trazado_1060113" data-name="Trazado 1060113" d="M288.147,57.978H280.5a1.072,1.072,0,0,1-1.071-1.071V51.774A1.072,1.072,0,0,1,280.5,50.7h7.644a1.072,1.072,0,0,1,1.071,1.071v5.133A1.072,1.072,0,0,1,288.147,57.978Zm.369,5.059h-32.46A6.06,6.06,0,0,1,250,56.981V6.056A6.06,6.06,0,0,1,256.056,0h32.46a6.06,6.06,0,0,1,6.056,6.056V56.981A6.084,6.084,0,0,1,288.516,63.037ZM256.056,2.142A3.863,3.863,0,0,0,252.4,4.653h39.772a3.9,3.9,0,0,0-3.656-2.511Zm-3.914,4.653V56.981a3.916,3.916,0,0,0,3.914,3.914h32.46a3.94,3.94,0,0,0,3.914-3.914V6.795Zm15.473,10.192H255.428a1.072,1.072,0,0,1-1.071-1.071V10.783a1.072,1.072,0,0,1,1.071-1.071h12.186a1.049,1.049,0,0,1,1.071,1.071v5.133A1.049,1.049,0,0,1,267.615,16.987ZM256.5,14.845h10.081V11.854H256.5Zm23.486,29.69H264.55a1.071,1.071,0,0,1,0-2.142h15.436A1.071,1.071,0,0,1,279.986,44.536Zm-15.215-7.607a10.549,10.549,0,1,1,.074.074C264.845,36.965,264.808,36.965,264.771,36.928Zm7.5-16.359a8.647,8.647,0,0,0-6.61,14.181,10.86,10.86,0,0,1,13.22,0A8.638,8.638,0,0,0,272.268,20.569Zm-4.985,15.658a8.6,8.6,0,0,0,10.008,0A8.6,8.6,0,0,0,267.283,36.227Zm4.985-5.133a4.173,4.173,0,1,1,4.173-4.173A4.161,4.161,0,0,1,272.268,31.094Zm0-6.2a2.031,2.031,0,0,0,0,4.062A2.031,2.031,0,0,0,272.268,24.89ZM284.491,48.6H260.045a1.071,1.071,0,0,1,0-2.142h24.447A1.071,1.071,0,1,1,284.491,48.6Zm-8.383,9.38h-7.644a1.072,1.072,0,0,1-1.071-1.071V51.774a1.072,1.072,0,0,1,1.071-1.071h7.644a1.072,1.072,0,0,1,1.071,1.071v5.133A1.072,1.072,0,0,1,276.108,57.978Zm-6.573-2.142h5.5V52.845h-5.5Zm18.612-43.982h-2.29a1.071,1.071,0,0,1,0-2.142h2.29A1.071,1.071,0,0,1,288.147,11.854ZM264.033,57.978h-7.644a1.072,1.072,0,0,1-1.071-1.071V51.774a1.072,1.072,0,0,1,1.071-1.071h7.644a1.072,1.072,0,0,1,1.071,1.071v5.133A1.072,1.072,0,0,1,264.033,57.978Zm-6.573-2.142h5.5V52.845h-5.5Zm24.114,0h5.5V52.845h-5.5Z" transform="translate(0)" fill-rule="evenodd"/>
      <path id="Trazado_1060114" data-name="Trazado 1060114" d="M340.349,223.661a1.071,1.071,0,1,1,0,2.142H315.9a1.071,1.071,0,0,1,0-2.142Zm-3.988,4.247h7.644a1.072,1.072,0,0,1,1.071,1.071v5.133a1.072,1.072,0,0,1-1.071,1.071h-7.644a1.072,1.072,0,0,1-1.071-1.071v-5.133A1.072,1.072,0,0,1,336.361,227.908Zm-.517-8.309a1.071,1.071,0,0,1,0,2.142H320.408a1.071,1.071,0,0,1,0-2.142Zm-2.807,9.38v5.133a1.072,1.072,0,0,1-1.071,1.071h-7.644a1.072,1.072,0,0,1-1.071-1.071v-5.133a1.072,1.072,0,0,1,1.071-1.071h7.644A1.072,1.072,0,0,1,333.037,228.979ZM311.914,238.1h32.46a3.94,3.94,0,0,0,3.914-3.914V184H308v50.186A3.916,3.916,0,0,0,311.914,238.1Zm16.212-42.468a10.771,10.771,0,1,1-7.423,18.575l-.074-.074A10.787,10.787,0,0,1,328.126,195.632Zm-4.653-1.44H311.287a1.072,1.072,0,0,1-1.071-1.071v-5.133a1.072,1.072,0,0,1,1.071-1.071h12.186a1.049,1.049,0,0,1,1.071,1.071v5.133A1.049,1.049,0,0,1,323.473,194.192Zm20.532-5.133h-2.29a1.071,1.071,0,0,1,0-2.142h2.29A1.071,1.071,0,0,1,344.005,189.059Zm-23.043,39.92v5.133a1.072,1.072,0,0,1-1.071,1.071h-7.644a1.072,1.072,0,0,1-1.071-1.071v-5.133a1.072,1.072,0,0,1,1.071-1.071h7.644A1.072,1.072,0,0,1,320.962,228.979Z" transform="translate(-55.858 -177.205)" fill="#d3ffff" fill-rule="evenodd"/>
      <path id="Trazado_1060115" data-name="Trazado 1060115" d="M436.082,323.991V321H426v2.991Z" transform="translate(-169.501 -309.146)" fill="#ff3131" fill-rule="evenodd"/>
      <path id="Trazado_1060116" data-name="Trazado 1060116" d="M315,60.511h39.772A3.9,3.9,0,0,0,351.116,58h-32.46A3.863,3.863,0,0,0,315,60.511Z" transform="translate(-62.6 -55.858)" fill="#58535a" fill-rule="evenodd"/>
      <path id="Trazado_1060117" data-name="Trazado 1060117" d="M800.994,674a2.031,2.031,0,0,0,0,4.062A2.031,2.031,0,0,0,800.994,674Z" transform="translate(-528.726 -649.11)" fill="#ffc06d" fill-rule="evenodd"/>
      <path id="Trazado_1060118" data-name="Trazado 1060118" d="M632.037,563.352a4.154,4.154,0,1,1-4.173-4.173A4.169,4.169,0,0,1,632.037,563.352Zm2.437,7.829a8.631,8.631,0,1,0-13.22,0A10.86,10.86,0,0,1,634.474,571.18Z" transform="translate(-355.596 -536.431)" fill="#1aa1ff" fill-rule="evenodd"/>
      <path id="Trazado_1060119" data-name="Trazado 1060119" d="M728.008,939.106a8.6,8.6,0,0,0-10.008,0A8.6,8.6,0,0,0,728.008,939.106Z" transform="translate(-450.717 -902.88)" fill="#ff3131" fill-rule="evenodd"/>
      <g id="Grupo_1226215" data-name="Grupo 1226215" transform="translate(257.46 52.845)">
        <path id="Trazado_1060120" data-name="Trazado 1060120" d="M457.5,1431H452v2.991h5.5Z" transform="translate(-452 -1431)" fill="#1c9b4f" fill-rule="evenodd"/>
        <path id="Trazado_1060121" data-name="Trazado 1060121" d="M779,1431v2.991h5.5V1431Z" transform="translate(-766.924 -1431)" fill="#1c9b4f" fill-rule="evenodd"/>
        <path id="Trazado_1060122" data-name="Trazado 1060122" d="M1105,1431v2.991h5.5V1431Z" transform="translate(-1080.886 -1431)" fill="#1c9b4f" fill-rule="evenodd"/>
      </g>
    </g>
  </g>
</svg>
