<svg xmlns="http://www.w3.org/2000/svg" xmlns:xlink="http://www.w3.org/1999/xlink" width="108" height="108" viewBox="0 0 108 108">
  <defs>
    <filter id="Trazado_904820" x="0" y="0" width="108" height="108" filterUnits="userSpaceOnUse">
      <feOffset dy="3" input="SourceAlpha"/>
      <feGaussianBlur stdDeviation="3" result="blur"/>
      <feFlood flood-opacity="0.161"/>
      <feComposite operator="in" in2="blur"/>
      <feComposite in="SourceGraphic"/>
    </filter>
  </defs>
  <g id="Grupo_1225717" data-name="Grupo 1225717" transform="translate(9 6)">
    <g id="Grupo_1225716" data-name="Grupo 1225716" transform="translate(0 0)">
      <g id="Grupo_1211534" data-name="Grupo 1211534">
        <g id="Grupo_1173585" data-name="Grupo 1173585" transform="translate(0 0)">
          <g id="Grupo_1173428" data-name="Grupo 1173428">
            <g id="Grupo_1171958" data-name="Grupo 1171958">
              <g id="Grupo_1167341" data-name="Grupo 1167341">
                <g id="Grupo_1166792" data-name="Grupo 1166792">
                  <g transform="matrix(1, 0, 0, 1, -9, -6)" filter="url(#Trazado_904820)">
                    <g id="Trazado_904820-2" data-name="Trazado 904820" transform="translate(9 6)" fill="#fceefb">
                      <path d="M 44.99999618530273 88.50003814697266 C 39.12687301635742 88.50003814697266 33.43022155761719 87.35011291503906 28.06829643249512 85.08219909667969 C 22.88852119445801 82.89134979248047 18.23629570007324 79.75462341308594 14.24084663391113 75.75917053222656 C 10.24540901184082 71.76372528076172 7.108683586120605 67.11149597167969 4.917821407318115 61.93172454833984 C 2.649921178817749 56.56979751586914 1.499996185302734 50.87314605712891 1.499996185302734 45.00002288818359 C 1.499996185302734 39.12689971923828 2.649921178817749 33.43024826049805 4.917821407318115 28.06832313537598 C 7.108683586120605 22.88854789733887 10.24540901184082 18.2363224029541 14.24084663391113 14.24087333679199 C 18.23629570007324 10.24543571472168 22.88852119445801 7.108710289001465 28.06829643249512 4.917848110198975 C 33.43022155761719 2.649947881698608 39.12687301635742 1.500022888183594 44.99999618530273 1.500022888183594 C 50.87311935424805 1.500022888183594 56.56977081298828 2.649947881698608 61.93169784545898 4.917848110198975 C 67.11147308349609 7.108710289001465 71.76369476318359 10.24543571472168 75.75914764404297 14.24087333679199 C 79.75458526611328 18.2363224029541 82.89131164550781 22.88854789733887 85.08216857910156 28.06832313537598 C 87.35007476806641 33.43024826049805 88.5 39.12689971923828 88.5 45.00002288818359 C 88.5 50.87314605712891 87.35007476806641 56.56979751586914 85.08216857910156 61.93172454833984 C 82.89131164550781 67.11149597167969 79.75458526611328 71.76372528076172 75.75914764404297 75.75917053222656 C 71.76369476318359 79.75462341308594 67.11147308349609 82.89134979248047 61.93169784545898 85.08219909667969 C 56.56977081298828 87.35011291503906 50.87311935424805 88.50003814697266 44.99999618530273 88.50003814697266 Z" stroke="none"/>
                      <path d="M 44.99999618530273 3.000007629394531 C 39.32870864868164 3.000007629394531 33.82865142822266 4.110069274902344 28.65262603759766 6.299354553222656 C 23.65165710449219 8.414581298828125 19.15968322753906 11.44335174560547 15.301513671875 15.30153656005859 C 11.44333648681641 19.15970611572266 8.414566040039062 23.65166473388672 6.299339294433594 28.65265274047852 C 4.110054016113281 33.82867813110352 2.999992370605469 39.3287353515625 2.999992370605469 45.00002288818359 C 2.999992370605469 50.67131042480469 4.110054016113281 56.17135238647461 6.299339294433594 61.34739685058594 C 8.414566040039062 66.34836578369141 11.44333648681641 70.84032440185547 15.301513671875 74.69850921630859 C 19.15968322753906 78.55667877197266 23.65165710449219 81.58544921875 28.65262603759766 83.70068359375 C 33.82865142822266 85.88996887207031 39.32870864868164 87.00002288818359 44.99999618530273 87.00002288818359 C 50.67128372192383 87.00002288818359 56.17134094238281 85.88996887207031 61.34736633300781 83.70068359375 C 66.34834289550781 81.58544921875 70.84030914306641 78.55667877197266 74.69847869873047 74.69850921630859 C 78.55665588378906 70.84032440185547 81.58542633056641 66.34836578369141 83.70065307617188 61.34739685058594 C 85.88993835449219 56.17135238647461 87 50.67131042480469 87 45.00002288818359 C 87 39.3287353515625 85.88993835449219 33.82867813110352 83.70065307617188 28.65265274047852 C 81.58542633056641 23.65166473388672 78.55665588378906 19.15970611572266 74.69847869873047 15.30153656005859 C 70.84030914306641 11.44335174560547 66.34834289550781 8.414581298828125 61.34736633300781 6.299354553222656 C 56.17134094238281 4.110069274902344 50.67128372192383 3.000007629394531 44.99999618530273 3.000007629394531 M 44.99999618530273 7.62939453125e-06 C 69.85281372070312 7.62939453125e-06 90 20.14720916748047 90 45.00002288818359 C 90 69.85282135009766 69.85281372070312 90.00002288818359 44.99999618530273 90.00002288818359 C 20.14717864990234 90.00002288818359 -7.62939453125e-06 69.85282135009766 -7.62939453125e-06 45.00002288818359 C -7.62939453125e-06 20.14720916748047 20.14717864990234 7.62939453125e-06 44.99999618530273 7.62939453125e-06 Z" stroke="none" fill="#e761e1"/>
                    </g>
                  </g>
                </g>
              </g>
            </g>
          </g>
        </g>
      </g>
    </g>
    <g id="app" transform="translate(20.593 14.801)">
      <path id="Trazado_1059501" data-name="Trazado 1059501" d="M27.278,138.8v27.742a9.742,9.742,0,0,1-9.734,9.8v5.6H7.5V148.7a9.894,9.894,0,0,1,9.894-9.894Zm0,0" transform="translate(-6.612 -122.431)" fill="#edb48a"/>
      <path id="Trazado_1059502" data-name="Trazado 1059502" d="M92.68,138.8h9.734v43.139H92.68Zm0,0" transform="translate(-81.747 -122.431)" fill="#e29c6d"/>
      <path id="Trazado_1059503" data-name="Trazado 1059503" d="M148.939,66.04H123.558a4.237,4.237,0,0,1-4.237-4.237V11.737A4.237,4.237,0,0,1,123.558,7.5h25.381a4.237,4.237,0,0,1,4.237,4.237V61.8A4.237,4.237,0,0,1,148.939,66.04Zm0,0" transform="translate(-105.245 -6.615)" fill="#618baa"/>
      <path id="Trazado_1059504" data-name="Trazado 1059504" d="M347.319,11.737V61.8a4.236,4.236,0,0,1-4.237,4.237H339.43a4.236,4.236,0,0,0,4.237-4.237V11.737A4.236,4.236,0,0,0,339.43,7.5h3.653A4.236,4.236,0,0,1,347.319,11.737Zm0,0" transform="translate(-299.39 -6.615)" fill="#4e7693"/>
      <path id="Trazado_1059505" data-name="Trazado 1059505" d="M146.094,54.608l-.606,1.6a1.178,1.178,0,0,1-1.1.76H128.109a1.178,1.178,0,0,1-1.1-.76l-.605-1.6a1.179,1.179,0,0,0-1.1-.76h-5.98v47.016h33.855V53.848h-5.98a1.178,1.178,0,0,0-1.1.76Zm0,0" transform="translate(-105.245 -47.496)" fill="#5be167"/>
      <path id="Trazado_1059506" data-name="Trazado 1059506" d="M375.348,53.852H379v47.015h-3.652Zm0,0" transform="translate(-331.071 -47.499)" fill="#1fc974"/>
      <path id="Trazado_1059507" data-name="Trazado 1059507" d="M159.939,214.6H156.3a1.078,1.078,0,0,1-1.078-1.078v-3.638a1.078,1.078,0,0,1,1.078-1.078h3.639a1.078,1.078,0,0,1,1.078,1.078v3.638A1.078,1.078,0,0,1,159.939,214.6Zm0,0" transform="translate(-136.912 -184.177)" fill="#fd9e28"/>
      <path id="Trazado_1059508" data-name="Trazado 1059508" d="M180.167,209.886v3.638a1.078,1.078,0,0,1-1.078,1.078h-2.156a1.078,1.078,0,0,0,1.078-1.078v-3.638a1.078,1.078,0,0,0-1.078-1.078h2.156A1.078,1.078,0,0,1,180.167,209.886Zm0,0" transform="translate(-156.062 -184.177)" fill="#fd8724"/>
      <path id="Trazado_1059509" data-name="Trazado 1059509" d="M242.974,214.6h-3.639a1.078,1.078,0,0,1-1.078-1.078v-3.638a1.078,1.078,0,0,1,1.078-1.078h3.639a1.078,1.078,0,0,1,1.078,1.078v3.638A1.078,1.078,0,0,1,242.974,214.6Zm0,0" transform="translate(-210.152 -184.177)" fill="#fd9e28"/>
      <path id="Trazado_1059510" data-name="Trazado 1059510" d="M263.2,209.886v3.638a1.078,1.078,0,0,1-1.078,1.078h-2.156a1.078,1.078,0,0,0,1.078-1.078v-3.638a1.078,1.078,0,0,0-1.078-1.078h2.156A1.078,1.078,0,0,1,263.2,209.886Zm0,0" transform="translate(-229.299 -184.177)" fill="#fd8724"/>
      <path id="Trazado_1059511" data-name="Trazado 1059511" d="M326.005,214.6h-3.639a1.078,1.078,0,0,1-1.078-1.078v-3.638a1.078,1.078,0,0,1,1.078-1.078h3.639a1.078,1.078,0,0,1,1.078,1.078v3.638A1.078,1.078,0,0,1,326.005,214.6Zm0,0" transform="translate(-283.388 -184.177)" fill="#fd9e28"/>
      <path id="Trazado_1059512" data-name="Trazado 1059512" d="M346.233,209.886v3.638a1.078,1.078,0,0,1-1.078,1.078H343a1.078,1.078,0,0,0,1.078-1.078v-3.638A1.078,1.078,0,0,0,343,208.808h2.156A1.078,1.078,0,0,1,346.233,209.886Zm0,0" transform="translate(-302.538 -184.177)" fill="#fd8724"/>
      <path id="Trazado_1059513" data-name="Trazado 1059513" d="M159.939,368.368H156.3a1.078,1.078,0,0,1-1.078-1.078v-3.639a1.078,1.078,0,0,1,1.078-1.078h3.639a1.078,1.078,0,0,1,1.078,1.078v3.639A1.078,1.078,0,0,1,159.939,368.368Zm0,0" transform="translate(-136.912 -319.803)" fill="#43a3f9"/>
      <path id="Trazado_1059514" data-name="Trazado 1059514" d="M180.167,363.653v3.638a1.078,1.078,0,0,1-1.078,1.078h-2.156a1.078,1.078,0,0,0,1.078-1.078v-3.638a1.078,1.078,0,0,0-1.078-1.078h2.156A1.078,1.078,0,0,1,180.167,363.653Zm0,0" transform="translate(-156.062 -319.804)" fill="#1685fb"/>
      <path id="Trazado_1059515" data-name="Trazado 1059515" d="M242.974,368.368h-3.639a1.078,1.078,0,0,1-1.078-1.078v-3.639a1.078,1.078,0,0,1,1.078-1.078h3.639a1.078,1.078,0,0,1,1.078,1.078v3.639A1.078,1.078,0,0,1,242.974,368.368Zm0,0" transform="translate(-210.152 -319.803)" fill="#43a3f9"/>
      <path id="Trazado_1059516" data-name="Trazado 1059516" d="M263.2,363.653v3.638a1.078,1.078,0,0,1-1.078,1.078h-2.156a1.078,1.078,0,0,0,1.078-1.078v-3.638a1.078,1.078,0,0,0-1.078-1.078h2.156A1.078,1.078,0,0,1,263.2,363.653Zm0,0" transform="translate(-229.299 -319.804)" fill="#1685fb"/>
      <path id="Trazado_1059517" data-name="Trazado 1059517" d="M326.005,368.368h-3.639a1.078,1.078,0,0,1-1.078-1.078v-3.639a1.078,1.078,0,0,1,1.078-1.078h3.639a1.078,1.078,0,0,1,1.078,1.078v3.639A1.078,1.078,0,0,1,326.005,368.368Zm0,0" transform="translate(-283.388 -319.803)" fill="#43a3f9"/>
      <path id="Trazado_1059518" data-name="Trazado 1059518" d="M346.233,363.653v3.638a1.078,1.078,0,0,1-1.078,1.078H343a1.078,1.078,0,0,0,1.078-1.078v-3.638A1.078,1.078,0,0,0,343,362.574h2.156A1.078,1.078,0,0,1,346.233,363.653Zm0,0" transform="translate(-302.538 -319.804)" fill="#1685fb"/>
      <path id="Trazado_1059519" data-name="Trazado 1059519" d="M92.68,203.816a4.867,4.867,0,0,1,9.733,0V219.6a9.773,9.773,0,0,1-6.547,9.264,4.724,4.724,0,0,0-3.186,4.463Zm0,0" transform="translate(-81.747 -175.48)" fill="#edb48a"/>
      <path id="Trazado_1059520" data-name="Trazado 1059520" d="M128.234,203.812v15.781a9.778,9.778,0,0,1-6.078,9.087,9.8,9.8,0,0,0,3.251-7.32V203.812a4.868,4.868,0,0,0-3.454-4.658,4.868,4.868,0,0,1,6.281,4.658Zm0,0" transform="translate(-107.567 -175.477)" fill="#e29c6d"/>
      <path id="Trazado_1059521" data-name="Trazado 1059521" d="M159.939,129.021H156.3a1.078,1.078,0,0,1-1.078-1.078V124.3a1.078,1.078,0,0,1,1.078-1.078h3.639a1.078,1.078,0,0,1,1.078,1.078v3.639A1.078,1.078,0,0,1,159.939,129.021Zm0,0" transform="translate(-136.912 -108.691)" fill="#e3f4ff"/>
      <path id="Trazado_1059522" data-name="Trazado 1059522" d="M180.167,124.308v3.639a1.078,1.078,0,0,1-1.078,1.078h-2.156a1.078,1.078,0,0,0,1.078-1.078v-3.639a1.078,1.078,0,0,0-1.078-1.078h2.156A1.078,1.078,0,0,1,180.167,124.308Zm0,0" transform="translate(-156.062 -108.694)" fill="#bddff4"/>
      <path id="Trazado_1059523" data-name="Trazado 1059523" d="M242.974,129.021h-3.639a1.078,1.078,0,0,1-1.078-1.078V124.3a1.078,1.078,0,0,1,1.078-1.078h3.639a1.078,1.078,0,0,1,1.078,1.078v3.639A1.078,1.078,0,0,1,242.974,129.021Zm0,0" transform="translate(-210.152 -108.691)" fill="#e3f4ff"/>
      <path id="Trazado_1059524" data-name="Trazado 1059524" d="M263.2,124.308v3.639a1.078,1.078,0,0,1-1.078,1.078h-2.156a1.078,1.078,0,0,0,1.078-1.078v-3.639a1.078,1.078,0,0,0-1.078-1.078h2.156A1.078,1.078,0,0,1,263.2,124.308Zm0,0" transform="translate(-229.299 -108.694)" fill="#bddff4"/>
      <path id="Trazado_1059525" data-name="Trazado 1059525" d="M326.005,129.021h-3.639a1.078,1.078,0,0,1-1.078-1.078V124.3a1.078,1.078,0,0,1,1.078-1.078h3.639a1.078,1.078,0,0,1,1.078,1.078v3.639A1.078,1.078,0,0,1,326.005,129.021Zm0,0" transform="translate(-283.388 -108.691)" fill="#e3f4ff"/>
      <path id="Trazado_1059526" data-name="Trazado 1059526" d="M346.233,124.308v3.639a1.078,1.078,0,0,1-1.078,1.078H343a1.078,1.078,0,0,0,1.078-1.078v-3.639A1.078,1.078,0,0,0,343,123.23h2.156A1.078,1.078,0,0,1,346.233,124.308Zm0,0" transform="translate(-302.538 -108.694)" fill="#bddff4"/>
      <path id="Trazado_1059527" data-name="Trazado 1059527" d="M.885,394.535A.885.885,0,0,0,0,395.42v12.087a.885.885,0,0,0,1.769,0V395.42A.885.885,0,0,0,.885,394.535Zm0,0" transform="translate(0 -347.994)"/>
      <path id="Trazado_1059528" data-name="Trazado 1059528" d="M238.322,203.271a1.965,1.965,0,0,0-1.963-1.963H232.72a1.965,1.965,0,0,0-1.963,1.963v3.638a1.965,1.965,0,0,0,1.963,1.963h3.639a1.965,1.965,0,0,0,1.963-1.963Zm-1.769,3.638a.193.193,0,0,1-.193.194H232.72a.193.193,0,0,1-.193-.194v-3.638a.193.193,0,0,1,.193-.193h3.639a.193.193,0,0,1,.193.193Zm0,0" transform="translate(-203.537 -177.561)"/>
      <path id="Trazado_1059529" data-name="Trazado 1059529" d="M321.353,203.271a1.964,1.964,0,0,0-1.963-1.963h-3.639a1.965,1.965,0,0,0-1.962,1.963v3.638a1.965,1.965,0,0,0,1.962,1.963h3.639a1.965,1.965,0,0,0,1.963-1.963Zm-1.769,3.638a.193.193,0,0,1-.193.194h-3.639a.193.193,0,0,1-.193-.194v-3.638a.193.193,0,0,1,.193-.193h3.639a.193.193,0,0,1,.193.193Zm0,0" transform="translate(-276.773 -177.561)"/>
      <path id="Trazado_1059530" data-name="Trazado 1059530" d="M236.358,355.074H232.72a1.965,1.965,0,0,0-1.963,1.963v3.638a1.964,1.964,0,0,0,1.963,1.963h3.638a1.965,1.965,0,0,0,1.963-1.963v-3.638A1.965,1.965,0,0,0,236.358,355.074Zm.194,5.6a.193.193,0,0,1-.193.193H232.72a.193.193,0,0,1-.193-.193v-3.638a.193.193,0,0,1,.193-.194h3.639a.193.193,0,0,1,.193.194Zm0,0" transform="translate(-203.537 -313.188)"/>
      <path id="Trazado_1059531" data-name="Trazado 1059531" d="M319.39,355.074h-3.639a1.965,1.965,0,0,0-1.962,1.963v3.638a1.965,1.965,0,0,0,1.962,1.963h3.639a1.964,1.964,0,0,0,1.962-1.963v-3.638A1.965,1.965,0,0,0,319.39,355.074Zm.193,5.6a.193.193,0,0,1-.193.193h-3.639a.193.193,0,0,1-.193-.193v-3.638a.193.193,0,0,1,.193-.194h3.639a.193.193,0,0,1,.193.194Zm0,0" transform="translate(-276.773 -313.188)"/>
      <path id="Trazado_1059532" data-name="Trazado 1059532" d="M47.931,34.426a.885.885,0,0,0,.885-.885V5.122A5.127,5.127,0,0,0,43.694,0H27.051a.885.885,0,1,0,0,1.769H43.694a3.356,3.356,0,0,1,3.352,3.352v.346h-5.1A2.073,2.073,0,0,0,40.022,6.8l-.606,1.6a.294.294,0,0,1-.274.189H22.864a.3.3,0,0,1-.274-.189l-.605-1.6a2.074,2.074,0,0,0-1.928-1.331h-5.1V5.122a3.356,3.356,0,0,1,3.352-3.352h4.665a.885.885,0,0,0,0-1.769H18.313a5.128,5.128,0,0,0-5.122,5.122V15.489H10.78A10.791,10.791,0,0,0,0,26.268V43.006a.885.885,0,1,0,1.769,0V26.268a9.02,9.02,0,0,1,9.009-9.009h2.412v5.954a5.757,5.757,0,0,0-3.143,5.123v8.3a3.612,3.612,0,0,0-2.721,3.5.885.885,0,1,0,1.769,0,1.838,1.838,0,0,1,.952-1.608v2.485a.885.885,0,1,0,1.769,0V28.335a3.982,3.982,0,0,1,7.964,0V44.116a8.9,8.9,0,0,1-5.952,8.428,5.581,5.581,0,0,0-3.487,3.507.885.885,0,1,0,1.676.567A3.822,3.822,0,0,1,13.191,54.9v.283a5.128,5.128,0,0,0,5.122,5.122H43.694a5.128,5.128,0,0,0,5.122-5.122V37.614a.885.885,0,1,0-1.769,0V52.484h-29.5a10.652,10.652,0,0,0,2.59-3.034h2.891a1.964,1.964,0,0,0,1.963-1.963V43.849a1.965,1.965,0,0,0-1.963-1.963H21.552V31.311h1.476a1.965,1.965,0,0,0,1.963-1.963V25.71a1.964,1.964,0,0,0-1.963-1.963H19.389a.864.864,0,0,0-.115.008A5.72,5.72,0,0,0,15.8,22.584a5.8,5.8,0,0,0-.84.062V7.237h5.1a.3.3,0,0,1,.274.189l.605,1.6a2.074,2.074,0,0,0,1.928,1.331H39.142a2.074,2.074,0,0,0,1.928-1.331l.606-1.6a.294.294,0,0,1,.274-.189h5.1v26.3a.885.885,0,0,0,.885.885Zm-.885,19.827v.934a3.356,3.356,0,0,1-3.352,3.352H18.313a3.356,3.356,0,0,1-3.352-3.352v-.935H47.046Zm-24.018-10.6a.193.193,0,0,1,.193.194v3.638a.193.193,0,0,1-.193.193H20.944a10.754,10.754,0,0,0,.607-3.564v-.461Zm0-18.139a.193.193,0,0,1,.193.193v3.638a.193.193,0,0,1-.193.194H21.552V28.335a5.712,5.712,0,0,0-.741-2.819Zm0,0" transform="translate(-0.001)"/>
      <path id="Trazado_1059533" data-name="Trazado 1059533" d="M149.685,115.73a1.965,1.965,0,0,0-1.963,1.963v3.639a1.965,1.965,0,0,0,1.963,1.963h3.639a1.965,1.965,0,0,0,1.963-1.963v-3.639a1.964,1.964,0,0,0-1.963-1.963Zm3.832,1.963v3.639a.194.194,0,0,1-.193.193h-3.639a.193.193,0,0,1-.193-.193v-3.639a.193.193,0,0,1,.193-.193h3.639A.193.193,0,0,1,153.517,117.693Zm0,0" transform="translate(-130.296 -102.078)"/>
      <path id="Trazado_1059534" data-name="Trazado 1059534" d="M238.322,117.693a1.965,1.965,0,0,0-1.963-1.963H232.72a1.965,1.965,0,0,0-1.963,1.963v3.639a1.965,1.965,0,0,0,1.963,1.963h3.639a1.965,1.965,0,0,0,1.963-1.963Zm-1.769,3.638a.193.193,0,0,1-.193.193H232.72a.193.193,0,0,1-.193-.193v-3.639a.193.193,0,0,1,.193-.193h3.639a.193.193,0,0,1,.193.193Zm0,0" transform="translate(-203.537 -102.078)"/>
      <path id="Trazado_1059535" data-name="Trazado 1059535" d="M321.353,117.693a1.964,1.964,0,0,0-1.963-1.963h-3.639a1.965,1.965,0,0,0-1.962,1.963v3.639a1.965,1.965,0,0,0,1.962,1.963h3.639a1.965,1.965,0,0,0,1.963-1.963Zm-1.769,3.638a.193.193,0,0,1-.193.193h-3.639a.193.193,0,0,1-.193-.193v-3.639a.193.193,0,0,1,.193-.193h3.639a.193.193,0,0,1,.193.193Zm0,0" transform="translate(-276.773 -102.078)"/>
    </g>
  </g>
</svg>
