<svg xmlns="http://www.w3.org/2000/svg" xmlns:xlink="http://www.w3.org/1999/xlink" width="400" height="287" viewBox="0 0 400 287">
  <defs>
    <clipPath id="clip-path">
      <rect id="Rectángulo_422373" data-name="Rectángulo 422373" width="400" height="287" transform="translate(1020 2981)" fill="#fff" stroke="#707070" stroke-width="1"/>
    </clipPath>
    <clipPath id="clip-path-2">
      <rect id="Rectángulo_422372" data-name="Rectángulo 422372" width="385.031" height="277.574" fill="none"/>
    </clipPath>
    <clipPath id="clip-path-3">
      <rect id="Rectángulo_422330" data-name="Rectángulo 422330" width="385.03" height="277.575" fill="none"/>
    </clipPath>
    <clipPath id="clip-path-4">
      <rect id="Rectángulo_422328" data-name="Rectángulo 422328" width="4.828" height="4.73" fill="none"/>
    </clipPath>
    <clipPath id="clip-path-5">
      <rect id="Rectángulo_422329" data-name="Rectángulo 422329" width="86.254" height="2.955" fill="none"/>
    </clipPath>
    <clipPath id="clip-path-6">
      <path id="Trazado_1059565" data-name="Trazado 1059565" d="M660.071,583.708a11.03,11.03,0,1,0,0,22.06h28.763a11.03,11.03,0,1,0,0-22.06Z" transform="translate(-649.041 -583.708)" fill="none"/>
    </clipPath>
    <linearGradient id="linear-gradient" x1="-4.242" y1="2.426" x2="-4.236" y2="2.426" gradientUnits="objectBoundingBox">
      <stop offset="0" stop-color="#bae1ff"/>
      <stop offset="0.01" stop-color="#bae1ff"/>
      <stop offset="1" stop-color="#86c0ff"/>
    </linearGradient>
    <clipPath id="clip-path-7">
      <path id="Trazado_1059578" data-name="Trazado 1059578" d="M647.589,593.174a9.276,9.276,0,0,0,9.8,9.047c4.571-.213,6.339-2.744,6.339-7.576,0-5.054-1.934-10.71-6.987-10.71a9.15,9.15,0,0,0-9.149,9.238" transform="translate(-647.589 -583.936)" fill="none"/>
    </clipPath>
    <clipPath id="clip-path-8">
      <rect id="Rectángulo_422332" data-name="Rectángulo 422332" width="5.401" height="2.942" fill="none"/>
    </clipPath>
    <clipPath id="clip-path-10">
      <path id="Rectángulo_422335" data-name="Rectángulo 422335" d="M5.411,0H49.542a5.412,5.412,0,0,1,5.412,5.412v0a5.411,5.411,0,0,1-5.411,5.411H5.412A5.412,5.412,0,0,1,0,5.411v0A5.411,5.411,0,0,1,5.411,0Z" fill="none"/>
    </clipPath>
    <linearGradient id="linear-gradient-2" x1="-3.499" y1="8.165" x2="-3.494" y2="8.165" gradientUnits="objectBoundingBox">
      <stop offset="0" stop-color="#ffe3eb"/>
      <stop offset="1" stop-color="#fe54ad"/>
    </linearGradient>
    <clipPath id="clip-path-12">
      <path id="Rectángulo_422338" data-name="Rectángulo 422338" d="M4.7,0H28.52a4.7,4.7,0,0,1,4.7,4.7v0a4.7,4.7,0,0,1-4.7,4.7H4.7A4.7,4.7,0,0,1,0,4.7v0A4.7,4.7,0,0,1,4.7,0Z" fill="none"/>
    </clipPath>
    <linearGradient id="linear-gradient-3" x1="-1.214" y1="2.821" x2="-1.203" y2="2.821" xlink:href="#linear-gradient"/>
    <clipPath id="clip-path-14">
      <path id="Trazado_1059603" data-name="Trazado 1059603" d="M230.805,699.2c.013.032.027.062.04.094a.129.129,0,0,0-.075-.009.482.482,0,0,0,.036-.085m-.032-3.773a4.689,4.689,0,0,0-.4,2.937,1.766,1.766,0,0,0,0,.345c.035.378.17.676.3.663a.1.1,0,0,0,.054-.028.3.3,0,0,0,.035.162,6.82,6.82,0,0,0,1.078,1.5,4.841,4.841,0,0,0,.857.74l.019.793c-.014-.054-.025-.1-.031-.141a.068.068,0,0,0-.1-.047l-.981.573a.07.07,0,0,0-.033.072l-.056.028q-.1.048-.2.1h0a4.588,4.588,0,0,0-2.546,3.777c.117,0,.234.006.351.006,3.8,0,5.982-1.311,6.976-3.925a5.385,5.385,0,0,0-.6-.227.068.068,0,0,0-.03-.034l-.915-.477a.068.068,0,0,0-.1.045c0,.022-.01.047-.017.075l-.006-.232s0-.007,0-.011l-.01-.394a3.386,3.386,0,0,0,.957-.954,6.538,6.538,0,0,0,.578-1.438.093.093,0,0,0,.049.028c.129.022.286-.264.349-.639a1.185,1.185,0,0,0-.028-.629,8.378,8.378,0,0,0-.065-2.255.889.889,0,0,1,.187-.828c-.044-.244-.092-.488-.145-.728a6.562,6.562,0,0,1-1.418-.288,6.147,6.147,0,0,0-1.815-.324,2.122,2.122,0,0,0-2.288,1.753" transform="translate(-228.763 -693.67)" fill="none"/>
    </clipPath>
    <linearGradient id="linear-gradient-4" x1="-8.172" y1="6.606" x2="-8.136" y2="6.606" xlink:href="#linear-gradient"/>
    <clipPath id="clip-path-15">
      <path id="Trazado_1059604" data-name="Trazado 1059604" d="M203.881,690.823c.017.042.036.084.053.126a.176.176,0,0,0-.1-.012.646.646,0,0,0,.048-.114m-.043-5.079a6.313,6.313,0,0,0-.542,3.954,2.357,2.357,0,0,0,0,.464c.048.51.229.91.4.893a.133.133,0,0,0,.072-.037.408.408,0,0,0,.047.217,9.173,9.173,0,0,0,1.451,2.024,6.5,6.5,0,0,0,1.154,1l.026,1.067c-.019-.073-.033-.138-.042-.189a.092.092,0,0,0-.137-.064l-1.321.772a.093.093,0,0,0-.044.1l-.076.038c-.092.043-.182.088-.272.135h0a6.94,6.94,0,0,0-.916.574,9.961,9.961,0,0,0,6.893,2.756,10.349,10.349,0,0,0,3.649-.566,6.689,6.689,0,0,0-4-3.261.092.092,0,0,0-.041-.046l-1.231-.642a.091.091,0,0,0-.132.06c-.007.029-.015.063-.024.1l-.007-.312c0-.005,0-.01,0-.015l-.013-.53a4.572,4.572,0,0,0,1.288-1.285,8.851,8.851,0,0,0,.778-1.936.123.123,0,0,0,.065.038c.174.03.385-.356.47-.86a1.6,1.6,0,0,0-.038-.847,11.262,11.262,0,0,0-.087-3.036c-.245-1.014.629-1.328.769-1.783s-.769-.1-2.621-.7a8.28,8.28,0,0,0-2.442-.437,2.857,2.857,0,0,0-3.08,2.359" transform="translate(-203.165 -683.384)" fill="none"/>
    </clipPath>
    <linearGradient id="linear-gradient-5" x1="-4.866" y1="5.622" x2="-4.842" y2="5.622" xlink:href="#linear-gradient"/>
    <clipPath id="clip-path-17">
      <rect id="Rectángulo_422342" data-name="Rectángulo 422342" width="4.351" height="4.262" fill="none"/>
    </clipPath>
    <clipPath id="clip-path-18">
      <path id="Trazado_1059626" data-name="Trazado 1059626" d="M289.228,874.458a1.589,1.589,0,1,0,1.589-1.589,1.589,1.589,0,0,0-1.589,1.589" transform="translate(-289.228 -872.869)" fill="none"/>
    </clipPath>
    <linearGradient id="linear-gradient-6" x1="-24.951" y1="12.034" x2="-24.864" y2="12.034" xlink:href="#linear-gradient"/>
    <clipPath id="clip-path-20">
      <rect id="Rectángulo_422346" data-name="Rectángulo 422346" width="3.38" height="3.312" fill="none"/>
    </clipPath>
    <clipPath id="clip-path-21">
      <rect id="Rectángulo_422347" data-name="Rectángulo 422347" width="6.615" height="24.297" fill="none"/>
    </clipPath>
    <clipPath id="clip-path-22">
      <rect id="Rectángulo_422350" data-name="Rectángulo 422350" width="3.917" height="13.16" fill="none"/>
    </clipPath>
    <clipPath id="clip-path-23">
      <path id="Trazado_1059657" data-name="Trazado 1059657" d="M925.07,21.791c.017.042.036.084.054.126a.178.178,0,0,0-.1-.012.635.635,0,0,0,.048-.114m-.043-5.079a6.316,6.316,0,0,0-.542,3.954,2.39,2.39,0,0,0,0,.465c.047.51.229.91.4.893a.131.131,0,0,0,.072-.037.414.414,0,0,0,.047.217,9.186,9.186,0,0,0,1.452,2.024,6.485,6.485,0,0,0,1.154,1l.026,1.068c-.019-.073-.033-.138-.042-.19a.092.092,0,0,0-.137-.064l-1.321.772a.093.093,0,0,0-.044.1l-.076.038c-.092.043-.182.088-.271.135h0a6.682,6.682,0,0,0-2.236,1.876,9.952,9.952,0,0,0,5.2,1.455c2.645,0,4.507-.636,5.73-1.906a6.915,6.915,0,0,0-3.068-1.922.09.09,0,0,0-.041-.046l-1.232-.643a.092.092,0,0,0-.132.06c-.006.029-.015.063-.024.1l-.008-.312a.147.147,0,0,0,0-.015l-.013-.531a4.567,4.567,0,0,0,1.288-1.285,8.826,8.826,0,0,0,.778-1.936.127.127,0,0,0,.066.038c.174.029.385-.356.47-.861a1.6,1.6,0,0,0-.038-.847,11.287,11.287,0,0,0-.088-3.036c-.245-1.013.629-1.328.769-1.783s-.769-.1-2.622-.7a8.277,8.277,0,0,0-2.442-.437,2.857,2.857,0,0,0-3.08,2.359" transform="translate(-923.512 -14.352)" fill="none"/>
    </clipPath>
    <linearGradient id="linear-gradient-7" x1="-23.175" y1="17.047" x2="-23.15" y2="17.047" xlink:href="#linear-gradient"/>
    <clipPath id="clip-path-25">
      <rect id="Rectángulo_422355" data-name="Rectángulo 422355" width="4.571" height="4.478" fill="none"/>
    </clipPath>
    <clipPath id="clip-path-26">
      <rect id="Rectángulo_422360" data-name="Rectángulo 422360" width="86.32" height="3.252" fill="none"/>
    </clipPath>
    <clipPath id="clip-path-27">
      <rect id="Rectángulo_422362" data-name="Rectángulo 422362" width="49.749" height="49.584" fill="none"/>
    </clipPath>
    <clipPath id="clip-path-28">
      <path id="Trazado_1059679" data-name="Trazado 1059679" d="M187.6,457.871a2.14,2.14,0,0,0,1.192,1.592c1.545.737,3.087,2.8,3.916,4.3a.742.742,0,0,1,.044.624l-2.207,5.773a.743.743,0,0,1-.448.436c-1.62.568-4.144,1.074-5.786.592a2.141,2.141,0,0,0-1.949.391l-3.691,3a2.141,2.141,0,0,0-.783,1.828c.135,1.706-.878,4.072-1.766,5.542a.743.743,0,0,1-.518.349l-6.1.976a.743.743,0,0,1-.6-.17c-1.3-1.119-3-3.052-3.406-4.715a2.142,2.142,0,0,0-1.314-1.493l-4.442-1.7a2.142,2.142,0,0,0-1.974.236c-1.41.97-3.966,1.276-5.683,1.241a.743.743,0,0,1-.562-.274l-3.9-4.8a.744.744,0,0,1-.153-.606c.319-1.687,1.142-4.126,2.38-5.307a2.141,2.141,0,0,0,.636-1.884l-.751-4.7a2.141,2.141,0,0,0-1.192-1.592c-1.545-.737-3.088-2.8-3.916-4.3a.742.742,0,0,1-.043-.624l2.207-5.773a.743.743,0,0,1,.448-.436c1.62-.568,4.144-1.074,5.786-.592a2.142,2.142,0,0,0,1.95-.392l3.691-3a2.141,2.141,0,0,0,.783-1.828c-.135-1.706.878-4.073,1.766-5.542a.743.743,0,0,1,.518-.35l6.1-.976a.744.744,0,0,1,.6.17c1.3,1.119,3,3.052,3.406,4.715a2.141,2.141,0,0,0,1.314,1.493l4.442,1.7a2.141,2.141,0,0,0,1.974-.236c1.41-.97,3.966-1.275,5.682-1.241a.743.743,0,0,1,.562.274l3.9,4.8a.743.743,0,0,1,.153.606c-.318,1.687-1.142,4.126-2.38,5.307a2.14,2.14,0,0,0-.636,1.884Zm-15.91-7.293a8.47,8.47,0,1,0,4.888,10.936,8.47,8.47,0,0,0-4.888-10.936" transform="translate(-144.527 -433.699)" fill="none"/>
    </clipPath>
    <linearGradient id="linear-gradient-8" x1="-0.656" y1="2.978" x2="-0.651" y2="2.978" xlink:href="#linear-gradient"/>
    <clipPath id="clip-path-29">
      <rect id="Rectángulo_422364" data-name="Rectángulo 422364" width="26.119" height="26.033" fill="none"/>
    </clipPath>
    <clipPath id="clip-path-30">
      <path id="Trazado_1059681" data-name="Trazado 1059681" d="M1203.4,305.66a1.124,1.124,0,0,0,.626.836,5.762,5.762,0,0,1,2.056,2.258.389.389,0,0,1,.023.327l-1.158,3.031a.389.389,0,0,1-.235.229,5.759,5.759,0,0,1-3.038.311,1.124,1.124,0,0,0-1.023.206l-1.938,1.574a1.123,1.123,0,0,0-.411.96,5.763,5.763,0,0,1-.927,2.909.391.391,0,0,1-.272.183l-3.2.512a.391.391,0,0,1-.316-.09,5.759,5.759,0,0,1-1.788-2.475,1.124,1.124,0,0,0-.69-.784l-2.332-.891a1.123,1.123,0,0,0-1.037.124,5.761,5.761,0,0,1-2.984.651.389.389,0,0,1-.3-.144l-2.046-2.519a.388.388,0,0,1-.08-.318,5.758,5.758,0,0,1,1.25-2.787,1.124,1.124,0,0,0,.334-.989l-.394-2.465a1.124,1.124,0,0,0-.625-.836,5.763,5.763,0,0,1-2.056-2.258.39.39,0,0,1-.023-.328l1.159-3.031a.39.39,0,0,1,.235-.229,5.76,5.76,0,0,1,3.038-.311,1.124,1.124,0,0,0,1.024-.205l1.938-1.574a1.125,1.125,0,0,0,.411-.96,5.762,5.762,0,0,1,.927-2.909.39.39,0,0,1,.272-.184l3.2-.512a.391.391,0,0,1,.316.089,5.763,5.763,0,0,1,1.788,2.475,1.123,1.123,0,0,0,.689.784l2.332.891a1.125,1.125,0,0,0,1.037-.124,5.76,5.76,0,0,1,2.983-.652.389.389,0,0,1,.295.144l2.046,2.519a.39.39,0,0,1,.08.318,5.758,5.758,0,0,1-1.25,2.786,1.124,1.124,0,0,0-.333.989Zm-8.353-3.829a4.447,4.447,0,1,0,2.566,5.742,4.447,4.447,0,0,0-2.566-5.742" transform="translate(-1180.787 -292.968)" fill="none"/>
    </clipPath>
    <linearGradient id="linear-gradient-9" x1="-11.117" y1="6.995" x2="-11.107" y2="6.995" xlink:href="#linear-gradient"/>
    <clipPath id="clip-path-31">
      <path id="Trazado_1059688" data-name="Trazado 1059688" d="M845.543,193.167a6.356,6.356,0,1,0,4.831-2.222,6.356,6.356,0,0,0-4.831,2.222" transform="translate(-844.015 -190.945)" fill="none"/>
    </clipPath>
    <linearGradient id="linear-gradient-10" x1="-12.391" y1="12.599" x2="-12.376" y2="12.599" gradientUnits="objectBoundingBox">
      <stop offset="0" stop-color="#89d6f1"/>
      <stop offset="1" stop-color="#599ba5"/>
    </linearGradient>
    <clipPath id="clip-path-33">
      <rect id="Rectángulo_422369" data-name="Rectángulo 422369" width="30.178" height="30.178" fill="none"/>
    </clipPath>
    <clipPath id="clip-path-34">
      <rect id="Rectángulo_422370" data-name="Rectángulo 422370" width="63.811" height="2.404" fill="none"/>
    </clipPath>
  </defs>
  <g id="Grupo_1225797" data-name="Grupo 1225797" transform="translate(-1020 -2981)">
    <rect id="Rectángulo_422374" data-name="Rectángulo 422374" width="353" height="175" rx="13" transform="translate(1036 3062)" fill="#ebfefd"/>
    <g id="Enmascarar_grupo_1159131" data-name="Enmascarar grupo 1159131" clip-path="url(#clip-path)">
      <g id="Grupo_1225796" data-name="Grupo 1225796" transform="translate(1044.969 2990.755)">
        <g id="Grupo_1225795" data-name="Grupo 1225795" clip-path="url(#clip-path-2)">
          <rect id="Rectángulo_422324" data-name="Rectángulo 422324" width="42.771" height="108.186" transform="translate(108.087 135.332)" fill="#ffaede"/>
          <rect id="Rectángulo_422325" data-name="Rectángulo 422325" width="42.771" height="150.173" transform="translate(218.048 93.345)" fill="#4c6afe"/>
          <rect id="Rectángulo_422326" data-name="Rectángulo 422326" width="42.771" height="125.827" transform="translate(279.828 117.691)" fill="#fe54ad"/>
          <rect id="Rectángulo_422327" data-name="Rectángulo 422327" width="42.771" height="183.098" transform="translate(161.552 60.421)" fill="#f7ad66"/>
          <g id="Grupo_1225725" data-name="Grupo 1225725" transform="translate(0 -0.001)">
            <g id="Grupo_1225724" data-name="Grupo 1225724" clip-path="url(#clip-path-3)">
              <path id="Trazado_1059536" data-name="Trazado 1059536" d="M834.373,897.556s-3.862,3-6.246,3.128c-1.994.1-5.344,1.2-5.273,3.455s14.633,1.412,15.019-.307-1.355-5.41-1.355-5.41Z" transform="translate(-597.237 -651.456)" fill="#242444"/>
              <path id="Trazado_1059537" data-name="Trazado 1059537" d="M859.679,879.405a1.958,1.958,0,0,1-1.594-3.093l5.64-7.93a1.958,1.958,0,1,1,3.191,2.27l-5.64,7.93a1.956,1.956,0,0,1-1.6.823" transform="translate(-622.545 -629.683)" fill="#fdc8a9"/>
              <path id="Trazado_1059538" data-name="Trazado 1059538" d="M965.335,760.909l-10.173,19.085-.169.316a2.955,2.955,0,0,1-4,1.217,3,3,0,0,1-1.015-.891l-11.2-15.7a1.412,1.412,0,0,1,2.135-1.832l13.819,13.45-5.18.643,9.121-19.61a3.722,3.722,0,1,1,6.749,3.139c-.027.058-.061.125-.09.181" transform="translate(-681.188 -548.303)" fill="#fdc8a9"/>
              <path id="Trazado_1059539" data-name="Trazado 1059539" d="M968.594,755.784a3.721,3.721,0,0,0-4.944,1.805l-7.2,15.472-7.859-8.435-3.223,3.878,9.584,12.132a3.111,3.111,0,0,0,.958.8,3.048,3.048,0,0,0,4.123-1.256l.1-.187,10.173-19.085c.029-.056.063-.123.09-.181a3.722,3.722,0,0,0-1.805-4.944" transform="translate(-686.162 -548.304)" fill="#ef95cf"/>
              <path id="Trazado_1059540" data-name="Trazado 1059540" d="M863.857,831.421l9.683-15.047c.718,1.365,1.479,2.713,2.3,4.04,1.033,1.68,2.153,3.33,3.385,4.957a43.247,43.247,0,0,0,4.187,4.768,28.468,28.468,0,0,0,2.636,2.276,20.2,20.2,0,0,0,3.364,2.1,16.848,16.848,0,0,0,2.16.873l.608.18c.194.052.37.091.556.136.374.083.755.16,1.164.219a12.83,12.83,0,0,0,2.634.136,11.832,11.832,0,0,0,3-.528,11.4,11.4,0,0,0,2.959-1.439,11.529,11.529,0,0,0,2.321-2.125,12.831,12.831,0,0,0,2.383-4.54,15.73,15.73,0,0,0,.633-4.033,17.022,17.022,0,0,0-.05-1.873c-.027-.309-.058-.616-.106-.93l-.073-.478-.044-.254-.025-.138c-.009-.057-.017-.081-.029-.2a5.483,5.483,0,0,0-10.953.521c-.01-.057-.016-.024-.023-.023a.2.2,0,0,0-.021.035.714.714,0,0,0-.04.093l-.079.215-.162.456c-.107.306-.216.607-.327.886a8.641,8.641,0,0,1-.436.954l-.041-.007a.317.317,0,0,0-.06,0,2.5,2.5,0,0,1-.431-.112,8.792,8.792,0,0,1-1.409-.711,18.945,18.945,0,0,1-1.7-1.183,41.913,41.913,0,0,1-3.572-3.151c-1.2-1.161-2.384-2.406-3.565-3.688s-2.354-2.607-3.524-3.95l-3.47-4.029h0l-.187-.293a4.034,4.034,0,0,0-6.9.223l-12.448,22.236Zm31.032-8.107a.888.888,0,0,1,.251-.293,1.258,1.258,0,0,1,.182-.122c-.032.053-.065.111-.1.156-.207.3-.384.408-.337.259" transform="translate(-622.856 -583.329)" fill="#323258"/>
              <path id="Trazado_1059541" data-name="Trazado 1059541" d="M938.161,779.8s-1.384-3.068-2.872-1.991c-.767.555-1.273-.065-.849,1.044a7.149,7.149,0,0,0,1.448,2.121Z" transform="translate(-678.117 -564.373)" fill="#fdc8a9"/>
              <path id="Trazado_1059542" data-name="Trazado 1059542" d="M788.808,897.556s-3.862,3-6.246,3.128c-1.994.1-5.343,1.2-5.273,3.455s14.633,1.412,15.019-.307-1.355-5.41-1.355-5.41Z" transform="translate(-564.165 -651.456)" fill="#242444"/>
              <path id="Trazado_1059543" data-name="Trazado 1059543" d="M814.114,879.405a1.958,1.958,0,0,1-1.594-3.093l5.64-7.93a1.958,1.958,0,0,1,3.192,2.27l-5.64,7.93a1.956,1.956,0,0,1-1.6.823" transform="translate(-589.474 -629.683)" fill="#fdc8a9"/>
              <path id="Trazado_1059544" data-name="Trazado 1059544" d="M928.419,771.866a.418.418,0,0,1-.36-.629l5.9-10.069a.418.418,0,1,1,.721.422l-5.9,10.069a.418.418,0,0,1-.361.207" transform="translate(-673.555 -552.314)" fill="#4f6185"/>
              <path id="Trazado_1059545" data-name="Trazado 1059545" d="M938.167,781.077l-.541.351s-1.676-1.346-1.5-1.95-.2-2.382.848-2.513-.789,1.7.24,2.285a17.433,17.433,0,0,0,2.272.983c0,.029-1.319.845-1.319.845" transform="translate(-679.442 -563.925)" fill="#fdc8a9"/>
              <path id="Trazado_1059546" data-name="Trazado 1059546" d="M945.88,763.678a.418.418,0,0,1-.359-.631l1.114-1.88a.418.418,0,1,1,.719.426l-1.114,1.88a.418.418,0,0,1-.36.205" transform="translate(-686.228 -552.315)" fill="#242444"/>
              <path id="Trazado_1059547" data-name="Trazado 1059547" d="M919.074,743.049H918.8l.631,1.048Z" transform="translate(-666.878 -539.313)" fill="#50678c"/>
              <path id="Trazado_1059548" data-name="Trazado 1059548" d="M942.4,823.43h-.271l-.557-1.039.492.326Z" transform="translate(-683.406 -596.9)" fill="#50678c"/>
              <path id="Trazado_1059549" data-name="Trazado 1059549" d="M922.43,762.2l4.162,3.641-2.639-19.153-4.162-3.641Z" transform="translate(-667.595 -539.313)" fill="#647ca8"/>
              <path id="Trazado_1059550" data-name="Trazado 1059550" d="M921.442,762.2l4.162,3.641-2.639-19.153-4.162-3.641Z" transform="translate(-666.878 -539.313)" fill="#4f6185"/>
              <path id="Trazado_1059551" data-name="Trazado 1059551" d="M817.239,831.126l15.019-16.753c.364.459.731.916,1.108,1.364,1.328,1.609,2.694,3.191,4.126,4.726a83.885,83.885,0,0,0,9.385,8.8c.875.695,1.789,1.372,2.766,2.03a31.67,31.67,0,0,0,3.172,1.919,23.61,23.61,0,0,0,4.546,2.05,21.169,21.169,0,0,0,6.515.791,12.572,12.572,0,0,0,5.708-2.154,13.342,13.342,0,0,0,3.758-4.021c.861-1.428-.157-3.622.2-5a16.959,16.959,0,0,0,.4-2.062c.04-.345.078-.689.1-1.043l.025-.542.007-.289,0-.16,0-.09c0-.038,0-.051.007-.138a5.483,5.483,0,0,0-10.871-1.433c0-.056,0-.037-.006-.044s-.008,0-.013,0a.152.152,0,0,0-.028.027.776.776,0,0,0-.059.084l-.125.2-.26.432c-.172.29-.347.572-.524.828a6.081,6.081,0,0,1-.978,1.177c-.277.255-.471.3-.49.261s.1-.115.057-.108a2.682,2.682,0,0,1-.68-.055,6.413,6.413,0,0,1-1.508-.493c-.647-.285-1.375-.643-2.113-1.059s-1.5-.875-2.267-1.359c-3.074-1.959-6.2-4.283-9.319-6.652l-9.38-7.256h0l-.2-.193a4.079,4.079,0,0,0-.31-.274,4,4,0,0,0-5.628.629l-17.221,21.555Z" transform="translate(-589.474 -583.381)" fill="#404072"/>
              <path id="Trazado_1059552" data-name="Trazado 1059552" d="M989.027,787.483l.63-1.763.313-.88c.1-.293.191-.589.288-.884l.564-1.768c.18-.59.342-1.183.513-1.773l.253-.886c.085-.295.155-.593.233-.889l.454-1.777.409-1.781c.066-.3.138-.593.2-.89l.182-.892.181-.892.09-.446.081-.447.322-1.787.287-1.791c.093-.6.172-1.2.258-1.795.058-.407.107-.816.157-1.225.067-.881.11-2.005.1-3.509-.024-4.032-.844-5.693-2.245-6.776a11.571,11.571,0,0,0-3.544-1.387,12.386,12.386,0,0,0-2.158-.267c-3.185,1.685-4.8,5.606-4.8,5.606l-.1.22c-2.052,5.121-4.857,11.479-4.857,11.479l-.535,1.487-.57,1.467c-.1.243-.185.49-.288.73l-.3.721c-.2.479-.4.963-.61,1.437l-.647,1.411c-.109.234-.211.472-.325.7l-.344.688-.685,1.374-.1.2a7.745,7.745,0,0,0-.338.8,5.887,5.887,0,0,0-.321,1.5,48.3,48.3,0,0,0,16.571,6.633,6.121,6.121,0,0,0,.683-1.943" transform="translate(-705.325 -546.518)" fill="#647ca8"/>
              <path id="Trazado_1059553" data-name="Trazado 1059553" d="M974.184,784.187a6.407,6.407,0,0,1,.346-1.557,8.377,8.377,0,0,1,.353-.838l.1-.208.711-1.437.358-.719c.118-.241.225-.489.338-.734l.673-1.474c.219-.5.423-1,.637-1.5l.317-.753c.107-.25.2-.508.3-.762l.6-1.531.562-1.551s2.923-6.643,5.067-11.99l.1-.23a13.9,13.9,0,0,1,4.4-5.58c-.1-.024-.2-.056-.3-.077a12.382,12.382,0,0,0-2.158-.267c-3.185,1.685-4.8,5.606-4.8,5.606l-.1.22c-2.052,5.121-4.857,11.479-4.857,11.479l-.535,1.487-.57,1.467c-.1.243-.185.49-.288.73l-.3.721c-.2.479-.4.963-.61,1.437l-.647,1.411c-.109.234-.211.472-.325.7l-.345.688-.685,1.374-.1.2a7.692,7.692,0,0,0-.338.8,5.9,5.9,0,0,0-.321,1.5,30.151,30.151,0,0,0,2.976,1.779c-.215-.141-.4-.27-.565-.384" transform="translate(-705.325 -546.518)" fill="#4f6185"/>
              <path id="Trazado_1059554" data-name="Trazado 1059554" d="M1022.727,758.07l3.007-4.864s.2-1.5,4.55,2.432-.619,19.405-.619,19.405-5.944-.264-5.777-.46-1.161-16.513-1.161-16.513" transform="translate(-742.308 -546.481)" fill="#647ca8"/>
              <path id="Trazado_1059555" data-name="Trazado 1059555" d="M1023.1,745.621h0c1.272-.234,2.113-.672,1.879-1.945l-.77-3.008a2.342,2.342,0,0,0-4.608.848l.77,3.008c.234,1.272,1.456,1.331,2.728,1.1" transform="translate(-740.01 -536.192)" fill="#fdc8a9"/>
              <g id="Grupo_1225720" data-name="Grupo 1225720" transform="translate(279.167 202.172)" opacity="0.54" style="mix-blend-mode: multiply;isolation: isolate">
                <g id="Grupo_1225719" data-name="Grupo 1225719">
                  <g id="Grupo_1225718" data-name="Grupo 1225718" clip-path="url(#clip-path-4)">
                    <path id="Trazado_1059556" data-name="Trazado 1059556" d="M1018.872,742.075l-.715-3.882,4.607-.848.221,1.2c-1,1.831-2.345,3.3-4.113,3.532" transform="translate(-1018.158 -737.345)" fill="#fdc8a9"/>
                  </g>
                </g>
              </g>
              <path id="Trazado_1059557" data-name="Trazado 1059557" d="M995.3,699.647s.388,9.14,2.153,11.3,8.256-2.733,8.256-2.733l-.911-8.768-6.092-3.929-3.53,3.074Z" transform="translate(-722.307 -504.816)" fill="#fdc8a9"/>
              <path id="Trazado_1059558" data-name="Trazado 1059558" d="M993.893,693.931c-.153-1.935-1.4-1.9-2.013-1.183-.03.036-.061.069-.092.1a1.767,1.767,0,0,0-.22.275.379.379,0,0,1-.492.132s.332.009.33.008a.331.331,0,0,1-.123-.486c.044-.075.209-.231.248-.29.032-.086-.408-.131-.353-.233,0,0,.8-2.951-1.973-3.972-3.479-1.28-3.533,1.113-5.192.147-2.734-1.593-3.978-5.856-1.687-6.161s5.048.153,8.714-1.222,9.013,1.833,9.471,8.1-2.457,7.242-3.63,10.061c-.262.631-2.366.282-3.589-1.036-.719-.776.752-2.3.6-4.235" transform="translate(-712.117 -494.081)" fill="#242444"/>
              <path id="Trazado_1059559" data-name="Trazado 1059559" d="M973.688,770.62l-8.837,19.832-.135.3a2.929,2.929,0,0,1-3.868,1.484,3.055,3.055,0,0,1-.6-.357l-16.8-12.963a1.411,1.411,0,0,1,1.532-2.36l18.678,10.068-4.6,1.43,7.752-20.281a3.722,3.722,0,0,1,6.953,2.657c-.023.059-.052.129-.077.186" transform="translate(-684.369 -555.522)" fill="#fdc8a9"/>
              <path id="Trazado_1059560" data-name="Trazado 1059560" d="M1002.615,716.5s-.136,3.14-.381,4.609-3.743-.368-5.029.551.92,6.2,2.7,5.715,3.69-1.231,3.815-1.986-.81-4.552,0-7.108-1.11-1.781-1.11-1.781" transform="translate(-723.504 -519.964)" fill="#242444"/>
              <path id="Trazado_1059561" data-name="Trazado 1059561" d="M935.36,795.971a11.511,11.511,0,0,0-2.6-.687c-1.5-.219-3.394-4.184-3.255-7.219s2.048,2.1,2.733,1.86,2.055.775,2.055.775a6.137,6.137,0,0,1,2.889,3.484c.489,2.2-1.823,1.787-1.823,1.787" transform="translate(-674.642 -571.289)" fill="#fdc8a9"/>
              <path id="Trazado_1059562" data-name="Trazado 1059562" d="M981.417,765.628a3.722,3.722,0,0,0-4.805,2.148l-6.425,16.81-11.4-7.1L956.4,782.66l13.646,9.222a3.318,3.318,0,0,0,.472.262,3.083,3.083,0,0,0,4.071-1.561l.058-.131,8.837-19.832c.025-.057.054-.127.077-.186a3.722,3.722,0,0,0-2.148-4.805" transform="translate(-694.17 -555.522)" fill="#ffaede"/>
              <path id="Trazado_1059563" data-name="Trazado 1059563" d="M998.172,824.286l1.859,4.334s-1.94,13.5-2.364,14.679-6.433-3.937-13.477-6.3,9.709-.671,9.709-.671l2.58-5.04Z" transform="translate(-713.083 -598.276)" fill="#647ca8"/>
              <g id="Grupo_1225723" data-name="Grupo 1225723" transform="translate(204.534 251.816)" opacity="0.21" style="mix-blend-mode: multiply;isolation: isolate">
                <g id="Grupo_1225722" data-name="Grupo 1225722">
                  <g id="Grupo_1225721" data-name="Grupo 1225721" clip-path="url(#clip-path-5)">
                    <path id="Trazado_1059564" data-name="Trazado 1059564" d="M745.961,919.881c0,.816,19.309,1.478,43.127,1.478s43.128-.661,43.128-1.478-19.309-1.478-43.128-1.478-43.127.662-43.127,1.478" transform="translate(-745.961 -918.403)" fill="#242444"/>
                  </g>
                </g>
              </g>
            </g>
          </g>
          <g id="Grupo_1225727" data-name="Grupo 1225727" transform="translate(177.959 160.046)">
            <g id="Grupo_1225726" data-name="Grupo 1225726" clip-path="url(#clip-path-6)">
              <rect id="Rectángulo_422331" data-name="Rectángulo 422331" width="42.886" height="55.283" transform="translate(-8.981 17.434) rotate(-62.745)" fill="url(#linear-gradient)"/>
            </g>
          </g>
          <g id="Grupo_1225732" data-name="Grupo 1225732" transform="translate(177.561 160.108)">
            <g id="Grupo_1225731" data-name="Grupo 1225731" clip-path="url(#clip-path-7)">
              <path id="Trazado_1059566" data-name="Trazado 1059566" d="M672.147,642.488a6.3,6.3,0,1,0-6.271,5.695,6,6,0,0,0,6.271-5.695" transform="translate(-656.311 -622.3)" fill="#fff"/>
              <path id="Trazado_1059567" data-name="Trazado 1059567" d="M678.345,630.911a1.056,1.056,0,0,1-1.055-1.03l-.064-2.623a1.056,1.056,0,1,1,2.111-.052l.064,2.623a1.056,1.056,0,0,1-1.03,1.081h-.026" transform="translate(-669.1 -614.595)" fill="#fff"/>
              <path id="Trazado_1059568" data-name="Trazado 1059568" d="M678.323,625.476a1.055,1.055,0,0,0-1,.83l.039,1.595a1.056,1.056,0,0,0,1.055,1.03h.026a1.055,1.055,0,0,0,1-.83l-.039-1.595a1.057,1.057,0,0,0-1.081-1.03" transform="translate(-669.167 -614.086)" fill="#fff"/>
              <path id="Trazado_1059569" data-name="Trazado 1059569" d="M674.431,603.891c0,2.385-1.92,5.087-3.5,5.087-1.2,0-3.5-2.7-3.5-5.087s1.569-4.319,3.5-4.319,3.5,1.934,3.5,4.319" transform="translate(-661.985 -595.285)" fill="#fff"/>
              <path id="Trazado_1059570" data-name="Trazado 1059570" d="M679.091,642.984l-1.116-1.7,1.776.18Z" transform="translate(-669.644 -625.557)" fill="#fff"/>
              <path id="Trazado_1059571" data-name="Trazado 1059571" d="M676.137,641.148l.64,3.167h2.016l.416-3.775-1.727.463Z" transform="translate(-668.309 -625.02)" fill="#fff"/>
              <g id="Grupo_1225730" data-name="Grupo 1225730" transform="translate(6.44 14.531)" opacity="0.26" style="mix-blend-mode: multiply;isolation: isolate">
                <g id="Grupo_1225729" data-name="Grupo 1225729">
                  <g id="Grupo_1225728" data-name="Grupo 1225728" clip-path="url(#clip-path-8)">
                    <path id="Trazado_1059572" data-name="Trazado 1059572" d="M671.077,637.652c.266.52,1.082,2.217,1.771,2.187.816-.036.7-1.2,1.212-.863s.624,1.139,1.116.828a3.27,3.27,0,0,0,1.3-2.521,6.8,6.8,0,0,0-1.549-.35c-.238-.025-.058,1.384-1.009,1.34-1.232-.056-.783-1.327-1.256-1.223a6.167,6.167,0,0,0-1.587.6" transform="translate(-671.077 -636.931)" fill="#fff"/>
                  </g>
                </g>
              </g>
              <path id="Trazado_1059573" data-name="Trazado 1059573" d="M673.481,635.71a.084.084,0,0,1,.126.058,1.9,1.9,0,0,0,.942,1.387c.744.358,1.132-1.107,1.225-1.521a.083.083,0,0,1,.121-.055l1.127.588a.083.083,0,0,1,.044.089,3.43,3.43,0,0,1-1.272,2.205.086.086,0,0,1-.11-.017l-.91-1.052a.084.084,0,0,0-.13,0l-.845,1.07a.083.083,0,0,1-.118.015,4.544,4.544,0,0,1-1.45-1.963.087.087,0,0,1,.039-.1Z" transform="translate(-665.473 -621.411)" fill="#fff"/>
              <path id="Trazado_1059574" data-name="Trazado 1059574" d="M668.485,621.742c-.081-.172-.065-.328.113-.259a2.687,2.687,0,0,0,1.376.32c.832-.16.544-.512,2.144-.512.962,0,.9.352,1.792.32s1.088-.736,1.024-.32a7.977,7.977,0,0,1-.768,2.016,2.96,2.96,0,0,1-2.271,1.5,3.06,3.06,0,0,1-2.08-1.216,8.41,8.41,0,0,1-1.328-1.852" transform="translate(-662.721 -610.953)" fill="#fff"/>
              <path id="Trazado_1059575" data-name="Trazado 1059575" d="M666.846,603.683s.256.416.224.128-.192-3.391.768-3.519,3.391.224,4.159,0,1.568.768,1.536,2.943c0,0,.128.64.256-.064a11.14,11.14,0,0,0,0-3.423c-.224-.928.576-1.216.7-1.632s-.7-.1-2.4-.64-4.415-.96-5.055,1.76a5.362,5.362,0,0,0-.192,4.447" transform="translate(-661.258 -593.474)" fill="#fff"/>
              <path id="Trazado_1059576" data-name="Trazado 1059576" d="M666.83,617.391c.044.467.209.832.37.818s.256-.406.212-.872-.21-.833-.37-.818-.256.406-.212.872" transform="translate(-661.546 -607.585)" fill="#fff"/>
              <path id="Trazado_1059577" data-name="Trazado 1059577" d="M691.517,617.335c-.078.462-.013.858.146.885s.352-.326.431-.788.013-.858-.147-.886-.352.326-.43.788" transform="translate(-679.449 -607.604)" fill="#fff"/>
            </g>
          </g>
          <g id="Grupo_1225734" data-name="Grupo 1225734" transform="translate(0 -0.001)">
            <g id="Grupo_1225733" data-name="Grupo 1225733" clip-path="url(#clip-path-3)">
              <path id="Trazado_1059579" data-name="Trazado 1059579" d="M786.072,608.478H775.516a1.077,1.077,0,1,1,0-2.154h10.556a1.077,1.077,0,0,1,0,2.154" transform="translate(-562.097 -440.076)" fill="#fff"/>
              <path id="Trazado_1059580" data-name="Trazado 1059580" d="M725.513,608.478H713.45a1.077,1.077,0,1,1,0-2.154h12.063a1.077,1.077,0,1,1,0,2.154" transform="translate(-517.049 -440.076)" fill="#fff"/>
              <path id="Trazado_1059581" data-name="Trazado 1059581" d="M793.169,624.488h-8.413a.539.539,0,0,1,0-1.077h8.413a.539.539,0,0,1,0,1.077" transform="translate(-569.194 -452.478)" fill="#fff"/>
              <path id="Trazado_1059582" data-name="Trazado 1059582" d="M763.689,624.488h-8.354a.539.539,0,1,1,0-1.077h8.354a.539.539,0,1,1,0,1.077" transform="translate(-547.841 -452.478)" fill="#fff"/>
              <path id="Trazado_1059583" data-name="Trazado 1059583" d="M722.524,624.488h-7.647a.539.539,0,1,1,0-1.077h7.647a.539.539,0,0,1,0,1.077" transform="translate(-518.475 -452.478)" fill="#fff"/>
              <path id="Trazado_1059584" data-name="Trazado 1059584" d="M786.357,639.612H775.371a.539.539,0,1,1,0-1.077h10.986a.539.539,0,0,1,0,1.077" transform="translate(-562.382 -463.455)" fill="#fff"/>
              <path id="Trazado_1059585" data-name="Trazado 1059585" d="M728.34,639.612H714.877a.539.539,0,1,1,0-1.077H728.34a.539.539,0,1,1,0,1.077" transform="translate(-518.475 -463.455)" fill="#fff"/>
            </g>
          </g>
          <g id="Grupo_1225736" data-name="Grupo 1225736" transform="translate(192.291 189.203)">
            <g id="Grupo_1225735" data-name="Grupo 1225735" clip-path="url(#clip-path-10)">
              <rect id="Rectángulo_422334" data-name="Rectángulo 422334" width="54.954" height="10.823" fill="url(#linear-gradient-2)"/>
            </g>
          </g>
          <g id="Grupo_1225738" data-name="Grupo 1225738" transform="translate(0 -0.001)">
            <g id="Grupo_1225737" data-name="Grupo 1225737" clip-path="url(#clip-path-3)">
              <path id="Trazado_1059586" data-name="Trazado 1059586" d="M714.462,703.2a3.5,3.5,0,1,1,3.5-3.5,3.5,3.5,0,0,1-3.5,3.5m0-5.992a2.5,2.5,0,1,0,2.5,2.5,2.5,2.5,0,0,0-2.5-2.5" transform="translate(-516.028 -505.314)" fill="#fff"/>
              <path id="Trazado_1059587" data-name="Trazado 1059587" d="M855.5,708.142H844.976a.493.493,0,1,1,0-.987H855.5a.493.493,0,0,1,0,.987" transform="translate(-612.935 -513.26)" fill="#fff"/>
              <path id="Trazado_1059588" data-name="Trazado 1059588" d="M766.1,708.142H743.641a.493.493,0,0,1,0-.987H766.1a.493.493,0,0,1,0,.987" transform="translate(-539.386 -513.26)" fill="#fff"/>
              <path id="Trazado_1059589" data-name="Trazado 1059589" d="M352.348,739.194H297.483a3.122,3.122,0,0,1-3.112-3.113V716.046a3.122,3.122,0,0,1,3.112-3.113h54.865a3.122,3.122,0,0,1,3.113,3.113v20.035a3.122,3.122,0,0,1-3.113,3.113" transform="translate(-213.658 -517.454)" fill="#fff"/>
              <path id="Trazado_1059590" data-name="Trazado 1059590" d="M441.725,844.484H402.289a4.169,4.169,0,0,1-4.157-4.157v-1.09a4.169,4.169,0,0,1,4.157-4.157h39.436a4.169,4.169,0,0,1,4.157,4.157v1.09a4.169,4.169,0,0,1-4.157,4.157" transform="translate(-288.969 -606.11)" fill="#fe54ad"/>
              <path id="Trazado_1059591" data-name="Trazado 1059591" d="M409.559,846.5a3.037,3.037,0,1,1,3.037-3.037,3.04,3.04,0,0,1-3.037,3.037m0-5.206a2.169,2.169,0,1,0,2.169,2.169,2.172,2.172,0,0,0-2.169-2.169" transform="translate(-295.059 -609.994)" fill="#fff"/>
              <path id="Trazado_1059592" data-name="Trazado 1059592" d="M372.734,741.087H348.491a.485.485,0,0,1,0-.97h24.243a.485.485,0,0,1,0,.97" transform="translate(-252.587 -537.185)" fill="#f7ad66"/>
              <path id="Trazado_1059593" data-name="Trazado 1059593" d="M398.62,755.823H363.226a.485.485,0,1,1,0-.97H398.62a.485.485,0,0,1,0,.97" transform="translate(-263.282 -547.88)" fill="#f7ad66"/>
              <path id="Trazado_1059594" data-name="Trazado 1059594" d="M398.62,765.893H363.226a.485.485,0,1,1,0-.97H398.62a.485.485,0,0,1,0,.97" transform="translate(-263.282 -555.189)" fill="#f7ad66"/>
              <path id="Trazado_1059595" data-name="Trazado 1059595" d="M398.62,775.963H363.226a.485.485,0,1,1,0-.97H398.62a.485.485,0,0,1,0,.97" transform="translate(-263.282 -562.498)" fill="#f7ad66"/>
              <path id="Trazado_1059596" data-name="Trazado 1059596" d="M398.62,786.032H363.226a.485.485,0,1,1,0-.97H398.62a.485.485,0,0,1,0,.97" transform="translate(-263.282 -569.806)" fill="#f7ad66"/>
              <path id="Trazado_1059597" data-name="Trazado 1059597" d="M532.107,850.8h-9.144a.429.429,0,0,1,0-.857h9.144a.429.429,0,0,1,0,.857" transform="translate(-379.261 -616.898)" fill="#fff"/>
              <path id="Trazado_1059598" data-name="Trazado 1059598" d="M454.427,850.8H434.914a.429.429,0,0,1,0-.857h19.513a.429.429,0,0,1,0,.857" transform="translate(-315.354 -616.898)" fill="#fff"/>
            </g>
          </g>
          <g id="Grupo_1225740" data-name="Grupo 1225740" transform="translate(23.799 194.345)">
            <g id="Grupo_1225739" data-name="Grupo 1225739" clip-path="url(#clip-path-12)">
              <rect id="Rectángulo_422337" data-name="Rectángulo 422337" width="23.574" height="33.84" transform="matrix(0.458, -0.889, 0.889, 0.458, -3.828, 7.432)" fill="url(#linear-gradient-3)"/>
            </g>
          </g>
          <g id="Grupo_1225742" data-name="Grupo 1225742" transform="translate(0 -0.001)">
            <g id="Grupo_1225741" data-name="Grupo 1225741" clip-path="url(#clip-path-3)">
              <path id="Trazado_1059599" data-name="Trazado 1059599" d="M143.093,724.523H123.58a.429.429,0,0,1,0-.857h19.513a.429.429,0,0,1,0,.857" transform="translate(-89.384 -525.244)" fill="#fff"/>
              <path id="Trazado_1059600" data-name="Trazado 1059600" d="M97.892,724.523H93.2a.429.429,0,0,1,0-.857h4.689a.429.429,0,0,1,0,.857" transform="translate(-67.336 -525.244)" fill="#fff"/>
              <path id="Trazado_1059601" data-name="Trazado 1059601" d="M309.506,750.32s3.774-.662,4.011-2.483,1.355-2.715,1.806-.849-.274,2.508-.274,2.508,2.877-.366,3.532.092.211,1.282,0,1.74.952,1.1,0,1.74c0,0,.641,1.374-.279,2.015,0,0,1.168,1.007,0,1.74s-7.523.747-8.795-.5Z" transform="translate(-224.643 -541.422)" fill="#f7ad66"/>
              <path id="Trazado_1059602" data-name="Trazado 1059602" d="M213.121,681.223a9.648,9.648,0,1,0-9.648,9.648,9.647,9.647,0,0,0,9.648-9.648" transform="translate(-140.681 -487.436)" fill="#fff"/>
            </g>
          </g>
          <g id="Grupo_1225744" data-name="Grupo 1225744" transform="translate(62.724 190.196)">
            <g id="Grupo_1225743" data-name="Grupo 1225743" clip-path="url(#clip-path-14)">
              <rect id="Rectángulo_422340" data-name="Rectángulo 422340" width="7.676" height="13.237" transform="translate(0 0)" fill="url(#linear-gradient-4)"/>
            </g>
          </g>
          <g id="Grupo_1225746" data-name="Grupo 1225746" transform="translate(55.705 187.376)">
            <g id="Grupo_1225745" data-name="Grupo 1225745" clip-path="url(#clip-path-15)">
              <rect id="Rectángulo_422341" data-name="Rectángulo 422341" width="11.375" height="16.057" transform="translate(-0.355)" fill="url(#linear-gradient-5)"/>
            </g>
          </g>
          <g id="Grupo_1225751" data-name="Grupo 1225751" transform="translate(0 -0.001)">
            <g id="Grupo_1225750" data-name="Grupo 1225750" clip-path="url(#clip-path-3)">
              <path id="Trazado_1059605" data-name="Trazado 1059605" d="M43.215,743.211s-.883-4.32-2.443-5.8c-1.3-1.239-2.955-3.953-1.585-5.455s10.844,7.608,10.1,9.011-5.4,5.513-5.4,5.513Z" transform="translate(-28.069 -531.14)" fill="#242444"/>
              <path id="Trazado_1059606" data-name="Trazado 1059606" d="M49.417,797.448c-.2.047-.4.092-.6.139-1.48.356-2.958.725-4.437,1.122l2.471-25.855H42.26L37.5,803.582a3.2,3.2,0,0,0,2.412,3.222l1.215.305c2.668.67,5.33,1.184,7.993,1.669.1.018.2.031.3.047Z" transform="translate(-27.214 -560.946)" fill="#4d59e3"/>
              <path id="Trazado_1059607" data-name="Trazado 1059607" d="M6.176,742.682s-1.6-4.109-3.387-5.306c-1.5-1-3.579-3.4-2.482-5.109s11.973,5.669,11.477,7.177-4.389,6.344-4.389,6.344Z" transform="translate(0 -531.301)" fill="#242444"/>
              <path id="Trazado_1059608" data-name="Trazado 1059608" d="M51.053,792.8a7.947,7.947,0,0,0-2-.568,12.173,12.173,0,0,0-1.991-.149,14.732,14.732,0,0,0-1.983.132c-.66.092-1.319.21-1.978.313q-3.955.634-7.907,1.409c-2.634.514-5.267,1.072-7.9,1.7-1.48.356-2.958.725-4.437,1.122L21.8,769.844H17.213L15.977,804.1a3.2,3.2,0,0,0,2.412,3.222l.429.108H52.36A8.435,8.435,0,0,0,51.053,792.8" transform="translate(-11.595 -558.761)" fill="#4c6afe"/>
              <path id="Trazado_1059609" data-name="Trazado 1059609" d="M224.92,826.872l6.367,13.323-.7-.661,11.447,6.19a1.268,1.268,0,0,1-1.134,2.268l-11.819-5.446a1.445,1.445,0,0,1-.583-.488l-.12-.174-8.406-12.14a2.871,2.871,0,1,1,4.722-3.269,3.122,3.122,0,0,1,.23.4" transform="translate(-159.285 -598.967)" fill="#fdc8a9"/>
              <path id="Trazado_1059610" data-name="Trazado 1059610" d="M220.94,811.464l-4.152-.765.566-3.076.892-4.844,4.152.764Z" transform="translate(-157.348 -582.665)" fill="#fdc8a9"/>
              <g id="Grupo_1225749" data-name="Grupo 1225749" transform="translate(60.701 220.113)" opacity="0.54" style="mix-blend-mode: multiply;isolation: isolate">
                <g id="Grupo_1225748" data-name="Grupo 1225748">
                  <g id="Grupo_1225747" data-name="Grupo 1225747" clip-path="url(#clip-path-17)">
                    <path id="Trazado_1059611" data-name="Trazado 1059611" d="M225.089,807.039l.644-3.5-4.152-.764-.2,1.079c.9,1.65,2.113,2.975,3.706,3.183" transform="translate(-221.383 -802.777)" fill="#fdc8a9"/>
                  </g>
                </g>
              </g>
              <path id="Trazado_1059612" data-name="Trazado 1059612" d="M231.079,771.626s-2.346,7.9-4.364,9.406-6.615-4.2-6.615-4.2l2.721-7.463,6.187-2.1,2.41,3.462Z" transform="translate(-159.751 -556.894)" fill="#fdc8a9"/>
              <path id="Trazado_1059613" data-name="Trazado 1059613" d="M224.7,837.022s2.563-1.4,5.3-2.989l-4.387-8.177a2.883,2.883,0,0,0-3.946-.909c-2.668,1.294-.776,5.085-.776,5.085Z" transform="translate(-159.851 -598.459)" fill="#fe54ad"/>
              <path id="Trazado_1059614" data-name="Trazado 1059614" d="M262.1,871.312a5.016,5.016,0,0,1,1.466-.969,1.835,1.835,0,0,0,1.022-.975c.315-.9,1.4-1.634,1.575-1.128s-1.35,2.957-.045,2.373a5.826,5.826,0,0,0,2.205-2.451s.81,6.108-4.545,5.874c-3.667-.16-2.671-1.742-1.678-2.724" transform="translate(-189.57 -630.059)" fill="#fdc8a9"/>
              <path id="Trazado_1059615" data-name="Trazado 1059615" d="M163.165,821.079a4.091,4.091,0,0,1,3.513,2.259c1.248,2.327,1.407,3.631.248,7.4s-1.165,4.053-2.723,5.08a82.533,82.533,0,0,0-7.507,5.608c-3.4,2.83-8.343,3.186-8.343,3.186h-7.41l-1.9-15.177s9.067,2.64,14.335-2.832,5.72-5.583,9.788-5.522" transform="translate(-100.919 -595.941)" fill="#ffaede"/>
              <path id="Trazado_1059616" data-name="Trazado 1059616" d="M209.827,833.11l-1.259,16.279-1.643-1.691,14.673.768a1.268,1.268,0,0,1-.061,2.535l-14.693.064a1.628,1.628,0,0,1-1.631-1.514l-.012-.178-1.1-16.291a2.87,2.87,0,0,1,5.726-.386,3.11,3.11,0,0,1,0,.414" transform="translate(-148.135 -602.437)" fill="#fdc8a9"/>
              <path id="Trazado_1059617" data-name="Trazado 1059617" d="M217.506,752.44a8.578,8.578,0,0,0-4.343-1.705c-2.22-.192-4.978.328-5.935,3.731-1.694,6.024-1.815,9.4,2.387,13.171,0,0,1.755-.181,1.66-3.005s1.035-4.33,2.071-3.295,1.129-1.788,1.694-2.73,3.012-3.012,4.424-.188,3.828,2.353,4.581,1.13a3.236,3.236,0,0,0-1.192-4.706c-2.008-1.255-2.38-.2-5.347-2.4" transform="translate(-149.608 -544.866)" fill="#242444"/>
              <path id="Trazado_1059618" data-name="Trazado 1059618" d="M272.17,860.853l-18.631-.011,4.119-16.928,18.631.012Z" transform="translate(-184.022 -612.521)" fill="#404072"/>
              <path id="Trazado_1059619" data-name="Trazado 1059619" d="M202.364,840.37s3.212-.26,6.68-.624l-.757-9.259s-.3-2.535-3.57-2.414-3.061,4.356-3.061,4.356Z" transform="translate(-146.362 -601.021)" fill="#fe54ad"/>
              <path id="Trazado_1059620" data-name="Trazado 1059620" d="M193.764,745.947s-1.883-3.765-5.02-1.506-3.012,5.271-2.51,7.907,1.13,5.9-.753,7.154-2.761,3.891-1.381,5.648,2.761,1.883,2.259,5.271,6.777,3.012,5.271-2.259,1.066-3.8,1.851-8.426-6.134-12.173-2.259-12.973c1.093-.226,1.506,1.412,1.506,1.412Z" transform="translate(-133.133 -539.799)" fill="#242444"/>
              <path id="Trazado_1059621" data-name="Trazado 1059621" d="M211.739,751.027a.565.565,0,0,1-.279-1.056l2.824-1.6a.565.565,0,1,1,.557.983l-2.824,1.6a.563.563,0,0,1-.278.073" transform="translate(-153.273 -543.122)" fill="#fe54ad"/>
              <rect id="Rectángulo_422343" data-name="Rectángulo 422343" width="23.951" height="2.117" transform="translate(64.197 247.273)" fill="#404072"/>
              <path id="Trazado_1059622" data-name="Trazado 1059622" d="M353.014,835.291A1.011,1.011,0,1,0,352,836.3a1.011,1.011,0,0,0,1.011-1.011" transform="translate(-254.754 -605.529)" fill="#647ca8"/>
              <path id="Trazado_1059623" data-name="Trazado 1059623" d="M354.968,828.293a.706.706,0,0,1-.706-.706,3.156,3.156,0,0,0-3.153-3.153.706.706,0,0,1,0-1.412,4.569,4.569,0,0,1,4.564,4.564.706.706,0,0,1-.706.706" transform="translate(-254.327 -597.359)" fill="#647ca8"/>
              <path id="Trazado_1059624" data-name="Trazado 1059624" d="M357.88,820.588a.706.706,0,0,1-.706-.706,6.07,6.07,0,0,0-6.063-6.063.706.706,0,0,1,0-1.412,7.484,7.484,0,0,1,7.475,7.475.706.706,0,0,1-.706.706" transform="translate(-254.328 -589.654)" fill="#647ca8"/>
              <path id="Trazado_1059625" data-name="Trazado 1059625" d="M218.705,816.453s1.9,3.336,3.626,3.618,1.711-1.519,0-4.343-3.626.725-3.626.725" transform="translate(-158.739 -591.272)" fill="#fdc8a9"/>
            </g>
          </g>
          <g id="Grupo_1225753" data-name="Grupo 1225753" transform="translate(79.303 239.33)">
            <g id="Grupo_1225752" data-name="Grupo 1225752" clip-path="url(#clip-path-18)">
              <rect id="Rectángulo_422345" data-name="Rectángulo 422345" width="3.178" height="3.178" transform="translate(0 0)" fill="url(#linear-gradient-6)"/>
            </g>
          </g>
          <g id="Grupo_1225764" data-name="Grupo 1225764" transform="translate(0 -0.001)">
            <g id="Grupo_1225763" data-name="Grupo 1225763" clip-path="url(#clip-path-3)">
              <path id="Trazado_1059627" data-name="Trazado 1059627" d="M611.868,293.819s1.339,3.154,2.756,4.041c1.185.742,2.86,2.554,2.048,3.909s-9.432-4.121-9.083-5.3,3.259-5.031,3.259-5.031Z" transform="translate(-440.988 -211.526)" fill="#242444"/>
              <path id="Trazado_1059628" data-name="Trazado 1059628" d="M624.893,110.13l4.928,11.413-1.33-.691,11.549-1.191a.985.985,0,0,1,.257,1.953l-11.465,1.832a1.248,1.248,0,0,1-1.257-.574l-.073-.118-6.551-10.565a2.23,2.23,0,1,1,3.79-2.35,2.429,2.429,0,0,1,.152.291" transform="translate(-450.45 -78.955)" fill="#fdc8a9"/>
              <path id="Trazado_1059629" data-name="Trazado 1059629" d="M621.715,98.047l-3.226-.594.44-2.39.693-3.764,3.226.594Z" transform="translate(-448.907 -66.264)" fill="#fdc8a9"/>
              <g id="Grupo_1225756" data-name="Grupo 1225756" transform="translate(170.561 25.034)" opacity="0.54" style="mix-blend-mode: multiply;isolation: isolate">
                <g id="Grupo_1225755" data-name="Grupo 1225755">
                  <g id="Grupo_1225754" data-name="Grupo 1225754" clip-path="url(#clip-path-20)">
                    <path id="Trazado_1059630" data-name="Trazado 1059630" d="M624.939,94.61l.5-2.718-3.226-.594-.154.838a4.216,4.216,0,0,0,2.88,2.473" transform="translate(-622.059 -91.298)" fill="#fdc8a9"/>
                  </g>
                </g>
              </g>
              <path id="Trazado_1059631" data-name="Trazado 1059631" d="M629.591,67.093s-1.823,6.14-3.391,7.308-5.14-3.264-5.14-3.264l2.115-5.8,4.807-1.628,1.872,2.69Z" transform="translate(-450.774 -46.24)" fill="#fdc8a9"/>
              <path id="Trazado_1059632" data-name="Trazado 1059632" d="M624.636,117.905s1.992-1.089,4.116-2.323l-3.408-6.353a2.24,2.24,0,0,0-3.067-.707c-2.073,1.006-.6,3.951-.6,3.951Z" transform="translate(-450.852 -78.536)" fill="#fe54ad"/>
              <path id="Trazado_1059633" data-name="Trazado 1059633" d="M592.158,129.445l.062-1.309.032-.653c.012-.217.033-.433.049-.649l.106-1.295c.04-.43.094-.857.14-1.285l.073-.641c.023-.214.058-.425.086-.637l.18-1.271.21-1.262c.036-.21.068-.421.108-.63l.12-.626.12-.626.06-.313.067-.311.267-1.243.292-1.236c.1-.411.208-.821.311-1.231.071-.279.148-.557.224-.835.191-.588.463-1.328.869-2.3,1.09-2.6,2.063-3.461,3.258-3.79a8.1,8.1,0,0,1,2.664.046,8.686,8.686,0,0,1,1.469.4,8.7,8.7,0,0,1,1.613,4.907l0,.168c-.036,3.862.088,8.726.088,8.726l-.05,1.105-.021,1.1c0,.183-.011.367-.008.549l0,.548c0,.365,0,.73.013,1.093l.043,1.086c.008.18.011.362.023.541l.04.537.078,1.072.012.155a5.42,5.42,0,0,1,.006.61,4.12,4.12,0,0,1-.191,1.054,33.821,33.821,0,0,1-12.5-.118,4.294,4.294,0,0,1,.075-1.44" transform="translate(-429.703 -77.815)" fill="#ffaede"/>
              <g id="Grupo_1225759" data-name="Grupo 1225759" transform="translate(168.457 29.403)" opacity="0.4" style="mix-blend-mode: multiply;isolation: isolate">
                <g id="Grupo_1225758" data-name="Grupo 1225758">
                  <g id="Grupo_1225757" data-name="Grupo 1225757" clip-path="url(#clip-path-21)">
                    <path id="Trazado_1059634" data-name="Trazado 1059634" d="M620.988,129.354l-.011-.155-.078-1.072-.04-.537c-.012-.18-.015-.361-.023-.541l-.043-1.086c-.01-.363-.008-.728-.013-1.093l-.005-.548c0-.183.006-.366.008-.549l.021-1.1.05-1.1s-.123-4.864-.088-8.726l0-.168a8.7,8.7,0,0,0-1.613-4.907,8.679,8.679,0,0,0-1.469-.4,8.261,8.261,0,0,0-2.233-.093c.23.022.455.053.673.093a8.679,8.679,0,0,1,1.469.4,8.7,8.7,0,0,1,1.614,4.907l0,.168c-.036,3.862.088,8.726.088,8.726l-.049,1.1-.022,1.1c0,.183-.01.367-.008.549l0,.548c0,.365,0,.73.012,1.093l.043,1.086c.008.18.011.362.024.541l.04.537.078,1.072.012.155a5.448,5.448,0,0,1,.006.61,4.151,4.151,0,0,1-.191,1.054,26.487,26.487,0,0,1-4.859.5,28.752,28.752,0,0,0,6.419-.5,4.12,4.12,0,0,0,.191-1.054,5.434,5.434,0,0,0-.005-.61" transform="translate(-614.384 -107.233)" fill="#ffaede"/>
                  </g>
                </g>
              </g>
              <path id="Trazado_1059635" data-name="Trazado 1059635" d="M653.7,144.548a3.9,3.9,0,0,1,1.139-.753,1.425,1.425,0,0,0,.794-.758c.245-.7,1.084-1.27,1.224-.877s-1.049,2.3-.035,1.844a4.527,4.527,0,0,0,1.713-1.9s.629,4.746-3.531,4.564c-2.849-.124-2.075-1.354-1.3-2.117" transform="translate(-473.942 -103.088)" fill="#fdc8a9"/>
              <path id="Trazado_1059636" data-name="Trazado 1059636" d="M612.99,114.544l1.227,13.619-1.855-.977,9.354-4.1a.985.985,0,0,1,.847,1.778l-9.076,4.68a1.274,1.274,0,0,1-1.716-.548,1.3,1.3,0,0,1-.109-.294l-.03-.134L608.6,115.239a2.229,2.229,0,1,1,4.347-.99,2.436,2.436,0,0,1,.047.295" transform="translate(-441.686 -81.663)" fill="#fdc8a9"/>
              <rect id="Rectángulo_422348" data-name="Rectángulo 422348" width="0.585" height="8.171" transform="matrix(0.863, -0.506, 0.506, 0.863, 178.349, 37.101)" fill="#4f6185"/>
              <rect id="Rectángulo_422349" data-name="Rectángulo 422349" width="0.585" height="1.53" transform="translate(178.349 37.102) rotate(-30.651)" fill="#242444"/>
              <path id="Trazado_1059637" data-name="Trazado 1059637" d="M619.047,52.186a6.665,6.665,0,0,0-3.375-1.325c-1.725-.149-3.868.255-4.611,2.9-1.317,4.681-1.41,7.3,1.855,10.234,0,0,1.363-.141,1.29-2.335s.8-3.364,1.609-2.56.877-1.39,1.316-2.121,2.34-2.34,3.437-.146,2.974,1.828,3.559.877a2.514,2.514,0,0,0-.926-3.657c-1.56-.975-1.849-.159-4.154-1.866" transform="translate(-442.893 -36.895)" fill="#242444"/>
              <path id="Trazado_1059638" data-name="Trazado 1059638" d="M663.036,142.422l-8.992-.009,3.2-13.153,8.992.009Z" transform="translate(-474.713 -93.817)" fill="#404072"/>
              <g id="Grupo_1225762" data-name="Grupo 1225762" transform="translate(187.606 35.452)" opacity="0.31" style="mix-blend-mode: multiply;isolation: isolate">
                <g id="Grupo_1225761" data-name="Grupo 1225761">
                  <g id="Grupo_1225760" data-name="Grupo 1225760" clip-path="url(#clip-path-22)">
                    <path id="Trazado_1059639" data-name="Trazado 1059639" d="M687.385,129.295l-3.159,13.158.716-.007,3.2-13.153Z" transform="translate(-684.225 -129.293)" fill="#647ca8"/>
                  </g>
                </g>
              </g>
              <path id="Trazado_1059640" data-name="Trazado 1059640" d="M619.762,103.179s1.764-.009,2.441.85c.548.7,1.134,1.17,1.682,1.1,0,0,.183-.11-1.572-2.487s-.293.293-.293.293Z" transform="translate(-449.831 -73.781)" fill="#fdc8a9"/>
              <path id="Trazado_1059641" data-name="Trazado 1059641" d="M609.311,120.834s2.229-.427,4.629-.952l-1.3-7.091a2.24,2.24,0,0,0-2.7-1.611c-2.281.323-1.783,3.577-1.783,3.577Z" transform="translate(-441.372 -80.668)" fill="#fe54ad"/>
              <path id="Trazado_1059642" data-name="Trazado 1059642" d="M600.6,47.141s-1.463-2.925-3.9-1.17-2.34,4.1-1.95,6.143.878,4.583-.585,5.558-2.145,3.023-1.073,4.388,2.145,1.463,1.755,4.1,5.266,2.34,4.1-1.755.829-2.952,1.438-6.547-4.766-9.458-1.755-10.079c.85-.175,1.17,1.1,1.17,1.1Z" transform="translate(-430.092 -32.958)" fill="#242444"/>
              <path id="Trazado_1059643" data-name="Trazado 1059643" d="M691.78,142.43a5.487,5.487,0,0,0-.536-1.95c-.487-.975-1.365-.926-1.17.488a19.8,19.8,0,0,1,.341,2.292c0,.683.585.878.878.39a5.716,5.716,0,0,0,.487-1.219" transform="translate(-500.843 -101.479)" fill="#fdc8a9"/>
              <path id="Trazado_1059644" data-name="Trazado 1059644" d="M600.935,220.645l17.642-25.9a2.63,2.63,0,0,0,.483-1.268,2.6,2.6,0,0,0-2.327-2.846l-.312-.031-20.673-2.194a5.137,5.137,0,0,0-.97,0c-2.666.268-3.321,2-3.757,5.019-.383,2.652,2.646,4.61,5.312,4.342l15.052-1.366-.881-.808-12.922,22.695Z" transform="translate(-428.947 -136.733)" fill="#4d59e3"/>
              <path id="Trazado_1059645" data-name="Trazado 1059645" d="M692.237,316.086s3.009,1.639,4.67,1.454c1.39-.155,3.828.224,4.034,1.79s-9.951,2.633-10.412,1.489-.573-5.967-.573-5.967Z" transform="translate(-500.778 -228.522)" fill="#242444"/>
              <path id="Trazado_1059646" data-name="Trazado 1059646" d="M615.531,207.943q-1.278-2.517-2.512-5.038-.617-1.26-1.205-2.516l-.573-1.248-.548-1.252a22.784,22.784,0,0,0-1.649-2.9c-.568-.866-1.15-1.687-1.742-2.482-1.185-1.593-2.4-3.108-3.644-4.6s-2.5-2.943-3.778-4.381c-.639-.719-1.5-1.289-2.148-2l-.523-.572q-.165-.189-.333-.362c-.366-.4-.735-.794-1.12-1.2l-.166.174a2.944,2.944,0,0,0-1.451-.433c-2.847,0-3.6,2.8-4.254,6.021a4.879,4.879,0,0,0,4.254,6.046,4.468,4.468,0,0,0,.552,0,5.089,5.089,0,0,1,3.642,1.5l.016.016c1.293,1.311,2.558,2.641,3.746,3.986.6.672,1.164,1.35,1.69,2.021a17.748,17.748,0,0,1,1.334,1.908l.721,1.28.741,1.261q.746,1.241,1.5,2.459,1.512,2.435,3.052,4.829,3.079,4.8,6.224,9.527l3.372-2.007q-2.632-5-5.2-10.039" transform="translate(-428.054 -130.017)" fill="#4c6afe"/>
              <path id="Trazado_1059647" data-name="Trazado 1059647" d="M592.89,170.154l-2.694,3.011-1,6.888a.084.084,0,0,0,.154.058,9.615,9.615,0,0,1,8.508-4.593c6.143.195.878-3.559.878-3.559Z" transform="translate(-427.649 -123.499)" fill="#ffaede"/>
              <rect id="Rectángulo_422351" data-name="Rectángulo 422351" width="2.522" height="0.878" transform="translate(168.609 14.728) rotate(-29.536)" fill="#fe54ad"/>
              <path id="Trazado_1059648" data-name="Trazado 1059648" d="M763.811,58.919H708.946a3.122,3.122,0,0,1-3.112-3.113V35.771a3.122,3.122,0,0,1,3.112-3.113h54.865a3.122,3.122,0,0,1,3.113,3.113V55.806a3.122,3.122,0,0,1-3.113,3.113" transform="translate(-512.303 -23.702)" fill="#f7ad66"/>
              <path id="Trazado_1059649" data-name="Trazado 1059649" d="M731.033,59.556a3.394,3.394,0,1,1,3.394-3.394,3.4,3.4,0,0,1-3.394,3.394m0-5.818a2.424,2.424,0,1,0,2.424,2.424,2.427,2.427,0,0,0-2.424-2.424" transform="translate(-528.129 -38.299)" fill="#fff"/>
              <path id="Trazado_1059650" data-name="Trazado 1059650" d="M784.2,60.812H759.954a.485.485,0,0,1,0-.97H784.2a.485.485,0,1,1,0,.97" transform="translate(-551.232 -43.433)" fill="#fff"/>
              <path id="Trazado_1059651" data-name="Trazado 1059651" d="M810.084,75.548H774.69a.485.485,0,1,1,0-.97h35.394a.485.485,0,1,1,0,.97" transform="translate(-561.927 -54.129)" fill="#fff"/>
              <path id="Trazado_1059652" data-name="Trazado 1059652" d="M810.084,85.617H774.69a.485.485,0,1,1,0-.97h35.394a.485.485,0,1,1,0,.97" transform="translate(-561.927 -61.437)" fill="#fff"/>
              <path id="Trazado_1059653" data-name="Trazado 1059653" d="M810.084,95.687H774.69a.485.485,0,1,1,0-.97h35.394a.485.485,0,1,1,0,.97" transform="translate(-561.927 -68.746)" fill="#fff"/>
              <path id="Trazado_1059654" data-name="Trazado 1059654" d="M810.084,105.757H774.69a.485.485,0,1,1,0-.97h35.394a.485.485,0,1,1,0,.97" transform="translate(-561.927 -76.055)" fill="#fff"/>
              <path id="Trazado_1059655" data-name="Trazado 1059655" d="M976.825,124.072h-4.689a.429.429,0,0,1,0-.857h4.689a.429.429,0,0,1,0,.857" transform="translate(-705.277 -89.43)" fill="#fff"/>
              <path id="Trazado_1059656" data-name="Trazado 1059656" d="M925.54,12.191a9.648,9.648,0,1,0-9.648,9.648,9.648,9.648,0,0,0,9.648-9.648" transform="translate(-657.763 -1.845)" fill="#fff"/>
            </g>
          </g>
          <g id="Grupo_1225766" data-name="Grupo 1225766" transform="translate(253.216 3.935)">
            <g id="Grupo_1225765" data-name="Grupo 1225765" clip-path="url(#clip-path-23)">
              <rect id="Rectángulo_422353" data-name="Rectángulo 422353" width="10.926" height="16.057" transform="translate(0 0)" fill="url(#linear-gradient-7)"/>
            </g>
          </g>
          <g id="Grupo_1225784" data-name="Grupo 1225784" transform="translate(0 -0.001)">
            <g id="Grupo_1225783" data-name="Grupo 1225783" clip-path="url(#clip-path-3)">
              <path id="Trazado_1059658" data-name="Trazado 1059658" d="M1166.641,755.854l-7.47,62.843a1.851,1.851,0,0,0,3.658.556l11.535-62.226a3.907,3.907,0,0,0-7.684-1.424c-.015.08-.028.171-.038.251" transform="translate(-841.33 -546.105)" fill="#fdc8a9"/>
              <path id="Trazado_1059659" data-name="Trazado 1059659" d="M1190.642,736.757l13.54,66.316a1.851,1.851,0,0,0,3.649-.608l-8.673-67.126a4.32,4.32,0,0,0-8.568,1.107c.013.1.032.212.052.311" transform="translate(-864.119 -530.984)" fill="#fdc8a9"/>
              <path id="Trazado_1059660" data-name="Trazado 1059660" d="M1170.4,732.225,1167.09,773.1a59.542,59.542,0,0,0,21.886,0l-5.553-45.949Z" transform="translate(-847.088 -527.775)" fill="#4c6afe"/>
              <path id="Trazado_1059661" data-name="Trazado 1059661" d="M1216.048,980.314s-.851,2.413-3.11,2.472c-1.89.05-5.087,1.008-5.073,3.144s12.847,1.826,13.254.208-.94-6.251-.94-6.251Z" transform="translate(-876.682 -711.213)" fill="#242444"/>
              <path id="Trazado_1059662" data-name="Trazado 1059662" d="M1138.769,979.788s-.851,2.413-3.11,2.472c-1.89.05-5.087,1.008-5.073,3.144s12.847,1.826,13.254.208-.771-6.072-.771-6.072Z" transform="translate(-820.592 -710.961)" fill="#242444"/>
              <rect id="Rectángulo_422354" data-name="Rectángulo 422354" width="4.436" height="8.463" transform="translate(328.349 171.384) rotate(-10.438)" fill="#fdc8a9"/>
              <g id="Grupo_1225769" data-name="Grupo 1225769" transform="translate(328.348 170.581)" opacity="0.54" style="mix-blend-mode: multiply;isolation: isolate">
                <g id="Grupo_1225768" data-name="Grupo 1225768">
                  <g id="Grupo_1225767" data-name="Grupo 1225767" clip-path="url(#clip-path-25)">
                    <path id="Trazado_1059663" data-name="Trazado 1059663" d="M1198.21,626.606l-.677-3.675,4.362-.8.208,1.134c-.948,1.734-2.22,3.126-3.894,3.344" transform="translate(-1197.532 -622.128)" fill="#fdc8a9"/>
                  </g>
                </g>
              </g>
              <path id="Trazado_1059664" data-name="Trazado 1059664" d="M1133.647,652.568l-10.987,15.8,3.763-.056-9.756-10.628a1.335,1.335,0,0,0-2.087,1.655l8.124,11.922a2.246,2.246,0,0,0,3.6.145l.16-.2,12-15.038a3.009,3.009,0,0,0-4.7-3.754c-.04.05-.082.107-.118.159" transform="translate(-808.806 -472.704)" fill="#fdc8a9"/>
              <path id="Trazado_1059665" data-name="Trazado 1059665" d="M1175.887,586.435s.368,8.654,2.039,10.7,7.817-2.588,7.817-2.588l-.863-8.3-5.768-3.72-3.342,2.911Z" transform="translate(-853.388 -422.805)" fill="#fdc8a9"/>
              <path id="Trazado_1059666" data-name="Trazado 1059666" d="M1174.14,659.725l-5.476-4.144s4.917-10.394,9.87-6.959c3.971,2.754-4.395,11.1-4.395,11.1" transform="translate(-848.23 -470.271)" fill="#4d59e3"/>
              <path id="Trazado_1059667" data-name="Trazado 1059667" d="M1190.606,659.815l.221-.624c-.185-1.622-.37-3.346-.523-4.946l-.03-.226s-1.751-6.315-4.437-6.662c-.152-.017-.3-.033-.455-.045-.437-.033-1.077-.138-1.767-.237-.6-.074-1.031-.127-1.31-.16q-.219-.02-.43-.031a7.637,7.637,0,0,0-4.253,4.293,32.4,32.4,0,0,0-2.335,8.327l-.1.786L1175,662l-.042.394c-.013.155-.03.306-.041.463q-.015.2-.035.411l-.038.447-.073.859c-.024.287-.038.575-.057.862l-.1,1.727-.062,1.735c-.008.29-.025.578-.026.869l-.007.872c0,.582-.014,1.164-.007,1.748l.04,1.756c.008.293.01.586.025.88l.049.883.1,1.769a5.8,5.8,0,0,0,.1,1.948,75.209,75.209,0,0,0,14.862-.3Z" transform="translate(-852.471 -469.516)" fill="#4c6afe"/>
              <path id="Trazado_1059668" data-name="Trazado 1059668" d="M1072.354,565.3l.054-14.575,13.369,6.1Z" transform="translate(-778.328 -399.723)" fill="#fdc8a9"/>
              <path id="Trazado_1059669" data-name="Trazado 1059669" d="M1074.085,551.432l-1.548-.707-.006,1.643a3.186,3.186,0,0,0,1.555-.936" transform="translate(-778.455 -399.722)" fill="#242444"/>
              <rect id="Rectángulo_422356" data-name="Rectángulo 422356" width="11.848" height="87.779" transform="translate(294.027 165.578) rotate(-32.255)" fill="#f7ad66"/>
              <rect id="Rectángulo_422357" data-name="Rectángulo 422357" width="4.024" height="87.779" transform="translate(304.047 159.255) rotate(-32.255)" fill="#ffc08d"/>
              <rect id="Rectángulo_422358" data-name="Rectángulo 422358" width="4.024" height="87.779" transform="matrix(0.846, -0.534, 0.534, 0.846, 294.027, 165.578)" fill="#f69c44"/>
              <path id="Trazado_1059670" data-name="Trazado 1059670" d="M1240.893,827.61l-5.457,3.444a4.71,4.71,0,0,1-6.5-1.469l-7.573-12,13.423-8.471,7.573,12a4.71,4.71,0,0,1-1.469,6.5" transform="translate(-886.482 -587.262)" fill="#fe54ad"/>
              <rect id="Rectángulo_422359" data-name="Rectángulo 422359" width="15.872" height="6.158" transform="matrix(0.846, -0.534, 0.534, 0.846, 334.884, 230.321)" fill="#4f6185"/>
              <path id="Trazado_1059671" data-name="Trazado 1059671" d="M1185.75,775.739a5.713,5.713,0,0,0-1.725,1.009,2.086,2.086,0,0,1-1.508.553c-1.071-.128-1.176.5-.75.939s2.5.208,1.252,1.246.462,1.721.462,1.721,1.754,3.191,4.2-2.389c1.678-3.82-.436-3.6-1.936-3.079" transform="translate(-857.571 -562.832)" fill="#fdc8a9"/>
              <path id="Trazado_1059672" data-name="Trazado 1059672" d="M1200.941,655.22l6.366,18.321.345-2.1-8.633,13.67a1.334,1.334,0,0,0,2.155,1.565l10.32-12.447a2.08,2.08,0,0,0,.408-1.872l-.062-.228-5.156-18.7a3.009,3.009,0,1,0-5.8,1.6c.017.061.038.129.058.188" transform="translate(-870.113 -472.664)" fill="#fdc8a9"/>
              <path id="Trazado_1059673" data-name="Trazado 1059673" d="M1108.452,661.7s-3.078-8.04-4.507-6.69,1.9,6.13,2.973,7.232,1.534-.542,1.534-.542" transform="translate(-801.003 -475.3)" fill="#fdc8a9"/>
              <path id="Trazado_1059674" data-name="Trazado 1059674" d="M1214.7,661.548l-7.332,2.488s-5.8-12.792-.009-14.451c5.2-1.488,7.341,11.963,7.341,11.963" transform="translate(-874.449 -471.393)" fill="#4d59e3"/>
              <path id="Trazado_1059675" data-name="Trazado 1059675" d="M1199,645.439a9.3,9.3,0,0,0-3.063.509c-1.261.417-2.441,1.44-3.053,1.2s.117-.957.117-.957,2.382-1.793,3.519-1.942,2.479,1.186,2.479,1.186" transform="translate(-865.629 -467.597)" fill="#fdc8a9"/>
              <path id="Trazado_1059676" data-name="Trazado 1059676" d="M1172.164,568.639a20.106,20.106,0,0,0-2.264.493c-.657.136-1.539.31-2.439.461s-4.2-.324-4.928-.279c-2.167.134-1.3,4.913.765,5.973s5.941-.085,6.817,2.2-.089,4.254,1.1,5.809c1.355,1.775,2.445,2.56,1.989,5.843s.666,7.027,3.3,7.757c1.834.508,3.533-.115,6.362,4.641,2.855,4.8,12.988-3.112,4.78-9.268-4.779-3.584-4.88-4.859-4.628-8.973.407-6.653-2.125-11.911-5.907-13.474-2.458-1.016-2.871-1.245-4.944-1.186" transform="translate(-842.865 -412.718)" fill="#242444"/>
              <g id="Grupo_1225772" data-name="Grupo 1225772" transform="translate(280.172 274.324)" opacity="0.21" style="mix-blend-mode: multiply;isolation: isolate">
                <g id="Grupo_1225771" data-name="Grupo 1225771">
                  <g id="Grupo_1225770" data-name="Grupo 1225770" clip-path="url(#clip-path-26)">
                    <path id="Trazado_1059677" data-name="Trazado 1059677" d="M1089.439,1002.116c0-.9,19.323-1.626,43.159-1.626s43.159.728,43.159,1.626-19.323,1.626-43.159,1.626-43.159-.728-43.159-1.626" transform="translate(-1089.439 -1000.49)" fill="#242444"/>
                  </g>
                </g>
              </g>
              <g id="Grupo_1225777" data-name="Grupo 1225777" transform="translate(39.628 118.916)" opacity="0.33">
                <g id="Grupo_1225776" data-name="Grupo 1225776">
                  <g id="Grupo_1225775" data-name="Grupo 1225775" clip-path="url(#clip-path-27)">
                    <path id="Trazado_1059678" data-name="Trazado 1059678" d="M193,457.87a2.144,2.144,0,0,0,1.192,1.593c1.545.737,3.087,2.8,3.915,4.3a.743.743,0,0,1,.043.624l-2.207,5.773a.743.743,0,0,1-.448.436c-1.62.568-4.143,1.074-5.785.592a2.142,2.142,0,0,0-1.951.392l-3.689,3a2.143,2.143,0,0,0-.784,1.829c.134,1.706-.878,4.072-1.766,5.541a.743.743,0,0,1-.519.349l-6.1.976a.744.744,0,0,1-.6-.17c-1.3-1.119-3-3.051-3.406-4.714a2.144,2.144,0,0,0-1.315-1.494l-4.44-1.7a2.143,2.143,0,0,0-1.976.236c-1.41.969-3.966,1.275-5.682,1.241a.743.743,0,0,1-.562-.274l-3.9-4.8a.743.743,0,0,1-.153-.606c.318-1.687,1.142-4.125,2.379-5.307a2.142,2.142,0,0,0,.636-1.886l-.75-4.694a2.144,2.144,0,0,0-1.192-1.593c-1.545-.737-3.087-2.8-3.915-4.3a.742.742,0,0,1-.043-.624l2.207-5.773a.743.743,0,0,1,.448-.436c1.62-.568,4.143-1.074,5.785-.593a2.144,2.144,0,0,0,1.951-.392l3.689-3a2.143,2.143,0,0,0,.784-1.829c-.134-1.706.879-4.072,1.766-5.541a.743.743,0,0,1,.518-.35l6.1-.976a.742.742,0,0,1,.6.17c1.3,1.119,3,3.051,3.406,4.714a2.144,2.144,0,0,0,1.315,1.494l4.44,1.7a2.143,2.143,0,0,0,1.976-.236c1.41-.969,3.966-1.275,5.682-1.241a.743.743,0,0,1,.562.274l3.9,4.8a.743.743,0,0,1,.153.606c-.318,1.686-1.141,4.125-2.379,5.307a2.143,2.143,0,0,0-.636,1.886Zm-15.91-7.291a8.47,8.47,0,1,0,4.888,10.936,8.47,8.47,0,0,0-4.888-10.936" transform="translate(-148.448 -433.699)" fill="#647ca8"/>
                    <g id="Grupo_1225774" data-name="Grupo 1225774" transform="translate(0 0)">
                      <g id="Grupo_1225773" data-name="Grupo 1225773" clip-path="url(#clip-path-28)">
                        <rect id="Rectángulo_422361" data-name="Rectángulo 422361" width="55.159" height="54.021" transform="translate(-6.04 48.87) rotate(-82.992)" fill="url(#linear-gradient-8)"/>
                      </g>
                    </g>
                  </g>
                </g>
              </g>
              <g id="Grupo_1225782" data-name="Grupo 1225782" transform="translate(323.758 80.329)" opacity="0.33">
                <g id="Grupo_1225781" data-name="Grupo 1225781">
                  <g id="Grupo_1225780" data-name="Grupo 1225780" clip-path="url(#clip-path-29)">
                    <path id="Trazado_1059680" data-name="Trazado 1059680" d="M1206.235,305.659a1.125,1.125,0,0,0,.626.837,5.762,5.762,0,0,1,2.056,2.258.39.39,0,0,1,.023.327l-1.158,3.031a.389.389,0,0,1-.235.229,5.765,5.765,0,0,1-3.038.311,1.125,1.125,0,0,0-1.024.206l-1.937,1.573a1.125,1.125,0,0,0-.411.96,5.765,5.765,0,0,1-.927,2.909.39.39,0,0,1-.272.183l-3.2.512a.39.39,0,0,1-.316-.09,5.76,5.76,0,0,1-1.788-2.475,1.125,1.125,0,0,0-.69-.784l-2.331-.891a1.126,1.126,0,0,0-1.037.124,5.764,5.764,0,0,1-2.983.651.391.391,0,0,1-.3-.144l-2.046-2.519a.389.389,0,0,1-.08-.318,5.762,5.762,0,0,1,1.249-2.786,1.124,1.124,0,0,0,.334-.99l-.394-2.464a1.126,1.126,0,0,0-.626-.837,5.764,5.764,0,0,1-2.056-2.258.39.39,0,0,1-.023-.328l1.158-3.031a.39.39,0,0,1,.236-.229,5.76,5.76,0,0,1,3.037-.311,1.126,1.126,0,0,0,1.025-.206l1.937-1.573a1.126,1.126,0,0,0,.411-.96,5.76,5.76,0,0,1,.927-2.909.391.391,0,0,1,.272-.184l3.2-.512a.391.391,0,0,1,.316.089,5.762,5.762,0,0,1,1.788,2.475,1.125,1.125,0,0,0,.69.784l2.331.891a1.126,1.126,0,0,0,1.037-.124,5.761,5.761,0,0,1,2.983-.651.39.39,0,0,1,.3.144l2.046,2.519a.391.391,0,0,1,.081.318,5.766,5.766,0,0,1-1.25,2.786,1.125,1.125,0,0,0-.334.99Zm-8.353-3.828a4.447,4.447,0,1,0,2.566,5.742,4.447,4.447,0,0,0-2.566-5.742" transform="translate(-1182.846 -292.968)" fill="#647ca8"/>
                    <g id="Grupo_1225779" data-name="Grupo 1225779" transform="translate(-0.001 0)">
                      <g id="Grupo_1225778" data-name="Grupo 1225778" clip-path="url(#clip-path-30)">
                        <rect id="Rectángulo_422363" data-name="Rectángulo 422363" width="28.96" height="28.363" transform="translate(-3.171 25.658) rotate(-82.992)" fill="url(#linear-gradient-9)"/>
                      </g>
                    </g>
                  </g>
                </g>
              </g>
              <path id="Trazado_1059682" data-name="Trazado 1059682" d="M484.783,361.075a.814.814,0,0,0,.453.605,4.171,4.171,0,0,1,1.489,1.635.283.283,0,0,1,.016.237l-.839,2.195a.282.282,0,0,1-.171.166,4.171,4.171,0,0,1-2.2.225.814.814,0,0,0-.741.149l-1.4,1.139a.814.814,0,0,0-.3.7,4.171,4.171,0,0,1-.671,2.107.282.282,0,0,1-.2.133l-2.32.371a.282.282,0,0,1-.229-.065,4.171,4.171,0,0,1-1.295-1.792.814.814,0,0,0-.5-.568l-1.688-.645a.814.814,0,0,0-.751.09,4.172,4.172,0,0,1-2.16.472.281.281,0,0,1-.214-.1l-1.481-1.824a.282.282,0,0,1-.058-.23,4.173,4.173,0,0,1,.9-2.017.813.813,0,0,0,.242-.716l-.285-1.785a.814.814,0,0,0-.453-.605,4.175,4.175,0,0,1-1.489-1.635.282.282,0,0,1-.016-.237l.839-2.195a.283.283,0,0,1,.171-.166,4.174,4.174,0,0,1,2.2-.225.814.814,0,0,0,.741-.149l1.4-1.14a.815.815,0,0,0,.3-.7,4.17,4.17,0,0,1,.671-2.107.282.282,0,0,1,.2-.133l2.32-.371a.282.282,0,0,1,.229.065,4.176,4.176,0,0,1,1.295,1.792.814.814,0,0,0,.5.568l1.688.645a.814.814,0,0,0,.751-.09,4.172,4.172,0,0,1,2.16-.472.282.282,0,0,1,.214.1l1.481,1.824a.282.282,0,0,1,.058.23,4.171,4.171,0,0,1-.9,2.017.814.814,0,0,0-.242.716Zm-6.048-2.772a3.22,3.22,0,1,0,1.858,4.157,3.22,3.22,0,0,0-1.858-4.157" transform="translate(-339.978 -255.402)" fill="#d96c74"/>
              <path id="Trazado_1059683" data-name="Trazado 1059683" d="M481.945,361.075a.814.814,0,0,0,.453.605,4.172,4.172,0,0,1,1.489,1.635.283.283,0,0,1,.017.237l-.839,2.195a.282.282,0,0,1-.171.166,4.171,4.171,0,0,1-2.2.225.813.813,0,0,0-.741.149l-1.4,1.139a.815.815,0,0,0-.3.7,4.17,4.17,0,0,1-.671,2.107.282.282,0,0,1-.2.133l-2.32.371a.281.281,0,0,1-.229-.065,4.171,4.171,0,0,1-1.295-1.792.814.814,0,0,0-.5-.568l-1.688-.645a.814.814,0,0,0-.751.09,4.172,4.172,0,0,1-2.16.472.281.281,0,0,1-.214-.1l-1.481-1.824a.283.283,0,0,1-.058-.23,4.173,4.173,0,0,1,.9-2.017.813.813,0,0,0,.242-.716l-.285-1.785a.813.813,0,0,0-.453-.605,4.173,4.173,0,0,1-1.489-1.635.282.282,0,0,1-.016-.237l.839-2.195a.282.282,0,0,1,.171-.166,4.173,4.173,0,0,1,2.2-.225.815.815,0,0,0,.741-.149l1.4-1.14a.815.815,0,0,0,.3-.7,4.171,4.171,0,0,1,.672-2.107.281.281,0,0,1,.2-.133l2.32-.371a.281.281,0,0,1,.229.065,4.174,4.174,0,0,1,1.295,1.792.814.814,0,0,0,.5.568l1.688.645a.814.814,0,0,0,.751-.09,4.171,4.171,0,0,1,2.16-.472.282.282,0,0,1,.214.1l1.481,1.824a.283.283,0,0,1,.058.23,4.172,4.172,0,0,1-.9,2.017.814.814,0,0,0-.242.716ZM475.9,358.3a3.22,3.22,0,1,0,1.858,4.157A3.22,3.22,0,0,0,475.9,358.3" transform="translate(-337.918 -255.402)" fill="#f0c646"/>
              <path id="Trazado_1059684" data-name="Trazado 1059684" d="M1011.968,278.223a9.428,9.428,0,1,1-9.428-9.428,9.428,9.428,0,0,1,9.428,9.428" transform="translate(-720.813 -195.094)" fill="#fe54ad"/>
              <path id="Trazado_1059685" data-name="Trazado 1059685" d="M1006.387,297.086l-4.978-2.114v-.862l4.978-2.114v.919l-3.952,1.627,3.952,1.627Z" transform="translate(-726.835 -211.933)" fill="#fff"/>
              <path id="Trazado_1059686" data-name="Trazado 1059686" d="M1025.059,287.372l-2.176,7.523h-.744l2.176-7.523Z" transform="translate(-741.881 -208.577)" fill="#fff"/>
              <path id="Trazado_1059687" data-name="Trazado 1059687" d="M1040.411,294.972l-4.978,2.114v-.919l3.952-1.627-3.952-1.627v-.919l4.978,2.115Z" transform="translate(-751.53 -211.932)" fill="#fff"/>
            </g>
          </g>
          <g id="Grupo_1225786" data-name="Grupo 1225786" transform="translate(231.419 52.355)">
            <g id="Grupo_1225785" data-name="Grupo 1225785" clip-path="url(#clip-path-31)">
              <rect id="Rectángulo_422366" data-name="Rectángulo 422366" width="18.445" height="18.059" transform="translate(-5.725 2.191) rotate(-23.788)" fill="url(#linear-gradient-10)"/>
            </g>
          </g>
          <g id="Grupo_1225794" data-name="Grupo 1225794" transform="translate(0 -0.001)">
            <g id="Grupo_1225793" data-name="Grupo 1225793" clip-path="url(#clip-path-3)">
              <path id="Trazado_1059689" data-name="Trazado 1059689" d="M870.274,207.229l-4.586-2.268.328,5.106Z" transform="translate(-628.326 -148.762)" fill="#fff"/>
              <rect id="Rectángulo_422367" data-name="Rectángulo 422367" width="3.566" height="1.189" transform="matrix(0.998, -0.064, 0.064, 0.998, 234.132, 58.374)" fill="#fff"/>
              <g id="Grupo_1225789" data-name="Grupo 1225789" transform="translate(75.095 56.402)" opacity="0.68">
                <g id="Grupo_1225788" data-name="Grupo 1225788">
                  <g id="Grupo_1225787" data-name="Grupo 1225787" clip-path="url(#clip-path-33)">
                    <path id="Trazado_1059690" data-name="Trazado 1059690" d="M304.06,220.792A15.089,15.089,0,1,1,288.971,205.7a15.089,15.089,0,0,1,15.089,15.089" transform="translate(-273.882 -205.703)" fill="#fe54ad"/>
                    <path id="Trazado_1059691" data-name="Trazado 1059691" d="M303.806,234.667l2.991,11.773,8.7-8.477Z" transform="translate(-295.601 -226.726)" fill="#fff"/>
                    <rect id="Rectángulo_422368" data-name="Rectángulo 422368" width="2.822" height="8.466" transform="translate(14.198 16.115) rotate(-44.256)" fill="#fff"/>
                  </g>
                </g>
              </g>
              <g id="Grupo_1225792" data-name="Grupo 1225792" transform="translate(41.81 248.457)" opacity="0.21" style="mix-blend-mode: multiply;isolation: isolate">
                <g id="Grupo_1225791" data-name="Grupo 1225791">
                  <g id="Grupo_1225790" data-name="Grupo 1225790" clip-path="url(#clip-path-34)">
                    <path id="Trazado_1059692" data-name="Trazado 1059692" d="M152.485,907.351c0-.664,14.285-1.2,31.906-1.2s31.906.538,31.906,1.2-14.285,1.2-31.906,1.2-31.906-.538-31.906-1.2" transform="translate(-152.485 -906.149)" fill="#242444"/>
                  </g>
                </g>
              </g>
            </g>
          </g>
        </g>
      </g>
    </g>
  </g>
</svg>
