<svg xmlns="http://www.w3.org/2000/svg" xmlns:xlink="http://www.w3.org/1999/xlink" width="108" height="108" viewBox="0 0 108 108">
  <defs>
    <filter id="Trazado_904820" x="0" y="0" width="108" height="108" filterUnits="userSpaceOnUse">
      <feOffset dy="3" input="SourceAlpha"/>
      <feGaussianBlur stdDeviation="3" result="blur"/>
      <feFlood flood-opacity="0.161"/>
      <feComposite operator="in" in2="blur"/>
      <feComposite in="SourceGraphic"/>
    </filter>
  </defs>
  <g id="Grupo_1226386" data-name="Grupo 1226386" transform="translate(-197.999 -7070.532)">
    <g id="Grupo_1226384" data-name="Grupo 1226384" transform="translate(0 3043.605)">
      <g id="Grupo_1226382" data-name="Grupo 1226382" transform="translate(0 -2925.719)">
        <g id="Grupo_1225798" data-name="Grupo 1225798" transform="translate(206.999 6958.646)">
          <g id="Grupo_1225716" data-name="Grupo 1225716" transform="translate(0 0)">
            <g id="Grupo_1211534" data-name="Grupo 1211534">
              <g id="Grupo_1173585" data-name="Grupo 1173585" transform="translate(0 0)">
                <g id="Grupo_1173428" data-name="Grupo 1173428">
                  <g id="Grupo_1171958" data-name="Grupo 1171958">
                    <g id="Grupo_1167341" data-name="Grupo 1167341">
                      <g id="Grupo_1166792" data-name="Grupo 1166792">
                        <g transform="matrix(1, 0, 0, 1, -9, -6)" filter="url(#Trazado_904820)">
                          <g id="Trazado_904820-2" data-name="Trazado 904820" transform="translate(9 6)" fill="#ebfefd">
                            <path d="M 44.99999618530273 88.50003814697266 C 39.12687301635742 88.50003814697266 33.43022155761719 87.35011291503906 28.06829643249512 85.08219909667969 C 22.88852119445801 82.89134979248047 18.23629570007324 79.75462341308594 14.24084663391113 75.75917053222656 C 10.24540901184082 71.76372528076172 7.108683586120605 67.11149597167969 4.917821407318115 61.93172454833984 C 2.649921178817749 56.56979751586914 1.499996185302734 50.87314605712891 1.499996185302734 45.00002288818359 C 1.499996185302734 39.12689971923828 2.649921178817749 33.43024826049805 4.917821407318115 28.06832313537598 C 7.108683586120605 22.88854789733887 10.24540901184082 18.2363224029541 14.24084663391113 14.24087333679199 C 18.23629570007324 10.24543571472168 22.88852119445801 7.108710289001465 28.06829643249512 4.917848110198975 C 33.43022155761719 2.649947881698608 39.12687301635742 1.500022888183594 44.99999618530273 1.500022888183594 C 50.87311935424805 1.500022888183594 56.56977081298828 2.649947881698608 61.93169784545898 4.917848110198975 C 67.11147308349609 7.108710289001465 71.76369476318359 10.24543571472168 75.75914764404297 14.24087333679199 C 79.75458526611328 18.2363224029541 82.89131164550781 22.88854789733887 85.08216857910156 28.06832313537598 C 87.35007476806641 33.43024826049805 88.5 39.12689971923828 88.5 45.00002288818359 C 88.5 50.87314605712891 87.35007476806641 56.56979751586914 85.08216857910156 61.93172454833984 C 82.89131164550781 67.11149597167969 79.75458526611328 71.76372528076172 75.75914764404297 75.75917053222656 C 71.76369476318359 79.75462341308594 67.11147308349609 82.89134979248047 61.93169784545898 85.08219909667969 C 56.56977081298828 87.35011291503906 50.87311935424805 88.50003814697266 44.99999618530273 88.50003814697266 Z" stroke="none"/>
                            <path d="M 44.99999618530273 3.000007629394531 C 39.32870864868164 3.000007629394531 33.82865142822266 4.110069274902344 28.65262603759766 6.299354553222656 C 23.65165710449219 8.414581298828125 19.15968322753906 11.44335174560547 15.301513671875 15.30153656005859 C 11.44333648681641 19.15970611572266 8.414566040039062 23.65166473388672 6.299339294433594 28.65265274047852 C 4.110054016113281 33.82867813110352 2.999992370605469 39.3287353515625 2.999992370605469 45.00002288818359 C 2.999992370605469 50.67131042480469 4.110054016113281 56.17135238647461 6.299339294433594 61.34739685058594 C 8.414566040039062 66.34836578369141 11.44333648681641 70.84032440185547 15.301513671875 74.69850921630859 C 19.15968322753906 78.55667877197266 23.65165710449219 81.58544921875 28.65262603759766 83.70068359375 C 33.82865142822266 85.88996887207031 39.32870864868164 87.00002288818359 44.99999618530273 87.00002288818359 C 50.67128372192383 87.00002288818359 56.17134094238281 85.88996887207031 61.34736633300781 83.70068359375 C 66.34834289550781 81.58544921875 70.84030914306641 78.55667877197266 74.69847869873047 74.69850921630859 C 78.55665588378906 70.84032440185547 81.58542633056641 66.34836578369141 83.70065307617188 61.34739685058594 C 85.88993835449219 56.17135238647461 87 50.67131042480469 87 45.00002288818359 C 87 39.3287353515625 85.88993835449219 33.82867813110352 83.70065307617188 28.65265274047852 C 81.58542633056641 23.65166473388672 78.55665588378906 19.15970611572266 74.69847869873047 15.30153656005859 C 70.84030914306641 11.44335174560547 66.34834289550781 8.414581298828125 61.34736633300781 6.299354553222656 C 56.17134094238281 4.110069274902344 50.67128372192383 3.000007629394531 44.99999618530273 3.000007629394531 M 44.99999618530273 7.62939453125e-06 C 69.85281372070312 7.62939453125e-06 90 20.14720916748047 90 45.00002288818359 C 90 69.85282135009766 69.85281372070312 90.00002288818359 44.99999618530273 90.00002288818359 C 20.14717864990234 90.00002288818359 -7.62939453125e-06 69.85282135009766 -7.62939453125e-06 45.00002288818359 C -7.62939453125e-06 20.14720916748047 20.14717864990234 7.62939453125e-06 44.99999618530273 7.62939453125e-06 Z" stroke="none" fill="#268985"/>
                          </g>
                        </g>
                      </g>
                    </g>
                  </g>
                </g>
              </g>
            </g>
          </g>
        </g>
      </g>
    </g>
    <g id="aplicaciones-moviles" transform="translate(199.568 7089.597)">
      <rect id="Rectángulo_422391" data-name="Rectángulo 422391" width="30.833" height="54.318" rx="15.416" transform="translate(40.715 4.776)" fill="#b6dbff"/>
      <rect id="Rectángulo_422392" data-name="Rectángulo 422392" width="28.305" height="54.318" rx="14.153" transform="translate(40.715 4.776)" fill="#e3f1ff"/>
      <path id="Trazado_1060345" data-name="Trazado 1060345" d="M264.717,11l1.447,2.507a1.629,1.629,0,0,0,1.444.834h12.224a1.629,1.629,0,0,0,1.444-.834L282.724,11H264.717Z" transform="translate(-217.589 -6.224)" fill="#4eb1fc" fill-rule="evenodd"/>
      <path id="Trazado_1060346" data-name="Trazado 1060346" d="M264.718,11l1.447,2.507q.046.079.1.151a1.787,1.787,0,0,0,.249.017h12.224a1.629,1.629,0,0,0,1.444-.834L281.244,11H264.718Z" transform="translate(-217.59 -6.224)" fill="#85caff" fill-rule="evenodd"/>
      <rect id="Rectángulo_422393" data-name="Rectángulo 422393" width="5.918" height="2.389" rx="1.194" transform="translate(53.173 52.562)" fill="#4eb1fc"/>
      <path id="Trazado_1060347" data-name="Trazado 1060347" d="M320.442,442.071h3.486a1.193,1.193,0,0,1-.789,2.09h-3.486a1.193,1.193,0,0,1,.789-2.09Z" transform="translate(-266.075 -389.509)" fill="#85caff" fill-rule="evenodd"/>
      <path id="Trazado_1060348" data-name="Trazado 1060348" d="M239.825,93.925h3.382a1.511,1.511,0,0,1,1.51,1.51v3.021a1.511,1.511,0,0,1-1.51,1.51h-3.382a1.511,1.511,0,0,1-1.51-1.51V95.435a1.511,1.511,0,0,1,1.51-1.51Z" transform="translate(-194.114 -79.957)" fill="#f23353"/>
      <path id="Trazado_1060349" data-name="Trazado 1060349" d="M239.826,93.926h2.322a1.511,1.511,0,0,1,1.51,1.51v3.021a1.511,1.511,0,0,1-1.51,1.51h-2.322a1.511,1.511,0,0,1-1.51-1.51V95.436a1.511,1.511,0,0,1,1.51-1.51Z" transform="translate(-194.115 -79.957)" fill="#ff5471"/>
      <path id="Trazado_1060350" data-name="Trazado 1060350" d="M318.575,93.925h3.382a1.511,1.511,0,0,1,1.51,1.51v3.021a1.511,1.511,0,0,1-1.51,1.51h-3.382a1.511,1.511,0,0,1-1.51-1.51V95.435a1.511,1.511,0,0,1,1.51-1.51Z" transform="translate(-264.134 -79.957)" fill="#2a92fa"/>
      <path id="Trazado_1060351" data-name="Trazado 1060351" d="M318.576,93.925H320.9a1.511,1.511,0,0,1,1.51,1.51v3.021a1.511,1.511,0,0,1-1.51,1.51h-2.322a1.511,1.511,0,0,1-1.51-1.51V95.435a1.511,1.511,0,0,1,1.51-1.51Z" transform="translate(-264.135 -79.957)" fill="#4eb1fc"/>
      <path id="Trazado_1060352" data-name="Trazado 1060352" d="M397.325,93.925h3.382a1.511,1.511,0,0,1,1.51,1.51v3.021a1.511,1.511,0,0,1-1.51,1.51h-3.382a1.511,1.511,0,0,1-1.51-1.51V95.435a1.511,1.511,0,0,1,1.51-1.51Z" transform="translate(-334.155 -79.957)" fill="#fdb0a0"/>
      <path id="Trazado_1060353" data-name="Trazado 1060353" d="M397.326,93.925h2.322a1.511,1.511,0,0,1,1.51,1.51v3.021a1.511,1.511,0,0,1-1.51,1.51h-2.322a1.511,1.511,0,0,1-1.51-1.51V95.435a1.511,1.511,0,0,1,1.51-1.51Z" transform="translate(-334.156 -79.957)" fill="#ffcec0"/>
      <path id="Trazado_1060354" data-name="Trazado 1060354" d="M239.825,169.422h3.382a1.511,1.511,0,0,1,1.51,1.51v3.021a1.511,1.511,0,0,1-1.51,1.51h-3.382a1.511,1.511,0,0,1-1.51-1.51v-3.021a1.511,1.511,0,0,1,1.51-1.51Z" transform="translate(-194.114 -147.084)" fill="#2dd62d"/>
      <path id="Trazado_1060355" data-name="Trazado 1060355" d="M239.826,169.423h2.322a1.511,1.511,0,0,1,1.51,1.51v3.021a1.511,1.511,0,0,1-1.51,1.51h-2.322a1.511,1.511,0,0,1-1.51-1.51v-3.021a1.511,1.511,0,0,1,1.51-1.51Z" transform="translate(-194.115 -147.085)" fill="#43f043"/>
      <path id="Trazado_1060356" data-name="Trazado 1060356" d="M318.575,169.422h3.382a1.511,1.511,0,0,1,1.51,1.51v3.021a1.511,1.511,0,0,1-1.51,1.51h-3.382a1.511,1.511,0,0,1-1.51-1.51v-3.021a1.511,1.511,0,0,1,1.51-1.51Z" transform="translate(-264.134 -147.084)" fill="#fdc72e"/>
      <path id="Trazado_1060357" data-name="Trazado 1060357" d="M318.576,169.422H320.9a1.511,1.511,0,0,1,1.51,1.51v3.021a1.511,1.511,0,0,1-1.51,1.51h-2.322a1.511,1.511,0,0,1-1.51-1.51v-3.021a1.511,1.511,0,0,1,1.51-1.51Z" transform="translate(-264.135 -147.084)" fill="#fcdb35"/>
      <path id="Trazado_1060358" data-name="Trazado 1060358" d="M397.325,169.422h3.382a1.511,1.511,0,0,1,1.51,1.51v3.021a1.511,1.511,0,0,1-1.51,1.51h-3.382a1.511,1.511,0,0,1-1.51-1.51v-3.021a1.511,1.511,0,0,1,1.51-1.51Z" transform="translate(-334.155 -147.084)" fill="#2dcffc"/>
      <path id="Trazado_1060359" data-name="Trazado 1060359" d="M397.326,169.422h2.322a1.511,1.511,0,0,1,1.51,1.51v3.021a1.511,1.511,0,0,1-1.51,1.51h-2.322a1.511,1.511,0,0,1-1.51-1.51v-3.021a1.511,1.511,0,0,1,1.51-1.51Z" transform="translate(-334.156 -147.084)" fill="#78eaff"/>
      <path id="Trazado_1060360" data-name="Trazado 1060360" d="M239.825,244.918h3.382a1.511,1.511,0,0,1,1.51,1.51v3.021a1.511,1.511,0,0,1-1.51,1.51h-3.382a1.511,1.511,0,0,1-1.51-1.51v-3.021a1.511,1.511,0,0,1,1.51-1.51Z" transform="translate(-194.114 -214.211)" fill="#2dcffc"/>
      <path id="Trazado_1060361" data-name="Trazado 1060361" d="M239.826,244.919h2.322a1.511,1.511,0,0,1,1.51,1.51v3.021a1.511,1.511,0,0,1-1.51,1.51h-2.322a1.511,1.511,0,0,1-1.51-1.51v-3.021a1.511,1.511,0,0,1,1.51-1.51Z" transform="translate(-194.115 -214.212)" fill="#78eaff"/>
      <path id="Trazado_1060362" data-name="Trazado 1060362" d="M318.575,244.918h3.382a1.511,1.511,0,0,1,1.51,1.51v3.021a1.511,1.511,0,0,1-1.51,1.51h-3.382a1.511,1.511,0,0,1-1.51-1.51v-3.021a1.511,1.511,0,0,1,1.51-1.51Z" transform="translate(-264.134 -214.211)" fill="#4eb1fc"/>
      <path id="Trazado_1060363" data-name="Trazado 1060363" d="M318.576,244.918H320.9a1.511,1.511,0,0,1,1.51,1.51v3.021a1.511,1.511,0,0,1-1.51,1.51h-2.322a1.511,1.511,0,0,1-1.51-1.51v-3.021a1.511,1.511,0,0,1,1.51-1.51Z" transform="translate(-264.135 -214.211)" fill="#85caff"/>
      <path id="Trazado_1060364" data-name="Trazado 1060364" d="M397.325,244.918h3.382a1.511,1.511,0,0,1,1.51,1.51v3.021a1.511,1.511,0,0,1-1.51,1.51h-3.382a1.511,1.511,0,0,1-1.51-1.51v-3.021a1.511,1.511,0,0,1,1.51-1.51Z" transform="translate(-334.155 -214.211)" fill="#f2671f"/>
      <path id="Trazado_1060365" data-name="Trazado 1060365" d="M397.326,244.918h2.322a1.511,1.511,0,0,1,1.51,1.51v3.021a1.511,1.511,0,0,1-1.51,1.51h-2.322a1.511,1.511,0,0,1-1.51-1.51v-3.021a1.511,1.511,0,0,1,1.51-1.51Z" transform="translate(-334.156 -214.211)" fill="#ff8748"/>
      <path id="Trazado_1060366" data-name="Trazado 1060366" d="M318.575,320.415h3.382a1.511,1.511,0,0,1,1.51,1.51v3.021a1.511,1.511,0,0,1-1.51,1.51h-3.382a1.511,1.511,0,0,1-1.51-1.51v-3.021a1.511,1.511,0,0,1,1.51-1.51Z" transform="translate(-264.134 -281.339)" fill="#c2a9a1"/>
      <path id="Trazado_1060367" data-name="Trazado 1060367" d="M318.576,320.415H320.9a1.511,1.511,0,0,1,1.51,1.51v3.021a1.511,1.511,0,0,1-1.51,1.51h-2.322a1.511,1.511,0,0,1-1.51-1.51v-3.021a1.511,1.511,0,0,1,1.51-1.51Z" transform="translate(-264.135 -281.339)" fill="#d9c5bf"/>
      <g id="Grupo_1226385" data-name="Grupo 1226385" transform="translate(20 4)">
        <path id="Trazado_1060368" data-name="Trazado 1060368" d="M60.351,205.185a2.366,2.366,0,0,1,0,3.336l7.884-7.884a2.114,2.114,0,1,1,2.99,2.99l-6.262,6.262a1.934,1.934,0,0,1,2.735,2.735l-.448.448a1.856,1.856,0,0,1,2.624,2.624L68.8,216.772a1.8,1.8,0,0,1,2.541,2.541l-3.134,3.134-3.559,3.559c-1.8,1.8-6.711,4.265-8.514,2.462l-7.488-8.043.535-.535a4.481,4.481,0,0,0,1.351-3.5l-.119-2.456a4.48,4.48,0,0,1,1.351-3.5l5.254-5.254a2.366,2.366,0,0,1,3.336,0Z" transform="translate(-45.47 -178.29)" fill="#fdb0a0" fill-rule="evenodd"/>
        <path id="Trazado_1060369" data-name="Trazado 1060369" d="M69.257,207.9a2.34,2.34,0,0,1-.445.621l7.884-7.884a2.114,2.114,0,1,1,2.99,2.99l-6.262,6.262a1.934,1.934,0,1,1,2.735,2.735l-.448.448a1.856,1.856,0,0,1,2.624,2.624l-.44.44a1.8,1.8,0,0,1,2.541,2.541l-3.77,3.77-3.559,3.559c-1.8,1.8-6.711,4.265-8.514,2.462l-6.433-6.91,1.064-1.064a4.48,4.48,0,0,0,1.351-3.5l-.119-2.456a4.48,4.48,0,0,1,1.351-3.5l4.94-4.94a1.565,1.565,0,0,1,2.51,1.8Z" transform="translate(-53.93 -178.291)" fill="#ffcec0" fill-rule="evenodd"/>
        <path id="Trazado_1060370" data-name="Trazado 1060370" d="M27.085,376.519l9.951,9.951a.827.827,0,0,0,1.167,0l1.985-1.985a.828.828,0,0,0,0-1.167l-9.951-9.951a.828.828,0,0,0-1.167,0l-1.985,1.985A.828.828,0,0,0,27.085,376.519Z" transform="translate(-26.086 -332.208)" fill="#2a92fa" fill-rule="evenodd"/>
        <path id="Trazado_1060371" data-name="Trazado 1060371" d="M46.139,395.574l7.839,7.839a.828.828,0,0,0,1.167,0l1.985-1.985a.828.828,0,0,0,0-1.167l-7.839-7.839a.828.828,0,0,0-1.167,0l-1.985,1.985a.828.828,0,0,0,0,1.167Z" transform="translate(-43.027 -349.151)" fill="#4eb1fc" fill-rule="evenodd"/>
        <path id="Trazado_1060372" data-name="Trazado 1060372" d="M140.124,200.292,127.965,212.45a.773.773,0,1,1-1.094-1.094l10.718-10.718a2.123,2.123,0,0,1,2.534-.346Z" transform="translate(-114.824 -178.292)" fill="#fdb0a0" fill-rule="evenodd"/>
        <path id="Trazado_1060373" data-name="Trazado 1060373" d="M191.759,284.272,189.83,286.2a.773.773,0,0,1-1.094-1.094l.589-.589a1.941,1.941,0,0,1,2.434-.246Z" transform="translate(-169.831 -252.92)" fill="#fdb0a0" fill-rule="evenodd"/>
        <path id="Trazado_1060374" data-name="Trazado 1060374" d="M212.155,313.216l-1.905,1.905a.773.773,0,0,1-1.094-1.094l.612-.612a1.862,1.862,0,0,1,2.388-.2Z" transform="translate(-187.987 -278.635)" fill="#fdb0a0" fill-rule="evenodd"/>
        <path id="Trazado_1060375" data-name="Trazado 1060375" d="M234.782,341.032l-1.5,1.5a.773.773,0,0,1-1.094-1.094l.243-.243a1.8,1.8,0,0,1,2.352-.164Z" transform="translate(-208.465 -303.351)" fill="#fdb0a0" fill-rule="evenodd"/>
        <path id="Trazado_1060376" data-name="Trazado 1060376" d="M58.556,43.607a.735.735,0,0,1-.734.734H54.44a.735.735,0,0,1-.734-.734V40.586a.735.735,0,0,1,.734-.734h3.382a.735.735,0,0,1,.734.734ZM57.822,38.3H54.44a2.288,2.288,0,0,0-2.286,2.286v3.021a2.288,2.288,0,0,0,2.286,2.286h3.382a2.288,2.288,0,0,0,2.286-2.286V40.586A2.288,2.288,0,0,0,57.822,38.3Zm9.464-3.063a.735.735,0,0,1-.734.735H63.17a.735.735,0,0,1-.734-.735V32.216a.735.735,0,0,1,.734-.734h3.382a.735.735,0,0,1,.734.734Zm-.734-5.306H63.17a2.289,2.289,0,0,0-2.286,2.286v3.021a2.289,2.289,0,0,0,2.286,2.287h3.382a2.289,2.289,0,0,0,2.286-2.287V32.217A2.288,2.288,0,0,0,66.551,29.931Zm-8,5.306a.735.735,0,0,1-.734.735H54.44a.735.735,0,0,1-.734-.735V32.216a.735.735,0,0,1,.734-.734h3.382a.735.735,0,0,1,.734.734Zm-.734-5.306H54.44a2.288,2.288,0,0,0-2.286,2.286v3.021a2.289,2.289,0,0,0,2.286,2.287h3.382a2.289,2.289,0,0,0,2.286-2.287V32.217A2.288,2.288,0,0,0,57.822,29.931Zm9.464-3.062a.735.735,0,0,1-.734.734H63.17a.735.735,0,0,1-.734-.734V23.847a.735.735,0,0,1,.734-.734h3.382a.735.735,0,0,1,.734.734Zm-.734-5.308H63.17a2.289,2.289,0,0,0-2.286,2.286v3.022a2.289,2.289,0,0,0,2.286,2.286h3.382a2.288,2.288,0,0,0,2.286-2.286V23.847A2.288,2.288,0,0,0,66.551,21.561Zm-8,5.308a.735.735,0,0,1-.734.734H54.44a.735.735,0,0,1-.734-.734V23.847a.735.735,0,0,1,.734-.734h3.382a.735.735,0,0,1,.734.734Zm-.734-5.308H54.44a2.288,2.288,0,0,0-2.286,2.286v3.022a2.288,2.288,0,0,0,2.286,2.286h3.382a2.288,2.288,0,0,0,2.286-2.286V23.847A2.288,2.288,0,0,0,57.822,21.561ZM67.286,18.5a.735.735,0,0,1-.734.734H63.17a.735.735,0,0,1-.734-.734V15.479a.735.735,0,0,1,.734-.734h3.382a.735.735,0,0,1,.734.734Zm-.734-5.307H63.17a2.289,2.289,0,0,0-2.286,2.286V18.5a2.289,2.289,0,0,0,2.286,2.286h3.382A2.288,2.288,0,0,0,68.837,18.5V15.479a2.288,2.288,0,0,0-2.286-2.286Zm-8,5.307a.735.735,0,0,1-.734.734H54.44a.735.735,0,0,1-.734-.734V15.479a.735.735,0,0,1,.734-.734h3.382a.735.735,0,0,1,.734.734Zm-.734-5.307H54.44a2.288,2.288,0,0,0-2.286,2.286V18.5a2.288,2.288,0,0,0,2.286,2.286h3.382A2.288,2.288,0,0,0,60.107,18.5V15.479a2.288,2.288,0,0,0-2.286-2.286Zm-8,5.307a.735.735,0,0,1-.734.734H45.71a.735.735,0,0,1-.734-.734V15.479a.735.735,0,0,1,.734-.734h3.382a.735.735,0,0,1,.734.734Zm-.734-5.307H45.71a2.288,2.288,0,0,0-2.285,2.286V18.5a2.288,2.288,0,0,0,2.285,2.286h3.382A2.288,2.288,0,0,0,51.378,18.5V15.479a2.288,2.288,0,0,0-2.286-2.286Zm8.8,40.982H54.367a.418.418,0,1,1,0-.837h3.528a.418.418,0,1,1,0,.837Zm0-2.389H54.367a1.97,1.97,0,1,0,0,3.941h3.528a1.97,1.97,0,1,0,0-3.941Zm12.876,3.5V8.581a3.031,3.031,0,0,0-3.027-3.028H65.581L64.359,7.672a2.42,2.42,0,0,1-2.116,1.222H50.019A2.419,2.419,0,0,1,47.9,7.672L46.679,5.552H44.518A3.032,3.032,0,0,0,41.49,8.581V26.533l.716-.716a2.861,2.861,0,0,1,1.218-.725V23.847a2.288,2.288,0,0,1,2.285-2.286h3.382a2.288,2.288,0,0,1,2.286,2.286v3.022a2.288,2.288,0,0,1-2.286,2.286H46.828a2.854,2.854,0,0,1-.538.746l-.03.03h2.832a2.288,2.288,0,0,1,2.286,2.286v3.021a2.289,2.289,0,0,1-2.286,2.287H45.71a2.288,2.288,0,0,1-2.285-2.287V32.767l-1.657,1.657a2.7,2.7,0,0,1,1.791,2.548,2.725,2.725,0,0,1-.052.53,2.623,2.623,0,0,1,2.2,2.594,2.66,2.66,0,0,1-.045.49,2.569,2.569,0,0,1,1.374,4.349l-5.547,5.547V55.29a3.032,3.032,0,0,0,3.029,3.029H67.743a3.031,3.031,0,0,0,3.027-3.029ZM45.71,31.483h3.382a.735.735,0,0,1,.734.734v3.021a.735.735,0,0,1-.734.735H45.71a.735.735,0,0,1-.734-.735V32.217a.735.735,0,0,1,.734-.734Zm1.413-3.88a2.877,2.877,0,0,0-2.146-2.536V23.847a.735.735,0,0,1,.734-.734h3.382a.735.735,0,0,1,.734.734v3.022a.735.735,0,0,1-.734.734H47.123Zm-8.5,23.552A12.015,12.015,0,0,1,33.9,53.8l-8.763-8.763a5.23,5.23,0,0,0,.708-2.969l-.12-2.453A3.708,3.708,0,0,1,26.85,36.7L32.1,31.457a1.58,1.58,0,0,1,2.237,2.231v0h0l-2.861,2.86a.776.776,0,0,0,.549,1.325.768.768,0,0,0,.549-.227l2.861-2.86h0l0,0L43.3,26.914A1.336,1.336,0,0,1,45.192,28.8l-6.254,6.254a.776.776,0,0,0,1.1,1.1,1.155,1.155,0,0,1,1.634,1.634l-.448.447a.776.776,0,0,0,1.1,1.1,1.077,1.077,0,0,1,1.523,1.524L43.4,41.3a.776.776,0,1,0,1.1,1.1,1.021,1.021,0,0,1,1.441,0,1.022,1.022,0,0,1,0,1.441l-7.318,7.317Zm-5.068,4.556a.045.045,0,0,0,.013-.033.047.047,0,0,0-.013-.034L23.615,45.7a.047.047,0,0,0-.033-.013.049.049,0,0,0-.035.013l-1.982,1.982a.045.045,0,0,0-.013.034.046.046,0,0,0,.013.034L31.5,57.694a.054.054,0,0,0,.069,0l1.982-1.983ZM63.79,5.552,63.014,6.9a.848.848,0,0,1-.772.446H50.019a.85.85,0,0,1-.773-.446l-.775-1.343H63.79ZM67.743,4H44.518a4.586,4.586,0,0,0-4.58,4.581v19.5L36.243,31.78A3.135,3.135,0,0,0,31,30.36l-5.246,5.247a5.266,5.266,0,0,0-1.575,4.08L24.3,42.14a3.723,3.723,0,0,1-.449,2.022,1.6,1.6,0,0,0-1.4.445l-1.982,1.982a1.6,1.6,0,0,0,0,2.264l9.938,9.938a1.6,1.6,0,0,0,2.264,0l1.982-1.982A1.6,1.6,0,0,0,35,55.078a13.641,13.641,0,0,0,4.717-2.826l.218-.218V55.29a4.586,4.586,0,0,0,4.58,4.58H67.743a4.585,4.585,0,0,0,4.579-4.58V8.581A4.585,4.585,0,0,0,67.743,4Z" transform="translate(-20 -4)" fill-rule="evenodd"/>
      </g>
    </g>
  </g>
</svg>
