<svg xmlns="http://www.w3.org/2000/svg" xmlns:xlink="http://www.w3.org/1999/xlink" width="400" height="329" viewBox="0 0 400 329">
  <defs>
    <clipPath id="clip-path">
      <rect id="Rectángulo_422386" data-name="Rectángulo 422386" width="400" height="329" transform="translate(1020 1428)" fill="#fff" stroke="#707070" stroke-width="1"/>
    </clipPath>
  </defs>
  <g id="Enmascarar_grupo_1159134" data-name="Enmascarar grupo 1159134" transform="translate(-1020 -1428)" clip-path="url(#clip-path)">
    <g id="Grupo_1226378" data-name="Grupo 1226378" transform="translate(-10012.063 241.077)">
      <g id="BACKGROUND" transform="translate(11062.553 1221.846)">
        <path id="Trazado_1060171" data-name="Trazado 1060171" d="M368.712,387.193H51.955a1.267,1.267,0,0,1-1.266-1.266h0a1.266,1.266,0,0,1,1.266-1.266H368.712a1.266,1.266,0,0,1,1.266,1.266h0A1.266,1.266,0,0,1,368.712,387.193Z" transform="translate(-43.017 -107.069)" fill="#233863"/>
        <circle id="Elipse_12642" data-name="Elipse 12642" cx="3.185" cy="3.185" r="3.185" transform="translate(132.865 16.837)" fill="#ffb44f"/>
        <path id="Trazado_1060172" data-name="Trazado 1060172" d="M45.268,40.176A2.079,2.079,0,1,1,43.19,38.1,2.079,2.079,0,0,1,45.268,40.176Z" transform="translate(-41.111 -38.097)" fill="#ffb44f"/>
        <circle id="Elipse_12643" data-name="Elipse 12643" cx="2.079" cy="2.079" r="2.079" transform="translate(343.244 95.858)" fill="#ffb44f"/>
        <path id="Trazado_1060173" data-name="Trazado 1060173" d="M399.531,95.4a2.079,2.079,0,1,1-2.079-2.079A2.079,2.079,0,0,1,399.531,95.4Z" transform="translate(-111.615 -49.088)" fill="#ffb44f"/>
        <path id="Trazado_1060174" data-name="Trazado 1060174" d="M58.641,80.576A2.445,2.445,0,1,1,56.2,78.131,2.445,2.445,0,0,1,58.641,80.576Z" transform="translate(-43.627 -46.064)" fill="#3887fe"/>
        <path id="Trazado_1060175" data-name="Trazado 1060175" d="M441.544,77.524a2.445,2.445,0,1,1-2.445-2.445A2.444,2.444,0,0,1,441.544,77.524Z" transform="translate(-119.831 -45.457)" fill="#3887fe"/>
        <path id="Trazado_1060176" data-name="Trazado 1060176" d="M80.958,43.151a1.078,1.078,0,1,1-1.078-1.078A1.079,1.079,0,0,1,80.958,43.151Z" transform="translate(-48.612 -38.888)" fill="#233863"/>
        <path id="Trazado_1060177" data-name="Trazado 1060177" d="M259.767,86.194a1.078,1.078,0,1,1-1.078-1.078A1.078,1.078,0,0,1,259.767,86.194Z" transform="translate(-84.198 -47.455)" fill="#233863"/>
        <path id="Trazado_1060178" data-name="Trazado 1060178" d="M397.482,58.849a1.078,1.078,0,1,1-1.078-1.078A1.079,1.079,0,0,1,397.482,58.849Z" transform="translate(-111.606 -42.012)" fill="#233863"/>
      </g>
      <g id="OBJECTS" transform="translate(11054.171 1241.868)">
        <g id="Grupo_1226356" data-name="Grupo 1226356" transform="translate(0 0)">
          <g id="Grupo_1226276" data-name="Grupo 1226276" transform="translate(6.973 173.148)" opacity="0.61">
            <path id="Trazado_1060179" data-name="Trazado 1060179" d="M363.943,352.846H343.731a.8.8,0,0,1,0-1.6h20.212a.8.8,0,1,1,0,1.6Z" transform="translate(-99.769 -293.588)" fill="#fff"/>
            <path id="Trazado_1060180" data-name="Trazado 1060180" d="M415.271,352.846H384.33a.8.8,0,0,1,0-1.6h30.941a.8.8,0,0,1,0,1.6Z" transform="translate(-107.849 -293.588)" fill="#fff"/>
            <path id="Trazado_1060181" data-name="Trazado 1060181" d="M394.639,361.837H343.731a.8.8,0,1,1,0-1.6H394.64a.8.8,0,1,1,0,1.6Z" transform="translate(-99.769 -295.378)" fill="#fff"/>
            <path id="Trazado_1060182" data-name="Trazado 1060182" d="M377.462,370.829H343.731a.8.8,0,1,1,0-1.6h33.731a.8.8,0,0,1,0,1.6Z" transform="translate(-99.769 -297.167)" fill="#fff"/>
            <path id="Trazado_1060183" data-name="Trazado 1060183" d="M92.388,321.319H40.153a.8.8,0,1,1,0-1.6H92.388a.8.8,0,1,1,0,1.6Z" transform="translate(-39.352 -287.314)" fill="#fff"/>
            <path id="Trazado_1060184" data-name="Trazado 1060184" d="M92.388,301.168H40.153a.8.8,0,1,1,0-1.6H92.388a.8.8,0,1,1,0,1.6Z" transform="translate(-39.352 -283.304)" fill="#fff"/>
            <path id="Trazado_1060185" data-name="Trazado 1060185" d="M98.369,311.244H70.207a.8.8,0,0,1,0-1.6H98.369a.8.8,0,0,1,0,1.6Z" transform="translate(-45.333 -285.309)" fill="#fff"/>
            <path id="Trazado_1060186" data-name="Trazado 1060186" d="M98.369,290.482H70.207a.8.8,0,1,1,0-1.6H98.369a.8.8,0,0,1,0,1.6Z" transform="translate(-45.333 -281.177)" fill="#fff"/>
            <path id="Trazado_1060187" data-name="Trazado 1060187" d="M100.647,280.865H81.654a.8.8,0,1,1,0-1.6h18.993a.8.8,0,0,1,0,1.6Z" transform="translate(-47.611 -279.263)" fill="#fff"/>
          </g>
          <g id="Grupo_1226355" data-name="Grupo 1226355">
            <path id="Trazado_1060188" data-name="Trazado 1060188" d="M386.38,358.136H341.428a1.2,1.2,0,1,1,0-2.4h43.75V340.825a1.2,1.2,0,0,1,2.4,0v16.109A1.2,1.2,0,0,1,386.38,358.136Z" transform="translate(-92.258 -118.128)" fill="#233863"/>
            <path id="Trazado_1060189" data-name="Trazado 1060189" d="M352.368,269.034H309.526a.8.8,0,0,1-.8-.8V245.1a.8.8,0,1,1,1.6,0v22.329h42.041a.8.8,0,0,1,0,1.6Z" transform="translate(-85.988 -99.157)" fill="#233863"/>
            <path id="Trazado_1060190" data-name="Trazado 1060190" d="M213.641,125.906H200.951a.8.8,0,0,1-.8-.8V97.863H179.2a.8.8,0,0,1,0-1.6h21.755a.8.8,0,0,1,.8.8V124.3h11.89a.8.8,0,1,1,0,1.6Z" transform="translate(-60.051 -69.695)" fill="#233863"/>
            <path id="Trazado_1060191" data-name="Trazado 1060191" d="M191.05,291.008a1.2,1.2,0,0,1-1.2-1.2V249.275H166.626a1.2,1.2,0,0,1-1.2-1.2V198.331a1.2,1.2,0,1,1,2.4,0v48.541H191.05a1.2,1.2,0,0,1,1.2,1.2v41.734A1.2,1.2,0,0,1,191.05,291.008Z" transform="translate(-57.469 -89.769)" fill="#233863"/>
            <g id="Grupo_1226298" data-name="Grupo 1226298" transform="translate(152.983 3.925)">
              <g id="Grupo_1226283" data-name="Grupo 1226283" transform="translate(49.586)">
                <g id="Grupo_1226282" data-name="Grupo 1226282">
                  <path id="Trazado_1060192" data-name="Trazado 1060192" d="M354.03,117.508H286.66c-1.719,0-3.113-1.07-3.113-2.39V70.384c0-1.32,1.394-2.39,3.113-2.39H354.03c1.719,0,3.113,1.07,3.113,2.39v44.734C357.143,116.438,355.749,117.508,354.03,117.508Z" transform="translate(-283.547 -67.994)" fill="#ffb44f"/>
                  <path id="Trazado_1060193" data-name="Trazado 1060193" d="M283.547,77.417V70.384c0-1.32,1.394-2.39,3.113-2.39H354.03c1.719,0,3.113,1.07,3.113,2.39V77.11" transform="translate(-283.547 -67.994)" fill="#3887fe"/>
                  <g id="Grupo_1226277" data-name="Grupo 1226277" transform="translate(0 8.715)">
                    <path id="Trazado_1060194" data-name="Trazado 1060194" d="M356.7,79.374h0Z" transform="translate(-283.547 -78.974)" fill="#f7a9b4"/>
                    <rect id="Rectángulo_422387" data-name="Rectángulo 422387" width="73.151" height="0.801" fill="#fff"/>
                  </g>
                  <path id="Trazado_1060195" data-name="Trazado 1060195" d="M289.792,75.362a1.557,1.557,0,1,1,1.557-1.557A1.559,1.559,0,0,1,289.792,75.362Zm0-2.314a.756.756,0,1,0,.756.756A.757.757,0,0,0,289.792,73.048Z" transform="translate(-284.48 -68.841)" fill="#fff"/>
                  <path id="Trazado_1060196" data-name="Trazado 1060196" d="M295.211,75.362a1.557,1.557,0,1,1,1.557-1.557A1.559,1.559,0,0,1,295.211,75.362Zm0-2.314a.756.756,0,1,0,.756.756A.757.757,0,0,0,295.211,73.048Z" transform="translate(-285.559 -68.841)" fill="#fff"/>
                  <path id="Trazado_1060197" data-name="Trazado 1060197" d="M300.528,75.362a1.557,1.557,0,1,1,1.557-1.557A1.559,1.559,0,0,1,300.528,75.362Zm0-2.314a.756.756,0,1,0,.756.756A.757.757,0,0,0,300.528,73.048Z" transform="translate(-286.617 -68.841)" fill="#fff"/>
                  <g id="Grupo_1226278" data-name="Grupo 1226278" transform="translate(33.751 21.072)">
                    <line id="Línea_3379" data-name="Línea 3379" x2="29.507" transform="translate(0.401 0.4)" fill="#f7a9b4"/>
                    <path id="Trazado_1060198" data-name="Trazado 1060198" d="M355.592,95.1H326.085a.4.4,0,0,1,0-.8h29.507a.4.4,0,1,1,0,.8Z" transform="translate(-325.684 -94.302)" fill="#fff"/>
                  </g>
                  <g id="Grupo_1226279" data-name="Grupo 1226279" transform="translate(33.751 34.645)">
                    <line id="Línea_3380" data-name="Línea 3380" x2="14.753" transform="translate(0.401 0.4)" fill="#f7a9b4"/>
                    <path id="Trazado_1060199" data-name="Trazado 1060199" d="M340.839,112.048H326.084a.4.4,0,0,1,0-.8h14.754a.4.4,0,0,1,0,.8Z" transform="translate(-325.684 -111.247)" fill="#fff"/>
                  </g>
                  <g id="Grupo_1226280" data-name="Grupo 1226280" transform="translate(33.752 27.966)">
                    <line id="Línea_3381" data-name="Línea 3381" x2="11.016" transform="translate(0.4 0.4)" fill="#f7a9b4"/>
                    <path id="Trazado_1060200" data-name="Trazado 1060200" d="M337.1,103.709H326.085a.4.4,0,0,1,0-.8H337.1a.4.4,0,0,1,0,.8Z" transform="translate(-325.685 -102.908)" fill="#fff"/>
                  </g>
                  <g id="Grupo_1226281" data-name="Grupo 1226281" transform="translate(52.243 27.966)">
                    <line id="Línea_3382" data-name="Línea 3382" x2="11.016" transform="translate(0.401 0.4)" fill="#f7a9b4"/>
                    <path id="Trazado_1060201" data-name="Trazado 1060201" d="M360.186,103.709H349.171a.4.4,0,0,1,0-.8h11.016a.4.4,0,1,1,0,.8Z" transform="translate(-348.77 -102.908)" fill="#fff"/>
                  </g>
                </g>
                <path id="Trazado_1060202" data-name="Trazado 1060202" d="M314.319,102.088H294.7V88.579h19.622Zm-18.821-.8h18.02V89.38H295.5Z" transform="translate(-285.766 -72.091)" fill="#fff"/>
              </g>
              <g id="Grupo_1226297" data-name="Grupo 1226297" transform="translate(0 34.805)">
                <path id="Trazado_1060203" data-name="Trazado 1060203" d="M222.555,126.781V116.748c0-2.928,3.117-5.3,6.962-5.3H380.194c3.845,0,6.962,2.373,6.962,5.3v99.2c0,2.928-3.117,5.3-6.962,5.3H229.516c-3.845,0-6.962-2.373-6.962-5.3V200.025" transform="translate(-221.822 -111.447)" fill="#fff"/>
                <path id="Trazado_1060204" data-name="Trazado 1060204" d="M386.974,131.965v-15.11c0-2.966-3.131-5.37-6.993-5.37H228.633c-3.862,0-6.993,2.4-6.993,5.37v15.8Z" transform="translate(-221.64 -111.455)" fill="#3887fe"/>
                <path id="Trazado_1060205" data-name="Trazado 1060205" d="M235.793,127.663a3,3,0,1,1,3-3A3,3,0,0,1,235.793,127.663Zm0-5.2a2.2,2.2,0,1,0,2.2,2.2A2.2,2.2,0,0,0,235.793,122.466Z" transform="translate(-223.86 -113.48)" fill="#fff"/>
                <path id="Trazado_1060206" data-name="Trazado 1060206" d="M247.968,127.663a3,3,0,1,1,3-3A3,3,0,0,1,247.968,127.663Zm0-5.2a2.2,2.2,0,1,0,2.2,2.2A2.2,2.2,0,0,0,247.968,122.466Z" transform="translate(-226.283 -113.48)" fill="#fff"/>
                <path id="Trazado_1060207" data-name="Trazado 1060207" d="M259.912,127.663a3,3,0,1,1,3-3A3,3,0,0,1,259.912,127.663Zm0-5.2a2.2,2.2,0,1,0,2.2,2.2A2.2,2.2,0,0,0,259.912,122.466Z" transform="translate(-228.66 -113.48)" fill="#fff"/>
                <path id="Trazado_1060208" data-name="Trazado 1060208" d="M382.577,172.26H326.243a.4.4,0,1,1,0-.8h56.333a.4.4,0,1,1,0,.8Z" transform="translate(-242.378 -123.39)" fill="#243762"/>
                <path id="Trazado_1060209" data-name="Trazado 1060209" d="M354.41,204.609H326.243a.4.4,0,0,1,0-.8H354.41a.4.4,0,0,1,0,.8Z" transform="translate(-242.378 -129.828)" fill="#243762"/>
                <path id="Trazado_1060210" data-name="Trazado 1060210" d="M347.274,188.689H326.243a.4.4,0,0,1,0-.8h21.031a.4.4,0,0,1,0,.8Z" transform="translate(-242.378 -126.66)" fill="#243762"/>
                <path id="Trazado_1060211" data-name="Trazado 1060211" d="M391.348,188.689H370.317a.4.4,0,1,1,0-.8h21.031a.4.4,0,1,1,0,.8Z" transform="translate(-251.149 -126.66)" fill="#243762"/>
                <g id="Grupo_1226296" data-name="Grupo 1226296" transform="translate(13.978 33.4)">
                  <g id="Grupo_1226284" data-name="Grupo 1226284" transform="translate(6.21 50.049)">
                    <path id="Trazado_1060212" data-name="Trazado 1060212" d="M272.459,229.6a31.777,31.777,0,0,1-25.615-12.942v-1.03h51.963A31.79,31.79,0,0,1,272.459,229.6Z" transform="translate(-246.844 -215.63)" fill="#ffb44f"/>
                  </g>
                  <path id="Trazado_1060213" data-name="Trazado 1060213" d="M245.3,204.317a31.823,31.823,0,1,1,51.964-1.03H245.3v1.03Z" transform="translate(-239.091 -153.238)" fill="#53d0f7"/>
                  <g id="Grupo_1226295" data-name="Grupo 1226295" transform="translate(8.357)">
                    <path id="Trazado_1060214" data-name="Trazado 1060214" d="M302.318,181.284a8.341,8.341,0,0,0-1.9-2.289c-2.484-2.181-5.977-3.562-7.174-6.631-.849-2.176-.284-4.632-.59-6.949a11.7,11.7,0,0,0-4.188-7.166A22.641,22.641,0,0,0,269.7,153.6a16.812,16.812,0,0,0-10.977,7.509c-.352.55-2.683,4.306-2.242,4.817,0,0,.271.308.76.768a6.746,6.746,0,0,0-.426,1.594c-.212,1.611.181,3.318-.409,4.832-.833,2.135-3.262,3.094-4.989,4.611a5.246,5.246,0,0,0-1.632,5.865,7.512,7.512,0,0,0,3.143,4.368c2.779,1.752,7.259,1.962,10.459,1.954a3.007,3.007,0,0,0,1.681-.359,2.651,2.651,0,0,0,.94-2.179,12.438,12.438,0,0,0-1.62-6.036.405.405,0,0,0-.136-.173.435.435,0,0,0-.362.026c-1.094.4,2.8-7.643,2.623-9.912a13.616,13.616,0,0,0,2.752.087,9.969,9.969,0,0,0,9.416-.211c.074,2.912,1.081,6,3.921,7.246a3.414,3.414,0,0,1,3.783-2.527,3.274,3.274,0,0,1,.575.148,3.985,3.985,0,0,1,2.561,3.309,4.159,4.159,0,0,1-.2,1.668,4.771,4.771,0,0,1-2,2.566,5.647,5.647,0,0,1-4.837.412.629.629,0,0,0-.521-.038.583.583,0,0,0-.2.249,17.9,17.9,0,0,0-2.33,8.681A3.811,3.811,0,0,0,280.79,196a4.323,4.323,0,0,0,2.418.517h.064c4.6.01,11-.3,14.977-2.81a10.8,10.8,0,0,0,4.52-6.281A8.4,8.4,0,0,0,302.318,181.284Z" transform="translate(-249.524 -153.146)" fill="#243762"/>
                    <g id="Grupo_1226294" data-name="Grupo 1226294" transform="translate(5.799 15.295)">
                      <g id="Grupo_1226285" data-name="Grupo 1226285" transform="translate(2.851)">
                        <path id="Trazado_1060215" data-name="Trazado 1060215" d="M282.938,199.8a3.811,3.811,0,0,1-1.352-3.133,17.889,17.889,0,0,1,2.33-8.681.587.587,0,0,1,.2-.249.623.623,0,0,1,.521.038,5.647,5.647,0,0,0,4.837-.412,4.768,4.768,0,0,0,2-2.566c.03-.139.055-.278.072-.421a4.514,4.514,0,0,0-2.433-4.555,3.349,3.349,0,0,0-.575-.148,3.414,3.414,0,0,0-3.783,2.527c-3.314-1.456-4.138-5.42-3.886-8.685a1.181,1.181,0,0,0-1.837-1.075c-7.3,4.763-13.521,2.411-17.111.039l-1.367,11.436h0l-.131,1.094a12.7,12.7,0,0,0,9.7,13.867l.163,7.323a7.637,7.637,0,0,0,15.27-.341l-.124-5.544h-.064A4.312,4.312,0,0,1,282.938,199.8Z" transform="translate(-260.325 -172.241)" fill="#ffba94"/>
                        <path id="Trazado_1060216" data-name="Trazado 1060216" d="M281.947,195.859a12.157,12.157,0,0,1-21.4-9.037l-.131,1.095a12.7,12.7,0,0,0,9.92,13.919l-.055.014.123,5.488,10.8-8.2q.189-.159.372-.324a4.925,4.925,0,0,0,.46-1.73C282.146,196.284,282.164,195.576,281.947,195.859Z" transform="translate(-260.324 -175.143)" fill="#fb8e77" opacity="0.46"/>
                        <path id="Trazado_1060217" data-name="Trazado 1060217" d="M298.69,186.262c-.017.143-.042.284-.072.421a4.159,4.159,0,0,0,.2-1.668,3.986,3.986,0,0,0-2.561-3.309A4.516,4.516,0,0,1,298.69,186.262Z" transform="translate(-267.475 -174.125)" fill="none"/>
                      </g>
                      <g id="Grupo_1226293" data-name="Grupo 1226293" transform="translate(0 3.204)">
                        <path id="Trazado_1060218" data-name="Trazado 1060218" d="M272.81,183.327a.739.739,0,1,0,.821-.646A.739.739,0,0,0,272.81,183.327Z" transform="translate(-259.957 -177.522)" fill="#233863"/>
                        <path id="Trazado_1060219" data-name="Trazado 1060219" d="M263.688,182.012a.738.738,0,1,0,.82-.645A.739.739,0,0,0,263.688,182.012Z" transform="translate(-258.142 -177.261)" fill="#233863"/>
                        <path id="Trazado_1060220" data-name="Trazado 1060220" d="M267.936,188c-2.115,0-2.752-1-2.928-1.429a.751.751,0,0,1,.036-.648l2.344-4.309a.4.4,0,1,1,.7.382l-2.344,4.309c.117.242.56.892,2.189.892h.014a.4.4,0,0,1,.4.4A.392.392,0,0,1,267.936,188Z" transform="translate(-258.394 -177.27)" fill="#fb8e77"/>
                        <path id="Trazado_1060221" data-name="Trazado 1060221" d="M268.554,198.93a.4.4,0,0,1-.334-.179,1.6,1.6,0,0,0-1.661-.663.4.4,0,1,1-.2-.775,2.388,2.388,0,0,1,2.532,1,.4.4,0,0,1-.115.554A.388.388,0,0,1,268.554,198.93Z" transform="translate(-258.614 -180.419)" fill="#fb8e77"/>
                        <g id="Grupo_1226292" data-name="Grupo 1226292" transform="translate(3.697 1.298)">
                          <g id="Grupo_1226291" data-name="Grupo 1226291">
                            <g id="Grupo_1226290" data-name="Grupo 1226290">
                              <g id="Grupo_1226287" data-name="Grupo 1226287" transform="translate(8.345 1.28)">
                                <g id="Grupo_1226286" data-name="Grupo 1226286">
                                  <path id="Trazado_1060222" data-name="Trazado 1060222" d="M274.378,181.062a1.579,1.579,0,0,1-.631-.179c-.215-.093-.432-.18-.623-.251s-.415-.143-.639-.209a1.568,1.568,0,0,1-.6-.268c-.139-.13-.134-.353.151-.528a1.809,1.809,0,0,1,1.48-.028,1.753,1.753,0,0,1,1.1.967C274.716,180.88,274.57,181.053,274.378,181.062Z" transform="translate(-271.799 -179.46)" fill="#233863"/>
                                </g>
                              </g>
                              <g id="Grupo_1226289" data-name="Grupo 1226289">
                                <g id="Grupo_1226288" data-name="Grupo 1226288">
                                  <path id="Trazado_1060223" data-name="Trazado 1060223" d="M261.588,179.117a1.566,1.566,0,0,0,.655-.035c.23-.043.461-.081.663-.106s.437-.047.67-.062a1.563,1.563,0,0,0,.642-.13c.164-.1.209-.316-.03-.549a1.811,1.811,0,0,0-1.437-.355,1.757,1.757,0,0,0-1.287.7C261.3,178.865,261.4,179.066,261.588,179.117Z" transform="translate(-261.381 -177.862)" fill="#233863"/>
                                </g>
                              </g>
                            </g>
                          </g>
                        </g>
                        <path id="Trazado_1060224" data-name="Trazado 1060224" d="M294.81,188.139a.4.4,0,0,1-.208-.058l-1.764-1.073,1.624-2.593a.4.4,0,1,1,.678.425l-1.193,1.9,1.071.651a.4.4,0,0,1,.134.55A.4.4,0,0,1,294.81,188.139Z" transform="translate(-263.944 -177.831)" fill="#fb8e77"/>
                        <path id="Trazado_1060225" data-name="Trazado 1060225" d="M271.4,193.829l1.422-.235a3.232,3.232,0,0,0,2.662-3.716l-.03-.182-5.4.892.425,2.578A.8.8,0,0,0,271.4,193.829Z" transform="translate(-259.409 -178.919)" fill="#fff"/>
                        <path id="Trazado_1060226" data-name="Trazado 1060226" d="M274.218,178.95a4.318,4.318,0,0,0-7.146,2.035.646.646,0,0,0-.078-.019l-1.557-.12c.008-.135.03-.268.026-.4a4.35,4.35,0,0,0-8.7.3h0a4.337,4.337,0,0,0,8.494,1.113l1.66.127c0,.1-.022.2-.018.3a4.35,4.35,0,1,0,7.315-3.329Zm-10.667,3.914a3.331,3.331,0,1,1,.892-2.388A3.307,3.307,0,0,1,263.55,182.864Zm7.815,2.594a3.329,3.329,0,1,1,3.213-3.443A3.332,3.332,0,0,1,271.365,185.459Z" transform="translate(-256.765 -176.242)" fill="#fff"/>
                      </g>
                    </g>
                  </g>
                </g>
              </g>
            </g>
            <g id="Grupo_1226331" data-name="Grupo 1226331">
              <g id="Grupo_1226305" data-name="Grupo 1226305" transform="translate(0 35.173)">
                <g id="Grupo_1226304" data-name="Grupo 1226304">
                  <path id="Trazado_1060227" data-name="Trazado 1060227" d="M33.759,156.52h67.371c1.719,0,3.113-1.07,3.113-2.39V109.4c0-1.32-1.394-2.39-3.113-2.39H33.759c-1.719,0-3.113,1.07-3.113,2.39V154.13C30.646,155.45,32.04,156.52,33.759,156.52Z" transform="translate(-30.646 -107.006)" fill="#ffb44f"/>
                  <path id="Trazado_1060228" data-name="Trazado 1060228" d="M104.242,116.429V109.4c0-1.32-1.394-2.39-3.113-2.39H33.759c-1.719,0-3.113,1.07-3.113,2.39v6.726" transform="translate(-30.646 -107.006)" fill="#3887fe"/>
                  <g id="Grupo_1226299" data-name="Grupo 1226299" transform="translate(0.445 8.715)">
                    <path id="Trazado_1060229" data-name="Trazado 1060229" d="M31.2,118.386h0Z" transform="translate(-31.201 -117.986)" fill="#f7a9b4"/>
                    <rect id="Rectángulo_422388" data-name="Rectángulo 422388" width="73.151" height="0.801" fill="#fff"/>
                  </g>
                  <path id="Trazado_1060230" data-name="Trazado 1060230" d="M115.509,114.373a1.557,1.557,0,1,1,1.557-1.557A1.559,1.559,0,0,1,115.509,114.373Zm0-2.313a.756.756,0,1,0,.756.756A.757.757,0,0,0,115.509,112.06Z" transform="translate(-47.225 -107.852)" fill="#fff"/>
                  <path id="Trazado_1060231" data-name="Trazado 1060231" d="M110.09,114.373a1.557,1.557,0,1,1,1.557-1.557A1.559,1.559,0,0,1,110.09,114.373Zm0-2.313a.756.756,0,1,0,.756.756A.757.757,0,0,0,110.09,112.06Z" transform="translate(-46.147 -107.852)" fill="#fff"/>
                  <path id="Trazado_1060232" data-name="Trazado 1060232" d="M104.772,114.373a1.557,1.557,0,1,1,1.557-1.557A1.559,1.559,0,0,1,104.772,114.373Zm0-2.313a.756.756,0,1,0,.756.756A.757.757,0,0,0,104.772,112.06Z" transform="translate(-45.088 -107.852)" fill="#fff"/>
                  <g id="Grupo_1226300" data-name="Grupo 1226300" transform="translate(9.536 21.072)">
                    <line id="Línea_3383" data-name="Línea 3383" x1="29.507" transform="translate(0.4 0.4)" fill="#f7a9b4"/>
                    <path id="Trazado_1060233" data-name="Trazado 1060233" d="M72.459,134.115H42.951a.4.4,0,1,1,0-.8H72.459a.4.4,0,1,1,0,.8Z" transform="translate(-42.551 -133.314)" fill="#fff"/>
                  </g>
                  <g id="Grupo_1226301" data-name="Grupo 1226301" transform="translate(24.29 34.645)">
                    <line id="Línea_3384" data-name="Línea 3384" x1="14.754" transform="translate(0.4 0.4)" fill="#f7a9b4"/>
                    <path id="Trazado_1060234" data-name="Trazado 1060234" d="M76.125,151.06H61.371a.4.4,0,1,1,0-.8H76.125a.4.4,0,1,1,0,.8Z" transform="translate(-60.971 -150.259)" fill="#fff"/>
                  </g>
                  <g id="Grupo_1226302" data-name="Grupo 1226302" transform="translate(28.027 27.966)">
                    <line id="Línea_3385" data-name="Línea 3385" x1="11.016" transform="translate(0.4 0.4)" fill="#f7a9b4"/>
                    <path id="Trazado_1060235" data-name="Trazado 1060235" d="M77.053,142.721H66.037a.4.4,0,1,1,0-.8H77.053a.4.4,0,1,1,0,.8Z" transform="translate(-65.637 -141.92)" fill="#fff"/>
                  </g>
                  <g id="Grupo_1226303" data-name="Grupo 1226303" transform="translate(9.536 27.966)">
                    <line id="Línea_3386" data-name="Línea 3386" x1="11.016" transform="translate(0.4 0.4)" fill="#f7a9b4"/>
                    <path id="Trazado_1060236" data-name="Trazado 1060236" d="M53.967,142.721H42.951a.4.4,0,1,1,0-.8H53.967a.4.4,0,1,1,0,.8Z" transform="translate(-42.551 -141.92)" fill="#fff"/>
                  </g>
                </g>
                <path id="Trazado_1060237" data-name="Trazado 1060237" d="M106.5,151H86.881V127.591H106.5Zm-18.82-.8H105.7V128.392H87.682Z" transform="translate(-41.838 -111.103)" fill="#fff"/>
              </g>
              <g id="Grupo_1226330" data-name="Grupo 1226330" transform="translate(0.443)">
                <g id="Grupo_1226320" data-name="Grupo 1226320" transform="translate(32.291)">
                  <path id="Trazado_1060238" data-name="Trazado 1060238" d="M159.634,196.88H75.5a3.991,3.991,0,0,1-3.991-3.991V70.465A3.991,3.991,0,0,1,75.5,66.474h84.129a3.991,3.991,0,0,1,3.991,3.991V192.888A3.99,3.99,0,0,1,159.634,196.88Z" transform="translate(-71.513 -63.767)" fill="#53d0f7"/>
                  <path id="Trazado_1060239" data-name="Trazado 1060239" d="M161.577,71.863H73.562a2.048,2.048,0,0,1-2.048-2.048V65.142a2.048,2.048,0,0,1,2.048-2.048h88.015a2.048,2.048,0,0,1,2.048,2.048v4.673A2.048,2.048,0,0,1,161.577,71.863Z" transform="translate(-71.513 -63.094)" fill="#233863"/>
                  <path id="Trazado_1060240" data-name="Trazado 1060240" d="M120.759,174.707H87.381a1.2,1.2,0,1,1,0-2.4h33.378a1.2,1.2,0,1,1,0,2.4Z" transform="translate(-74.432 -84.829)" fill="#fff"/>
                  <path id="Trazado_1060241" data-name="Trazado 1060241" d="M150.353,191.5H87.481a.8.8,0,1,1,0-1.6h62.872a.8.8,0,1,1,0,1.6Z" transform="translate(-74.531 -88.33)" fill="#fff"/>
                  <path id="Trazado_1060242" data-name="Trazado 1060242" d="M150.353,205.736H87.481a.8.8,0,1,1,0-1.6h62.872a.8.8,0,1,1,0,1.6Z" transform="translate(-74.531 -91.163)" fill="#fff"/>
                  <g id="Grupo_1226318" data-name="Grupo 1226318" transform="translate(15.266 14.264)">
                    <g id="Grupo_1226306" data-name="Grupo 1226306">
                      <path id="Trazado_1060243" data-name="Trazado 1060243" d="M148.013,131.611a31.823,31.823,0,1,0-51.963-1.03h51.963Z" transform="translate(-90.572 -80.902)" fill="#fff"/>
                      <path id="Trazado_1060244" data-name="Trazado 1060244" d="M123.759,156.9a31.777,31.777,0,0,0,25.615-12.942v-1.03H97.411A31.79,31.79,0,0,0,123.759,156.9Z" transform="translate(-91.933 -93.245)" fill="#3887fe"/>
                    </g>
                    <g id="Grupo_1226317" data-name="Grupo 1226317" transform="translate(13.868 0.225)">
                      <g id="Grupo_1226307" data-name="Grupo 1226307">
                        <path id="Trazado_1060245" data-name="Trazado 1060245" d="M138.609,86.776c-1.984-2.451-5.662-5.088-12.393-5.532-4.829-.32-9.968.557-13.572,4.026a16.43,16.43,0,0,0-4.51,8.909c-.768,4.211.4,8.19,1.413,12.234l8.038,9.263,1.619-8.236a.85.85,0,0,0,.074-.374l2.538-12.909a6.441,6.441,0,0,1,1.341-.686c2.047-.752,4.574-.539,6.7-.335.03,0,.048,0,.072,0a20.678,20.678,0,0,0,6.749-.681,3.551,3.551,0,0,0,1.934-5.681Z" transform="translate(-107.886 -81.183)" fill="#142647"/>
                        <path id="Trazado_1060246" data-name="Trazado 1060246" d="M141.559,114.8l-.037-.306h0l-1.979-16.556-.325-2.719-.1-.8c-.029-.24-.074-.473-.121-.706a3.51,3.51,0,0,1-1.946,1.239,20.681,20.681,0,0,1-6.749.681c-.024,0-.042,0-.072,0-2.123-.2-4.649-.417-6.7.335a6.451,6.451,0,0,0-4.024,4.453c-.435,1.848-.078,3.826-.016,5.7.029.863.088,1.725.111,2.59.008.3.137.948-.024,1.23-1.66,2.9.444-2.82-5.459-4.482l-.352.042a4.516,4.516,0,0,0-3.948,5.02h0a4.516,4.516,0,0,0,5.02,3.948l1.068-.127.275,2.3c-.014.167-.032.334-.036.5l-.326,14.573a7.922,7.922,0,0,0,7.743,8.1l2.579.058a7.922,7.922,0,0,0,8.1-7.743l.147-6.582A9.951,9.951,0,0,0,141.559,114.8Z" transform="translate(-108.266 -83.677)" fill="#a55356"/>
                      </g>
                      <g id="Grupo_1226308" data-name="Grupo 1226308" transform="translate(7.648 11.545)">
                        <path id="Trazado_1060247" data-name="Trazado 1060247" d="M143.08,119.673l-.037-.306a9.149,9.149,0,0,1-8,10.17l-5.512.659a9.148,9.148,0,0,1-10.17-8s-.282-1.536-.694-3.754c-.163-.875-1.234.762-1.234.762l.417,3.483a9.951,9.951,0,0,0,10.724,8.729l7.021,4.1.112-5.034A9.952,9.952,0,0,0,143.08,119.673Zm-8.706,11.069c.262-.031.517-.081.771-.132C134.892,130.663,134.637,130.71,134.374,130.741Z" transform="translate(-117.434 -100.092)" fill="#833742" opacity="0.46"/>
                        <path id="Trazado_1060248" data-name="Trazado 1060248" d="M146.529,95.6h0l.325,2.719Z" transform="translate(-123.224 -95.596)" fill="#833742" opacity="0.46"/>
                      </g>
                      <g id="Grupo_1226316" data-name="Grupo 1226316" transform="translate(4.361 18.175)">
                        <path id="Trazado_1060249" data-name="Trazado 1060249" d="M134.939,111.488a.738.738,0,1,1-.82-.645A.739.739,0,0,1,134.939,111.488Z" transform="translate(-117.338 -105.26)" fill="#142647"/>
                        <path id="Trazado_1060250" data-name="Trazado 1060250" d="M144.013,110.173a.738.738,0,1,1-.82-.646A.738.738,0,0,1,144.013,110.173Z" transform="translate(-119.144 -104.998)" fill="#142647"/>
                        <path id="Trazado_1060251" data-name="Trazado 1060251" d="M135.182,120.651a4.507,4.507,0,0,1-2.688-.719,2.352,2.352,0,0,1-.985-1.471.4.4,0,0,1,.345-.449.409.409,0,0,1,.449.34,1.576,1.576,0,0,0,.685.948c.573.4,1.742.792,4.039.36a.4.4,0,0,1,.149.787A10.874,10.874,0,0,1,135.182,120.651Z" transform="translate(-116.947 -106.687)" fill="#833742"/>
                        <path id="Trazado_1060252" data-name="Trazado 1060252" d="M138.708,115.78l-.164,0a.4.4,0,0,1-.391-.409.42.42,0,0,1,.41-.392,5.1,5.1,0,0,0,1.23-.111,1.733,1.733,0,0,0,1.174-.945,1.8,1.8,0,0,0,0-1.568l-2.659-5.556a.4.4,0,0,1,.722-.346l2.659,5.556a2.6,2.6,0,0,1,0,2.262,2.532,2.532,0,0,1-1.717,1.378A5.651,5.651,0,0,1,138.708,115.78Z" transform="translate(-118.27 -104.341)" fill="#833742"/>
                        <path id="Trazado_1060253" data-name="Trazado 1060253" d="M138.979,127.99a.4.4,0,0,1-.293-.128,1.6,1.6,0,0,0-1.757-.336.4.4,0,0,1-.325-.732,2.4,2.4,0,0,1,2.67.524.4.4,0,0,1-.294.673Z" transform="translate(-117.915 -108.396)" fill="#833742"/>
                        <g id="Grupo_1226315" data-name="Grupo 1226315" transform="translate(11.861)">
                          <g id="Grupo_1226314" data-name="Grupo 1226314">
                            <g id="Grupo_1226313" data-name="Grupo 1226313">
                              <g id="Grupo_1226310" data-name="Grupo 1226310" transform="translate(0 1.222)">
                                <g id="Grupo_1226309" data-name="Grupo 1226309">
                                  <path id="Trazado_1060254" data-name="Trazado 1060254" d="M128.626,108.275a2.837,2.837,0,0,0,1.132-.321c.384-.167.775-.324,1.118-.449s.745-.256,1.146-.376a2.826,2.826,0,0,0,1.072-.481c.25-.232.24-.634-.271-.948a3.245,3.245,0,0,0-2.655-.05,3.151,3.151,0,0,0-1.974,1.735C128.02,107.949,128.281,108.259,128.626,108.275Z" transform="translate(-128.138 -105.4)" fill="#142647"/>
                                </g>
                              </g>
                              <g id="Grupo_1226312" data-name="Grupo 1226312" transform="translate(10.912)">
                                <g id="Grupo_1226311" data-name="Grupo 1226311">
                                  <path id="Trazado_1060255" data-name="Trazado 1060255" d="M145.472,105.558a2.117,2.117,0,0,1-.879-.047c-.308-.058-.618-.108-.89-.143s-.586-.063-.9-.084a2.109,2.109,0,0,1-.861-.174c-.221-.128-.28-.423.04-.735a2.431,2.431,0,0,1,1.928-.476,2.355,2.355,0,0,1,1.726.939C145.86,105.219,145.721,105.489,145.472,105.558Z" transform="translate(-141.761 -103.874)" fill="#142647"/>
                                </g>
                              </g>
                            </g>
                          </g>
                        </g>
                        <path id="Trazado_1060256" data-name="Trazado 1060256" d="M113.731,115.434a.4.4,0,0,1-.208-.743l1.07-.651-1.193-1.9a.4.4,0,1,1,.678-.425L115.7,114.3l-1.763,1.073A.4.4,0,0,1,113.731,115.434Z" transform="translate(-113.33 -105.396)" fill="#833742"/>
                      </g>
                    </g>
                  </g>
                  <g id="Grupo_1226319" data-name="Grupo 1226319" transform="translate(84.728 2.619)">
                    <path id="Trazado_1060257" data-name="Trazado 1060257" d="M180.363,69.835a.4.4,0,0,1-.284-.118l-2.67-2.67a.4.4,0,0,1,.566-.566l2.67,2.67a.4.4,0,0,1,0,.566A.4.4,0,0,1,180.363,69.835Z" transform="translate(-177.293 -66.364)" fill="#fff"/>
                    <path id="Trazado_1060258" data-name="Trazado 1060258" d="M177.693,69.835a.4.4,0,0,1-.284-.684l2.67-2.67a.4.4,0,0,1,.566.566l-2.67,2.67A.4.4,0,0,1,177.693,69.835Z" transform="translate(-177.293 -66.364)" fill="#fff"/>
                  </g>
                </g>
                <g id="Grupo_1226329" data-name="Grupo 1226329" transform="translate(0 107.318)">
                  <g id="Grupo_1226322" data-name="Grupo 1226322">
                    <g id="Grupo_1226321" data-name="Grupo 1226321">
                      <rect id="Rectángulo_422389" data-name="Rectángulo 422389" width="65.882" height="39.425" fill="#ffb44f"/>
                    </g>
                  </g>
                  <g id="Grupo_1226323" data-name="Grupo 1226323" transform="translate(6.462 29.978)">
                    <path id="Trazado_1060259" data-name="Trazado 1060259" d="M59.433,236.106H40.067a.8.8,0,1,1,0-1.6H59.434a.8.8,0,1,1,0,1.6Z" transform="translate(-39.266 -234.504)" fill="#243762"/>
                  </g>
                  <g id="Grupo_1226324" data-name="Grupo 1226324" transform="translate(6.462 8.018)">
                    <path id="Trazado_1060260" data-name="Trazado 1060260" d="M59.433,208.689H40.067a.8.8,0,0,1,0-1.6H59.434a.8.8,0,1,1,0,1.6Z" transform="translate(-39.266 -207.087)" fill="#fff"/>
                  </g>
                  <g id="Grupo_1226325" data-name="Grupo 1226325" transform="translate(6.462 14.588)">
                    <path id="Trazado_1060261" data-name="Trazado 1060261" d="M59.433,216.892H40.067a.8.8,0,1,1,0-1.6H59.434a.8.8,0,1,1,0,1.6Z" transform="translate(-39.266 -215.29)" fill="#243762"/>
                  </g>
                  <g id="Grupo_1226326" data-name="Grupo 1226326" transform="translate(6.462 22.197)">
                    <path id="Trazado_1060262" data-name="Trazado 1060262" d="M68.6,226.391H40.067a.8.8,0,1,1,0-1.6H68.6a.8.8,0,1,1,0,1.6Z" transform="translate(-39.266 -224.789)" fill="#243762"/>
                  </g>
                  <g id="Grupo_1226328" data-name="Grupo 1226328" transform="translate(43.056 8.819)">
                    <g id="Grupo_1226327" data-name="Grupo 1226327">
                      <path id="Trazado_1060263" data-name="Trazado 1060263" d="M100.422,208.087H85.74a.786.786,0,0,0-.787.787v22.464a.786.786,0,0,0,.787.786h14.682a.786.786,0,0,0,.787-.786V208.874A.786.786,0,0,0,100.422,208.087Z" transform="translate(-84.953 -208.087)" fill="#2f7ded"/>
                    </g>
                  </g>
                </g>
              </g>
            </g>
            <g id="Grupo_1226354" data-name="Grupo 1226354" transform="translate(238.707 117.946)">
              <path id="Trazado_1060264" data-name="Trazado 1060264" d="M367.2,315.626h63.311a3.991,3.991,0,0,0,3.991-3.991V217a3.991,3.991,0,0,0-3.991-3.991H367.2A3.991,3.991,0,0,0,363.212,217v94.638A3.991,3.991,0,0,0,367.2,315.626Z" transform="translate(-335.54 -210.875)" fill="#2f7ded"/>
              <g id="Grupo_1226339" data-name="Grupo 1226339" transform="translate(0 55.06)">
                <g id="Grupo_1226333" data-name="Grupo 1226333">
                  <g id="Grupo_1226332" data-name="Grupo 1226332">
                    <rect id="Rectángulo_422390" data-name="Rectángulo 422390" width="37.024" height="22.527" fill="#ffb44f"/>
                  </g>
                </g>
                <g id="Grupo_1226334" data-name="Grupo 1226334" transform="translate(21.659 4.539)">
                  <path id="Trazado_1060265" data-name="Trazado 1060265" d="M366.988,285.554H356.1a.4.4,0,0,1,0-.8h10.884a.4.4,0,0,1,0,.8Z" transform="translate(-355.704 -284.753)" fill="#243762"/>
                </g>
                <g id="Grupo_1226335" data-name="Grupo 1226335" transform="translate(21.659 17.087)">
                  <path id="Trazado_1060266" data-name="Trazado 1060266" d="M366.988,301.219H356.1a.4.4,0,0,1,0-.8h10.884a.4.4,0,0,1,0,.8Z" transform="translate(-355.704 -300.418)" fill="#fff"/>
                </g>
                <g id="Grupo_1226336" data-name="Grupo 1226336" transform="translate(21.659 13.332)">
                  <path id="Trazado_1060267" data-name="Trazado 1060267" d="M366.988,296.532H356.1a.4.4,0,0,1,0-.8h10.884a.4.4,0,0,1,0,.8Z" transform="translate(-355.704 -295.731)" fill="#243762"/>
                </g>
                <g id="Grupo_1226337" data-name="Grupo 1226337" transform="translate(16.508 8.985)">
                  <path id="Trazado_1060268" data-name="Trazado 1060268" d="M365.709,291.1H349.674a.4.4,0,1,1,0-.8h16.034a.4.4,0,0,1,0,.8Z" transform="translate(-349.274 -290.304)" fill="#243762"/>
                </g>
                <g id="Grupo_1226338" data-name="Grupo 1226338" transform="translate(3.693 3.754)">
                  <path id="Trazado_1060269" data-name="Trazado 1060269" d="M334.061,297.506h7.562a.786.786,0,0,0,.787-.786V284.559a.786.786,0,0,0-.787-.786h-7.562a.786.786,0,0,0-.786.786V296.72A.785.785,0,0,0,334.061,297.506Z" transform="translate(-333.275 -283.773)" fill="#53d0f7"/>
                </g>
              </g>
              <g id="Grupo_1226353" data-name="Grupo 1226353" transform="translate(27.672)">
                <path id="Trazado_1060270" data-name="Trazado 1060270" d="M365.26,217.246h67.2a2.048,2.048,0,0,0,2.048-2.048v-2.8a2.048,2.048,0,0,0-2.048-2.048h-67.2a2.048,2.048,0,0,0-2.048,2.048v2.8A2.048,2.048,0,0,0,365.26,217.246Z" transform="translate(-363.212 -210.346)" fill="#233863"/>
                <path id="Trazado_1060271" data-name="Trazado 1060271" d="M427.417,311.521H378.755a.8.8,0,0,1,0-1.6h48.662a.8.8,0,0,1,0,1.6Z" transform="translate(-366.146 -230.163)" fill="#fff"/>
                <path id="Trazado_1060272" data-name="Trazado 1060272" d="M427.417,322.724H378.755a.8.8,0,1,1,0-1.6h48.662a.8.8,0,0,1,0,1.6Z" transform="translate(-366.146 -232.392)" fill="#fff"/>
                <g id="Grupo_1226351" data-name="Grupo 1226351" transform="translate(10.214 11.225)">
                  <g id="Grupo_1226340" data-name="Grupo 1226340" transform="translate(0 0)">
                    <path id="Trazado_1060273" data-name="Trazado 1060273" d="M380.77,264.264a25.207,25.207,0,0,1-4.806-14.86,24.636,24.636,0,1,1,49.265,0,25.221,25.221,0,0,1-4.24,14.049H380.771v.811Z" transform="translate(-375.964 -224.36)" fill="#fff"/>
                  </g>
                  <path id="Trazado_1060274" data-name="Trazado 1060274" d="M401.79,284.162a24.467,24.467,0,0,1-19.826-10.185v-.811h40.219A24.5,24.5,0,0,1,401.79,284.162Z" transform="translate(-377.158 -234.073)" fill="#53d0f7"/>
                  <g id="Grupo_1226350" data-name="Grupo 1226350" transform="translate(5.733)">
                    <g id="Grupo_1226341" data-name="Grupo 1226341">
                      <path id="Trazado_1060275" data-name="Trazado 1060275" d="M403.823,235.422c.057-.042.111-.085.164-.13l-.091-.061C403.877,235.3,403.846,235.357,403.823,235.422Z" transform="translate(-387.241 -226.523)" fill="#ffccb3"/>
                      <path id="Trazado_1060276" data-name="Trazado 1060276" d="M419.173,247.622a8.434,8.434,0,0,0,.162-1.645,8.291,8.291,0,0,0-2.813-6.241c-.082-3.937-1.534-16.33-16.6-15.317-6.044.406-9.347,2.814-11.129,5.052a3.275,3.275,0,0,0,.641,4.685,4.716,4.716,0,0,0,.161,5.3,8.279,8.279,0,0,0-2.039,7.238,10.561,10.561,0,0,0-4.388,9.575,10.293,10.293,0,0,0,19.852,3A10.371,10.371,0,0,0,423.3,256.04,10.6,10.6,0,0,0,419.173,247.622Zm-15.894,4.457a10.478,10.478,0,0,0-1.116-2.409,8.259,8.259,0,0,0,1.051-2.277,8.288,8.288,0,0,0,1.03,2.818A10.7,10.7,0,0,0,403.279,252.08Zm-3.5-19.012.091.061c-.053.044-.107.087-.164.13C399.726,233.193,399.757,233.136,399.777,233.067Zm-.4.831c.5-.046,1.018-.086,1.543-.1a36.248,36.248,0,0,0,5.966,3,4.621,4.621,0,0,1,.325.911,6.423,6.423,0,0,1,.141,1,8.251,8.251,0,0,0-3.935,4.944,8.167,8.167,0,0,0-5.565-6.42,4.845,4.845,0,0,0,.034-.542,4.716,4.716,0,0,0-.288-1.616A3.191,3.191,0,0,0,399.379,233.9Z" transform="translate(-383.121 -224.36)" fill="#ffb44f"/>
                      <path id="Trazado_1060277" data-name="Trazado 1060277" d="M408.95,247.544a2.392,2.392,0,0,1-.018-.967c.018-.68.063-1.358.086-2.038a17.471,17.471,0,0,0-.012-4.485,4.619,4.619,0,0,0-.325-.911,36.186,36.186,0,0,1-5.966-3c-.525.015-1.044.054-1.544.1-1.262,1.8-4.632,1.628-7.571,1.043,0,.013,0,.025-.006.038l-.093.787-.244,2.079-1.063,9.038a9.969,9.969,0,0,0,7.942,11l.113,5.138a5.811,5.811,0,0,0,11.619-.255L411.6,252.8c0-.1-.023-.185-.03-.279.063-.3.118-.6.154-.916l.07-.594.827.1a3.554,3.554,0,0,0,.83-7.057l-.238-.029C408.619,245.323,410.237,249.833,408.95,247.544Z" transform="translate(-384.913 -226.705)" fill="#ffccb3"/>
                    </g>
                    <path id="Trazado_1060278" data-name="Trazado 1060278" d="M410.532,251.862a9.085,9.085,0,0,1-10.062,8.046l-.353-.043a9.171,9.171,0,0,1-7.913-10.23l1.3-11.034v0l-1.307,11.116a9.965,9.965,0,0,0,8.071,11.022l.078,3.53,6.444-4.668a9.907,9.907,0,0,0,1.677-1.215l.738-.734a10.013,10.013,0,0,0,2.52-5.56Z" transform="translate(-384.913 -227.194)" fill="#fc7d68" opacity="0.46"/>
                    <g id="Grupo_1226349" data-name="Grupo 1226349" transform="translate(8.82 14.48)">
                      <path id="Trazado_1060279" data-name="Trazado 1060279" d="M402.844,248.429a.572.572,0,1,0,.635-.508A.578.578,0,0,0,402.844,248.429Z" transform="translate(-395.865 -243.528)" fill="#233863"/>
                      <path id="Trazado_1060280" data-name="Trazado 1060280" d="M395.822,247.394a.572.572,0,1,0,.635-.508A.578.578,0,0,0,395.822,247.394Z" transform="translate(-394.468 -243.322)" fill="#233863"/>
                      <path id="Trazado_1060281" data-name="Trazado 1060281" d="M401.789,255.628a8.212,8.212,0,0,1-1.54-.161.3.3,0,1,1,.113-.59c1.786.341,2.694.031,3.138-.289a1.256,1.256,0,0,0,.528-.75.3.3,0,0,1,.6.079,1.848,1.848,0,0,1-.772,1.157A3.457,3.457,0,0,1,401.789,255.628Z" transform="translate(-395.301 -244.655)" fill="#fc7d68"/>
                      <path id="Trazado_1060282" data-name="Trazado 1060282" d="M400.063,251.8a3.7,3.7,0,0,1-.843-.09,1.714,1.714,0,0,1-1.149-.929,1.8,1.8,0,0,1-.009-1.553l1.753-3.721a.3.3,0,1,1,.543.256l-1.753,3.721a1.2,1.2,0,0,0,.006,1.036,1.11,1.11,0,0,0,.746.606,3.064,3.064,0,0,0,.8.073.293.293,0,0,1,.308.293.3.3,0,0,1-.293.308Z" transform="translate(-394.88 -243.014)" fill="#fc7d68"/>
                      <path id="Trazado_1060283" data-name="Trazado 1060283" d="M399.425,261.4a.3.3,0,0,1-.222-.5,1.818,1.818,0,0,1,2.059-.41.3.3,0,0,1-.248.548,1.222,1.222,0,0,0-1.366.268A.3.3,0,0,1,399.425,261.4Z" transform="translate(-395.126 -246)" fill="#fc7d68"/>
                      <g id="Grupo_1226348" data-name="Grupo 1226348">
                        <g id="Grupo_1226347" data-name="Grupo 1226347">
                          <g id="Grupo_1226346" data-name="Grupo 1226346">
                            <g id="Grupo_1226343" data-name="Grupo 1226343" transform="translate(7.428 0.943)">
                              <g id="Grupo_1226342" data-name="Grupo 1226342">
                                <path id="Trazado_1060284" data-name="Trazado 1060284" d="M406.92,245.835a2.13,2.13,0,0,1-.859-.247c-.292-.128-.588-.25-.849-.347s-.565-.2-.871-.29a2.116,2.116,0,0,1-.813-.372c-.19-.179-.183-.489.205-.731a2.752,2.752,0,0,1,3.514,1.3C407.38,245.582,407.182,245.822,406.92,245.835Z" transform="translate(-403.406 -243.615)" fill="#e2963b"/>
                              </g>
                            </g>
                            <g id="Grupo_1226345" data-name="Grupo 1226345">
                              <g id="Grupo_1226344" data-name="Grupo 1226344">
                                <path id="Trazado_1060285" data-name="Trazado 1060285" d="M394.343,243.736a1.585,1.585,0,0,0,.667-.036c.234-.045.469-.083.675-.11s.445-.049.682-.065a1.577,1.577,0,0,0,.654-.134c.167-.1.212-.327-.03-.568a1.822,1.822,0,0,0-1.463-.367,1.783,1.783,0,0,0-1.31.724C394.049,243.476,394.154,243.684,394.343,243.736Z" transform="translate(-394.132 -242.438)" fill="#e2963b"/>
                              </g>
                            </g>
                          </g>
                        </g>
                      </g>
                      <path id="Trazado_1060286" data-name="Trazado 1060286" d="M419.058,251.6a.4.4,0,0,1-.211-.06l-1.436-.889,1.3-2.109a.4.4,0,1,1,.682.42l-.881,1.429.757.469a.4.4,0,0,1-.211.741Z" transform="translate(-398.765 -243.614)" fill="#fc7d68"/>
                    </g>
                  </g>
                </g>
                <g id="Grupo_1226352" data-name="Grupo 1226352" transform="translate(2.939 1.977)">
                  <path id="Trazado_1060287" data-name="Trazado 1060287" d="M367.281,215.715a.4.4,0,0,1-.286-.682l2.066-2.1a.4.4,0,0,1,.571.561l-2.066,2.1A.4.4,0,0,1,367.281,215.715Z" transform="translate(-366.881 -212.814)" fill="#fff"/>
                  <path id="Trazado_1060288" data-name="Trazado 1060288" d="M369.347,215.715a.4.4,0,0,1-.286-.119l-2.066-2.1a.4.4,0,1,1,.571-.561l2.066,2.1a.4.4,0,0,1,0,.566A.4.4,0,0,1,369.347,215.715Z" transform="translate(-366.881 -212.814)" fill="#fff"/>
                </g>
              </g>
            </g>
          </g>
        </g>
        <g id="Grupo_1226377" data-name="Grupo 1226377" transform="translate(42.685 70.529)">
          <g id="Grupo_1226375" data-name="Grupo 1226375">
            <g id="Grupo_1226362" data-name="Grupo 1226362" transform="translate(0 55.699)">
              <g id="Grupo_1226357" data-name="Grupo 1226357" transform="translate(3.223 21.603)">
                <path id="Trazado_1060289" data-name="Trazado 1060289" d="M212.715,283.37v-1a34.182,34.182,0,0,0-34.182-34.182H161.366c-.36-.013-.719-.027-1.083-.027H122.27a19.3,19.3,0,0,0-18.052,12.469h0l-.057.156-.029.079L87.961,304.929l.7.086,14.175,1.734-.169,50.283h86.6l.886-44.458.382-19.177Z" transform="translate(-87.961 -247.756)" fill="#2f7ded"/>
                <path id="Trazado_1060290" data-name="Trazado 1060290" d="M163.566,266.3a16.413,16.413,0,0,1-16.395-16.395v-1.85a.4.4,0,1,1,.8,0v1.85a15.593,15.593,0,1,0,31.186,0v-1.85a.4.4,0,1,1,.8,0v1.85A16.413,16.413,0,0,1,163.566,266.3Z" transform="translate(-99.745 -247.656)" fill="#374081"/>
                <path id="Trazado_1060291" data-name="Trazado 1060291" d="M153.314,257.38a.4.4,0,0,1-.332-.176,13.54,13.54,0,0,1-2.332-7.619v-1.527a.4.4,0,1,1,.8,0v1.527a12.737,12.737,0,0,0,2.194,7.17.4.4,0,0,1-.107.556A.4.4,0,0,1,153.314,257.38Z" transform="translate(-100.437 -247.656)" fill="#374081"/>
                <path id="Trazado_1060292" data-name="Trazado 1060292" d="M165.495,266.139a13.454,13.454,0,0,1-8.478-2.964.4.4,0,0,1,.5-.626,12.811,12.811,0,0,0,15.951.006.4.4,0,1,1,.5.626A13.453,13.453,0,0,1,165.495,266.139Z" transform="translate(-101.674 -250.603)" fill="#374081"/>
                <path id="Trazado_1060293" data-name="Trazado 1060293" d="M181.886,256.5a.394.394,0,0,1-.2-.053.4.4,0,0,1-.151-.546,12.817,12.817,0,0,0,1.662-6.315v-1.527a.4.4,0,0,1,.8,0v1.527a13.616,13.616,0,0,1-1.767,6.711A.4.4,0,0,1,181.886,256.5Z" transform="translate(-106.574 -247.656)" fill="#374081"/>
                <path id="Trazado_1060294" data-name="Trazado 1060294" d="M215.445,321.136a.4.4,0,0,1-.4-.4V289.571a.4.4,0,0,1,.8,0v31.165A.4.4,0,0,1,215.445,321.136Z" transform="translate(-113.253 -255.918)" fill="#374081"/>
                <path id="Trazado_1060295" data-name="Trazado 1060295" d="M133.4,318.716l-9.589-.372a.4.4,0,0,1-.384-.417.4.4,0,0,1,.417-.384l8.962.349,6.291-21.759a.4.4,0,0,1,.77.222Z" transform="translate(-95.019 -257.246)" fill="#374081"/>
              </g>
              <g id="Grupo_1226359" data-name="Grupo 1226359" transform="translate(0 79.601)">
                <g id="Grupo_1226358" data-name="Grupo 1226358">
                  <path id="Trazado_1060296" data-name="Trazado 1060296" d="M181.277,378.964l-10.319-15.5c-2.344-3.006-3.693-6.65-6.425-7.393l-2.267-.618-.01.008L116.6,344.117l4.639-20.581L93.91,320.065l-9.572,31.874A16.395,16.395,0,0,0,99.5,371.869l48.611-.122c5.049,5.286,15.873,13.186,18,13.97.189.07,2.892,2.193,2.892,2.193a1.717,1.717,0,0,0,2.414-.167l.107-.123a1.71,1.71,0,0,0,.327-1.658l.1-.019c.05.014.092.021.142.034l.714.694a1.932,1.932,0,0,0,2.724-.04l.127-.131a1.9,1.9,0,0,0,.527-1.192l.032.033a1.933,1.933,0,0,0,2.725.03l.131-.127a1.933,1.933,0,0,0,.03-2.725l-.23-.235c-.023-.063-.048-.126-.073-.187a1.928,1.928,0,0,0,2.31-.281l.131-.127A1.931,1.931,0,0,0,181.277,378.964Z" transform="translate(-83.937 -320.065)" fill="#ffba94"/>
                  <path id="Trazado_1060297" data-name="Trazado 1060297" d="M200.94,396.255a.4.4,0,0,1-.286-.12l-6.114-6.254a.4.4,0,0,1,.573-.56l6.114,6.254a.4.4,0,0,1-.006.566A.4.4,0,0,1,200.94,396.255Z" transform="translate(-105.926 -333.824)" fill="#fb8e77"/>
                  <path id="Trazado_1060298" data-name="Trazado 1060298" d="M196.886,399.315a.4.4,0,0,1-.286-.12l-6.114-6.253a.4.4,0,1,1,.573-.56l6.114,6.253a.4.4,0,0,1-.287.68Z" transform="translate(-105.119 -334.433)" fill="#fb8e77"/>
                  <path id="Trazado_1060299" data-name="Trazado 1060299" d="M192.019,400.959a.4.4,0,0,1-.278-.112l-6.3-6.066A.4.4,0,1,1,186,394.2l6.3,6.066a.4.4,0,0,1-.277.69Z" transform="translate(-104.113 -334.798)" fill="#fb8e77"/>
                </g>
                <path id="Trazado_1060300" data-name="Trazado 1060300" d="M125.525,350.7a.391.391,0,0,1-.09-.01l-16.976-3.9a.4.4,0,0,1-.3-.481.4.4,0,0,1,.481-.3l16.976,3.9a.4.4,0,0,1-.091.791Z" transform="translate(-88.755 -325.226)" fill="#fb8e77"/>
              </g>
              <g id="Grupo_1226361" data-name="Grupo 1226361" transform="translate(105.417)">
                <path id="Trazado_1060301" data-name="Trazado 1060301" d="M259.852,221.215s-3.306-.92-3.819.948c-3.1,11.3-4.614,13.171-4.614,13.171.25-.409-.175-2.059-.244-2.543a9.792,9.792,0,0,0-.694-2.6,3.15,3.15,0,0,0-3.614-1.991,1.065,1.065,0,0,0-.7.44,1.264,1.264,0,0,0-.083.743c.2,2.189.622,4.353.829,6.541a9.158,9.158,0,0,0-.468,1.622,9.011,9.011,0,0,0-.785,6.03c.031.132.059.263.085.391a9.14,9.14,0,0,0,1.17,2.979l.082.929-8.282,30.018s-.609.066-.609.069l-22.179,10.026-.382,19.177a44.393,44.393,0,0,0,6.074,2.857,42.006,42.006,0,0,0,8.76,1.85,56.088,56.088,0,0,0,17.964-1.206,23.453,23.453,0,0,0,6.246-2.129c7.881-4.321,7.633-15.385,7.9-23.135q.228-6.5.455-12.99l.8-22.688.058-1.646s.2-11.57.143-11.472C265.272,230.163,265.94,221.41,259.852,221.215Z" transform="translate(-215.546 -220.746)" fill="#ffba94"/>
                <g id="Grupo_1226360" data-name="Grupo 1226360" transform="translate(18.158 56.815)">
                  <path id="Trazado_1060302" data-name="Trazado 1060302" d="M238.616,308.186a.382.382,0,0,1-.1-.013.4.4,0,0,1-.289-.486l4-15.767a.394.394,0,0,1,.486-.289.4.4,0,0,1,.289.486l-4,15.767A.4.4,0,0,1,238.616,308.186Z" transform="translate(-238.215 -291.617)" fill="#fb8e77"/>
                </g>
                <path id="Trazado_1060303" data-name="Trazado 1060303" d="M269.1,229.045a31.162,31.162,0,0,0,.76-8.033.34.34,0,1,0-.68.028c0,.075.279,7.674-1.932,10.484a.341.341,0,1,0,.535.421A8.2,8.2,0,0,0,269.1,229.045Z" transform="translate(-225.821 -220.686)" fill="#fb8e77"/>
                <path id="Trazado_1060304" data-name="Trazado 1060304" d="M272.465,229.091c1.363-5.029.227-7.54.167-7.666a.341.341,0,0,0-.617.29h0c.017.035,1.585,3.584-1.434,10.689a.341.341,0,1,0,.627.267A27.777,27.777,0,0,0,272.465,229.091Z" transform="translate(-226.494 -220.794)" fill="#fb8e77"/>
                <path id="Trazado_1060305" data-name="Trazado 1060305" d="M275.135,231.43a23.027,23.027,0,0,0,.623-6.739.341.341,0,1,0-.68.047c0,.054.352,5.414-1.479,8.774a.337.337,0,0,0,.136.462.341.341,0,0,0,.462-.136A11.158,11.158,0,0,0,275.135,231.43Z" transform="translate(-227.091 -221.42)" fill="#fb8e77"/>
              </g>
            </g>
            <g id="Grupo_1226374" data-name="Grupo 1226374" transform="translate(46.937)">
              <g id="Grupo_1226365" data-name="Grupo 1226365">
                <path id="Trazado_1060306" data-name="Trazado 1060306" d="M167.536,183.61l0-.012Z" transform="translate(-147.512 -157.605)" fill="none"/>
                <path id="Trazado_1060307" data-name="Trazado 1060307" d="M167.65,183.332c0-.011,0-.011.008-.02Z" transform="translate(-147.535 -157.548)" fill="none"/>
                <g id="Grupo_1226364" data-name="Grupo 1226364">
                  <path id="Trazado_1060308" data-name="Trazado 1060308" d="M185.329,151.147a12.416,12.416,0,0,0-7.987,2.9,12.458,12.458,0,0,0-20.443,9.278,41.163,41.163,0,0,1-6.792,1.845c-16.071,3.038-1.559,22.56-1.559,22.56l3.8,4.484s10.42-6.634,7.96-16.173l26.955,4.7a24.656,24.656,0,0,0,7.17-8.62,12.455,12.455,0,0,0-9.1-20.97Z" transform="translate(-142.537 -151.147)" fill="#243762"/>
                  <g id="Grupo_1226363" data-name="Grupo 1226363" transform="translate(0.744 19.392)">
                    <path id="Trazado_1060309" data-name="Trazado 1060309" d="M159.978,179.27c4.154,10.384-7.448,17.76-7.448,17.76l-4.126-4.872a6.379,6.379,0,0,0-4.94,6.248v.008a6.432,6.432,0,0,0,6.432,6.432h1.536V234.77a11.284,11.284,0,0,0,11.284,11.284h.014a11.285,11.285,0,0,0,11.285-11.284V224a14.408,14.408,0,0,0,13.626-14.38V183.243a16.438,16.438,0,0,0-.469-3.839C178.43,170.376,159.978,179.27,159.978,179.27Z" transform="translate(-143.465 -175.357)" fill="#ffba94"/>
                  </g>
                  <path id="Trazado_1060310" data-name="Trazado 1060310" d="M175.2,229.773h-5.147a14.466,14.466,0,0,1-2.211-.187l-2.119-.477a14.425,14.425,0,0,1-10.09-13.757v-2.618l-2.222-.56v4.769a14.365,14.365,0,0,0,4.441,10.394l17.893,12.142v-8.116l-.1-.022a14.41,14.41,0,0,0,13.975-14.4v-1.592A14.42,14.42,0,0,1,175.2,229.773Z" transform="translate(-144.701 -163.293)" fill="#fb8e77" opacity="0.46"/>
                </g>
              </g>
              <g id="Grupo_1226373" data-name="Grupo 1226373" transform="translate(4.707 31.531)">
                <path id="Trazado_1060311" data-name="Trazado 1060311" d="M179.863,200.126a1.052,1.052,0,1,1-1.052-1.052A1.052,1.052,0,0,1,179.863,200.126Z" transform="translate(-154.254 -192.217)" fill="#233863"/>
                <path id="Trazado_1060312" data-name="Trazado 1060312" d="M193.652,199.126a1.052,1.052,0,1,1-1.052-1.052A1.052,1.052,0,0,1,193.652,199.126Z" transform="translate(-156.998 -192.018)" fill="#233863"/>
                <path id="Trazado_1060313" data-name="Trazado 1060313" d="M184.433,209.006a11.222,11.222,0,0,1-1.386-.091.407.407,0,0,1-.383-.448.449.449,0,0,1,.51-.336c3.467.437,4.618-.956,4.954-1.575a.394.394,0,0,0,.019-.333l-3.659-9.448a.386.386,0,0,1,.282-.5.47.47,0,0,1,.573.248L189,205.971a1.09,1.09,0,0,1-.06.927C188.575,207.577,187.44,209.006,184.433,209.006Z" transform="translate(-155.229 -191.655)" fill="#fb8e77"/>
                <path id="Trazado_1060314" data-name="Trazado 1060314" d="M182.541,227.814a.4.4,0,0,1-.324-.165,2.464,2.464,0,0,0-2.616-.836.4.4,0,0,1-.238-.765,3.23,3.23,0,0,1,3.5,1.13.4.4,0,0,1-.324.636Z" transform="translate(-154.517 -197.559)" fill="#fb8e77"/>
                <g id="Grupo_1226372" data-name="Grupo 1226372" transform="translate(20.47)">
                  <g id="Grupo_1226371" data-name="Grupo 1226371">
                    <g id="Grupo_1226370" data-name="Grupo 1226370">
                      <g id="Grupo_1226367" data-name="Grupo 1226367">
                        <g id="Grupo_1226366" data-name="Grupo 1226366">
                          <path id="Trazado_1060315" data-name="Trazado 1060315" d="M174.44,193.332a3.161,3.161,0,0,0,1.294-.205c.447-.133.9-.256,1.3-.348s.857-.184,1.317-.264a3.131,3.131,0,0,0,1.247-.39c.307-.224.349-.67-.174-1.083a3.615,3.615,0,0,0-2.928-.406,3.507,3.507,0,0,0-2.41,1.656C173.814,192.891,174.061,193.269,174.44,193.332Z" transform="translate(-173.969 -190.513)" fill="#233863"/>
                        </g>
                      </g>
                      <g id="Grupo_1226369" data-name="Grupo 1226369" transform="translate(12.99 0.2)">
                        <g id="Grupo_1226368" data-name="Grupo 1226368">
                          <path id="Trazado_1060316" data-name="Trazado 1060316" d="M194.12,192.869a2.32,2.32,0,0,1-.948-.165c-.327-.1-.658-.2-.948-.27s-.628-.145-.964-.208a2.3,2.3,0,0,1-.912-.3c-.223-.168-.249-.5.139-.794a2.653,2.653,0,0,1,2.155-.266,2.576,2.576,0,0,1,1.753,1.243C194.586,192.551,194.4,192.826,194.12,192.869Z" transform="translate(-190.186 -190.762)" fill="#233863"/>
                        </g>
                      </g>
                    </g>
                  </g>
                </g>
                <path id="Trazado_1060317" data-name="Trazado 1060317" d="M148.814,205.746a.4.4,0,0,1-.166-.765l1.782-.812-1.44-3.053a.4.4,0,1,1,.724-.341l1.786,3.787-2.521,1.149A.4.4,0,0,1,148.814,205.746Z" transform="translate(-148.413 -192.509)" fill="#fb8e77"/>
                <path id="Trazado_1060318" data-name="Trazado 1060318" d="M176.176,219.43l-2.212-.365a5.029,5.029,0,0,1-4.143-5.781l.046-.283,8.407,1.388-.662,4.011A1.249,1.249,0,0,1,176.176,219.43Z" transform="translate(-152.66 -194.988)" fill="#fff"/>
              </g>
            </g>
          </g>
          <g id="Grupo_1226376" data-name="Grupo 1226376" transform="translate(90.69 128.227)">
            <path id="Trazado_1060319" data-name="Trazado 1060319" d="M315.155,311.234H255.929a4.708,4.708,0,0,0-4.538,3.456l-13.644,49.458H198.065a.9.9,0,0,0-.752,1.406l3.133,4.7H303.732L319.7,317.347A4.743,4.743,0,0,0,315.155,311.234Z" transform="translate(-197.16 -311.234)" fill="#2f4770"/>
            <path id="Trazado_1060320" data-name="Trazado 1060320" d="M319.75,370.406H252.08l15.328-55.564a4.708,4.708,0,0,1,4.538-3.456h59.226a4.743,4.743,0,0,1,4.541,6.113Z" transform="translate(-208.09 -311.264)" fill="#233863"/>
            <path id="Trazado_1060321" data-name="Trazado 1060321" d="M237.747,377.3H198.065a.9.9,0,0,0-.752,1.406l3.133,4.7h35.616Z" transform="translate(-197.16 -324.381)" fill="#233863" opacity="0.93"/>
            <path id="Trazado_1060322" data-name="Trazado 1060322" d="M303.387,344.778a5.013,5.013,0,1,1-5.013,5.013,5.018,5.018,0,0,1,5.013-5.013m0-1.6h0a6.634,6.634,0,0,0-6.615,6.615h0a6.634,6.634,0,0,0,6.615,6.615h0A6.634,6.634,0,0,0,310,349.791h0a6.634,6.634,0,0,0-6.615-6.615Z" transform="translate(-216.984 -317.591)" fill="#fff"/>
          </g>
        </g>
      </g>
    </g>
  </g>
</svg>
