<svg xmlns="http://www.w3.org/2000/svg" xmlns:xlink="http://www.w3.org/1999/xlink" width="108" height="108" viewBox="0 0 108 108">
  <defs>
    <filter id="Trazado_904820" x="0" y="0" width="108" height="108" filterUnits="userSpaceOnUse">
      <feOffset dy="3" input="SourceAlpha"/>
      <feGaussianBlur stdDeviation="3" result="blur"/>
      <feFlood flood-opacity="0.161"/>
      <feComposite operator="in" in2="blur"/>
      <feComposite in="SourceGraphic"/>
    </filter>
  </defs>
  <g id="Grupo_1226381" data-name="Grupo 1226381" transform="translate(-197.999 -2386.904)">
    <g id="Grupo_1226379" data-name="Grupo 1226379" transform="translate(0 -1769.815)">
      <g id="Grupo_1226182" data-name="Grupo 1226182" transform="translate(0 -2795.927)">
        <g id="Grupo_1225798" data-name="Grupo 1225798" transform="translate(206.999 6958.646)">
          <g id="Grupo_1225716" data-name="Grupo 1225716" transform="translate(0 0)">
            <g id="Grupo_1211534" data-name="Grupo 1211534">
              <g id="Grupo_1173585" data-name="Grupo 1173585" transform="translate(0 0)">
                <g id="Grupo_1173428" data-name="Grupo 1173428">
                  <g id="Grupo_1171958" data-name="Grupo 1171958">
                    <g id="Grupo_1167341" data-name="Grupo 1167341">
                      <g id="Grupo_1166792" data-name="Grupo 1166792">
                        <g transform="matrix(1, 0, 0, 1, -9, -6)" filter="url(#Trazado_904820)">
                          <g id="Trazado_904820-2" data-name="Trazado 904820" transform="translate(9 6)" fill="#ebfefd">
                            <path d="M 44.99999618530273 88.50003814697266 C 39.12687301635742 88.50003814697266 33.43022155761719 87.35011291503906 28.06829643249512 85.08219909667969 C 22.88852119445801 82.89134979248047 18.23629570007324 79.75462341308594 14.24084663391113 75.75917053222656 C 10.24540901184082 71.76372528076172 7.108683586120605 67.11149597167969 4.917821407318115 61.93172454833984 C 2.649921178817749 56.56979751586914 1.499996185302734 50.87314605712891 1.499996185302734 45.00002288818359 C 1.499996185302734 39.12689971923828 2.649921178817749 33.43024826049805 4.917821407318115 28.06832313537598 C 7.108683586120605 22.88854789733887 10.24540901184082 18.2363224029541 14.24084663391113 14.24087333679199 C 18.23629570007324 10.24543571472168 22.88852119445801 7.108710289001465 28.06829643249512 4.917848110198975 C 33.43022155761719 2.649947881698608 39.12687301635742 1.500022888183594 44.99999618530273 1.500022888183594 C 50.87311935424805 1.500022888183594 56.56977081298828 2.649947881698608 61.93169784545898 4.917848110198975 C 67.11147308349609 7.108710289001465 71.76369476318359 10.24543571472168 75.75914764404297 14.24087333679199 C 79.75458526611328 18.2363224029541 82.89131164550781 22.88854789733887 85.08216857910156 28.06832313537598 C 87.35007476806641 33.43024826049805 88.5 39.12689971923828 88.5 45.00002288818359 C 88.5 50.87314605712891 87.35007476806641 56.56979751586914 85.08216857910156 61.93172454833984 C 82.89131164550781 67.11149597167969 79.75458526611328 71.76372528076172 75.75914764404297 75.75917053222656 C 71.76369476318359 79.75462341308594 67.11147308349609 82.89134979248047 61.93169784545898 85.08219909667969 C 56.56977081298828 87.35011291503906 50.87311935424805 88.50003814697266 44.99999618530273 88.50003814697266 Z" stroke="none"/>
                            <path d="M 44.99999618530273 3.000007629394531 C 39.32870864868164 3.000007629394531 33.82865142822266 4.110069274902344 28.65262603759766 6.299354553222656 C 23.65165710449219 8.414581298828125 19.15968322753906 11.44335174560547 15.301513671875 15.30153656005859 C 11.44333648681641 19.15970611572266 8.414566040039062 23.65166473388672 6.299339294433594 28.65265274047852 C 4.110054016113281 33.82867813110352 2.999992370605469 39.3287353515625 2.999992370605469 45.00002288818359 C 2.999992370605469 50.67131042480469 4.110054016113281 56.17135238647461 6.299339294433594 61.34739685058594 C 8.414566040039062 66.34836578369141 11.44333648681641 70.84032440185547 15.301513671875 74.69850921630859 C 19.15968322753906 78.55667877197266 23.65165710449219 81.58544921875 28.65262603759766 83.70068359375 C 33.82865142822266 85.88996887207031 39.32870864868164 87.00002288818359 44.99999618530273 87.00002288818359 C 50.67128372192383 87.00002288818359 56.17134094238281 85.88996887207031 61.34736633300781 83.70068359375 C 66.34834289550781 81.58544921875 70.84030914306641 78.55667877197266 74.69847869873047 74.69850921630859 C 78.55665588378906 70.84032440185547 81.58542633056641 66.34836578369141 83.70065307617188 61.34739685058594 C 85.88993835449219 56.17135238647461 87 50.67131042480469 87 45.00002288818359 C 87 39.3287353515625 85.88993835449219 33.82867813110352 83.70065307617188 28.65265274047852 C 81.58542633056641 23.65166473388672 78.55665588378906 19.15970611572266 74.69847869873047 15.30153656005859 C 70.84030914306641 11.44335174560547 66.34834289550781 8.414581298828125 61.34736633300781 6.299354553222656 C 56.17134094238281 4.110069274902344 50.67128372192383 3.000007629394531 44.99999618530273 3.000007629394531 M 44.99999618530273 7.62939453125e-06 C 69.85281372070312 7.62939453125e-06 90 20.14720916748047 90 45.00002288818359 C 90 69.85282135009766 69.85281372070312 90.00002288818359 44.99999618530273 90.00002288818359 C 20.14717864990234 90.00002288818359 -7.62939453125e-06 69.85282135009766 -7.62939453125e-06 45.00002288818359 C -7.62939453125e-06 20.14720916748047 20.14717864990234 7.62939453125e-06 44.99999618530273 7.62939453125e-06 Z" stroke="none" fill="#268985"/>
                          </g>
                        </g>
                      </g>
                    </g>
                  </g>
                </g>
              </g>
            </g>
          </g>
        </g>
      </g>
    </g>
    <g id="experiencia-del-usuario" transform="translate(214.578 2408.373)">
      <g id="Grupo_1226380" data-name="Grupo 1226380" transform="translate(15.161 1.188)">
        <path id="Trazado_1060323" data-name="Trazado 1060323" d="M250.92,10.3a8.05,8.05,0,1,0,1.306,0H250.92Z" transform="translate(-218.216 -10.3)" fill="#ffee80" fill-rule="evenodd"/>
        <path id="Trazado_1060324" data-name="Trazado 1060324" d="M29.076,10.3a5.017,5.017,0,0,0-5,5.006v41.1H46.141c-.715-1.856.17-4.146,2.763-4.055l4.124.147c3.328.118,1.979-.634-.457-3.071L40.747,37.6a2.577,2.577,0,1,1,3.638-3.64l7.161,7.162a2.577,2.577,0,1,1,3.638-3.64l1.538,1.542a2.57,2.57,0,0,1,2.949-4.169V25.974a8.171,8.171,0,0,1-2.24.314A8.005,8.005,0,0,1,56.777,10.3h-27.7Z" transform="translate(-24.073 -10.3)" fill="#e5fafe" fill-rule="evenodd"/>
        <path id="Trazado_1060325" data-name="Trazado 1060325" d="M24.073,410.105v5.6a5.019,5.019,0,0,0,5,5.006H54.668a5.022,5.022,0,0,0,5-5.006v-2.013l-10.541-1.32a3.567,3.567,0,0,1-2.988-2.268H24.073Z" transform="translate(-24.073 -363.998)" fill="#00ccf2" fill-rule="evenodd"/>
        <path id="Trazado_1060326" data-name="Trazado 1060326" d="M176.369,207.185a2.577,2.577,0,1,0-3.638,3.64l-7.161-7.162a2.577,2.577,0,1,0-3.638,3.64l11.825,11.831c2.436,2.437,3.785,3.189.457,3.071l-4.124-.147c-2.593-.091-3.478,2.2-2.763,4.055a3.568,3.568,0,0,0,2.988,2.268l10.541,1.32,4.6.575a6.116,6.116,0,0,0,4.983-1.18l6.521-6.525c2.567-2.568,2.413-6.927-.519-9.861l-9.7-9.7a2.577,2.577,0,1,0-3.638,3.64l-1.548-1.549a3.218,3.218,0,0,0-.7-.539,2.57,2.57,0,0,0-2.949,4.169Z" transform="translate(-145.258 -180.007)" fill="#ffd0c7" fill-rule="evenodd"/>
      </g>
      <path id="Trazado_1060327" data-name="Trazado 1060327" d="M150.338,448.339a1.162,1.162,0,1,0,0-2.324h-5.744a1.162,1.162,0,0,0,0,2.324Z" transform="translate(-114.506 -394.579)"/>
      <path id="Trazado_1060328" data-name="Trazado 1060328" d="M69.824,38.9a8.879,8.879,0,0,0-2.661-5.834l-.464-.464a1.162,1.162,0,1,0-1.643,1.643l.464.464c2.449,2.45,2.677,6.06.519,8.219l-6.521,6.525A5.089,5.089,0,0,1,55.5,50.3l-15.139-1.9a2.409,2.409,0,0,1-2.2-2.556A1.527,1.527,0,0,1,39.95,44.4l4.125.147c1.165.041,2.615.092,3.077-1a1.834,1.834,0,0,0-.484-1.876c-.289-.341-.687-.724-1.192-1.209-.3-.287-.638-.613-1-.971L32.656,27.663a1.572,1.572,0,0,1-.536-1.157A1.479,1.479,0,0,1,33.5,25.13a1.563,1.563,0,0,1,1.155.536L46.367,37.389a1.162,1.162,0,1,0,1.643-1.643l-4.5-4.507q-.025-.028-.051-.055a1.568,1.568,0,0,1-.535-1.154A1.48,1.48,0,0,1,44.3,28.654a1.564,1.564,0,0,1,1.154.534l1.46,1.462L47,30.74l.043.041L50,33.749a1.162,1.162,0,1,0,1.644-1.642l-3.071-3.075a1.528,1.528,0,0,1-.473-1.092,1.479,1.479,0,0,1,1.376-1.376,1.34,1.34,0,0,1,.722.2l.006,0a2.15,2.15,0,0,1,.428.337l1.537,1.538.011.011.005.005,1.454,1.455a1.162,1.162,0,1,0,1.643-1.643L53.82,27a1.366,1.366,0,0,1-.095-2.071,1.389,1.389,0,0,1,2.1.08l1.92,1.921a1.162,1.162,0,0,0,1.644-1.643l-1.92-1.921a3.725,3.725,0,0,0-5.381-.081c-.056.056-.11.115-.163.175V17.686A9.16,9.16,0,0,0,48.518,0c-.222,0-.442.011-.66.026H20.163A6.173,6.173,0,0,0,14,6.194V52.9a6.173,6.173,0,0,0,6.165,6.167h4.405a1.162,1.162,0,1,0,0-2.323H20.163A3.847,3.847,0,0,1,16.322,52.9V48.457H36.5a4.71,4.71,0,0,0,3.57,2.259L49.6,51.907V52.9a3.847,3.847,0,0,1-3.841,3.844H34.917a1.162,1.162,0,1,0,0,2.324H45.756A6.173,6.173,0,0,0,51.92,52.9v-.7l3.29.412a10.161,10.161,0,0,0,1.277.082A6.649,6.649,0,0,0,61.161,51.1l6.521-6.525a7.413,7.413,0,0,0,2.141-5.67ZM55.406,9.167a6.888,6.888,0,1,1-6.888-6.844A6.875,6.875,0,0,1,55.406,9.167ZM16.322,46.133V6.194A3.847,3.847,0,0,1,20.163,2.35h22.2a9.155,9.155,0,0,0,6.15,15.988,9.3,9.3,0,0,0,1.078-.065v5.969c-.064,0-.126,0-.186,0a3.72,3.72,0,0,0-2.518,1.108A3.867,3.867,0,0,0,46,26.737a3.625,3.625,0,0,0-1.778-.406,3.722,3.722,0,0,0-2.517,1.11,3.833,3.833,0,0,0-.81,1.186l-4.6-4.6a3.765,3.765,0,0,0-3.687-1.1,3.862,3.862,0,0,0-2.688,2.687,3.768,3.768,0,0,0,1.093,3.691L42.837,41.137c.374.375.722.709,1.029,1l.081.078-3.914-.14a3.85,3.85,0,0,0-4.19,3.589,4.5,4.5,0,0,0-.012.465H16.322Z"/>
      <path id="Trazado_1060329" data-name="Trazado 1060329" d="M102.053,150.439A1.162,1.162,0,1,0,103.7,148.8l-2.456-2.457a1.162,1.162,0,1,0-1.643,1.643Z" transform="translate(-75.426 -129.161)"/>
      <path id="Trazado_1060330" data-name="Trazado 1060330" d="M161.669,126.951a1.162,1.162,0,0,0,1.162-1.162v-3.477a1.162,1.162,0,0,0-2.324,0v3.477A1.162,1.162,0,0,0,161.669,126.951Z" transform="translate(-129.612 -107.179)"/>
      <path id="Trazado_1060331" data-name="Trazado 1060331" d="M80.249,208.445a1.162,1.162,0,0,0-1.162-1.162H75.616a1.162,1.162,0,0,0,0,2.324h3.471A1.162,1.162,0,0,0,80.249,208.445Z" transform="translate(-53.483 -183.378)"/>
      <path id="Trazado_1060332" data-name="Trazado 1060332" d="M102.961,246.695l-2.456,2.457a1.162,1.162,0,1,0,1.643,1.642l2.456-2.457a1.162,1.162,0,1,0-1.643-1.642Z" transform="translate(-76.229 -217.944)"/>
      <path id="Trazado_1060333" data-name="Trazado 1060333" d="M200.716,151.685a1.158,1.158,0,0,0,.821-.34L204,148.888a1.162,1.162,0,1,0-1.642-1.644L199.9,149.7a1.162,1.162,0,0,0,.821,1.984Z" transform="translate(-164.157 -129.963)"/>
      <path id="Trazado_1060334" data-name="Trazado 1060334" d="M276.389,54.682a1.162,1.162,0,0,0-1.719,1.563l2.129,2.343a1.162,1.162,0,0,0,1.61.106l4.536-3.833a1.162,1.162,0,0,0-1.5-1.775l-3.68,3.109Z" transform="translate(-230.342 -46.721)"/>
      <path id="Trazado_1060335" data-name="Trazado 1060335" d="M422.275,249.9a1.162,1.162,0,0,0,1.814-1.451l-.013-.016a1.162,1.162,0,0,0-1.814,1.451Z" transform="translate(-360.956 -219.397)"/>
      <path id="Trazado_1060336" data-name="Trazado 1060336" d="M141.531,492h-.023a1.162,1.162,0,1,0,0,2.324h.023a1.162,1.162,0,1,0,0-2.324Z" transform="translate(-111.776 -435.261)"/>
    </g>
  </g>
</svg>
