<svg xmlns="http://www.w3.org/2000/svg" xmlns:xlink="http://www.w3.org/1999/xlink" width="108" height="108" viewBox="0 0 108 108">
  <defs>
    <filter id="Trazado_904820" x="0" y="0" width="108" height="108" filterUnits="userSpaceOnUse">
      <feOffset dy="3" input="SourceAlpha"/>
      <feGaussianBlur stdDeviation="3" result="blur"/>
      <feFlood flood-opacity="0.161"/>
      <feComposite operator="in" in2="blur"/>
      <feComposite in="SourceGraphic"/>
    </filter>
  </defs>
  <g id="Grupo_1225802" data-name="Grupo 1225802" transform="translate(-196 -504)">
    <g id="Grupo_1211686" data-name="Grupo 1211686" transform="translate(205 510)">
      <g id="Grupo_1173585" data-name="Grupo 1173585" transform="translate(0 0)">
        <g id="Grupo_1173428" data-name="Grupo 1173428">
          <g id="Grupo_1171958" data-name="Grupo 1171958">
            <g id="Grupo_1167341" data-name="Grupo 1167341">
              <g id="Grupo_1166792" data-name="Grupo 1166792">
                <g transform="matrix(1, 0, 0, 1, -9, -6)" filter="url(#Trazado_904820)">
                  <g id="Trazado_904820-2" data-name="Trazado 904820" transform="translate(9 6)" fill="#fceefb">
                    <path d="M 44.99999618530273 88.50003814697266 C 39.12687301635742 88.50003814697266 33.43022155761719 87.35011291503906 28.06829643249512 85.08219909667969 C 22.88852119445801 82.89134979248047 18.23629570007324 79.75462341308594 14.24084663391113 75.75917053222656 C 10.24540901184082 71.76372528076172 7.108683586120605 67.11149597167969 4.917821407318115 61.93172454833984 C 2.649921178817749 56.56979751586914 1.499996185302734 50.87314605712891 1.499996185302734 45.00002288818359 C 1.499996185302734 39.12689971923828 2.649921178817749 33.43024826049805 4.917821407318115 28.06832313537598 C 7.108683586120605 22.88854789733887 10.24540901184082 18.2363224029541 14.24084663391113 14.24087333679199 C 18.23629570007324 10.24543571472168 22.88852119445801 7.108710289001465 28.06829643249512 4.917848110198975 C 33.43022155761719 2.649947881698608 39.12687301635742 1.500022888183594 44.99999618530273 1.500022888183594 C 50.87311935424805 1.500022888183594 56.56977081298828 2.649947881698608 61.93169784545898 4.917848110198975 C 67.11147308349609 7.108710289001465 71.76369476318359 10.24543571472168 75.75914764404297 14.24087333679199 C 79.75458526611328 18.2363224029541 82.89131164550781 22.88854789733887 85.08216857910156 28.06832313537598 C 87.35007476806641 33.43024826049805 88.5 39.12689971923828 88.5 45.00002288818359 C 88.5 50.87314605712891 87.35007476806641 56.56979751586914 85.08216857910156 61.93172454833984 C 82.89131164550781 67.11149597167969 79.75458526611328 71.76372528076172 75.75914764404297 75.75917053222656 C 71.76369476318359 79.75462341308594 67.11147308349609 82.89134979248047 61.93169784545898 85.08219909667969 C 56.56977081298828 87.35011291503906 50.87311935424805 88.50003814697266 44.99999618530273 88.50003814697266 Z" stroke="none"/>
                    <path d="M 44.99999618530273 3.000007629394531 C 39.32870864868164 3.000007629394531 33.82865142822266 4.110069274902344 28.65262603759766 6.299354553222656 C 23.65165710449219 8.414581298828125 19.15968322753906 11.44335174560547 15.301513671875 15.30153656005859 C 11.44333648681641 19.15970611572266 8.414566040039062 23.65166473388672 6.299339294433594 28.65265274047852 C 4.110054016113281 33.82867813110352 2.999992370605469 39.3287353515625 2.999992370605469 45.00002288818359 C 2.999992370605469 50.67131042480469 4.110054016113281 56.17135238647461 6.299339294433594 61.34739685058594 C 8.414566040039062 66.34836578369141 11.44333648681641 70.84032440185547 15.301513671875 74.69850921630859 C 19.15968322753906 78.55667877197266 23.65165710449219 81.58544921875 28.65262603759766 83.70068359375 C 33.82865142822266 85.88996887207031 39.32870864868164 87.00002288818359 44.99999618530273 87.00002288818359 C 50.67128372192383 87.00002288818359 56.17134094238281 85.88996887207031 61.34736633300781 83.70068359375 C 66.34834289550781 81.58544921875 70.84030914306641 78.55667877197266 74.69847869873047 74.69850921630859 C 78.55665588378906 70.84032440185547 81.58542633056641 66.34836578369141 83.70065307617188 61.34739685058594 C 85.88993835449219 56.17135238647461 87 50.67131042480469 87 45.00002288818359 C 87 39.3287353515625 85.88993835449219 33.82867813110352 83.70065307617188 28.65265274047852 C 81.58542633056641 23.65166473388672 78.55665588378906 19.15970611572266 74.69847869873047 15.30153656005859 C 70.84030914306641 11.44335174560547 66.34834289550781 8.414581298828125 61.34736633300781 6.299354553222656 C 56.17134094238281 4.110069274902344 50.67128372192383 3.000007629394531 44.99999618530273 3.000007629394531 M 44.99999618530273 7.62939453125e-06 C 69.85281372070312 7.62939453125e-06 90 20.14720916748047 90 45.00002288818359 C 90 69.85282135009766 69.85281372070312 90.00002288818359 44.99999618530273 90.00002288818359 C 20.14717864990234 90.00002288818359 -7.62939453125e-06 69.85282135009766 -7.62939453125e-06 45.00002288818359 C -7.62939453125e-06 20.14720916748047 20.14717864990234 7.62939453125e-06 44.99999618530273 7.62939453125e-06 Z" stroke="none" fill="#e761e1"/>
                  </g>
                </g>
              </g>
            </g>
          </g>
        </g>
      </g>
    </g>
    <g id="ui" transform="translate(219.743 525.243)">
      <path id="Trazado_1059713" data-name="Trazado 1059713" d="M146.289,8H124.468a3.968,3.968,0,0,0-3.968,3.968v1.984h29.757V11.968A3.968,3.968,0,0,0,146.289,8Zm0,0" transform="translate(-105.122 -7.008)" fill="#126099"/>
      <path id="Trazado_1059714" data-name="Trazado 1059714" d="M120.5,411.968a3.968,3.968,0,0,0,3.968,3.968h21.822a3.968,3.968,0,0,0,3.968-3.968V408H120.5Zm0,0" transform="translate(-105.122 -357.413)" fill="#126099"/>
      <path id="Trazado_1059715" data-name="Trazado 1059715" d="M120.5,56h29.757V99.644H120.5Zm0,0" transform="translate(-105.122 -49.057)" fill="#4398d1"/>
      <path id="Trazado_1059716" data-name="Trazado 1059716" d="M136.37,125.39a13.355,13.355,0,0,0-15.87-13.151v26.3a13.442,13.442,0,0,0,2.48.239c.168,0,.33-.019.5-.025v2.008h2.976V138.31a13.384,13.384,0,0,0,9.919-12.919Zm0,0" transform="translate(-105.122 -98.113)" fill="#3e8cc7"/>
      <path id="Trazado_1059717" data-name="Trazado 1059717" d="M120.5,181.757v1.984h29.757V152Zm0,0" transform="translate(-105.122 -133.154)" fill="#3e8cc7"/>
      <path id="Trazado_1059718" data-name="Trazado 1059718" d="M232.5,432h1.984v1.984H232.5Zm0,0" transform="translate(-203.235 -378.438)" fill="#3181bd"/>
      <path id="Trazado_1059719" data-name="Trazado 1059719" d="M80.306,123.9a11.861,11.861,0,1,1-3.474-8.429A11.9,11.9,0,0,1,80.306,123.9Zm0,0" transform="translate(-49.057 -98.113)" fill="#126099"/>
      <path id="Trazado_1059720" data-name="Trazado 1059720" d="M128.435,163.968A3.968,3.968,0,1,1,124.468,160,3.968,3.968,0,0,1,128.435,163.968Zm0,0" transform="translate(-105.122 -140.162)" fill="#fec9a3"/>
      <path id="Trazado_1059721" data-name="Trazado 1059721" d="M312.5,182.878l16.25-14.338a2.159,2.159,0,0,1,3.047,3.047l-14.338,16.25Zm0,0" transform="translate(-273.316 -147.17)" fill="#e3584b"/>
      <path id="Trazado_1059722" data-name="Trazado 1059722" d="M256.435,288a5.952,5.952,0,0,0-5.951,5.951v1.75a3.589,3.589,0,0,1-1.984,3.21h6.943a5.952,5.952,0,0,0,5.951-5.951Zm0,0" transform="translate(-217.251 -252.292)" fill="#87ced9"/>
      <path id="Trazado_1059723" data-name="Trazado 1059723" d="M8.5,368H30.322v7.935H8.5Zm0,0" transform="translate(-7.008 -322.373)" fill="#87ced9"/>
      <path id="Trazado_1059724" data-name="Trazado 1059724" d="M32.5,392h4.959v1.984H32.5Zm0,0" transform="translate(-28.032 -343.397)" fill="#5eb3d1"/>
      <path id="Trazado_1059725" data-name="Trazado 1059725" d="M88.5,392h8.927v1.984H88.5Zm0,0" transform="translate(-77.089 -343.397)" fill="#5eb3d1"/>
      <path id="Trazado_1059726" data-name="Trazado 1059726" d="M8.5,40h9.919v7.935H8.5Zm0,0" transform="translate(-7.008 -35.041)" fill="#87ced9"/>
      <path id="Trazado_1059727" data-name="Trazado 1059727" d="M32.5,64h3.968v1.984H32.5Zm0,0" transform="translate(-28.032 -56.065)" fill="#5eb3d1"/>
      <path id="Trazado_1059728" data-name="Trazado 1059728" d="M110.451,224a5.952,5.952,0,0,0-5.951,5.951v2.37a11.882,11.882,0,0,0,11.9,0v-2.37A5.952,5.952,0,0,0,110.451,224Zm0,0" transform="translate(-91.105 -196.227)" fill="#e3584b"/>
      <path id="Trazado_1059729" data-name="Trazado 1059729" d="M56.241,94.878H53.214A12.9,12.9,0,0,0,41.362,83.026V80H39.378v3.026A12.9,12.9,0,0,0,27.526,94.878H24.5v1.984h3.028a12.837,12.837,0,0,0,11.85,11.857v3.021h1.984v-3.021a12.837,12.837,0,0,0,11.85-11.857h3.028ZM47.644,104a10.861,10.861,0,0,1-6.282,2.732V104.8H39.378v1.938a10.881,10.881,0,0,1-9.866-9.873h1.931V94.878H29.51a10.922,10.922,0,0,1,9.869-9.869v1.933h1.984V85.01a10.922,10.922,0,0,1,9.869,9.869H49.3v1.984h1.931a10.916,10.916,0,0,1-3.584,7.147Zm0,0" transform="translate(-21.024 -70.081)" fill="#e3584b"/>
      <path id="Trazado_1059730" data-name="Trazado 1059730" d="M264.5,56h11.9V67.9H264.5Zm0,0" transform="translate(-231.267 -49.057)" fill="#3e8cc7"/>
      <path id="Trazado_1059731" data-name="Trazado 1059731" d="M280.5,40h21.822V51.9H280.5Zm0,0" transform="translate(-245.284 -35.041)" fill="#87ced9"/>
      <g id="Grupo_1225801" data-name="Grupo 1225801" transform="translate(38.192 7.935)">
        <path id="Trazado_1059732" data-name="Trazado 1059732" d="M304.5,64h3.968v1.984H304.5Zm0,0" transform="translate(-304.5 -64)" fill="#5eb3d1"/>
        <path id="Trazado_1059733" data-name="Trazado 1059733" d="M352.5,64h9.919v1.984H352.5Zm0,0" transform="translate(-346.549 -64)" fill="#5eb3d1"/>
        <path id="Trazado_1059734" data-name="Trazado 1059734" d="M304.5,96h15.87v1.984H304.5Zm0,0" transform="translate(-304.5 -92.032)" fill="#5eb3d1"/>
      </g>
      <path id="Trazado_1059735" data-name="Trazado 1059735" d="M148.922,368h-1.984v3.968H129.084v1.984h17.854v2.976a2.976,2.976,0,0,1-2.976,2.976H122.141a2.987,2.987,0,0,1-2.579-1.488l-1.718.992a4.98,4.98,0,0,0,4.3,2.48h21.822a4.965,4.965,0,0,0,4.959-4.96Zm0,0" transform="translate(-102.795 -322.373)"/>
      <path id="Trazado_1059736" data-name="Trazado 1059736" d="M232.5,432h1.984v1.984H232.5Zm0,0" transform="translate(-203.235 -378.438)"/>
      <path id="Trazado_1059737" data-name="Trazado 1059737" d="M56.241,26.781V24.8H53.214A12.9,12.9,0,0,0,41.362,12.945V9.919H39.378v3.026a12.892,12.892,0,0,0-1.984.309V7.935h15.87V5.951H37.394V4.959A2.976,2.976,0,0,1,40.37,1.984H62.192a2.974,2.974,0,0,1,1.968.744L65.472,1.24A4.953,4.953,0,0,0,62.192,0H40.37a4.965,4.965,0,0,0-4.959,4.959v8.927A12.912,12.912,0,0,0,27.526,24.8H24.5v1.984h3.028a12.837,12.837,0,0,0,11.85,11.857V41.66h1.984V38.638a12.837,12.837,0,0,0,11.85-11.857ZM39.378,34.716v1.938a10.869,10.869,0,0,1-3.968-1.145V33.725a4.959,4.959,0,1,1,9.919,0V35.51a10.88,10.88,0,0,1-3.968,1.148V34.716ZM37.394,23.806a2.976,2.976,0,1,1,2.976,2.976A2.976,2.976,0,0,1,37.394,23.806ZM47.644,33.923c-.107.1-.221.178-.33.27v-.468a6.943,6.943,0,0,0-3.748-6.158,4.959,4.959,0,1,0-6.39,0,6.943,6.943,0,0,0-3.748,6.158V34.2c-.11-.09-.224-.175-.33-.27a10.916,10.916,0,0,1-3.584-7.147h1.931V24.8H29.51a10.922,10.922,0,0,1,9.869-9.869v1.933h1.984V14.929A10.922,10.922,0,0,1,51.231,24.8H49.3v1.984h1.931a10.916,10.916,0,0,1-3.584,7.147Zm0,0" transform="translate(-21.024 0)"/>
      <path id="Trazado_1059738" data-name="Trazado 1059738" d="M295.314,45.887a.992.992,0,0,0,.992-.992v-11.9a.992.992,0,0,0-.992-.992H273.492a.992.992,0,0,0-.992.992v11.9a.992.992,0,0,0,.992.992Zm-20.83-11.9h19.838V43.9H274.484Zm0,0" transform="translate(-238.275 -28.032)"/>
      <path id="Trazado_1059739" data-name="Trazado 1059739" d="M304.5,64h3.968v1.984H304.5Zm0,0" transform="translate(-266.308 -56.065)"/>
      <path id="Trazado_1059740" data-name="Trazado 1059740" d="M352.5,64h9.919v1.984H352.5Zm0,0" transform="translate(-308.357 -56.065)"/>
      <path id="Trazado_1059741" data-name="Trazado 1059741" d="M304.5,96h15.87v1.984H304.5Zm0,0" transform="translate(-266.308 -84.097)"/>
      <path id="Trazado_1059742" data-name="Trazado 1059742" d="M267.1,160a3.145,3.145,0,0,0-2.083.793l-8.652,7.628V160H254.38v9.919h.287l-5.643,4.979a6.943,6.943,0,0,0-6.547,6.923v1.75a2.579,2.579,0,0,1-1.435,2.322.992.992,0,0,0,.443,1.88h6.943a6.943,6.943,0,0,0,6.923-6.547l14.111-15.992A3.151,3.151,0,0,0,267.1,160Zm-18.671,25.789h-4.536a4.576,4.576,0,0,0,.569-2.218v-1.75a4.966,4.966,0,0,1,4.563-4.944l4.348,4.348A4.965,4.965,0,0,1,248.429,185.789Zm19.546-21.866-13.64,15.459-3.467-3.466,15.459-13.641a1.168,1.168,0,0,1,1.648,1.648Zm0,0" transform="translate(-210.237 -140.162)"/>
      <path id="Trazado_1059743" data-name="Trazado 1059743" d="M1.492,334.878H23.314a.992.992,0,0,0,.992-.992v-7.935a.992.992,0,0,0-.992-.992H16.37V320H14.387v4.96H1.492a.992.992,0,0,0-.992.992v7.935A.992.992,0,0,0,1.492,334.878Zm.992-7.935H22.322v5.951H2.484Zm0,0" transform="translate(0 -280.324)"/>
      <path id="Trazado_1059744" data-name="Trazado 1059744" d="M32.5,392h4.959v1.984H32.5Zm0,0" transform="translate(-28.032 -343.397)"/>
      <path id="Trazado_1059745" data-name="Trazado 1059745" d="M88.5,392h8.927v1.984H88.5Zm0,0" transform="translate(-77.089 -343.397)"/>
      <path id="Trazado_1059746" data-name="Trazado 1059746" d="M1.492,41.919h9.919a.992.992,0,0,0,.992-.992V32.992A.992.992,0,0,0,11.411,32H1.492a.992.992,0,0,0-.992.992v7.935A.992.992,0,0,0,1.492,41.919Zm.992-7.935h7.935v5.951H2.484Zm0,0" transform="translate(0 -28.032)"/>
      <path id="Trazado_1059747" data-name="Trazado 1059747" d="M32.5,64h3.968v1.984H32.5Zm0,0" transform="translate(-28.032 -56.065)"/>
    </g>
  </g>
</svg>
