<svg xmlns="http://www.w3.org/2000/svg" xmlns:xlink="http://www.w3.org/1999/xlink" width="108" height="108" viewBox="0 0 108 108">
  <defs>
    <filter id="Trazado_904820" x="0" y="0" width="108" height="108" filterUnits="userSpaceOnUse">
      <feOffset dy="3" input="SourceAlpha"/>
      <feGaussianBlur stdDeviation="3" result="blur"/>
      <feFlood flood-opacity="0.161"/>
      <feComposite operator="in" in2="blur"/>
      <feComposite in="SourceGraphic"/>
    </filter>
  </defs>
  <g id="Grupo_1226184" data-name="Grupo 1226184" transform="translate(-197.999 -4156.719)">
    <g id="Grupo_1226182" data-name="Grupo 1226182" transform="translate(0 -2795.927)">
      <g id="Grupo_1225798" data-name="Grupo 1225798" transform="translate(206.999 6958.646)">
        <g id="Grupo_1225716" data-name="Grupo 1225716" transform="translate(0 0)">
          <g id="Grupo_1211534" data-name="Grupo 1211534">
            <g id="Grupo_1173585" data-name="Grupo 1173585" transform="translate(0 0)">
              <g id="Grupo_1173428" data-name="Grupo 1173428">
                <g id="Grupo_1171958" data-name="Grupo 1171958">
                  <g id="Grupo_1167341" data-name="Grupo 1167341">
                    <g id="Grupo_1166792" data-name="Grupo 1166792">
                      <g transform="matrix(1, 0, 0, 1, -9, -6)" filter="url(#Trazado_904820)">
                        <g id="Trazado_904820-2" data-name="Trazado 904820" transform="translate(9 6)" fill="#efecfa">
                          <path d="M 44.99999618530273 88.50003814697266 C 39.12687301635742 88.50003814697266 33.43022155761719 87.35011291503906 28.06829643249512 85.08219909667969 C 22.88852119445801 82.89134979248047 18.23629570007324 79.75462341308594 14.24084663391113 75.75917053222656 C 10.24540901184082 71.76372528076172 7.108683586120605 67.11149597167969 4.917821407318115 61.93172454833984 C 2.649921178817749 56.56979751586914 1.499996185302734 50.87314605712891 1.499996185302734 45.00002288818359 C 1.499996185302734 39.12689971923828 2.649921178817749 33.43024826049805 4.917821407318115 28.06832313537598 C 7.108683586120605 22.88854789733887 10.24540901184082 18.2363224029541 14.24084663391113 14.24087333679199 C 18.23629570007324 10.24543571472168 22.88852119445801 7.108710289001465 28.06829643249512 4.917848110198975 C 33.43022155761719 2.649947881698608 39.12687301635742 1.500022888183594 44.99999618530273 1.500022888183594 C 50.87311935424805 1.500022888183594 56.56977081298828 2.649947881698608 61.93169784545898 4.917848110198975 C 67.11147308349609 7.108710289001465 71.76369476318359 10.24543571472168 75.75914764404297 14.24087333679199 C 79.75458526611328 18.2363224029541 82.89131164550781 22.88854789733887 85.08216857910156 28.06832313537598 C 87.35007476806641 33.43024826049805 88.5 39.12689971923828 88.5 45.00002288818359 C 88.5 50.87314605712891 87.35007476806641 56.56979751586914 85.08216857910156 61.93172454833984 C 82.89131164550781 67.11149597167969 79.75458526611328 71.76372528076172 75.75914764404297 75.75917053222656 C 71.76369476318359 79.75462341308594 67.11147308349609 82.89134979248047 61.93169784545898 85.08219909667969 C 56.56977081298828 87.35011291503906 50.87311935424805 88.50003814697266 44.99999618530273 88.50003814697266 Z" stroke="none"/>
                          <path d="M 44.99999618530273 3.000007629394531 C 39.32870864868164 3.000007629394531 33.82865142822266 4.110069274902344 28.65262603759766 6.299354553222656 C 23.65165710449219 8.414581298828125 19.15968322753906 11.44335174560547 15.301513671875 15.30153656005859 C 11.44333648681641 19.15970611572266 8.414566040039062 23.65166473388672 6.299339294433594 28.65265274047852 C 4.110054016113281 33.82867813110352 2.999992370605469 39.3287353515625 2.999992370605469 45.00002288818359 C 2.999992370605469 50.67131042480469 4.110054016113281 56.17135238647461 6.299339294433594 61.34739685058594 C 8.414566040039062 66.34836578369141 11.44333648681641 70.84032440185547 15.301513671875 74.69850921630859 C 19.15968322753906 78.55667877197266 23.65165710449219 81.58544921875 28.65262603759766 83.70068359375 C 33.82865142822266 85.88996887207031 39.32870864868164 87.00002288818359 44.99999618530273 87.00002288818359 C 50.67128372192383 87.00002288818359 56.17134094238281 85.88996887207031 61.34736633300781 83.70068359375 C 66.34834289550781 81.58544921875 70.84030914306641 78.55667877197266 74.69847869873047 74.69850921630859 C 78.55665588378906 70.84032440185547 81.58542633056641 66.34836578369141 83.70065307617188 61.34739685058594 C 85.88993835449219 56.17135238647461 87 50.67131042480469 87 45.00002288818359 C 87 39.3287353515625 85.88993835449219 33.82867813110352 83.70065307617188 28.65265274047852 C 81.58542633056641 23.65166473388672 78.55665588378906 19.15970611572266 74.69847869873047 15.30153656005859 C 70.84030914306641 11.44335174560547 66.34834289550781 8.414581298828125 61.34736633300781 6.299354553222656 C 56.17134094238281 4.110069274902344 50.67128372192383 3.000007629394531 44.99999618530273 3.000007629394531 M 44.99999618530273 7.62939453125e-06 C 69.85281372070312 7.62939453125e-06 90 20.14720916748047 90 45.00002288818359 C 90 69.85282135009766 69.85281372070312 90.00002288818359 44.99999618530273 90.00002288818359 C 20.14717864990234 90.00002288818359 -7.62939453125e-06 69.85282135009766 -7.62939453125e-06 45.00002288818359 C -7.62939453125e-06 20.14720916748047 20.14717864990234 7.62939453125e-06 44.99999618530273 7.62939453125e-06 Z" stroke="none" fill="#6c4dd8"/>
                        </g>
                      </g>
                    </g>
                  </g>
                </g>
              </g>
            </g>
          </g>
        </g>
      </g>
    </g>
    <g id="svg" transform="translate(224.495 4180.283)">
      <path id="Trazado_1059961" data-name="Trazado 1059961" d="M21.977,4.022a.838.838,0,0,1-.832.832h-7.2a.832.832,0,0,1,0-1.664h7.2A.833.833,0,0,1,21.977,4.022Z" transform="translate(-1.804 -0.455)" fill="#2b2f64"/>
      <path id="Trazado_1059962" data-name="Trazado 1059962" d="M26.322,4.022a.836.836,0,1,1-.84-.832h.009A.833.833,0,0,1,26.322,4.022Z" transform="translate(-3.448 -0.455)" fill="#2b2f64"/>
      <path id="Trazado_1059963" data-name="Trazado 1059963" d="M19.465,55.89a2.264,2.264,0,1,0,2.264,2.264A2.26,2.26,0,0,0,19.465,55.89Zm0,2.864a.6.6,0,1,1,.6-.6A.6.6,0,0,1,19.465,58.754Z" transform="translate(-2.388 -7.964)" fill="#2b2f64"/>
      <path id="Trazado_1059964" data-name="Trazado 1059964" d="M54.466,3.4a6.817,6.817,0,1,0,6.817,6.817A6.831,6.831,0,0,0,54.466,3.4Zm0,11.979a5.154,5.154,0,1,1,5.154-5.154A5.166,5.166,0,0,1,54.466,15.379Z" transform="translate(-6.724 -0.484)" fill="#2b2f64"/>
      <path id="Trazado_1059965" data-name="Trazado 1059965" d="M54.742,5.34A5.154,5.154,0,1,0,59.9,10.494,5.166,5.166,0,0,0,54.742,5.34Zm1.826,6.929a1.571,1.571,0,0,1-.4.549,1.941,1.941,0,0,1-.609.36,2.571,2.571,0,0,1-.695.163l-.086.858-.034.077a.207.207,0,0,1-.111.094.454.454,0,0,1-.137.034,1.268,1.268,0,0,1-.189.009,1.873,1.873,0,0,1-.24-.009.326.326,0,0,1-.154-.051l-.043-.017-.077-.1a.25.25,0,0,1-.009-.137l.077-.763a2.259,2.259,0,0,1-.257-.06,2.628,2.628,0,0,1-.309-.094,1.255,1.255,0,0,1-.24-.111.423.423,0,0,1-.163-.12.4.4,0,0,1-.1-.2,1.424,1.424,0,0,1-.026-.309,2.1,2.1,0,0,1,.009-.249.591.591,0,0,1,.034-.172l.017-.034.086-.094a.242.242,0,0,1,.129-.034.407.407,0,0,1,.223.086,1.427,1.427,0,0,0,.257.129,1.918,1.918,0,0,0,.394.137,1.952,1.952,0,0,0,.532.069,1.186,1.186,0,0,0,.686-.163.492.492,0,0,0,.2-.412.391.391,0,0,0-.086-.274.862.862,0,0,0-.249-.206,1.756,1.756,0,0,0-.386-.172c-.146-.051-.3-.111-.454-.163-.154-.069-.309-.137-.463-.214a1.822,1.822,0,0,1-.412-.317,1.33,1.33,0,0,1-.309-.463,1.638,1.638,0,0,1-.12-.652,1.694,1.694,0,0,1,.12-.626,1.539,1.539,0,0,1,.334-.5,1.957,1.957,0,0,1,.532-.343,2.247,2.247,0,0,1,.617-.154l.077-.806.034-.086a.234.234,0,0,1,.1-.077.424.424,0,0,1,.137-.043.587.587,0,0,1,.189-.017,1.739,1.739,0,0,1,.24.017.549.549,0,0,1,.163.043l.043.017.077.111a.506.506,0,0,1,.017.12l-.077.72a1,1,0,0,0,.154.034c.094.026.18.051.266.077s.146.06.214.094a.771.771,0,0,1,.154.1l.077.1a.672.672,0,0,1,.043.12.755.755,0,0,1,.017.146c0,.051.009.111.009.172,0,.1-.009.172-.009.232a.518.518,0,0,1-.034.154l-.009.026-.069.086A.172.172,0,0,1,56.157,9a.411.411,0,0,1-.214-.069,2.562,2.562,0,0,0-.257-.12,2.391,2.391,0,0,0-.352-.12,1.14,1.14,0,0,0-.4-.06,1.511,1.511,0,0,0-.36.034.546.546,0,0,0-.223.111.415.415,0,0,0-.111.137.5.5,0,0,0-.043.189.429.429,0,0,0,.086.283.906.906,0,0,0,.257.206,2.86,2.86,0,0,0,.394.172l.454.163c.154.069.317.137.472.214a1.9,1.9,0,0,1,.42.309,1.522,1.522,0,0,1,.309.454,1.872,1.872,0,0,1-.017,1.363Z" transform="translate(-7.001 -0.761)" fill="#ffdc7d"/>
      <path id="Trazado_1059966" data-name="Trazado 1059966" d="M57.245,11.774a1.868,1.868,0,0,1-.137.7,1.571,1.571,0,0,1-.4.549,1.941,1.941,0,0,1-.609.36,2.571,2.571,0,0,1-.695.163l-.086.858-.034.077a.207.207,0,0,1-.111.094.454.454,0,0,1-.137.034,1.268,1.268,0,0,1-.189.009,1.873,1.873,0,0,1-.24-.009.326.326,0,0,1-.154-.051l-.043-.017-.077-.1a.25.25,0,0,1-.009-.137l.077-.763a2.26,2.26,0,0,1-.257-.06,2.628,2.628,0,0,1-.309-.094,1.255,1.255,0,0,1-.24-.111.423.423,0,0,1-.163-.12.4.4,0,0,1-.1-.2,1.424,1.424,0,0,1-.026-.309,2.1,2.1,0,0,1,.009-.249.591.591,0,0,1,.034-.172l.017-.034.086-.094a.242.242,0,0,1,.129-.034.407.407,0,0,1,.223.086,1.427,1.427,0,0,0,.257.129,1.918,1.918,0,0,0,.394.137,1.952,1.952,0,0,0,.532.069,1.186,1.186,0,0,0,.686-.163.492.492,0,0,0,.2-.412.391.391,0,0,0-.086-.274.862.862,0,0,0-.249-.206,1.756,1.756,0,0,0-.386-.172c-.146-.051-.3-.111-.454-.163-.154-.069-.309-.137-.463-.214a1.822,1.822,0,0,1-.412-.317,1.33,1.33,0,0,1-.309-.463,1.638,1.638,0,0,1-.12-.652,1.694,1.694,0,0,1,.12-.626,1.539,1.539,0,0,1,.334-.5,1.957,1.957,0,0,1,.532-.343,2.247,2.247,0,0,1,.617-.154l.077-.806.034-.086a.234.234,0,0,1,.1-.077.424.424,0,0,1,.137-.043.505.505,0,0,1,.18-.017,1.739,1.739,0,0,1,.24.017.549.549,0,0,1,.163.043l.043.017.077.111a.506.506,0,0,1,.017.12l-.077.72a1,1,0,0,0,.154.034c.094.026.18.051.266.077s.146.06.214.094a.771.771,0,0,1,.154.1l.077.1a.672.672,0,0,1,.043.12.755.755,0,0,1,.017.146c0,.051.009.111.009.172,0,.1-.009.172-.009.232a.518.518,0,0,1-.034.154l-.009.026-.069.086a.172.172,0,0,1-.111.034.411.411,0,0,1-.214-.069,2.562,2.562,0,0,0-.257-.12,2.391,2.391,0,0,0-.352-.12,1.14,1.14,0,0,0-.4-.06,1.511,1.511,0,0,0-.36.034.545.545,0,0,0-.223.111.415.415,0,0,0-.111.137.5.5,0,0,0-.043.189.429.429,0,0,0,.086.283.906.906,0,0,0,.257.206,2.86,2.86,0,0,0,.394.172l.454.163c.154.069.317.137.472.214a1.9,1.9,0,0,1,.42.309,1.522,1.522,0,0,1,.309.454,1.62,1.62,0,0,1,.129.66Z" transform="translate(-7.531 -0.969)" fill="#2b2f64"/>
      <path id="Trazado_1059967" data-name="Trazado 1059967" d="M54.466,45.36a6.821,6.821,0,1,0,6.817,6.826A6.833,6.833,0,0,0,54.466,45.36Zm0,11.988a5.158,5.158,0,1,1,5.154-5.154A5.166,5.166,0,0,1,54.466,57.348Z" transform="translate(-6.724 -6.464)" fill="#2b2f64"/>
      <path id="Trazado_1059968" data-name="Trazado 1059968" d="M54.742,47.3A5.158,5.158,0,1,0,59.9,52.462,5.173,5.173,0,0,0,54.742,47.3Zm1.826,6.929a1.429,1.429,0,0,1-.4.549,1.958,1.958,0,0,1-.609.369,2.281,2.281,0,0,1-.695.154l-.086.858-.034.086a.167.167,0,0,1-.111.086.432.432,0,0,1-.137.043,1.269,1.269,0,0,1-.189.009.946.946,0,0,1-.24-.017.484.484,0,0,1-.154-.043l-.043-.026L53.79,56.2a.282.282,0,0,1-.009-.146l.077-.763a2.274,2.274,0,0,1-.257-.051,2.627,2.627,0,0,1-.309-.094,2.149,2.149,0,0,1-.24-.111.533.533,0,0,1-.163-.12.4.4,0,0,1-.1-.2,1.424,1.424,0,0,1-.026-.309,2.1,2.1,0,0,1,.009-.249.744.744,0,0,1,.034-.18l.017-.026.086-.094a.242.242,0,0,1,.129-.034.461.461,0,0,1,.223.077,1.4,1.4,0,0,0,.257.137,2.612,2.612,0,0,0,.394.137,1.973,1.973,0,0,0,.532.06,1.123,1.123,0,0,0,.686-.163.471.471,0,0,0,.2-.412.391.391,0,0,0-.086-.274.744.744,0,0,0-.249-.206,1.756,1.756,0,0,0-.386-.172c-.146-.06-.3-.111-.454-.172s-.309-.137-.463-.214a2.066,2.066,0,0,1-.412-.309,1.414,1.414,0,0,1-.309-.463,1.759,1.759,0,0,1,0-1.278,1.539,1.539,0,0,1,.334-.5,1.774,1.774,0,0,1,.532-.343,2.248,2.248,0,0,1,.617-.163l.077-.815.034-.077a.343.343,0,0,1,.1-.086.8.8,0,0,1,.137-.034,1.268,1.268,0,0,1,.189-.009,1.944,1.944,0,0,1,.24.009.52.52,0,0,1,.163.051l.043.017.077.111a.506.506,0,0,1,.017.12l-.077.72a1,1,0,0,1,.154.034,2.406,2.406,0,0,1,.266.077,1.62,1.62,0,0,1,.214.094.4.4,0,0,1,.154.1l.077.1a.5.5,0,0,1,.043.12.75.75,0,0,1,.017.137c0,.06.009.12.009.18,0,.094-.009.163-.009.223a.588.588,0,0,1-.034.163l-.009.026-.069.077a.181.181,0,0,1-.111.043.51.51,0,0,1-.214-.069,1.469,1.469,0,0,0-.257-.12,2.391,2.391,0,0,0-.352-.12,1.59,1.59,0,0,0-.412-.06,1.481,1.481,0,0,0-.36.043.673.673,0,0,0-.223.1.442.442,0,0,0-.111.146.467.467,0,0,0-.043.189.4.4,0,0,0,.086.274.78.78,0,0,0,.257.206,1.66,1.66,0,0,0,.394.172l.454.172c.154.06.317.137.472.214a1.662,1.662,0,0,1,.42.309,1.421,1.421,0,0,1,.309.454,1.58,1.58,0,0,1,.12.635,1.485,1.485,0,0,1-.129.72Z" transform="translate(-7.001 -6.74)" fill="#ffdc7d"/>
      <path id="Trazado_1059969" data-name="Trazado 1059969" d="M54.742,47.3A5.158,5.158,0,1,0,59.9,52.462,5.173,5.173,0,0,0,54.742,47.3Zm0,9.33a4.172,4.172,0,1,1,4.167-4.167A4.168,4.168,0,0,1,54.742,56.63Z" transform="translate(-7.001 -6.74)" fill="#ebc25d"/>
      <g id="Grupo_1226183" data-name="Grupo 1226183" transform="translate(0.45 0)">
        <path id="Trazado_1059970" data-name="Trazado 1059970" d="M57.245,53.734a1.835,1.835,0,0,1-.137.7,1.429,1.429,0,0,1-.4.549,1.959,1.959,0,0,1-.609.369,2.281,2.281,0,0,1-.695.154l-.086.857-.034.086a.167.167,0,0,1-.111.086.432.432,0,0,1-.137.043,1.269,1.269,0,0,1-.189.009.946.946,0,0,1-.24-.017.483.483,0,0,1-.154-.043l-.043-.026-.077-.094a.282.282,0,0,1-.009-.146L54.4,55.5a2.275,2.275,0,0,1-.257-.051,2.628,2.628,0,0,1-.309-.094,2.147,2.147,0,0,1-.24-.111.533.533,0,0,1-.163-.12.4.4,0,0,1-.1-.2,1.424,1.424,0,0,1-.026-.309,2.1,2.1,0,0,1,.009-.249.744.744,0,0,1,.034-.18l.017-.026.086-.094a.242.242,0,0,1,.129-.034.461.461,0,0,1,.223.077,1.394,1.394,0,0,0,.257.137,2.612,2.612,0,0,0,.394.137,1.973,1.973,0,0,0,.532.06,1.123,1.123,0,0,0,.686-.163.471.471,0,0,0,.2-.412.391.391,0,0,0-.086-.274.744.744,0,0,0-.249-.206,1.755,1.755,0,0,0-.386-.172c-.146-.06-.3-.111-.454-.172s-.309-.137-.463-.214a2.066,2.066,0,0,1-.412-.309,1.414,1.414,0,0,1-.309-.463,1.759,1.759,0,0,1,0-1.278,1.539,1.539,0,0,1,.334-.5,1.774,1.774,0,0,1,.532-.343,2.249,2.249,0,0,1,.617-.163l.069-.815.034-.077a.343.343,0,0,1,.1-.086.8.8,0,0,1,.137-.034,1.268,1.268,0,0,1,.189-.009,1.944,1.944,0,0,1,.24.009.52.52,0,0,1,.163.051l.043.017.077.111a.506.506,0,0,1,.017.12l-.077.72a1,1,0,0,1,.154.034,2.4,2.4,0,0,1,.266.077,1.62,1.62,0,0,1,.214.094.4.4,0,0,1,.154.1l.077.1a.5.5,0,0,1,.043.12.75.75,0,0,1,.017.137c0,.06.009.12.009.18,0,.094-.009.163-.009.223a.588.588,0,0,1-.034.163l-.009.026-.069.077a.181.181,0,0,1-.111.043.51.51,0,0,1-.214-.069,1.47,1.47,0,0,0-.257-.12,2.391,2.391,0,0,0-.352-.12,1.59,1.59,0,0,0-.412-.06,1.481,1.481,0,0,0-.36.043.673.673,0,0,0-.223.1.442.442,0,0,0-.111.146.467.467,0,0,0-.043.189.4.4,0,0,0,.086.274.78.78,0,0,0,.257.206,1.659,1.659,0,0,0,.394.172l.454.172c.154.06.317.137.472.214a1.662,1.662,0,0,1,.42.309,1.572,1.572,0,0,1,.446,1.106Z" transform="translate(-7.981 -6.948)" fill="#2b2f64"/>
        <path id="Trazado_1059971" data-name="Trazado 1059971" d="M21.748,43.672a1.348,1.348,0,0,1-.111.575,1.2,1.2,0,0,1-.326.446,1.769,1.769,0,0,1-.5.292,2.123,2.123,0,0,1-.557.137l-.069.686-.026.069a.161.161,0,0,1-.094.069.285.285,0,0,1-.111.034c-.043,0-.094.009-.154.009a1.091,1.091,0,0,1-.189-.017.642.642,0,0,1-.137-.034l-.026-.017-.069-.086a.247.247,0,0,1-.009-.111l.069-.626a1.453,1.453,0,0,1-.206-.043c-.094-.026-.172-.051-.249-.077a2.148,2.148,0,0,1-.2-.094.429.429,0,0,1-.137-.094.343.343,0,0,1-.086-.154,1.02,1.02,0,0,1-.017-.249,1.457,1.457,0,0,1,.009-.206.277.277,0,0,1,.026-.137l.017-.026.06-.077a.264.264,0,0,1,.111-.026.315.315,0,0,1,.172.069c.06.034.137.069.214.111a1.683,1.683,0,0,0,.317.111,1.587,1.587,0,0,0,.429.051.923.923,0,0,0,.557-.137.381.381,0,0,0,.154-.334.316.316,0,0,0-.069-.223.609.609,0,0,0-.2-.163,1.684,1.684,0,0,0-.309-.137c-.129-.043-.24-.094-.377-.137s-.249-.111-.377-.172a1.4,1.4,0,0,1-.343-.249,1.137,1.137,0,0,1-.24-.377,1.238,1.238,0,0,1-.1-.523,1.213,1.213,0,0,1,.1-.506,1.139,1.139,0,0,1,.266-.4,1.383,1.383,0,0,1,.429-.283,1.935,1.935,0,0,1,.489-.129l.069-.66.026-.069a.17.17,0,0,1,.086-.06.4.4,0,0,1,.12-.034.74.74,0,0,1,.146-.009c.086,0,.137.009.189.009a.884.884,0,0,1,.137.043l.026.017.069.086a.353.353,0,0,1,.009.1l-.06.583c.043.009.086.017.137.026.077.017.137.043.206.06a1.887,1.887,0,0,1,.18.077.655.655,0,0,1,.129.086l.06.086a.307.307,0,0,1,.034.094.506.506,0,0,1,.017.12v.334q-.013.077-.026.129l-.009.026-.051.069a.2.2,0,0,1-.094.026.383.383,0,0,1-.172-.051,2.3,2.3,0,0,0-.206-.1,1.82,1.82,0,0,0-.283-.094,1.389,1.389,0,0,0-.343-.043.913.913,0,0,0-.283.034.354.354,0,0,0-.18.086.258.258,0,0,0-.094.12.314.314,0,0,0-.034.154.356.356,0,0,0,.069.214.667.667,0,0,0,.206.172,1.538,1.538,0,0,0,.317.137l.377.137c.129.051.257.111.386.172a1.4,1.4,0,0,1,.343.249,1.078,1.078,0,0,1,.249.369.928.928,0,0,1,.111.5Z" transform="translate(-3.029 -5.65)" fill="#2b2f64"/>
        <path id="Trazado_1059972" data-name="Trazado 1059972" d="M31.594,24.452v1.132a.832.832,0,1,1-1.664,0V24.452a.832.832,0,1,1,1.664,0Z" transform="translate(-4.651 -3.366)" fill="#2b2f64"/>
        <path id="Trazado_1059973" data-name="Trazado 1059973" d="M31.594,29.172v1.14a.832.832,0,1,1-1.664,0v-1.14a.832.832,0,0,1,1.664,0Z" transform="translate(-4.651 -4.038)" fill="#2b2f64"/>
        <path id="Trazado_1059974" data-name="Trazado 1059974" d="M31.594,33.912v1.132a.832.832,0,1,1-1.664,0V33.912a.833.833,0,0,1,.832-.832A.822.822,0,0,1,31.594,33.912Z" transform="translate(-4.651 -4.714)" fill="#2b2f64"/>
        <path id="Trazado_1059975" data-name="Trazado 1059975" d="M31.594,38.632v1.132a.832.832,0,1,1-1.664,0V38.632a.832.832,0,1,1,1.664,0Z" transform="translate(-4.651 -5.386)" fill="#2b2f64"/>
        <path id="Trazado_1059976" data-name="Trazado 1059976" d="M2.114,4.039A2.368,2.368,0,0,1,4.48,1.664h25.2a2.373,2.373,0,0,1,2.367,2.375v2a3.479,3.479,0,0,0-1.878-.566H3.991a3.457,3.457,0,0,0-1.878.566ZM21.587,37.173a4.009,4.009,0,1,1-4.013-4A4.007,4.007,0,0,1,21.587,37.173Zm19.894-1.638a.8.8,0,0,1-.8.8H23.191a5.69,5.69,0,0,0-2.075-3.61V19.911a.807.807,0,0,1,.8-.8H40.693a.807.807,0,0,1,.8.8v4.065h-2.2a3.747,3.747,0,0,0,0,7.495h2.2v4.065Zm.909-5.72H39.269a2.084,2.084,0,1,1,0-4.167H42.39Zm.832-5.831h-.086V19.92a2.467,2.467,0,0,0-2.461-2.461H33.713V4.039A4.038,4.038,0,0,0,29.682,0H4.48A4.033,4.033,0,0,0,.45,4.039V50.85a4.024,4.024,0,0,0,4.03,4.022h25.2a4.029,4.029,0,0,0,4.03-4.022V38h6.963a2.461,2.461,0,0,0,2.461-2.461V31.479h.086a.833.833,0,0,0,.832-.832v-5.84A.82.82,0,0,0,43.222,23.984ZM32.058,50.858a2.364,2.364,0,0,1-2.367,2.358H4.48a2.359,2.359,0,0,1-2.367-2.358V46.6a3.457,3.457,0,0,0,1.878.566H30.18a3.479,3.479,0,0,0,1.878-.566Zm0-33.408H21.9a2.461,2.461,0,0,0-2.461,2.461v11.9a5.9,5.9,0,0,0-1.869-.317A5.672,5.672,0,1,0,23.191,38h8.875v5.522a1.949,1.949,0,0,1-1.878,1.972H3.991a1.944,1.944,0,0,1-1.878-2V9.132a1.944,1.944,0,0,1,1.878-2H30.18a1.949,1.949,0,0,1,1.878,1.972Z" transform="translate(-0.45 0)" fill="#2b2f64"/>
      </g>
      <path id="Trazado_1059977" data-name="Trazado 1059977" d="M29.967,1.94H4.757A2.368,2.368,0,0,0,2.39,4.315v2a3.457,3.457,0,0,1,1.878-.566H30.456a3.479,3.479,0,0,1,1.878.566v-2A2.373,2.373,0,0,0,29.967,1.94ZM19.617,4.675h-7.2a.832.832,0,1,1,0-1.664h7.2a.832.832,0,0,1,0,1.664Zm2.7,0a.832.832,0,1,1-.009-1.664h.009a.832.832,0,0,1,0,1.664Z" transform="translate(-0.276 -0.276)" fill="#f26e62"/>
      <path id="Trazado_1059978" data-name="Trazado 1059978" d="M30.456,54.9H4.268A3.457,3.457,0,0,1,2.39,54.33v4.262A2.359,2.359,0,0,0,4.757,60.95h25.2a2.364,2.364,0,0,0,2.367-2.358V54.33a3.428,3.428,0,0,1-1.869.566Zm-13.1,5.3a2.264,2.264,0,1,1,2.264-2.264A2.26,2.26,0,0,1,17.353,60.2Z" transform="translate(-0.276 -7.742)" fill="#f26e62"/>
      <path id="Trazado_1059979" data-name="Trazado 1059979" d="M32.334,4.315v2A3.589,3.589,0,0,0,30.7,5.756V5.7A2.19,2.19,0,0,0,28.6,3.449H23.056a.834.834,0,0,0-.737-.437H22.31a.811.811,0,0,0-.729.437H20.346a.811.811,0,0,0-.729-.437h-7.2a.811.811,0,0,0-.729.437H6.129A2.173,2.173,0,0,0,4.019,5.7v.06a3.52,3.52,0,0,0-1.629.557v-2A2.368,2.368,0,0,1,4.757,1.94h25.2A2.375,2.375,0,0,1,32.334,4.315Z" transform="translate(-0.276 -0.276)" fill="#e15f5a"/>
      <path id="Trazado_1059980" data-name="Trazado 1059980" d="M32.334,54.33v4.262a2.364,2.364,0,0,1-2.367,2.358H4.757A2.359,2.359,0,0,1,2.39,58.592V54.33a3.52,3.52,0,0,0,1.629.557V57.22a2.169,2.169,0,0,0,2.109,2.23H15.69a2.247,2.247,0,0,0,3.344,0H28.6A2.169,2.169,0,0,0,30.7,57.22V54.887a3.589,3.589,0,0,0,1.629-.557Z" transform="translate(-0.276 -7.742)" fill="#e15f5a"/>
      <path id="Trazado_1059981" data-name="Trazado 1059981" d="M20.342,58.43a.6.6,0,1,1-1.192,0,.6.6,0,1,1,1.192,0Z" transform="translate(-2.665 -8.241)" fill="#ededee"/>
      <path id="Trazado_1059982" data-name="Trazado 1059982" d="M12.174,38.358a5.673,5.673,0,0,0,11.285.832h8.875v5.522a1.949,1.949,0,0,1-1.878,1.972H4.268a1.944,1.944,0,0,1-1.878-2V10.318a1.944,1.944,0,0,1,1.878-2H30.456a1.949,1.949,0,0,1,1.878,1.972v8.352H22.181a2.461,2.461,0,0,0-2.461,2.461V33a5.9,5.9,0,0,0-1.869-.317,5.683,5.683,0,0,0-5.677,5.677Z" transform="translate(-0.276 -1.186)" fill="#ededee"/>
      <path id="Trazado_1059983" data-name="Trazado 1059983" d="M30.782,18.636V11.63A1.772,1.772,0,0,0,29.1,9.812H5.623a1.768,1.768,0,0,0-1.681,1.844V43.349a1.768,1.768,0,0,0,1.681,1.844h23.47a1.772,1.772,0,0,0,1.681-1.818V39.19h1.552v5.522a1.949,1.949,0,0,1-1.878,1.972H4.268a1.944,1.944,0,0,1-1.878-2V10.318a1.944,1.944,0,0,1,1.878-2H30.456a1.949,1.949,0,0,1,1.878,1.972v8.352H30.782Z" transform="translate(-0.276 -1.186)" fill="#d7d6d6"/>
      <path id="Trazado_1059984" data-name="Trazado 1059984" d="M48.426,29.909H45.374a2.084,2.084,0,1,0,0,4.167H48.5V29.9h-.069ZM45.1,32.824a.832.832,0,0,1-.009-1.664H45.1a.832.832,0,0,1,0,1.664Z" transform="translate(-6.105 -4.261)" fill="#ededee"/>
      <path id="Trazado_1059985" data-name="Trazado 1059985" d="M49.153,29.91v4.176H47.91V29.91h1.183Z" transform="translate(-6.763 -4.262)" fill="#d7d6d6"/>
      <path id="Trazado_1059986" data-name="Trazado 1059986" d="M42.71,27.162h2.2V23.1a.807.807,0,0,0-.8-.8H25.337a.807.807,0,0,0-.8.8V35.909a5.69,5.69,0,0,1,2.075,3.61H44.108a.8.8,0,0,0,.8-.8V34.665H42.7a3.752,3.752,0,1,1,.009-7.5ZM30.825,37.555a.832.832,0,0,1-1.664,0V36.423a.832.832,0,1,1,1.664,0Zm0-4.056a.832.832,0,1,1-1.664,0V32.367a.832.832,0,1,1,1.664,0Zm0-4.047a.832.832,0,0,1-1.664,0v-1.14a.832.832,0,0,1,1.664,0Zm0-4.056a.832.832,0,1,1-1.664,0V24.264a.832.832,0,1,1,1.664,0Z" transform="translate(-3.433 -3.178)" fill="#b8dae8"/>
      <path id="Trazado_1059987" data-name="Trazado 1059987" d="M44.914,23.087v4.065H43.577V24.108a.688.688,0,0,0-.686-.686H26.564a.688.688,0,0,0-.686.686V37.433A5.737,5.737,0,0,0,24.54,35.9V23.087a.807.807,0,0,1,.8-.8H44.117a.807.807,0,0,1,.8.8Z" transform="translate(-3.433 -3.176)" fill="#a0c3d8"/>
      <path id="Trazado_1059988" data-name="Trazado 1059988" d="M45.212,36.71v4.056a.8.8,0,0,1-.8.8H26.922a5.483,5.483,0,0,0-.292-1.132H43.188a.683.683,0,0,0,.686-.686V36.71Z" transform="translate(-3.731 -5.231)" fill="#a0c3d8"/>
      <path id="Trazado_1059989" data-name="Trazado 1059989" d="M19.755,38.67a4.009,4.009,0,1,0,4.013,4A4,4,0,0,0,19.755,38.67Zm1.483,5.437a1.2,1.2,0,0,1-.326.446,1.769,1.769,0,0,1-.5.292,2.123,2.123,0,0,1-.557.137l-.069.686-.026.069a.161.161,0,0,1-.094.069.285.285,0,0,1-.111.034c-.043,0-.094.009-.154.009a1.091,1.091,0,0,1-.189-.017.642.642,0,0,1-.137-.034l-.026-.017-.069-.086a.247.247,0,0,1-.009-.111l.069-.626a1.453,1.453,0,0,1-.206-.043c-.094-.026-.172-.051-.249-.077a2.148,2.148,0,0,1-.2-.094.429.429,0,0,1-.137-.094.343.343,0,0,1-.086-.154,1.02,1.02,0,0,1-.017-.249,1.457,1.457,0,0,1,.009-.206.277.277,0,0,1,.026-.137l.017-.026.06-.077a.264.264,0,0,1,.111-.026.315.315,0,0,1,.172.069c.06.034.137.069.214.111a1.683,1.683,0,0,0,.317.111,1.587,1.587,0,0,0,.429.051.923.923,0,0,0,.557-.137.381.381,0,0,0,.154-.334.316.316,0,0,0-.069-.223.609.609,0,0,0-.2-.163,1.684,1.684,0,0,0-.309-.137c-.129-.043-.24-.094-.377-.137s-.249-.111-.377-.172a1.4,1.4,0,0,1-.343-.249,1.137,1.137,0,0,1-.24-.377,1.238,1.238,0,0,1-.1-.523,1.213,1.213,0,0,1,.1-.506,1.139,1.139,0,0,1,.266-.4A1.383,1.383,0,0,1,19,40.471a1.935,1.935,0,0,1,.489-.129l.069-.66.026-.069a.17.17,0,0,1,.086-.06.4.4,0,0,1,.12-.034.74.74,0,0,1,.146-.009c.086,0,.137.009.189.009a.884.884,0,0,1,.137.043l.026.017.069.086a.353.353,0,0,1,.009.1l-.06.583c.043.009.086.017.137.026.077.017.137.043.206.06a1.887,1.887,0,0,1,.18.077.655.655,0,0,1,.129.086l.06.086a.307.307,0,0,1,.034.094.506.506,0,0,1,.017.12v.334q-.013.077-.026.129l-.009.026-.051.069a.2.2,0,0,1-.094.026.383.383,0,0,1-.172-.051,2.3,2.3,0,0,0-.206-.1,1.82,1.82,0,0,0-.283-.094,1.389,1.389,0,0,0-.343-.043.913.913,0,0,0-.283.034.354.354,0,0,0-.18.086.258.258,0,0,0-.094.12.314.314,0,0,0-.034.154.356.356,0,0,0,.069.214.667.667,0,0,0,.206.172,1.538,1.538,0,0,0,.317.137l.377.137c.129.051.257.111.386.172a1.4,1.4,0,0,1,.343.249,1.078,1.078,0,0,1,.249.369,1.225,1.225,0,0,1,.094.514,1.081,1.081,0,0,1-.094.557Z" transform="translate(-2.18 -5.51)" fill="#ffdc7d"/>
      <path id="Trazado_1059990" data-name="Trazado 1059990" d="M19.755,38.67a4.009,4.009,0,1,0,4.013,4A4,4,0,0,0,19.755,38.67Zm0,7.134h-.077a.285.285,0,0,1-.111.034c-.043,0-.094.009-.154.009a1.092,1.092,0,0,1-.189-.017.643.643,0,0,1-.137-.034l-.026-.017L19,45.71a3.126,3.126,0,0,1,.686-6.157h.009a.4.4,0,0,1,.12-.034.739.739,0,0,1,.146-.009c.086,0,.137.009.189.009a.884.884,0,0,1,.137.043l.026.017.026.034a3.123,3.123,0,0,1-.583,6.191Z" transform="translate(-2.18 -5.51)" fill="#ebc25d"/>
      <path id="Trazado_1059991" data-name="Trazado 1059991" d="M46.094,32.2a.832.832,0,1,1-.84-.832h.009a.833.833,0,0,1,.832.832Z" transform="translate(-6.267 -4.47)" fill="#2b2f64"/>
      <path id="Trazado_1059992" data-name="Trazado 1059992" d="M54.742,5.34A5.158,5.158,0,1,0,59.9,10.5,5.173,5.173,0,0,0,54.742,5.34Zm0,9.33A4.172,4.172,0,1,1,58.91,10.5,4.168,4.168,0,0,1,54.742,14.67Z" transform="translate(-7.001 -0.761)" fill="#ebc25d"/>
    </g>
  </g>
</svg>
