<svg xmlns="http://www.w3.org/2000/svg" xmlns:xlink="http://www.w3.org/1999/xlink" width="108" height="108" viewBox="0 0 108 108">
  <defs>
    <filter id="Trazado_904820" x="0" y="0" width="108" height="108" filterUnits="userSpaceOnUse">
      <feOffset dy="3" input="SourceAlpha"/>
      <feGaussianBlur stdDeviation="3" result="blur"/>
      <feFlood flood-opacity="0.161"/>
      <feComposite operator="in" in2="blur"/>
      <feComposite in="SourceGraphic"/>
    </filter>
  </defs>
  <g id="Grupo_1226383" data-name="Grupo 1226383" transform="translate(-197.999 -4026.926)">
    <g id="Grupo_1226382" data-name="Grupo 1226382" transform="translate(0 -2925.719)">
      <g id="Grupo_1225798" data-name="Grupo 1225798" transform="translate(206.999 6958.646)">
        <g id="Grupo_1225716" data-name="Grupo 1225716" transform="translate(0 0)">
          <g id="Grupo_1211534" data-name="Grupo 1211534">
            <g id="Grupo_1173585" data-name="Grupo 1173585" transform="translate(0 0)">
              <g id="Grupo_1173428" data-name="Grupo 1173428">
                <g id="Grupo_1171958" data-name="Grupo 1171958">
                  <g id="Grupo_1167341" data-name="Grupo 1167341">
                    <g id="Grupo_1166792" data-name="Grupo 1166792">
                      <g transform="matrix(1, 0, 0, 1, -9, -6)" filter="url(#Trazado_904820)">
                        <g id="Trazado_904820-2" data-name="Trazado 904820" transform="translate(9 6)" fill="#fceefb">
                          <path d="M 44.99999618530273 88.50003814697266 C 39.12687301635742 88.50003814697266 33.43022155761719 87.35011291503906 28.06829643249512 85.08219909667969 C 22.88852119445801 82.89134979248047 18.23629570007324 79.75462341308594 14.24084663391113 75.75917053222656 C 10.24540901184082 71.76372528076172 7.108683586120605 67.11149597167969 4.917821407318115 61.93172454833984 C 2.649921178817749 56.56979751586914 1.499996185302734 50.87314605712891 1.499996185302734 45.00002288818359 C 1.499996185302734 39.12689971923828 2.649921178817749 33.43024826049805 4.917821407318115 28.06832313537598 C 7.108683586120605 22.88854789733887 10.24540901184082 18.2363224029541 14.24084663391113 14.24087333679199 C 18.23629570007324 10.24543571472168 22.88852119445801 7.108710289001465 28.06829643249512 4.917848110198975 C 33.43022155761719 2.649947881698608 39.12687301635742 1.500022888183594 44.99999618530273 1.500022888183594 C 50.87311935424805 1.500022888183594 56.56977081298828 2.649947881698608 61.93169784545898 4.917848110198975 C 67.11147308349609 7.108710289001465 71.76369476318359 10.24543571472168 75.75914764404297 14.24087333679199 C 79.75458526611328 18.2363224029541 82.89131164550781 22.88854789733887 85.08216857910156 28.06832313537598 C 87.35007476806641 33.43024826049805 88.5 39.12689971923828 88.5 45.00002288818359 C 88.5 50.87314605712891 87.35007476806641 56.56979751586914 85.08216857910156 61.93172454833984 C 82.89131164550781 67.11149597167969 79.75458526611328 71.76372528076172 75.75914764404297 75.75917053222656 C 71.76369476318359 79.75462341308594 67.11147308349609 82.89134979248047 61.93169784545898 85.08219909667969 C 56.56977081298828 87.35011291503906 50.87311935424805 88.50003814697266 44.99999618530273 88.50003814697266 Z" stroke="none"/>
                          <path d="M 44.99999618530273 3.000007629394531 C 39.32870864868164 3.000007629394531 33.82865142822266 4.110069274902344 28.65262603759766 6.299354553222656 C 23.65165710449219 8.414581298828125 19.15968322753906 11.44335174560547 15.301513671875 15.30153656005859 C 11.44333648681641 19.15970611572266 8.414566040039062 23.65166473388672 6.299339294433594 28.65265274047852 C 4.110054016113281 33.82867813110352 2.999992370605469 39.3287353515625 2.999992370605469 45.00002288818359 C 2.999992370605469 50.67131042480469 4.110054016113281 56.17135238647461 6.299339294433594 61.34739685058594 C 8.414566040039062 66.34836578369141 11.44333648681641 70.84032440185547 15.301513671875 74.69850921630859 C 19.15968322753906 78.55667877197266 23.65165710449219 81.58544921875 28.65262603759766 83.70068359375 C 33.82865142822266 85.88996887207031 39.32870864868164 87.00002288818359 44.99999618530273 87.00002288818359 C 50.67128372192383 87.00002288818359 56.17134094238281 85.88996887207031 61.34736633300781 83.70068359375 C 66.34834289550781 81.58544921875 70.84030914306641 78.55667877197266 74.69847869873047 74.69850921630859 C 78.55665588378906 70.84032440185547 81.58542633056641 66.34836578369141 83.70065307617188 61.34739685058594 C 85.88993835449219 56.17135238647461 87 50.67131042480469 87 45.00002288818359 C 87 39.3287353515625 85.88993835449219 33.82867813110352 83.70065307617188 28.65265274047852 C 81.58542633056641 23.65166473388672 78.55665588378906 19.15970611572266 74.69847869873047 15.30153656005859 C 70.84030914306641 11.44335174560547 66.34834289550781 8.414581298828125 61.34736633300781 6.299354553222656 C 56.17134094238281 4.110069274902344 50.67128372192383 3.000007629394531 44.99999618530273 3.000007629394531 M 44.99999618530273 7.62939453125e-06 C 69.85281372070312 7.62939453125e-06 90 20.14720916748047 90 45.00002288818359 C 90 69.85282135009766 69.85281372070312 90.00002288818359 44.99999618530273 90.00002288818359 C 20.14717864990234 90.00002288818359 -7.62939453125e-06 69.85282135009766 -7.62939453125e-06 45.00002288818359 C -7.62939453125e-06 20.14720916748047 20.14717864990234 7.62939453125e-06 44.99999618530273 7.62939453125e-06 Z" stroke="none" fill="#e761e1"/>
                        </g>
                      </g>
                    </g>
                  </g>
                </g>
              </g>
            </g>
          </g>
        </g>
      </g>
    </g>
    <g id="gestion-de-datos" transform="translate(209.592 3995.591)">
      <path id="Trazado_1060337" data-name="Trazado 1060337" d="M124.111,161.688h-2.182a.968.968,0,0,1-.879-.562l-.627-1.359-.892-.371-1.4.517a.968.968,0,0,1-1.019-.224l-1.544-1.544a.968.968,0,0,1-.224-1.02l.517-1.4-.37-.895-.941-.435H82.01v25.669H96.252a.968.968,0,0,1,.968.968v1.69h11.69v-1.69a.968.968,0,0,1,.968-.968h14.277V161.685c-.015,0-.029,0-.044,0Z" transform="translate(-60.659 -84.355)" fill="#c8effe"/>
      <path id="Trazado_1060338" data-name="Trazado 1060338" d="M53.4,80.635l-1.773-.819-.533-1.287.675-1.833a.968.968,0,0,0-.224-1.019l-1.921-1.921a.968.968,0,0,0-1.019-.224l-1.837.675-1.284-.533L44.664,71.9a.968.968,0,0,0-.879-.562h-2.72a.968.968,0,0,0-.879.562l-.819,1.773-1.284.533-1.837-.675a.968.968,0,0,0-1.019.224l-1.921,1.921a.968.968,0,0,0-.224,1.019l.675,1.833-.533,1.287-1.773.819a.968.968,0,0,0-.562.879v2.717a.968.968,0,0,0,.561.878l1.774.822.533,1.285-.675,1.837a.968.968,0,0,0,.224,1.019l1.921,1.921a.968.968,0,0,0,1.019.224l1.837-.676,1.283.531.819,1.776a.968.968,0,0,0,.879.563h2.72a.968.968,0,0,0,.879-.563l.819-1.776,1.283-.531,1.837.676a.968.968,0,0,0,1.019-.224l1.921-1.921a.968.968,0,0,0,.224-1.019l-.675-1.837.533-1.284,1.774-.822a.968.968,0,0,0,.561-.878V81.514a.968.968,0,0,0-.562-.879Zm-1.374,2.977-1.556.721a.968.968,0,0,0-.487.507l-.823,1.983a.969.969,0,0,0-.015.705l.592,1.611-1.046,1.046-1.611-.592a.969.969,0,0,0-.7.014l-1.983.82a.968.968,0,0,0-.509.489l-.718,1.557H41.685l-.718-1.557a.968.968,0,0,0-.509-.489l-1.983-.82a.967.967,0,0,0-.7-.014l-1.611.592L35.114,89.14l.592-1.611a.969.969,0,0,0-.015-.705l-.823-1.983a.968.968,0,0,0-.487-.507l-1.556-.721V82.133l1.554-.718a.968.968,0,0,0,.488-.508l.823-1.986a.967.967,0,0,0,.014-.705l-.592-1.607,1.045-1.045,1.611.592a.969.969,0,0,0,.706-.015l1.983-.823a.968.968,0,0,0,.508-.488l.718-1.554h1.482l.718,1.554a.968.968,0,0,0,.508.488l1.983.823a.967.967,0,0,0,.706.015l1.611-.592,1.045,1.045-.592,1.607a.969.969,0,0,0,.014.705l.823,1.986a.969.969,0,0,0,.488.508l1.555.718v1.479Zm-9.6-5.324a4.585,4.585,0,1,0,4.587,4.584A4.589,4.589,0,0,0,42.424,78.288Zm0,7.235a2.649,2.649,0,1,1,2.651-2.651A2.652,2.652,0,0,1,42.424,85.523ZM71.251,65.908l-1.358-.627-.369-.892.517-1.4a.968.968,0,0,0-.225-1.02l-1.544-1.54a.968.968,0,0,0-1.017-.224l-1.405.515-.893-.369-.627-1.358a.968.968,0,0,0-.879-.562H61.271a.968.968,0,0,0-.879.562l-.627,1.358-.893.369L57.467,60.2a.968.968,0,0,0-1.017.224l-1.544,1.54a.968.968,0,0,0-.225,1.02l.459,1.246H20.407a4.867,4.867,0,0,0-4.862,4.862V95.708H13.968a.968.968,0,0,0-.968.968v3.99a5.583,5.583,0,0,0,5.575,5.579H66.238a5.583,5.583,0,0,0,5.575-5.579v-3.99a.968.968,0,0,0-.968-.968h-1.54V74.3l.512-.512a.968.968,0,0,0,.224-1.02l-.517-1.4.369-.895,1.357-.627a.968.968,0,0,0,.562-.879V66.787a.968.968,0,0,0-.562-.879ZM54.905,73.79l1.544,1.544a.968.968,0,0,0,1.019.224l1.4-.517.892.371.627,1.359a.968.968,0,0,0,.879.562h2.182c.015,0,.029,0,.044,0V95.708H49.22a.968.968,0,0,0-.968.968v1.69H36.562v-1.69a.968.968,0,0,0-.968-.968H21.351V70.04H53.888l.941.435.37.895-.517,1.4a.968.968,0,0,0,.224,1.02Zm-37.424-4.7a2.925,2.925,0,0,1,2.925-2.925H53.136a.967.967,0,0,0-.226.62V68.1h-32.5a.967.967,0,0,0-.433.1,1.042,1.042,0,0,0-.276.2.968.968,0,0,0-.284.684V95.708H17.482V69.092Zm52.4,31.574a3.645,3.645,0,0,1-3.639,3.642H18.575a3.645,3.645,0,0,1-3.639-3.642V97.645H34.626v1.69a.968.968,0,0,0,.968.968H49.219a.968.968,0,0,0,.968-.968v-1.69H69.877Zm-4.445-4.958V75.215l.419-.174,1.4.517a.954.954,0,0,0,.114.033V95.708Zm4.445-27.359-1.139.526a.968.968,0,0,0-.489.509l-.659,1.6a.967.967,0,0,0-.013.7l.434,1.175-.667.667-1.179-.434a.969.969,0,0,0-.706.015l-1.592.662a.968.968,0,0,0-.507.488L62.833,75.4H61.89l-.526-1.139a.969.969,0,0,0-.507-.488l-1.592-.662a.969.969,0,0,0-.706-.015l-1.179.434-.667-.667.434-1.175a.969.969,0,0,0-.013-.7l-.659-1.6a.968.968,0,0,0-.489-.509l-1.139-.526v-.943l1.139-.526a.968.968,0,0,0,.489-.509l.659-1.592a.967.967,0,0,0,.014-.7L56.713,62.9l.668-.666,1.18.432a.968.968,0,0,0,.7-.014l1.592-.659a.968.968,0,0,0,.509-.489l.526-1.139h.943l.526,1.139a.968.968,0,0,0,.509.489l1.592.659a.968.968,0,0,0,.7.014l1.18-.432.668.666-.434,1.178a.969.969,0,0,0,.014.7l.659,1.592a.969.969,0,0,0,.489.509l1.139.526v.943Zm-7.515-4.342a3.872,3.872,0,1,0,3.87,3.87A3.875,3.875,0,0,0,62.361,64.008Zm0,5.808A1.936,1.936,0,1,1,64.3,67.878,1.938,1.938,0,0,1,62.361,69.815Z" transform="translate(0 0)"/>
      <path id="Trazado_1060339" data-name="Trazado 1060339" d="M178.875,192.691l.823,1.983a.969.969,0,0,1,.015.705l-.592,1.611,1.046,1.046,1.611-.592a.969.969,0,0,1,.7.014l1.983.82a.968.968,0,0,1,.509.489l.718,1.557h1.481l.718-1.557a.968.968,0,0,1,.509-.489l1.983-.82a.967.967,0,0,1,.7-.014l1.611.592,1.046-1.046-.592-1.611a.969.969,0,0,1,.015-.705l.823-1.983a.968.968,0,0,1,.487-.507l1.556-.721v-1.479l-1.555-.718a.968.968,0,0,1-.488-.508l-.823-1.986a.967.967,0,0,1-.014-.705l.592-1.607-1.045-1.045-1.611.592a.967.967,0,0,1-.706-.015l-1.983-.823a.968.968,0,0,1-.508-.488l-.718-1.554h-1.482l-.718,1.554a.968.968,0,0,1-.508.488l-1.983.823a.969.969,0,0,1-.706.015l-1.611-.592-1.045,1.045.592,1.607a.969.969,0,0,1-.014.705l-.823,1.986a.969.969,0,0,1-.488.508l-1.554.718v1.479l1.556.721a.968.968,0,0,1,.487.507Zm7.555-6.552a4.585,4.585,0,1,1-4.584,4.584A4.591,4.591,0,0,1,186.431,186.139Z" transform="translate(-144.007 -107.851)" fill="#efba43"/>
      <path id="Trazado_1060340" data-name="Trazado 1060340" d="M51.967,125.316a.968.968,0,0,1,.284-.684,1.043,1.043,0,0,1,.276-.2.967.967,0,0,1,.433-.1h32.5v-1.317a.967.967,0,0,1,.226-.62H52.959a2.925,2.925,0,0,0-2.925,2.925v26.616h1.933Z" transform="translate(-32.552 -56.224)" fill="#8379c1"/>
      <path id="Trazado_1060341" data-name="Trazado 1060341" d="M64.251,384.2a.968.968,0,0,1-.968.968H49.657a.968.968,0,0,1-.968-.968v-1.69H29v3.021a3.645,3.645,0,0,0,3.639,3.642H80.3a3.645,3.645,0,0,0,3.639-3.642v-3.021H64.251v1.69Z" transform="translate(-14.064 -284.862)" fill="#a5c6e3"/>
      <path id="Trazado_1060342" data-name="Trazado 1060342" d="M372.2,80.435l-.659-1.592a.967.967,0,0,1-.014-.7l.434-1.178-.668-.666-1.18.432a.968.968,0,0,1-.7-.014l-1.592-.659a.968.968,0,0,1-.509-.489l-.526-1.139h-.943l-.526,1.139a.968.968,0,0,1-.509.489l-1.592.659a.968.968,0,0,1-.7.014l-1.18-.432-.668.666.434,1.178a.968.968,0,0,1-.014.7l-.659,1.592a.968.968,0,0,1-.489.509l-1.139.526v.943l1.139.526a.969.969,0,0,1,.489.509l.659,1.6a.967.967,0,0,1,.013.7l-.434,1.175.667.667,1.179-.434a.969.969,0,0,1,.706.015l1.592.662a.968.968,0,0,1,.507.488l.526,1.139h.943l.526-1.139a.969.969,0,0,1,.507-.488l1.592-.662a.969.969,0,0,1,.706-.015l1.179.434.667-.667-.434-1.175a.969.969,0,0,1,.013-.7l.659-1.6a.968.968,0,0,1,.489-.509l1.139-.526V81.47l-1.139-.526a.968.968,0,0,1-.489-.509Zm-5.887,5.38a3.872,3.872,0,1,1,3.87-3.874A3.876,3.876,0,0,1,366.309,85.815Z" transform="translate(-303.948 -14.064)" fill="#efba43"/>
      <path id="Trazado_1060343" data-name="Trazado 1060343" d="M406.849,120.548a1.936,1.936,0,1,0,1.934,1.934A1.936,1.936,0,0,0,406.849,120.548Z" transform="translate(-344.487 -54.604)" fill="#c8effe"/>
      <path id="Trazado_1060344" data-name="Trazado 1060344" d="M448.1,196.237l-1.4-.517-.419.174v20.493h1.937V196.27A.945.945,0,0,1,448.1,196.237Z" transform="translate(-380.841 -120.679)" fill="#8379c1"/>
    </g>
  </g>
</svg>
