<svg xmlns="http://www.w3.org/2000/svg" xmlns:xlink="http://www.w3.org/1999/xlink" width="108" height="108" viewBox="0 0 108 108">
  <defs>
    <filter id="Trazado_904820" x="0" y="0" width="108" height="108" filterUnits="userSpaceOnUse">
      <feOffset dy="3" input="SourceAlpha"/>
      <feGaussianBlur stdDeviation="3" result="blur"/>
      <feFlood flood-opacity="0.161"/>
      <feComposite operator="in" in2="blur"/>
      <feComposite in="SourceGraphic"/>
    </filter>
  </defs>
  <g id="Grupo_1225800" data-name="Grupo 1225800" transform="translate(-197.999 -6952.646)">
    <g id="Grupo_1225798" data-name="Grupo 1225798" transform="translate(206.999 6958.646)">
      <g id="Grupo_1225716" data-name="Grupo 1225716" transform="translate(0 0)">
        <g id="Grupo_1211534" data-name="Grupo 1211534">
          <g id="Grupo_1173585" data-name="Grupo 1173585" transform="translate(0 0)">
            <g id="Grupo_1173428" data-name="Grupo 1173428">
              <g id="Grupo_1171958" data-name="Grupo 1171958">
                <g id="Grupo_1167341" data-name="Grupo 1167341">
                  <g id="Grupo_1166792" data-name="Grupo 1166792">
                    <g transform="matrix(1, 0, 0, 1, -9, -6)" filter="url(#Trazado_904820)">
                      <g id="Trazado_904820-2" data-name="Trazado 904820" transform="translate(9 6)" fill="#fceefb">
                        <path d="M 44.99999618530273 88.50003814697266 C 39.12687301635742 88.50003814697266 33.43022155761719 87.35011291503906 28.06829643249512 85.08219909667969 C 22.88852119445801 82.89134979248047 18.23629570007324 79.75462341308594 14.24084663391113 75.75917053222656 C 10.24540901184082 71.76372528076172 7.108683586120605 67.11149597167969 4.917821407318115 61.93172454833984 C 2.649921178817749 56.56979751586914 1.499996185302734 50.87314605712891 1.499996185302734 45.00002288818359 C 1.499996185302734 39.12689971923828 2.649921178817749 33.43024826049805 4.917821407318115 28.06832313537598 C 7.108683586120605 22.88854789733887 10.24540901184082 18.2363224029541 14.24084663391113 14.24087333679199 C 18.23629570007324 10.24543571472168 22.88852119445801 7.108710289001465 28.06829643249512 4.917848110198975 C 33.43022155761719 2.649947881698608 39.12687301635742 1.500022888183594 44.99999618530273 1.500022888183594 C 50.87311935424805 1.500022888183594 56.56977081298828 2.649947881698608 61.93169784545898 4.917848110198975 C 67.11147308349609 7.108710289001465 71.76369476318359 10.24543571472168 75.75914764404297 14.24087333679199 C 79.75458526611328 18.2363224029541 82.89131164550781 22.88854789733887 85.08216857910156 28.06832313537598 C 87.35007476806641 33.43024826049805 88.5 39.12689971923828 88.5 45.00002288818359 C 88.5 50.87314605712891 87.35007476806641 56.56979751586914 85.08216857910156 61.93172454833984 C 82.89131164550781 67.11149597167969 79.75458526611328 71.76372528076172 75.75914764404297 75.75917053222656 C 71.76369476318359 79.75462341308594 67.11147308349609 82.89134979248047 61.93169784545898 85.08219909667969 C 56.56977081298828 87.35011291503906 50.87311935424805 88.50003814697266 44.99999618530273 88.50003814697266 Z" stroke="none"/>
                        <path d="M 44.99999618530273 3.000007629394531 C 39.32870864868164 3.000007629394531 33.82865142822266 4.110069274902344 28.65262603759766 6.299354553222656 C 23.65165710449219 8.414581298828125 19.15968322753906 11.44335174560547 15.301513671875 15.30153656005859 C 11.44333648681641 19.15970611572266 8.414566040039062 23.65166473388672 6.299339294433594 28.65265274047852 C 4.110054016113281 33.82867813110352 2.999992370605469 39.3287353515625 2.999992370605469 45.00002288818359 C 2.999992370605469 50.67131042480469 4.110054016113281 56.17135238647461 6.299339294433594 61.34739685058594 C 8.414566040039062 66.34836578369141 11.44333648681641 70.84032440185547 15.301513671875 74.69850921630859 C 19.15968322753906 78.55667877197266 23.65165710449219 81.58544921875 28.65262603759766 83.70068359375 C 33.82865142822266 85.88996887207031 39.32870864868164 87.00002288818359 44.99999618530273 87.00002288818359 C 50.67128372192383 87.00002288818359 56.17134094238281 85.88996887207031 61.34736633300781 83.70068359375 C 66.34834289550781 81.58544921875 70.84030914306641 78.55667877197266 74.69847869873047 74.69850921630859 C 78.55665588378906 70.84032440185547 81.58542633056641 66.34836578369141 83.70065307617188 61.34739685058594 C 85.88993835449219 56.17135238647461 87 50.67131042480469 87 45.00002288818359 C 87 39.3287353515625 85.88993835449219 33.82867813110352 83.70065307617188 28.65265274047852 C 81.58542633056641 23.65166473388672 78.55665588378906 19.15970611572266 74.69847869873047 15.30153656005859 C 70.84030914306641 11.44335174560547 66.34834289550781 8.414581298828125 61.34736633300781 6.299354553222656 C 56.17134094238281 4.110069274902344 50.67128372192383 3.000007629394531 44.99999618530273 3.000007629394531 M 44.99999618530273 7.62939453125e-06 C 69.85281372070312 7.62939453125e-06 90 20.14720916748047 90 45.00002288818359 C 90 69.85282135009766 69.85281372070312 90.00002288818359 44.99999618530273 90.00002288818359 C 20.14717864990234 90.00002288818359 -7.62939453125e-06 69.85282135009766 -7.62939453125e-06 45.00002288818359 C -7.62939453125e-06 20.14720916748047 20.14717864990234 7.62939453125e-06 44.99999618530273 7.62939453125e-06 Z" stroke="none" fill="#e761e1"/>
                      </g>
                    </g>
                  </g>
                </g>
              </g>
            </g>
          </g>
        </g>
      </g>
    </g>
    <g id="delivery_food_package_shipping_mobilephone" data-name="delivery, food, package, shipping,mobilephone" transform="translate(220.048 6970.738)">
      <path id="Trazado_1059693" data-name="Trazado 1059693" d="M47.892,50.081H21.541a4.216,4.216,0,0,1-4.216-4.216V33.216A4.216,4.216,0,0,0,13.108,29H12.054A1.054,1.054,0,0,0,11,30.054V46.919a6.324,6.324,0,0,0,2.53,5.059l3.373,2.53a6.324,6.324,0,0,1,2.53,5.059v4.216H42.622V60.9a4.216,4.216,0,0,1,2.047-3.615l1.176-.706a4.216,4.216,0,0,0,2.047-3.615Z" transform="translate(0.054 1.459)" fill="#ff9478"/>
      <rect id="Rectángulo_422375" data-name="Rectángulo 422375" width="31.622" height="48.486" rx="4" transform="translate(17.378 3.054)" fill="#006df0"/>
      <path id="Trazado_1059694" data-name="Trazado 1059694" d="M43.189,48.162H22.108A2.114,2.114,0,0,1,20,46.054V8.108A2.114,2.114,0,0,1,22.108,6h4.142A2.088,2.088,0,0,1,28,6.938l.864,1.286a2.088,2.088,0,0,0,1.75.938h4.069a2.088,2.088,0,0,0,1.75-.938L37.3,6.938A2.088,2.088,0,0,1,39.047,6h4.142A2.114,2.114,0,0,1,45.3,8.108V46.054a2.114,2.114,0,0,1-2.108,2.108Z" transform="translate(0.541 0.216)" fill="#ffeb99"/>
      <path id="Trazado_1059695" data-name="Trazado 1059695" d="M43.189,6H42.135V26.027A19.029,19.029,0,0,1,23.162,45H20v1.054a2.114,2.114,0,0,0,2.108,2.108H43.189A2.114,2.114,0,0,0,45.3,46.054V8.108A2.114,2.114,0,0,0,43.189,6Z" transform="translate(0.541 0.216)" fill="#ffe477"/>
      <path id="Trazado_1059696" data-name="Trazado 1059696" d="M43.966,29.244a2.651,2.651,0,0,0,.409-.334l.409-.409a2.6,2.6,0,0,0-.409.334Z" transform="translate(1.836 1.432)" fill="#9bc9ff"/>
      <path id="Trazado_1059697" data-name="Trazado 1059697" d="M26,19H38.649v4.216H26Z" transform="translate(0.865 0.919)" fill="#8b5e3c"/>
      <path id="Trazado_1059698" data-name="Trazado 1059698" d="M26.108,23H24a4.216,4.216,0,0,0,4.216,4.216h8.432A4.216,4.216,0,0,0,40.865,23Z" transform="translate(0.757 1.135)" fill="#ffa733"/>
      <path id="Trazado_1059699" data-name="Trazado 1059699" d="M40.865,19.324H24a6.324,6.324,0,0,1,5.27-6.229A7,7,0,0,1,30.324,13h4.216a7,7,0,0,1,1.054.095,6.324,6.324,0,0,1,5.27,6.229Z" transform="translate(0.757 0.595)" fill="#ffa733"/>
      <path id="Trazado_1059700" data-name="Trazado 1059700" d="M48.311,21.858a2.635,2.635,0,0,0-3.726,0l-3.727,3.727a2.635,2.635,0,0,0,3.318,4.06c.144-.1,4.135-4.06,4.135-4.06a2.635,2.635,0,0,0,0-3.727Z" transform="translate(1.626 1.032)" fill="#ff9478"/>
      <path id="Trazado_1059701" data-name="Trazado 1059701" d="M48.311,28.858a2.635,2.635,0,0,0-3.726,0l-3.727,3.727a2.635,2.635,0,0,0,3.318,4.06c.144-.1,4.135-4.06,4.135-4.06A2.635,2.635,0,0,0,48.311,28.858Z" transform="translate(1.626 1.41)" fill="#ffbcab"/>
      <path id="Trazado_1059702" data-name="Trazado 1059702" d="M48.311,35.858a2.635,2.635,0,0,0-3.726,0l-3.727,3.727a2.635,2.635,0,0,0,3.318,4.06c.144-.1,4.135-4.06,4.135-4.06a2.635,2.635,0,0,0,0-3.727Z" transform="translate(1.626 1.788)" fill="#ff9478"/>
      <path id="Trazado_1059703" data-name="Trazado 1059703" d="M48.311,42.858a2.635,2.635,0,0,0-3.726,0l-3.727,3.727a2.635,2.635,0,0,0,3.318,4.06c.144-.1,4.135-4.06,4.135-4.06A2.635,2.635,0,0,0,48.311,42.858Z" transform="translate(1.626 2.167)" fill="#ffbcab"/>
      <path id="Trazado_1059704" data-name="Trazado 1059704" d="M26,19H38.649v2.108H26Z" transform="translate(0.865 0.919)" fill="#754c29"/>
      <g id="Grupo_1225799" data-name="Grupo 1225799" transform="translate(10 2)">
        <path id="Trazado_1059705" data-name="Trazado 1059705" d="M51.762,32.135a3.666,3.666,0,0,0-1.075-2.614,3.775,3.775,0,0,0-1.339-.822l1.339-1.339a3.7,3.7,0,0,0,0-5.218,3.883,3.883,0,0,0-.632-.485V7.27A5.27,5.27,0,0,0,44.784,2H21.595a5.27,5.27,0,0,0-5.27,5.27V30.491a5.19,5.19,0,0,0-3.162-1.086H12.108A2.114,2.114,0,0,0,10,31.513V46.755a11.531,11.531,0,0,0,5.449,9.834l1.5.928A3.174,3.174,0,0,1,18.432,60.2v3.984a1.054,1.054,0,1,0,2.108,0V60.2a5.238,5.238,0,0,0-2.477-4.469l-1.5-.938a9.436,9.436,0,0,1-4.459-8.042V31.513h1.054a3.172,3.172,0,0,1,3.162,3.162V47.324a5.27,5.27,0,0,0,5.27,5.27H41.242a3.958,3.958,0,0,0,.5.632,3.689,3.689,0,0,0,5.154.053v1.149a3.185,3.185,0,0,1-1.539,2.709l-1.17.706a5.29,5.29,0,0,0-2.561,4.511v1.834a1.054,1.054,0,1,0,2.108,0V62.355a3.185,3.185,0,0,1,1.539-2.709l1.17-.706A5.29,5.29,0,0,0,49,54.429V51.182L50.686,49.5a3.7,3.7,0,0,0,0-5.218,3.775,3.775,0,0,0-1.339-.822l1.339-1.339a3.7,3.7,0,0,0,0-5.218,3.775,3.775,0,0,0-1.339-.822l1.339-1.339a3.66,3.66,0,0,0,1.075-2.6ZM49.19,23.629a1.623,1.623,0,0,1,.464,1.128,1.6,1.6,0,0,1-.464,1.117l-3.942,3.858a1.559,1.559,0,0,1-2.013-2.372l3.721-3.721a1.537,1.537,0,0,1,1.117-.464,1.569,1.569,0,0,1,1.117.453ZM40.673,50.486H21.595a3.172,3.172,0,0,1-3.162-3.162V7.27a3.172,3.172,0,0,1,3.162-3.162H44.784A3.172,3.172,0,0,1,47.946,7.27V21.11a3.578,3.578,0,0,0-1.054.19V8.324A3.172,3.172,0,0,0,43.73,5.162H39.587a3.168,3.168,0,0,0-2.635,1.412L36.1,7.85a1.054,1.054,0,0,1-.875.474H31.155a1.054,1.054,0,0,1-.875-.474l-.854-1.275a3.155,3.155,0,0,0-2.635-1.412H22.649a3.172,3.172,0,0,0-3.162,3.162V46.27a3.172,3.172,0,0,0,3.162,3.162H40.873a3.656,3.656,0,0,0-.2,1.054ZM22.649,47.324a1.054,1.054,0,0,1-1.054-1.054V8.324A1.054,1.054,0,0,1,22.649,7.27h4.142a1.054,1.054,0,0,1,.875.474L28.52,9.02a3.155,3.155,0,0,0,2.635,1.412h4.069A3.168,3.168,0,0,0,37.859,9.02l.854-1.275a1.054,1.054,0,0,1,.875-.474H43.73a1.054,1.054,0,0,1,1.054,1.054v14.5l-2.2,2.192a4.848,4.848,0,0,0,.095-.885,1.054,1.054,0,0,0-1.054-1.054H40.568V20.973h1.054a1.054,1.054,0,0,0,1.054-1.054A7.387,7.387,0,0,0,35.3,12.541H31.081A7.387,7.387,0,0,0,23.7,19.919a1.054,1.054,0,0,0,1.054,1.054h1.054v2.108H24.757A1.054,1.054,0,0,0,23.7,24.135a5.27,5.27,0,0,0,5.27,5.27h8.432a5.215,5.215,0,0,0,3.278-1.181,3.68,3.68,0,0,0,1.054,2.867,3.631,3.631,0,0,0,1.318.833l-1.318,1.328a3.7,3.7,0,0,0,0,5.218,3.631,3.631,0,0,0,1.318.833l-1.318,1.328a3.7,3.7,0,0,0,0,5.218,3.631,3.631,0,0,0,1.318.833l-.632.643Zm17.74-22.135A3.177,3.177,0,0,1,37.405,27.3H28.973a3.177,3.177,0,0,1-2.983-2.108ZM27.919,23.081V20.973H38.459v2.108Zm-2-4.216a5.246,5.246,0,0,1,3.057-3.752v.59a1.054,1.054,0,0,0,2.108,0V14.649h1.054V15.7a1.054,1.054,0,1,0,2.108,0V14.649H35.3V15.7a1.054,1.054,0,0,0,2.108,0v-.59a5.27,5.27,0,0,1,3.057,3.752ZM49.653,46.892a1.6,1.6,0,0,1-.464,1.117L45.469,51.73a1.611,1.611,0,0,1-2.235,0,1.581,1.581,0,0,1,0-2.235l4.026-3.963a1.6,1.6,0,0,1,1.929.232,1.623,1.623,0,0,1,.464,1.128Zm0-7.378a1.6,1.6,0,0,1-.464,1.117l-3.942,3.858a1.559,1.559,0,0,1-2.013-2.372l4.026-3.963a1.6,1.6,0,0,1,1.929.232,1.623,1.623,0,0,1,.464,1.128Zm-.464-6.261L45.248,37.11a1.559,1.559,0,0,1-2.013-2.372l4.026-3.963a1.6,1.6,0,0,1,1.929.232,1.623,1.623,0,0,1,.464,1.128,1.6,1.6,0,0,1-.464,1.117Z" transform="translate(-10 -2)" fill="#231f20"/>
        <path id="Trazado_1059706" data-name="Trazado 1059706" d="M31.054,7.108h2.108a1.054,1.054,0,1,0,0-2.108H31.054a1.054,1.054,0,1,0,0,2.108Z" transform="translate(-8.919 -1.838)" fill="#231f20"/>
        <path id="Trazado_1059707" data-name="Trazado 1059707" d="M25.108,31H24.054a1.054,1.054,0,1,0,0,2.108h1.054a1.054,1.054,0,1,0,0-2.108Z" transform="translate(-9.297 -0.432)" fill="#231f20"/>
        <path id="Trazado_1059708" data-name="Trazado 1059708" d="M37.486,31H29.054a1.054,1.054,0,1,0,0,2.108h8.432a1.054,1.054,0,0,0,0-2.108Z" transform="translate(-9.027 -0.432)" fill="#231f20"/>
        <path id="Trazado_1059709" data-name="Trazado 1059709" d="M25.108,35H24.054a1.054,1.054,0,1,0,0,2.108h1.054a1.054,1.054,0,1,0,0-2.108Z" transform="translate(-9.297 -0.216)" fill="#231f20"/>
        <path id="Trazado_1059710" data-name="Trazado 1059710" d="M37.486,35H29.054a1.054,1.054,0,1,0,0,2.108h8.432a1.054,1.054,0,0,0,0-2.108Z" transform="translate(-9.027 -0.216)" fill="#231f20"/>
        <path id="Trazado_1059711" data-name="Trazado 1059711" d="M25.108,39H24.054a1.054,1.054,0,1,0,0,2.108h1.054a1.054,1.054,0,1,0,0-2.108Z" transform="translate(-9.297 0)" fill="#231f20"/>
        <path id="Trazado_1059712" data-name="Trazado 1059712" d="M37.486,39H29.054a1.054,1.054,0,1,0,0,2.108h8.432a1.054,1.054,0,0,0,0-2.108Z" transform="translate(-9.027 0)" fill="#231f20"/>
      </g>
    </g>
  </g>
</svg>
