<svg xmlns="http://www.w3.org/2000/svg" xmlns:xlink="http://www.w3.org/1999/xlink" width="108" height="108" viewBox="0 0 108 108">
  <defs>
    <filter id="Trazado_904820" x="0" y="0" width="108" height="108" filterUnits="userSpaceOnUse">
      <feOffset dy="3" input="SourceAlpha"/>
      <feGaussianBlur stdDeviation="3" result="blur"/>
      <feFlood flood-opacity="0.161"/>
      <feComposite operator="in" in2="blur"/>
      <feComposite in="SourceGraphic"/>
    </filter>
  </defs>
  <g id="Grupo_1223778" data-name="Grupo 1223778" transform="translate(-619.999 -319)">
    <g id="Grupo_1211530" data-name="Grupo 1211530" transform="translate(628.999 325)">
      <g id="Grupo_1173585" data-name="Grupo 1173585" transform="translate(0 0)">
        <g id="Grupo_1173428" data-name="Grupo 1173428">
          <g id="Grupo_1171958" data-name="Grupo 1171958">
            <g id="Grupo_1167341" data-name="Grupo 1167341">
              <g id="Grupo_1166792" data-name="Grupo 1166792">
                <g transform="matrix(1, 0, 0, 1, -9, -6)" filter="url(#Trazado_904820)">
                  <g id="Trazado_904820-2" data-name="Trazado 904820" transform="translate(9 6)" fill="#fdf6e4">
                    <path d="M 44.99999618530273 88.50003814697266 C 39.12687301635742 88.50003814697266 33.43022155761719 87.35011291503906 28.06829643249512 85.08219909667969 C 22.88852119445801 82.89134979248047 18.23629570007324 79.75462341308594 14.24084663391113 75.75917053222656 C 10.24540901184082 71.76372528076172 7.108683586120605 67.11149597167969 4.917821407318115 61.93172454833984 C 2.649921178817749 56.56979751586914 1.499996185302734 50.87314605712891 1.499996185302734 45.00002288818359 C 1.499996185302734 39.12689971923828 2.649921178817749 33.43024826049805 4.917821407318115 28.06832313537598 C 7.108683586120605 22.88854789733887 10.24540901184082 18.2363224029541 14.24084663391113 14.24087333679199 C 18.23629570007324 10.24543571472168 22.88852119445801 7.108710289001465 28.06829643249512 4.917848110198975 C 33.43022155761719 2.649947881698608 39.12687301635742 1.500022888183594 44.99999618530273 1.500022888183594 C 50.87311935424805 1.500022888183594 56.56977081298828 2.649947881698608 61.93169784545898 4.917848110198975 C 67.11147308349609 7.108710289001465 71.76369476318359 10.24543571472168 75.75914764404297 14.24087333679199 C 79.75458526611328 18.2363224029541 82.89131164550781 22.88854789733887 85.08216857910156 28.06832313537598 C 87.35007476806641 33.43024826049805 88.5 39.12689971923828 88.5 45.00002288818359 C 88.5 50.87314605712891 87.35007476806641 56.56979751586914 85.08216857910156 61.93172454833984 C 82.89131164550781 67.11149597167969 79.75458526611328 71.76372528076172 75.75914764404297 75.75917053222656 C 71.76369476318359 79.75462341308594 67.11147308349609 82.89134979248047 61.93169784545898 85.08219909667969 C 56.56977081298828 87.35011291503906 50.87311935424805 88.50003814697266 44.99999618530273 88.50003814697266 Z" stroke="none"/>
                    <path d="M 44.99999618530273 3.000007629394531 C 39.32870864868164 3.000007629394531 33.82865142822266 4.110069274902344 28.65262603759766 6.299354553222656 C 23.65165710449219 8.414581298828125 19.15968322753906 11.44335174560547 15.301513671875 15.30153656005859 C 11.44333648681641 19.15970611572266 8.414566040039062 23.65166473388672 6.299339294433594 28.65265274047852 C 4.110054016113281 33.82867813110352 2.999992370605469 39.3287353515625 2.999992370605469 45.00002288818359 C 2.999992370605469 50.67131042480469 4.110054016113281 56.17135238647461 6.299339294433594 61.34739685058594 C 8.414566040039062 66.34836578369141 11.44333648681641 70.84032440185547 15.301513671875 74.69850921630859 C 19.15968322753906 78.55667877197266 23.65165710449219 81.58544921875 28.65262603759766 83.70068359375 C 33.82865142822266 85.88996887207031 39.32870864868164 87.00002288818359 44.99999618530273 87.00002288818359 C 50.67128372192383 87.00002288818359 56.17134094238281 85.88996887207031 61.34736633300781 83.70068359375 C 66.34834289550781 81.58544921875 70.84030914306641 78.55667877197266 74.69847869873047 74.69850921630859 C 78.55665588378906 70.84032440185547 81.58542633056641 66.34836578369141 83.70065307617188 61.34739685058594 C 85.88993835449219 56.17135238647461 87 50.67131042480469 87 45.00002288818359 C 87 39.3287353515625 85.88993835449219 33.82867813110352 83.70065307617188 28.65265274047852 C 81.58542633056641 23.65166473388672 78.55665588378906 19.15970611572266 74.69847869873047 15.30153656005859 C 70.84030914306641 11.44335174560547 66.34834289550781 8.414581298828125 61.34736633300781 6.299354553222656 C 56.17134094238281 4.110069274902344 50.67128372192383 3.000007629394531 44.99999618530273 3.000007629394531 M 44.99999618530273 7.62939453125e-06 C 69.85281372070312 7.62939453125e-06 90 20.14720916748047 90 45.00002288818359 C 90 69.85282135009766 69.85281372070312 90.00002288818359 44.99999618530273 90.00002288818359 C 20.14717864990234 90.00002288818359 -7.62939453125e-06 69.85282135009766 -7.62939453125e-06 45.00002288818359 C -7.62939453125e-06 20.14720916748047 20.14717864990234 7.62939453125e-06 44.99999618530273 7.62939453125e-06 Z" stroke="none" fill="#f5b104"/>
                  </g>
                </g>
              </g>
            </g>
          </g>
        </g>
      </g>
    </g>
    <g id="diseno-web" transform="translate(648.089 344.085)">
      <g id="Grupo_1223776" data-name="Grupo 1223776" transform="translate(0.76 0.764)">
        <path id="Trazado_1057907" data-name="Trazado 1057907" d="M167.408,396.268h17.933v7.519H167.408Z" transform="translate(-151.224 -356.921)" fill="#665e66"/>
        <path id="Trazado_1057908" data-name="Trazado 1057908" d="M50.383,62.807H14.928A7.423,7.423,0,0,1,7.5,55.384V30.338a7.423,7.423,0,0,1,7.423-7.423H50.383a7.423,7.423,0,0,1,7.423,7.423V55.384A7.423,7.423,0,0,1,50.383,62.807Z" transform="translate(-7.505 -21.355)" fill="#756e78"/>
        <path id="Trazado_1057909" data-name="Trazado 1057909" d="M17.357,62.809H14.928A7.424,7.424,0,0,1,7.5,55.385V30.339a7.423,7.423,0,0,1,7.423-7.423h2.429a7.423,7.423,0,0,0-7.423,7.423V55.385A7.424,7.424,0,0,0,17.357,62.809Z" transform="translate(-7.505 -21.356)" fill="#665e66"/>
        <path id="Trazado_1057910" data-name="Trazado 1057910" d="M140.513,451.638h-22.6a2.976,2.976,0,0,1,0-5.953h22.6a2.976,2.976,0,0,1,0,5.953Z" transform="translate(-104.062 -401.336)" fill="#756e78"/>
        <path id="Trazado_1057911" data-name="Trazado 1057911" d="M125.246,451.632h-7.335a2.977,2.977,0,0,1,0-5.954h7.335a2.977,2.977,0,1,0,0,5.954Z" transform="translate(-104.062 -401.33)" fill="#665e66"/>
        <path id="Trazado_1057912" data-name="Trazado 1057912" d="M51.578,95.33a3.3,3.3,0,0,1-3.3-3.3V66.988a3.3,3.3,0,0,1,3.3-3.3H87.033a3.3,3.3,0,0,1,3.3,3.3V92.034a3.3,3.3,0,0,1-3.3,3.3Z" transform="translate(-44.155 -58.005)" fill="#e490d0"/>
        <path id="Trazado_1057913" data-name="Trazado 1057913" d="M60.407,95.328H51.578a3.3,3.3,0,0,1-3.3-3.3V66.986a3.3,3.3,0,0,1,3.3-3.3h8.828a6.938,6.938,0,0,0-6.938,6.938V88.39A6.938,6.938,0,0,0,60.407,95.328Z" transform="translate(-44.155 -58.003)" fill="#df73c1"/>
        <path id="Trazado_1057914" data-name="Trazado 1057914" d="M89.354,44.829V12.039A4.534,4.534,0,0,1,93.888,7.5h24.665a4.534,4.534,0,0,1,4.534,4.534v32.79Z" transform="translate(-81.07 -7.505)" fill="#dddaec"/>
        <path id="Trazado_1057915" data-name="Trazado 1057915" d="M124.353,119.531v-28a.911.911,0,0,1,.911-.911H150.09a.911.911,0,0,1,.911.911v28Z" transform="translate(-112.527 -82.207)" fill="#f9f6f9"/>
        <g id="Grupo_1223775" data-name="Grupo 1223775" transform="translate(11.826 2.629)">
          <circle id="Elipse_12610" data-name="Elipse 12610" cx="1.529" cy="1.529" r="1.529" fill="#e490d0"/>
          <circle id="Elipse_12611" data-name="Elipse 12611" cx="1.529" cy="1.529" r="1.529" transform="translate(5.133)" fill="#e490d0"/>
          <circle id="Elipse_12612" data-name="Elipse 12612" cx="1.529" cy="1.529" r="1.529" transform="translate(10.267)" fill="#e490d0"/>
        </g>
        <path id="Trazado_1057916" data-name="Trazado 1057916" d="M51.169,120.662v5.048l-9.831,1.979-9.832.332v-7.359a3.176,3.176,0,0,1,3.176-3.175H47.994A3.175,3.175,0,0,1,51.169,120.662Z" transform="translate(-29.076 -106.356)" fill="#b1e4f9"/>
        <path id="Trazado_1057917" data-name="Trazado 1057917" d="M51.169,170.86v2.311a3.175,3.175,0,0,1-3.175,3.176H34.681l-.115,0a3.176,3.176,0,0,1-3.061-3.174l5.855-3.832,3.977,3.5,6.227-5.117Z" transform="translate(-29.076 -151.506)" fill="#f9ef63"/>
        <circle id="Elipse_12613" data-name="Elipse 12613" cx="1.459" cy="1.459" r="1.459" transform="translate(4.895 13.298)" fill="#f9ef63"/>
        <path id="Trazado_1057918" data-name="Trazado 1057918" d="M96.951,167.722,94.5,176.347H86.453l4.271-3.508Z" transform="translate(-78.463 -151.506)" fill="#ffd064"/>
        <path id="Trazado_1057919" data-name="Trazado 1057919" d="M37.36,183.7l-2.794,7.006a3.176,3.176,0,0,1-3.061-3.174Z" transform="translate(-29.076 -165.868)" fill="#ffd064"/>
        <path id="Trazado_1057920" data-name="Trazado 1057920" d="M306.991,214.9H293.678a3.175,3.175,0,0,1-3.176-3.175v-7.359a3.176,3.176,0,0,1,3.176-3.176h13.313a3.175,3.175,0,0,1,3.176,3.176v7.359A3.175,3.175,0,0,1,306.991,214.9Z" transform="translate(-261.86 -181.586)" fill="#f9f6f9"/>
        <path id="Trazado_1057921" data-name="Trazado 1057921" d="M295.9,214.9h-2.221a3.176,3.176,0,0,1-3.176-3.176V204.37a3.176,3.176,0,0,1,3.176-3.175H295.9a3.176,3.176,0,0,0-3.176,3.175v7.359A3.176,3.176,0,0,0,295.9,214.9Z" transform="translate(-261.86 -181.591)" fill="#dddaec"/>
        <path id="Trazado_1057922" data-name="Trazado 1057922" d="M162.85,286.6H156.28a1.718,1.718,0,0,1-1.718-1.718v-3.242a1.718,1.718,0,0,1,1.718-1.718h6.569a1.718,1.718,0,0,1,1.718,1.718v3.242A1.718,1.718,0,0,1,162.85,286.6Z" transform="translate(-139.678 -252.349)" fill="#756e78"/>
      </g>
      <g id="Grupo_1223777" data-name="Grupo 1223777" transform="translate(0 0.005)">
        <path id="Trazado_1057923" data-name="Trazado 1057923" d="M43.637,1.565H41.991A5.277,5.277,0,0,0,38.243.005H18.306a.759.759,0,1,0,0,1.518H38.243A3.779,3.779,0,0,1,42.018,5.3v6.561a.759.759,0,1,0,1.518,0V7.21h.1a2.54,2.54,0,0,1,2.537,2.537v9.872c-.094-.007-.188-.011-.283-.011H43.536V14.9a.759.759,0,1,0-1.518,0v4.713H39.993v-9.52a1.672,1.672,0,0,0-1.67-1.67H13.5a1.672,1.672,0,0,0-1.67,1.67v1.048H9.8V5.3a3.779,3.779,0,0,1,3.775-3.775H15.27a.759.759,0,0,0,0-1.518H13.577a5.277,5.277,0,0,0-3.748,1.56H8.183A8.192,8.192,0,0,0,0,9.747V34.792a8.192,8.192,0,0,0,8.183,8.183h1.931a.759.759,0,1,0,0-1.518H8.183a6.672,6.672,0,0,1-6.665-6.665V9.747A6.672,6.672,0,0,1,8.183,3.083h.589A5.26,5.26,0,0,0,8.284,5.3v.394h-.1A4.06,4.06,0,0,0,4.128,9.747v2.088a3.932,3.932,0,0,0-1.7,3.235v7.359a3.932,3.932,0,0,0,1.7,3.235v9.129a4.06,4.06,0,0,0,4.055,4.055H43.637a4.06,4.06,0,0,0,4.055-4.055v-.4a3.938,3.938,0,0,0,2.133-3.5V23.542a3.938,3.938,0,0,0-2.133-3.5V9.747a4.06,4.06,0,0,0-4.055-4.055h-.1V5.3a5.26,5.26,0,0,0-.488-2.216h.589A6.672,6.672,0,0,1,50.3,9.747V34.792a6.672,6.672,0,0,1-6.665,6.665H13.15a.759.759,0,0,0,0,1.518h3.034v1.379H14.609a3.735,3.735,0,1,0,0,7.47h22.6a3.735,3.735,0,1,0,0-7.47H35.636V42.975h8a8.192,8.192,0,0,0,8.183-8.183V9.747a8.192,8.192,0,0,0-8.183-8.182ZM5.646,9.747A2.54,2.54,0,0,1,8.183,7.21h.1v3.926H6.364a3.938,3.938,0,0,0-.718.067Zm.718,2.907H19.677a2.419,2.419,0,0,1,2.416,2.416v3.381l-2.347-2.043a.759.759,0,0,0-.98-.014L13.037,21.1,9.545,18.027a.759.759,0,0,0-.917-.065L3.947,21.025V15.07a2.419,2.419,0,0,1,2.417-2.416Zm0,12.192a2.42,2.42,0,0,1-2.385-2.027l5-3.27,3.543,3.118a.759.759,0,0,0,.983.017l5.731-4.709,2.86,2.49v1.965a2.419,2.419,0,0,1-2.416,2.416Zm-.718,9.947V26.3a3.938,3.938,0,0,0,.718.067H8.284V37.33h-.1A2.54,2.54,0,0,1,5.646,34.793ZM9.8,26.364h2.024V37.33H9.8ZM13.345,37.33V26.364h6.332a3.939,3.939,0,0,0,3.935-3.935V15.07a3.939,3.939,0,0,0-3.935-3.935H13.345V10.087a.152.152,0,0,1,.152-.152H38.323a.152.152,0,0,1,.152.152v9.52h-5.9a3.939,3.939,0,0,0-3.935,3.935V30.9a3.939,3.939,0,0,0,3.935,3.935h5.9V37.33H13.345Zm26.648,0V34.836h2.024V37.33Zm3.644,0h-.1V34.836h2.355c.1,0,.189,0,.282-.011A2.54,2.54,0,0,1,43.637,37.33Zm4.67-6.429a2.419,2.419,0,0,1-2.416,2.416H32.577A2.419,2.419,0,0,1,30.161,30.9V23.543a2.419,2.419,0,0,1,2.416-2.416H45.891a2.419,2.419,0,0,1,2.416,2.416ZM39.428,48.089a2.216,2.216,0,0,1-2.217,2.216h-22.6a2.217,2.217,0,1,1,0-4.434h22.6a2.22,2.22,0,0,1,2.218,2.217Zm-5.311-3.736H17.7V42.975H34.118v1.378Z" transform="translate(0 -0.005)"/>
        <path id="Trazado_1057924" data-name="Trazado 1057924" d="M119.142,25.981a2.288,2.288,0,1,0,2.288,2.288,2.29,2.29,0,0,0-2.288-2.288Zm0,3.057a.77.77,0,1,1,.77-.77A.77.77,0,0,1,119.142,29.038Z" transform="translate(-105.027 -23.352)"/>
        <path id="Trazado_1057925" data-name="Trazado 1057925" d="M172.149,28.269a2.288,2.288,0,1,0-2.288,2.288A2.29,2.29,0,0,0,172.149,28.269Zm-3.057,0a.77.77,0,1,1,.77.77A.77.77,0,0,1,169.091,28.269Z" transform="translate(-150.613 -23.352)"/>
        <path id="Trazado_1057926" data-name="Trazado 1057926" d="M222.868,28.269a2.288,2.288,0,1,0-2.288,2.288A2.29,2.29,0,0,0,222.868,28.269Zm-3.057,0a.77.77,0,1,1,.77.77A.77.77,0,0,1,219.81,28.269Z" transform="translate(-196.198 -23.352)"/>
        <path id="Trazado_1057927" data-name="Trazado 1057927" d="M50.59,135.834a2.218,2.218,0,1,0-2.218-2.218A2.221,2.221,0,0,0,50.59,135.834Zm0-2.918a.7.7,0,1,1-.7.7A.7.7,0,0,1,50.59,132.916Z" transform="translate(-43.476 -118.1)"/>
        <path id="Trazado_1057928" data-name="Trazado 1057928" d="M328.385,233.943h-13.33a.759.759,0,1,0,0,1.518h13.33a.759.759,0,1,0,0-1.518Z" transform="translate(-282.486 -210.266)"/>
        <path id="Trazado_1057929" data-name="Trazado 1057929" d="M328.385,261.417h-13.33a.759.759,0,0,0,0,1.518h13.33a.759.759,0,1,0,0-1.518Z" transform="translate(-282.486 -234.959)"/>
        <path id="Trazado_1057930" data-name="Trazado 1057930" d="M326.065,288.891h-11.01a.759.759,0,1,0,0,1.518h11.01a.759.759,0,1,0,0-1.518Z" transform="translate(-282.486 -259.653)"/>
        <path id="Trazado_1057931" data-name="Trazado 1057931" d="M275.368,126.141h7.822a.759.759,0,0,0,0-1.518h-7.822a.759.759,0,1,0,0,1.518Z" transform="translate(-246.816 -112.01)"/>
        <path id="Trazado_1057932" data-name="Trazado 1057932" d="M281.8,153.213a.759.759,0,0,0-.759-.759h-5.675a.759.759,0,1,0,0,1.518h5.675A.759.759,0,0,0,281.8,153.213Z" transform="translate(-246.816 -137.024)"/>
        <path id="Trazado_1057933" data-name="Trazado 1057933" d="M156.109,272.421h-6.569a2.48,2.48,0,0,0-2.477,2.477v3.242a2.48,2.48,0,0,0,2.477,2.477h6.569a2.48,2.48,0,0,0,2.477-2.477V274.9A2.48,2.48,0,0,0,156.109,272.421Zm.959,2.477v3.242a.957.957,0,0,1-.04.273l-2.838-1.894,2.838-1.894A.956.956,0,0,1,157.068,274.9Zm-8.488,3.242V274.9a.953.953,0,0,1,.04-.272l2.836,1.893-2.836,1.893A.954.954,0,0,1,148.58,278.141Zm1.745-4.2h5l-2.5,1.667Zm2.5,3.493,2.5,1.668h-5Z" transform="translate(-132.178 -244.849)"/>
      </g>
    </g>
  </g>
</svg>
