<svg xmlns="http://www.w3.org/2000/svg" xmlns:xlink="http://www.w3.org/1999/xlink" width="102" height="102" viewBox="0 0 102 102">
  <defs>
    <filter id="Trazado_904820" x="0" y="0" width="102" height="102" filterUnits="userSpaceOnUse">
      <feOffset dy="3" input="SourceAlpha"/>
      <feGaussianBlur stdDeviation="3" result="blur"/>
      <feFlood flood-opacity="0.161"/>
      <feComposite operator="in" in2="blur"/>
      <feComposite in="SourceGraphic"/>
    </filter>
  </defs>
  <g id="Grupo_1226411" data-name="Grupo 1226411" transform="translate(-170.999 -8408.887)">
    <g id="Grupo_1212110" data-name="Grupo 1212110" transform="translate(179.999 8414.887)">
      <g id="Grupo_1173585" data-name="Grupo 1173585" transform="translate(0 0)">
        <g id="Grupo_1173428" data-name="Grupo 1173428">
          <g id="Grupo_1171958" data-name="Grupo 1171958">
            <g id="Grupo_1167341" data-name="Grupo 1167341">
              <g id="Grupo_1166792" data-name="Grupo 1166792">
                <g transform="matrix(1, 0, 0, 1, -9, -6)" filter="url(#Trazado_904820)">
                  <g id="Trazado_904820-2" data-name="Trazado 904820" transform="translate(9 6)" fill="#efecfa">
                    <path d="M 41.99999618530273 82.50003814697266 C 36.53186798095703 82.50003814697266 31.22811317443848 81.42943572998047 26.23603057861328 79.31795501708984 C 21.41350173950195 77.2781982421875 17.08211326599121 74.3577880859375 13.36217308044434 70.63784790039062 C 9.642243385314941 66.91791534423828 6.721831321716309 62.58651733398438 4.682066917419434 57.76398849487305 C 2.570596218109131 52.77191543579102 1.499996185302734 47.4681510925293 1.499996185302734 42.00002288818359 C 1.499996185302734 36.53189468383789 2.570596218109131 31.22812843322754 4.682066917419434 26.23605728149414 C 6.721831321716309 21.41352844238281 9.642243385314941 17.08212852478027 13.36217308044434 13.3621997833252 C 17.08211326599121 9.642258644104004 21.41350173950195 6.721846580505371 26.23603057861328 4.682093620300293 C 31.22811317443848 2.570611238479614 36.53186798095703 1.500011086463928 41.99999618530273 1.500011086463928 C 47.46812438964844 1.500011086463928 52.77187728881836 2.570611238479614 57.76396179199219 4.682093620300293 C 62.58649063110352 6.721846580505371 66.91787719726562 9.642258644104004 70.6378173828125 13.3621997833252 C 74.35774993896484 17.08212852478027 77.27816009521484 21.41352844238281 79.31792449951172 26.23605728149414 C 81.42939758300781 31.22812843322754 82.5 36.53189468383789 82.5 42.00002288818359 C 82.5 47.4681510925293 81.42939758300781 52.77191543579102 79.31792449951172 57.76398849487305 C 77.27816009521484 62.58651733398438 74.35774993896484 66.91791534423828 70.6378173828125 70.63784790039062 C 66.91787719726562 74.3577880859375 62.58649063110352 77.2781982421875 57.76396179199219 79.31795501708984 C 52.77187728881836 81.42943572998047 47.46812438964844 82.50003814697266 41.99999618530273 82.50003814697266 Z" stroke="none"/>
                    <path d="M 41.99999618530273 3.000007629394531 C 36.73370361328125 3.000007629394531 31.62654113769531 4.030746459960938 26.82035446166992 6.0635986328125 C 22.1766242980957 8.027732849121094 18.0054931640625 10.84017944335938 14.42283630371094 14.4228515625 C 10.84017181396484 18.00551605224609 8.027717590332031 22.17665100097656 6.063583374023438 26.82038116455078 C 4.030731201171875 31.62656784057617 2.999992370605469 36.73373031616211 2.999992370605469 42.00002288818359 C 2.999992370605469 47.26630401611328 4.030731201171875 52.37347412109375 6.063583374023438 57.17966461181641 C 8.027717590332031 61.82339477539062 10.84017181396484 65.99451446533203 14.42283630371094 69.57717895507812 C 18.0054931640625 73.15985107421875 22.1766242980957 75.97230529785156 26.82035446166992 77.93643951416016 C 31.62654113769531 79.96929168701172 36.73370361328125 81.00002288818359 41.99999618530273 81.00002288818359 C 47.26628875732422 81.00002288818359 52.37345123291016 79.96929168701172 57.17963409423828 77.93643951416016 C 61.82337188720703 75.97230529785156 65.9945068359375 73.15985107421875 69.57715606689453 69.57717895507812 C 73.15982055664062 65.99451446533203 75.97227478027344 61.82339477539062 77.93640899658203 57.17966461181641 C 79.96926116943359 52.37347412109375 81 47.26630401611328 81 42.00002288818359 C 81 36.73373031616211 79.96926116943359 31.62656784057617 77.93640899658203 26.82038116455078 C 75.97227478027344 22.17665100097656 73.15982055664062 18.00551605224609 69.57715606689453 14.4228515625 C 65.9945068359375 10.84017944335938 61.82337188720703 8.027732849121094 57.17963409423828 6.0635986328125 C 52.37345123291016 4.030746459960938 47.26628875732422 3.000007629394531 41.99999618530273 3.000007629394531 M 41.99999618530273 7.62939453125e-06 C 65.19595336914062 7.62939453125e-06 84 18.80406188964844 84 42.00002288818359 C 84 65.19596862792969 65.19595336914062 84.00002288818359 41.99999618530273 84.00002288818359 C 18.80403900146484 84.00002288818359 -7.62939453125e-06 65.19596862792969 -7.62939453125e-06 42.00002288818359 C -7.62939453125e-06 18.80406188964844 18.80403900146484 7.62939453125e-06 41.99999618530273 7.62939453125e-06 Z" stroke="none" fill="#c3b7ef"/>
                  </g>
                </g>
              </g>
            </g>
          </g>
        </g>
      </g>
    </g>
    <g id="desarrollo-de-aplicaciones_4_" data-name="desarrollo-de-aplicaciones (4)" transform="translate(181.225 8430.813)">
      <g id="Grupo_1226387" data-name="Grupo 1226387" transform="translate(28.39 7.08)">
        <path id="Trazado_1060377" data-name="Trazado 1060377" d="M149.258,85.306h-4.049a14.5,14.5,0,0,0-1.915-4.612l2.863-2.857a.7.7,0,0,0,0-.992l-3.545-3.538a.7.7,0,0,0-.99,0l-2.864,2.859a14.588,14.588,0,0,0-4.621-1.912v-4.04a.7.7,0,0,0-.7-.7h-5.013a.7.7,0,0,0-.7.7v4.04a14.588,14.588,0,0,0-4.621,1.912l-2.864-2.859a.7.7,0,0,0-.99,0L115.7,76.844a.7.7,0,0,0,0,.992l2.862,2.857a14.5,14.5,0,0,0-1.915,4.612H112.6a.7.7,0,0,0-.7.7v5a.7.7,0,0,0,.7.7h4.049a14.5,14.5,0,0,0,1.915,4.612L115.7,99.178a.7.7,0,0,0,0,.992l3.544,3.538a.7.7,0,0,0,.99,0l2.864-2.859a14.585,14.585,0,0,0,4.621,1.911v4.04a.7.7,0,0,0,.7.7h5.013a.7.7,0,0,0,.7-.7v-4.04a14.587,14.587,0,0,0,4.621-1.911l2.864,2.859a.7.7,0,0,0,.99,0l3.545-3.538a.7.7,0,0,0,0-.992l-2.863-2.857a14.5,14.5,0,0,0,1.915-4.612h4.049a.7.7,0,0,0,.7-.7v-5A.7.7,0,0,0,149.258,85.306ZM130.929,97.248a8.74,8.74,0,1,1,8.757-8.74A8.749,8.749,0,0,1,130.929,97.248Z" transform="translate(-111.899 -69.513)" fill="#b3dafe"/>
      </g>
      <g id="Grupo_1226388" data-name="Grupo 1226388" transform="translate(47.889 7.08)">
        <path id="Trazado_1060378" data-name="Trazado 1060378" d="M321.2,85.306h-2.038a.7.7,0,0,1,.7.7v5a.7.7,0,0,1-.7.7H321.2a.7.7,0,0,0,.7-.7v-5A.7.7,0,0,0,321.2,85.306Zm-3.1-8.461-3.545-3.538a.7.7,0,0,0-.99,0l-.524.523,3.021,3.015a.7.7,0,0,1,0,.992l-2.04,2.035a1.511,1.511,0,0,0-.264,1.782,14.49,14.49,0,0,1,1.072,2.584,1.509,1.509,0,0,0,1.443,1.068h.877a14.5,14.5,0,0,0-1.915-4.612l2.863-2.857a.7.7,0,0,0,0-.992Zm0,22.333-2.863-2.857a14.5,14.5,0,0,0,1.915-4.612h-.877a1.509,1.509,0,0,0-1.443,1.068,14.493,14.493,0,0,1-1.072,2.584,1.511,1.511,0,0,0,.264,1.782l2.04,2.035a.7.7,0,0,1,0,.992l-3.021,3.015.524.523a.7.7,0,0,0,.99,0l3.545-3.538a.7.7,0,0,0,0-.992ZM306.078,74.254v-4.04a.7.7,0,0,0-.7-.7h-2.038a.7.7,0,0,1,.7.7v4.2a1.509,1.509,0,0,0,1.07,1.444,14.573,14.573,0,0,1,2.075.81,1.509,1.509,0,0,0,2.075-.852l.137-.382A14.506,14.506,0,0,0,306.078,74.254Zm1.21,26.408a14.584,14.584,0,0,1-2.178.861,1.509,1.509,0,0,0-1.07,1.444V106.8a.7.7,0,0,1-.7.7h2.038a.7.7,0,0,0,.7-.7v-4.04a14.51,14.51,0,0,0,3.318-1.178l-.07-.161A1.505,1.505,0,0,0,307.288,100.662Z" transform="translate(-303.339 -69.513)" fill="#8ac9fe"/>
      </g>
      <g id="Grupo_1226393" data-name="Grupo 1226393" transform="translate(19.684 0.764)">
        <g id="Grupo_1226389" data-name="Grupo 1226389" transform="translate(0 0)">
          <path id="Trazado_1060379" data-name="Trazado 1060379" d="M50.775,58.123H29.415a2.993,2.993,0,0,1-2.993-2.993V10.5A2.993,2.993,0,0,1,29.415,7.5h21.36A2.993,2.993,0,0,1,53.768,10.5V55.13A2.993,2.993,0,0,1,50.775,58.123Z" transform="translate(-26.422 -7.503)" fill="#b0e7c9"/>
        </g>
        <g id="Grupo_1226390" data-name="Grupo 1226390" transform="translate(22.306)">
          <path id="Trazado_1060380" data-name="Trazado 1060380" d="M250.465,10.493V55.127a2.994,2.994,0,0,1-2.993,2.993h-2.047a2.994,2.994,0,0,0,2.993-2.993V10.493A2.994,2.994,0,0,0,245.425,7.5h2.047A2.994,2.994,0,0,1,250.465,10.493Z" transform="translate(-245.425 -7.5)" fill="#91deb6"/>
        </g>
        <g id="Grupo_1226391" data-name="Grupo 1226391" transform="translate(0 42.424)">
          <path id="Trazado_1060381" data-name="Trazado 1060381" d="M50.775,432.218H29.415a2.993,2.993,0,0,1-2.993-2.993v-5.2H53.768v5.2A2.993,2.993,0,0,1,50.775,432.218Z" transform="translate(-26.422 -424.021)" fill="#cecece"/>
        </g>
        <g id="Grupo_1226392" data-name="Grupo 1226392" transform="translate(22.306 42.424)">
          <path id="Trazado_1060382" data-name="Trazado 1060382" d="M250.465,424.02v5.2a2.994,2.994,0,0,1-2.993,2.993h-2.047a2.994,2.994,0,0,0,2.993-2.993v-5.2Z" transform="translate(-245.425 -424.02)" fill="#bfbfbf"/>
        </g>
      </g>
      <g id="Grupo_1226397" data-name="Grupo 1226397" transform="translate(22.879 5.456)">
        <g id="Grupo_1226394" data-name="Grupo 1226394">
          <path id="Trazado_1060383" data-name="Trazado 1060383" d="M62.686,58.72H58.037a.251.251,0,0,1-.251-.251V53.82a.251.251,0,0,1,.251-.251h4.649a.251.251,0,0,1,.251.251v4.649A.251.251,0,0,1,62.686,58.72Z" transform="translate(-57.786 -53.569)" fill="#f8f6f6"/>
        </g>
        <g id="Grupo_1226395" data-name="Grupo 1226395" transform="translate(7.903)">
          <path id="Trazado_1060384" data-name="Trazado 1060384" d="M140.279,58.72H135.63a.251.251,0,0,1-.251-.251V53.82a.251.251,0,0,1,.251-.251h4.649a.251.251,0,0,1,.251.251v4.649A.251.251,0,0,1,140.279,58.72Z" transform="translate(-135.379 -53.569)" fill="#fedba6"/>
        </g>
        <g id="Grupo_1226396" data-name="Grupo 1226396" transform="translate(15.806)">
          <path id="Trazado_1060385" data-name="Trazado 1060385" d="M217.872,58.72h-4.649a.251.251,0,0,1-.251-.251V53.82a.251.251,0,0,1,.251-.251h4.649a.251.251,0,0,1,.251.251v4.649A.251.251,0,0,1,217.872,58.72Z" transform="translate(-212.972 -53.569)" fill="#f8f6f6"/>
        </g>
      </g>
      <g id="Grupo_1226401" data-name="Grupo 1226401" transform="translate(22.879 14.096)">
        <g id="Grupo_1226398" data-name="Grupo 1226398">
          <path id="Trazado_1060386" data-name="Trazado 1060386" d="M62.686,143.549H58.037a.251.251,0,0,1-.251-.251v-4.649a.251.251,0,0,1,.251-.251h4.649a.251.251,0,0,1,.251.251V143.3A.251.251,0,0,1,62.686,143.549Z" transform="translate(-57.786 -138.398)" fill="#fedba6"/>
        </g>
        <g id="Grupo_1226399" data-name="Grupo 1226399" transform="translate(7.903)">
          <path id="Trazado_1060387" data-name="Trazado 1060387" d="M140.279,143.549H135.63a.251.251,0,0,1-.251-.251v-4.649a.251.251,0,0,1,.251-.251h4.649a.251.251,0,0,1,.251.251V143.3A.251.251,0,0,1,140.279,143.549Z" transform="translate(-135.379 -138.398)" fill="#f8f6f6"/>
        </g>
        <g id="Grupo_1226400" data-name="Grupo 1226400" transform="translate(15.806)">
          <path id="Trazado_1060388" data-name="Trazado 1060388" d="M217.872,143.549h-4.649a.251.251,0,0,1-.251-.251v-4.649a.251.251,0,0,1,.251-.251h4.649a.251.251,0,0,1,.251.251V143.3A.251.251,0,0,1,217.872,143.549Z" transform="translate(-212.972 -138.398)" fill="#fedba6"/>
        </g>
      </g>
      <g id="Grupo_1226405" data-name="Grupo 1226405" transform="translate(25.933 5.456)">
        <g id="Grupo_1226402" data-name="Grupo 1226402">
          <path id="Trazado_1060389" data-name="Trazado 1060389" d="M89.868,53.819v4.648a.251.251,0,0,1-.252.251H87.771a.251.251,0,0,0,.252-.251V53.819a.252.252,0,0,0-.252-.252h1.845a.252.252,0,0,1,.252.252Z" transform="translate(-87.771 -53.567)" fill="#ebebeb"/>
        </g>
        <g id="Grupo_1226403" data-name="Grupo 1226403" transform="translate(7.903)">
          <path id="Trazado_1060390" data-name="Trazado 1060390" d="M167.46,53.819v4.648a.251.251,0,0,1-.252.251h-1.845a.251.251,0,0,0,.252-.251V53.819a.252.252,0,0,0-.252-.252h1.845a.252.252,0,0,1,.252.252Z" transform="translate(-165.363 -53.567)" fill="#fece85"/>
        </g>
        <g id="Grupo_1226404" data-name="Grupo 1226404" transform="translate(15.806)">
          <path id="Trazado_1060391" data-name="Trazado 1060391" d="M245.052,53.819v4.648a.25.25,0,0,1-.251.251h-1.846a.251.251,0,0,0,.252-.251V53.819a.252.252,0,0,0-.252-.252H244.8a.251.251,0,0,1,.251.252Z" transform="translate(-242.955 -53.567)" fill="#ebebeb"/>
        </g>
      </g>
      <g id="Grupo_1226409" data-name="Grupo 1226409" transform="translate(25.933 14.097)">
        <g id="Grupo_1226406" data-name="Grupo 1226406">
          <path id="Trazado_1060392" data-name="Trazado 1060392" d="M89.868,138.653V143.3a.252.252,0,0,1-.252.252H87.771a.252.252,0,0,0,.252-.252v-4.648a.251.251,0,0,0-.252-.251h1.845A.251.251,0,0,1,89.868,138.653Z" transform="translate(-87.771 -138.402)" fill="#fece85"/>
        </g>
        <g id="Grupo_1226407" data-name="Grupo 1226407" transform="translate(7.903)">
          <path id="Trazado_1060393" data-name="Trazado 1060393" d="M167.46,138.653V143.3a.251.251,0,0,1-.252.252h-1.845a.252.252,0,0,0,.252-.252v-4.648a.251.251,0,0,0-.252-.251h1.845A.251.251,0,0,1,167.46,138.653Z" transform="translate(-165.363 -138.402)" fill="#ebebeb"/>
        </g>
        <g id="Grupo_1226408" data-name="Grupo 1226408" transform="translate(15.806)">
          <path id="Trazado_1060394" data-name="Trazado 1060394" d="M245.052,138.653V143.3a.251.251,0,0,1-.251.252h-1.846a.251.251,0,0,0,.252-.252v-4.648a.251.251,0,0,0-.252-.251H244.8A.25.25,0,0,1,245.052,138.653Z" transform="translate(-242.955 -138.402)" fill="#fece85"/>
        </g>
      </g>
      <g id="Grupo_1226410" data-name="Grupo 1226410" transform="translate(18.92)">
        <path id="Trazado_1060395" data-name="Trazado 1060395" d="M145.723,458.284h1.671a.764.764,0,1,0,0-1.528h-1.671a.764.764,0,1,0,0,1.528Z" transform="translate(-132.122 -410.234)"/>
        <path id="Trazado_1060396" data-name="Trazado 1060396" d="M65.749,22.108H62.3a15.221,15.221,0,0,0-1.549-3.731l2.438-2.433a1.465,1.465,0,0,0,0-2.074l-3.544-3.538a1.467,1.467,0,0,0-2.07,0l-2.441,2.436a15.274,15.274,0,0,0-3.74-1.547V7.781a1.467,1.467,0,0,0-1.465-1.465H47.794V3.757A3.762,3.762,0,0,0,44.037,0H22.677A3.762,3.762,0,0,0,18.92,3.757V8.771a.764.764,0,0,0,1.528,0V3.757a2.232,2.232,0,0,1,2.229-2.229H44.037a2.232,2.232,0,0,1,2.229,2.229V42.423H20.448V12.286a.764.764,0,0,0-1.528,0V48.391a3.762,3.762,0,0,0,3.757,3.757H44.037a3.762,3.762,0,0,0,3.757-3.757V45.833h2.133a1.467,1.467,0,0,0,1.465-1.465V40.927a15.273,15.273,0,0,0,3.74-1.547l2.441,2.436a1.467,1.467,0,0,0,2.07,0l3.545-3.538a1.465,1.465,0,0,0,0-2.074L60.75,33.771A15.218,15.218,0,0,0,62.3,30.041h3.45a1.467,1.467,0,0,0,1.465-1.465v-5a1.467,1.467,0,0,0-1.465-1.465ZM46.266,48.391a2.232,2.232,0,0,1-2.229,2.229H22.677a2.231,2.231,0,0,1-2.229-2.229V43.952H46.266Zm19.42-19.879H61.7a.764.764,0,0,0-.746.6,13.713,13.713,0,0,1-1.814,4.369.764.764,0,0,0,.105.951l2.818,2.813-3.455,3.448-2.82-2.814a.764.764,0,0,0-.949-.1,13.766,13.766,0,0,1-4.378,1.811.764.764,0,0,0-.6.746V44.3h-2.07V35.57a9.533,9.533,0,0,0,5.785-2.248.764.764,0,1,0-.988-1.166,8,8,0,0,1-4.8,1.884V18.108a7.993,7.993,0,0,1,7.618,7.966,7.876,7.876,0,0,1-.858,3.6.764.764,0,0,0,1.363.692,9.392,9.392,0,0,0,1.024-4.292,9.523,9.523,0,0,0-9.147-9.5V7.844h2.07v3.977a.764.764,0,0,0,.6.746,13.77,13.77,0,0,1,4.378,1.811.764.764,0,0,0,.949-.1l2.82-2.814,3.455,3.448L59.245,17.72a.764.764,0,0,0-.105.951,13.711,13.711,0,0,1,1.814,4.369.764.764,0,0,0,.746.6h3.986v4.875Z" transform="translate(-18.92)"/>
        <path id="Trazado_1060397" data-name="Trazado 1060397" d="M51.3,52.746h4.649a1.016,1.016,0,0,0,1.015-1.015V47.082a1.016,1.016,0,0,0-1.015-1.015H51.3a1.016,1.016,0,0,0-1.015,1.015v4.649A1.016,1.016,0,0,0,51.3,52.746Zm.513-5.151h3.622v3.622H51.812Z" transform="translate(-47.09 -41.375)"/>
        <path id="Trazado_1060398" data-name="Trazado 1060398" d="M128.891,52.746h4.649a1.016,1.016,0,0,0,1.015-1.015V47.082a1.016,1.016,0,0,0-1.015-1.015h-4.649a1.016,1.016,0,0,0-1.015,1.015v4.649A1.016,1.016,0,0,0,128.891,52.746ZM129.4,47.6h3.622v3.622H129.4Z" transform="translate(-116.779 -41.375)"/>
        <path id="Trazado_1060399" data-name="Trazado 1060399" d="M206.485,52.746h4.649a1.016,1.016,0,0,0,1.015-1.015V47.082a1.016,1.016,0,0,0-1.015-1.015h-4.649a1.016,1.016,0,0,0-1.015,1.015v4.649A1.016,1.016,0,0,0,206.485,52.746ZM207,47.6h3.622v3.622H207Z" transform="translate(-186.469 -41.375)"/>
        <path id="Trazado_1060400" data-name="Trazado 1060400" d="M50.284,136.56a1.016,1.016,0,0,0,1.015,1.015h4.649a1.016,1.016,0,0,0,1.015-1.015v-4.649a1.016,1.016,0,0,0-1.015-1.015H51.3a1.016,1.016,0,0,0-1.015,1.015Zm1.528-4.135h3.622v3.622H51.812Z" transform="translate(-47.09 -117.564)"/>
        <path id="Trazado_1060401" data-name="Trazado 1060401" d="M127.876,136.56a1.016,1.016,0,0,0,1.015,1.015h4.649a1.016,1.016,0,0,0,1.015-1.015v-4.649a1.016,1.016,0,0,0-1.015-1.015h-4.649a1.016,1.016,0,0,0-1.015,1.015Zm1.528-4.135h3.622v3.622H129.4Z" transform="translate(-116.779 -117.564)"/>
        <path id="Trazado_1060402" data-name="Trazado 1060402" d="M205.469,136.56a1.016,1.016,0,0,0,1.015,1.015h4.649a1.016,1.016,0,0,0,1.015-1.015v-4.649a1.016,1.016,0,0,0-1.015-1.015h-4.649a1.016,1.016,0,0,0-1.015,1.015ZM207,132.424h3.622v3.622H207Z" transform="translate(-186.469 -117.564)"/>
      </g>
    </g>
  </g>
</svg>
