<svg xmlns="http://www.w3.org/2000/svg" xmlns:xlink="http://www.w3.org/1999/xlink" width="102" height="102" viewBox="0 0 102 102">
  <defs>
    <filter id="Trazado_904820" x="0" y="0" width="102" height="102" filterUnits="userSpaceOnUse">
      <feOffset dy="3" input="SourceAlpha"/>
      <feGaussianBlur stdDeviation="3" result="blur"/>
      <feFlood flood-opacity="0.161"/>
      <feComposite operator="in" in2="blur"/>
      <feComposite in="SourceGraphic"/>
    </filter>
  </defs>
  <g id="Grupo_1226257" data-name="Grupo 1226257" transform="translate(-170.999 -1154)">
    <g id="Grupo_1211916" data-name="Grupo 1211916" transform="translate(179.999 1160)">
      <g id="Grupo_1173585" data-name="Grupo 1173585" transform="translate(0 0)">
        <g id="Grupo_1173428" data-name="Grupo 1173428">
          <g id="Grupo_1171958" data-name="Grupo 1171958">
            <g id="Grupo_1167341" data-name="Grupo 1167341">
              <g id="Grupo_1166792" data-name="Grupo 1166792">
                <g transform="matrix(1, 0, 0, 1, -9, -6)" filter="url(#Trazado_904820)">
                  <g id="Trazado_904820-2" data-name="Trazado 904820" transform="translate(9 6)" fill="#efecfa">
                    <path d="M 41.99999618530273 82.50003814697266 C 36.53186798095703 82.50003814697266 31.22811317443848 81.42943572998047 26.23603057861328 79.31795501708984 C 21.41350173950195 77.2781982421875 17.08211326599121 74.3577880859375 13.36217308044434 70.63784790039062 C 9.642243385314941 66.91791534423828 6.721831321716309 62.58651733398438 4.682066917419434 57.76398849487305 C 2.570596218109131 52.77191543579102 1.499996185302734 47.4681510925293 1.499996185302734 42.00002288818359 C 1.499996185302734 36.53189468383789 2.570596218109131 31.22812843322754 4.682066917419434 26.23605728149414 C 6.721831321716309 21.41352844238281 9.642243385314941 17.08212852478027 13.36217308044434 13.3621997833252 C 17.08211326599121 9.642258644104004 21.41350173950195 6.721846580505371 26.23603057861328 4.682093620300293 C 31.22811317443848 2.570611238479614 36.53186798095703 1.500011086463928 41.99999618530273 1.500011086463928 C 47.46812438964844 1.500011086463928 52.77187728881836 2.570611238479614 57.76396179199219 4.682093620300293 C 62.58649063110352 6.721846580505371 66.91787719726562 9.642258644104004 70.6378173828125 13.3621997833252 C 74.35774993896484 17.08212852478027 77.27816009521484 21.41352844238281 79.31792449951172 26.23605728149414 C 81.42939758300781 31.22812843322754 82.5 36.53189468383789 82.5 42.00002288818359 C 82.5 47.4681510925293 81.42939758300781 52.77191543579102 79.31792449951172 57.76398849487305 C 77.27816009521484 62.58651733398438 74.35774993896484 66.91791534423828 70.6378173828125 70.63784790039062 C 66.91787719726562 74.3577880859375 62.58649063110352 77.2781982421875 57.76396179199219 79.31795501708984 C 52.77187728881836 81.42943572998047 47.46812438964844 82.50003814697266 41.99999618530273 82.50003814697266 Z" stroke="none"/>
                    <path d="M 41.99999618530273 3.000007629394531 C 36.73370361328125 3.000007629394531 31.62654113769531 4.030746459960938 26.82035446166992 6.0635986328125 C 22.1766242980957 8.027732849121094 18.0054931640625 10.84017944335938 14.42283630371094 14.4228515625 C 10.84017181396484 18.00551605224609 8.027717590332031 22.17665100097656 6.063583374023438 26.82038116455078 C 4.030731201171875 31.62656784057617 2.999992370605469 36.73373031616211 2.999992370605469 42.00002288818359 C 2.999992370605469 47.26630401611328 4.030731201171875 52.37347412109375 6.063583374023438 57.17966461181641 C 8.027717590332031 61.82339477539062 10.84017181396484 65.99451446533203 14.42283630371094 69.57717895507812 C 18.0054931640625 73.15985107421875 22.1766242980957 75.97230529785156 26.82035446166992 77.93643951416016 C 31.62654113769531 79.96929168701172 36.73370361328125 81.00002288818359 41.99999618530273 81.00002288818359 C 47.26628875732422 81.00002288818359 52.37345123291016 79.96929168701172 57.17963409423828 77.93643951416016 C 61.82337188720703 75.97230529785156 65.9945068359375 73.15985107421875 69.57715606689453 69.57717895507812 C 73.15982055664062 65.99451446533203 75.97227478027344 61.82339477539062 77.93640899658203 57.17966461181641 C 79.96926116943359 52.37347412109375 81 47.26630401611328 81 42.00002288818359 C 81 36.73373031616211 79.96926116943359 31.62656784057617 77.93640899658203 26.82038116455078 C 75.97227478027344 22.17665100097656 73.15982055664062 18.00551605224609 69.57715606689453 14.4228515625 C 65.9945068359375 10.84017944335938 61.82337188720703 8.027732849121094 57.17963409423828 6.0635986328125 C 52.37345123291016 4.030746459960938 47.26628875732422 3.000007629394531 41.99999618530273 3.000007629394531 M 41.99999618530273 7.62939453125e-06 C 65.19595336914062 7.62939453125e-06 84 18.80406188964844 84 42.00002288818359 C 84 65.19596862792969 65.19595336914062 84.00002288818359 41.99999618530273 84.00002288818359 C 18.80403900146484 84.00002288818359 -7.62939453125e-06 65.19596862792969 -7.62939453125e-06 42.00002288818359 C -7.62939453125e-06 18.80406188964844 18.80403900146484 7.62939453125e-06 41.99999618530273 7.62939453125e-06 Z" stroke="none" fill="#c3b7ef"/>
                  </g>
                </g>
              </g>
            </g>
          </g>
        </g>
      </g>
    </g>
    <g id="ingeniero-de-datos" transform="translate(195.491 1174.992)">
      <g id="Grupo_1226240" data-name="Grupo 1226240">
        <path id="Trazado_1060123" data-name="Trazado 1060123" d="M26.974,24.547a.268.268,0,0,1,.108-.194,8.283,8.283,0,0,0,1.692-1.688.268.268,0,0,1,.195-.108l2.1-.157a.485.485,0,0,0,.433-.358l.9-3.335a.486.486,0,0,0-.195-.527l-1.74-1.191a.268.268,0,0,1-.114-.191,8.22,8.22,0,0,0-.615-2.309.268.268,0,0,1,0-.223l.914-1.9a.486.486,0,0,0-.094-.554L28.121,9.37a.486.486,0,0,0-.554-.095l-1.9.91a.268.268,0,0,1-.223,0,8.221,8.221,0,0,0-2.308-.62.268.268,0,0,1-.191-.115L21.759,7.712a.486.486,0,0,0-.527-.2l-3.337.89a.486.486,0,0,0-.359.432l-.162,2.1a.268.268,0,0,1-.108.194,8.282,8.282,0,0,0-1.692,1.688.268.268,0,0,1-.195.108l-2.1.157a.485.485,0,0,0-.433.358l-.9,3.335a.486.486,0,0,0,.195.527l1.74,1.191A.268.268,0,0,1,14,18.69,8.22,8.22,0,0,0,14.613,21a.268.268,0,0,1,0,.223l-.914,1.9a.486.486,0,0,0,.094.554l2.44,2.445a.486.486,0,0,0,.554.095l1.9-.91a.268.268,0,0,1,.223,0,8.22,8.22,0,0,0,2.308.62.268.268,0,0,1,.191.115l1.187,1.742a.486.486,0,0,0,.527.2l3.337-.89a.486.486,0,0,0,.359-.432Zm-7.707-3.9a4.108,4.108,0,1,1,5.809.006A4.108,4.108,0,0,1,19.267,20.645Z" transform="translate(-10.697 -6.723)" fill="#6fd7a3"/>
        <g id="Grupo_1226225" data-name="Grupo 1226225" transform="translate(9.982 0.777)">
          <path id="Trazado_1060124" data-name="Trazado 1060124" d="M114.188,186.885H138.26a8.088,8.088,0,0,1,8.088,8.088,9.846,9.846,0,0,1-9.846,9.846H115.946a9.846,9.846,0,0,1-9.846-9.846A8.088,8.088,0,0,1,114.188,186.885Z" transform="translate(-105.096 -168.311)" fill="#7a6d79"/>
          <g id="Grupo_1226224" data-name="Grupo 1226224">
            <g id="Grupo_1226223" data-name="Grupo 1226223">
              <g id="Grupo_1226222" data-name="Grupo 1226222">
                <g id="Grupo_1226221" data-name="Grupo 1226221">
                  <g id="Grupo_1226220" data-name="Grupo 1226220">
                    <g id="Grupo_1226219" data-name="Grupo 1226219">
                      <path id="Trazado_1060125" data-name="Trazado 1060125" d="M171.41,288.934a13.472,13.472,0,1,1,26.944.129v.829a1.916,1.916,0,0,1-1.916,1.916H173.326a1.916,1.916,0,0,1-1.916-1.916Z" transform="translate(-163.643 -247.719)" fill="#f9f7f8"/>
                      <ellipse id="Elipse_12633" data-name="Elipse 12633" cx="5.31" cy="4.806" rx="5.31" ry="4.806" transform="translate(15.929 28.949)" fill="#ffdab3"/>
                      <g id="Grupo_1226218" data-name="Grupo 1226218">
                        <g id="Grupo_1226216" data-name="Grupo 1226216" transform="translate(0 16.703)">
                          <ellipse id="Elipse_12634" data-name="Elipse 12634" cx="2.908" cy="2.907" rx="2.908" ry="2.907" fill="#ffdab3"/>
                          <ellipse id="Elipse_12635" data-name="Elipse 12635" cx="2.908" cy="2.907" rx="2.908" ry="2.907" transform="translate(36.441)" fill="#ffdab3"/>
                        </g>
                        <ellipse id="Elipse_12636" data-name="Elipse 12636" cx="17.116" cy="15.492" rx="17.116" ry="15.492" transform="translate(4.012 4.118)" fill="#ffdab3"/>
                        <path id="Trazado_1060126" data-name="Trazado 1060126" d="M284.468,48.237A16.346,16.346,0,0,1,295.5,63.629c0,7.922-6.569,14.453-15.045,15.379a19.071,19.071,0,0,0,2.071.113c9.453,0,17.116-6.936,17.116-15.492C299.638,55.669,293,49.112,284.468,48.237Z" transform="translate(-261.394 -44.019)" fill="#ffc998"/>
                        <path id="Trazado_1060127" data-name="Trazado 1060127" d="M266.195,239.817a.956.956,0,0,1,.926,1.206,4.479,4.479,0,0,1-8.626,0,.956.956,0,0,1,.926-1.206Z" transform="translate(-241.68 -215.762)" fill="#f9f7f8"/>
                        <g id="Grupo_1226217" data-name="Grupo 1226217" transform="translate(2.561)">
                          <path id="Trazado_1060128" data-name="Trazado 1060128" d="M479.594,168.1c-.006-.036-.013-.07-.019-.106,0,.035,0,.069,0,.1Z" transform="translate(-442.461 -151.377)" fill="#f9f7f8"/>
                          <path id="Trazado_1060129" data-name="Trazado 1060129" d="M121.139,168.02l.015,0c0-.038,0-.076,0-.113C121.153,167.943,121.145,167.981,121.139,168.02Z" transform="translate(-121.139 -151.296)" fill="#f9f7f8"/>
                          <path id="Trazado_1060130" data-name="Trazado 1060130" d="M158.386,24.118C157.951,14.872,149.814,7.5,139.839,7.5s-18.107,7.367-18.547,16.609c0,.038,0,.076,0,.113l.022,0a2.874,2.874,0,0,1,1.653.314c1.62.645,2.359.008,3.279-1.52a5.246,5.246,0,0,1,4.5-2.535h7.578a10.606,10.606,0,0,0,8.186-3.863,1.437,1.437,0,0,1,2.266.071c1.616,2.218,2.231,8.571,7.949,7.847a7.157,7.157,0,0,1,1.653-.314l.022,0c0-.034,0-.069,0-.1Z" transform="translate(-121.272 -7.5)" fill="#7a6d79"/>
                        </g>
                      </g>
                    </g>
                  </g>
                </g>
              </g>
            </g>
          </g>
        </g>
        <g id="Grupo_1226239" data-name="Grupo 1226239">
          <g id="Grupo_1226226" data-name="Grupo 1226226" transform="translate(0.777 26.566)">
            <path id="Trazado_1060131" data-name="Trazado 1060131" d="M7.5,416.615c0,1.961,4.574,3.55,10.216,3.55s10.216-1.59,10.216-3.55v-6.191H7.5Z" transform="translate(-7.5 -394.492)" fill="#7a6d79"/>
            <path id="Trazado_1060132" data-name="Trazado 1060132" d="M94.313,410.423v6.191c0,1.714-3.5,3.145-8.146,3.477.669.048,1.361.073,2.071.073,5.642,0,10.216-1.59,10.216-3.55v-6.191H94.313Z" transform="translate(-78.021 -394.491)" fill="#685e68"/>
            <path id="Trazado_1060133" data-name="Trazado 1060133" d="M7.5,356.19c0,1.961,4.574,3.55,10.216,3.55s10.216-1.59,10.216-3.55v-6.264H7.5Z" transform="translate(-7.5 -340.258)" fill="#f9f7f8"/>
            <path id="Trazado_1060134" data-name="Trazado 1060134" d="M164.834,349.927v9.119c2.513-.647,4.142-1.685,4.142-2.855v-6.264Z" transform="translate(-148.543 -340.259)" fill="#dedbee"/>
            <path id="Trazado_1060135" data-name="Trazado 1060135" d="M7.5,297.039c0,1.961,4.574,3.55,10.216,3.55s10.216-1.59,10.216-3.55v-6.191H7.5Z" transform="translate(-7.5 -287.298)" fill="#7a6d79"/>
            <path id="Trazado_1060136" data-name="Trazado 1060136" d="M164.834,290.848v9.045c2.513-.647,4.142-1.685,4.142-2.855v-6.191Z" transform="translate(-148.543 -287.298)" fill="#685e68"/>
            <ellipse id="Elipse_12637" data-name="Elipse 12637" cx="10.216" cy="3.55" rx="10.216" ry="3.55" fill="#c8effe"/>
          </g>
          <g id="Grupo_1226230" data-name="Grupo 1226230">
            <g id="Grupo_1226227" data-name="Grupo 1226227">
              <path id="Trazado_1060137" data-name="Trazado 1060137" fill="#fff"/>
            </g>
            <g id="Grupo_1226228" data-name="Grupo 1226228">
              <path id="Trazado_1060138" data-name="Trazado 1060138" fill="#fff"/>
            </g>
            <g id="Grupo_1226229" data-name="Grupo 1226229">
              <path id="Trazado_1060139" data-name="Trazado 1060139" fill="#fff"/>
            </g>
          </g>
          <g id="Grupo_1226234" data-name="Grupo 1226234">
            <g id="Grupo_1226231" data-name="Grupo 1226231">
              <path id="Trazado_1060140" data-name="Trazado 1060140" fill="#fff"/>
            </g>
            <g id="Grupo_1226232" data-name="Grupo 1226232">
              <path id="Trazado_1060141" data-name="Trazado 1060141" fill="#fff"/>
            </g>
            <g id="Grupo_1226233" data-name="Grupo 1226233">
              <path id="Trazado_1060142" data-name="Trazado 1060142" fill="#fff"/>
            </g>
          </g>
          <g id="Grupo_1226238" data-name="Grupo 1226238">
            <g id="Grupo_1226235" data-name="Grupo 1226235">
              <path id="Trazado_1060143" data-name="Trazado 1060143" fill="#fff"/>
            </g>
            <g id="Grupo_1226236" data-name="Grupo 1226236">
              <path id="Trazado_1060144" data-name="Trazado 1060144" fill="#fff"/>
            </g>
            <g id="Grupo_1226237" data-name="Grupo 1226237">
              <path id="Trazado_1060145" data-name="Trazado 1060145" fill="#fff"/>
            </g>
          </g>
        </g>
      </g>
      <g id="Grupo_1226256" data-name="Grupo 1226256">
        <g id="Grupo_1226254" data-name="Grupo 1226254">
          <g id="Grupo_1226253" data-name="Grupo 1226253">
            <g id="Grupo_1226244" data-name="Grupo 1226244">
              <g id="Grupo_1226241" data-name="Grupo 1226241">
                <path id="Trazado_1060146" data-name="Trazado 1060146" fill="#fff"/>
              </g>
              <g id="Grupo_1226242" data-name="Grupo 1226242">
                <path id="Trazado_1060147" data-name="Trazado 1060147" fill="#fff"/>
              </g>
              <g id="Grupo_1226243" data-name="Grupo 1226243">
                <path id="Trazado_1060148" data-name="Trazado 1060148" fill="#fff"/>
              </g>
            </g>
            <g id="Grupo_1226248" data-name="Grupo 1226248">
              <g id="Grupo_1226245" data-name="Grupo 1226245">
                <path id="Trazado_1060149" data-name="Trazado 1060149" fill="#fff"/>
              </g>
              <g id="Grupo_1226246" data-name="Grupo 1226246">
                <path id="Trazado_1060150" data-name="Trazado 1060150" fill="#fff"/>
              </g>
              <g id="Grupo_1226247" data-name="Grupo 1226247">
                <path id="Trazado_1060151" data-name="Trazado 1060151" fill="#fff"/>
              </g>
            </g>
            <g id="Grupo_1226252" data-name="Grupo 1226252">
              <g id="Grupo_1226249" data-name="Grupo 1226249">
                <path id="Trazado_1060152" data-name="Trazado 1060152" fill="#fff"/>
              </g>
              <g id="Grupo_1226250" data-name="Grupo 1226250">
                <path id="Trazado_1060153" data-name="Trazado 1060153" fill="#fff"/>
              </g>
              <g id="Grupo_1226251" data-name="Grupo 1226251">
                <path id="Trazado_1060154" data-name="Trazado 1060154" fill="#fff"/>
              </g>
            </g>
          </g>
        </g>
        <g id="Grupo_1226255" data-name="Grupo 1226255" transform="translate(0 0)">
          <path id="Trazado_1060155" data-name="Trazado 1060155" d="M53.015,20.386A3.69,3.69,0,0,0,50.4,16.862a17.15,17.15,0,0,0-1.917-6.683,18.315,18.315,0,0,0-4.649-5.692.777.777,0,1,0-.986,1.2,16.113,16.113,0,0,1,5.989,11.106q-.471.137-.95.247a4.2,4.2,0,0,1-3.921-1.322,12.935,12.935,0,0,1-2.082-3.76,12.611,12.611,0,0,0-1.221-2.452A2.245,2.245,0,0,0,37.172,9.4a9.8,9.8,0,0,1-7.587,3.58H22.008a6.051,6.051,0,0,0-5.161,2.912c-.8,1.328-1.181,1.64-2.274,1.219a3.7,3.7,0,0,0-1.186-.374C14.2,7.819,22.445,1.553,31.11,1.553A18.689,18.689,0,0,1,40.405,4a.777.777,0,0,0,.773-1.347A20.388,20.388,0,0,0,19.5,3.632L17.974,2.1a1.263,1.263,0,0,0-1.439-.247l-1.693.811A8.99,8.99,0,0,0,12.763,2.1L11.7.551A1.264,1.264,0,0,0,10.336.043L7,.933a1.264,1.264,0,0,0-.933,1.123L5.922,3.93A9.047,9.047,0,0,0,4.4,5.45l-1.874.14A1.264,1.264,0,0,0,1.4,6.52L.5,9.856a1.264,1.264,0,0,0,.506,1.369l1.551,1.062a8.991,8.991,0,0,0,.554,2.08L2.3,16.058a1.264,1.264,0,0,0,.244,1.44l2.44,2.445a1.306,1.306,0,0,0,1.439.247l1.693-.811a9,9,0,0,0,1.148.372A3.738,3.738,0,0,0,11.086,23.6a8.745,8.745,0,0,0-.724,2.2,23.006,23.006,0,0,0-6.848,1.076C.61,27.881,0,29.193,0,30.116V48.688c0,.923.61,2.235,3.514,3.244a23.653,23.653,0,0,0,7.479,1.083,28.735,28.735,0,0,0,3.617-.222.777.777,0,1,0-.2-1.541,27.158,27.158,0,0,1-3.421.21,22.083,22.083,0,0,1-6.969-1c-1.824-.634-2.471-1.353-2.471-1.777V44.822a9.067,9.067,0,0,0,1.961.92,23.65,23.65,0,0,0,7.479,1.083,23.65,23.65,0,0,0,7.479-1.083,9.067,9.067,0,0,0,1.961-.92v3.866c0,.75-1.58,1.54-3.146,1.99a.777.777,0,0,0-.532.961.823.823,0,0,0,.961.532c2.753-.792,4.27-2.029,4.27-3.483V45.642h20.79a2.7,2.7,0,0,0,2.693-2.692,16.282,16.282,0,0,0-.748-5.422A10.692,10.692,0,0,0,49.7,34.06a10.51,10.51,0,0,0,2.315-6.621,8.865,8.865,0,0,0-.876-3.843,3.685,3.685,0,0,0,1.88-3.21Zm-1.553,0a2.166,2.166,0,0,1-2.6,2.078A14.925,14.925,0,0,0,48.87,18.4,2.04,2.04,0,0,1,51.462,20.386ZM15.349,18.836c1.334,0,2.2-1.1,2.829-2.144a4.49,4.49,0,0,1,3.83-2.159h7.578a11.344,11.344,0,0,0,8.786-4.145.661.661,0,0,1,1.039.034,11.757,11.757,0,0,1,1.043,2.136,14.089,14.089,0,0,0,2.371,4.212,5.643,5.643,0,0,0,4.51,1.87,13.452,13.452,0,0,1,.115,1.747C47.45,28.5,40.12,35.1,31.11,35.1a17.624,17.624,0,0,1-9.124-2.51V30.116c0-.923-.61-2.235-3.514-3.244a17.235,17.235,0,0,0-2.349-.618A13.514,13.514,0,0,1,14.866,18.8a3.052,3.052,0,0,0,.483.04Zm20,17.356a4.791,4.791,0,0,1-8.234.058,19.743,19.743,0,0,0,8.234-.058Zm-33.8.042V32.44a9.067,9.067,0,0,0,1.961.92,23.65,23.65,0,0,0,7.479,1.083,23.649,23.649,0,0,0,7.479-1.083,9.067,9.067,0,0,0,1.961-.92v3.866c0,.424-.647,1.143-2.471,1.777a22.084,22.084,0,0,1-6.969,1,22.083,22.083,0,0,1-6.969-1C2.2,37.45,1.553,36.73,1.553,36.307ZM12.216,14.268a3.364,3.364,0,0,1-4.069-3.251,3.309,3.309,0,0,1,.978-2.354,3.355,3.355,0,0,1,5.15.552A17.364,17.364,0,0,0,12.216,14.268Zm-3.7,3.595a1.044,1.044,0,0,0-.867.016L5.935,18.7,3.787,16.547l.825-1.712a1.044,1.044,0,0,0,.018-.867,7.44,7.44,0,0,1-.557-2.091,1.045,1.045,0,0,0-.447-.743L2.056,10.06l.79-2.937,1.9-.142A1.045,1.045,0,0,0,5.5,6.564a7.508,7.508,0,0,1,1.533-1.53,1.044,1.044,0,0,0,.419-.758l.146-1.9L10.537,1.6l1.071,1.572a1.044,1.044,0,0,0,.742.449,7.441,7.441,0,0,1,2.09.561,1.045,1.045,0,0,0,.867-.016l1.713-.821,1.244,1.247c-.176.147-.35.3-.521.45A18.672,18.672,0,0,0,15.19,7.847a4.928,4.928,0,0,0-7.162-.284,4.853,4.853,0,0,0-1.434,3.452,4.94,4.94,0,0,0,5.328,4.871q-.065.486-.1.976A3.7,3.7,0,0,0,9.858,18.3a7.452,7.452,0,0,1-1.343-.434Zm4.14.407a2.119,2.119,0,0,1,.708.04,14.979,14.979,0,0,0,0,4.154,2.165,2.165,0,0,1-2.6-2.078,2.133,2.133,0,0,1,1.9-2.117Zm.235,5.8a3.694,3.694,0,0,0,.767-.082,14.945,14.945,0,0,0,.643,1.987c-.758-.087-1.546-.145-2.353-.17a7.21,7.21,0,0,1,.643-1.748C12.689,24.065,12.789,24.07,12.89,24.07ZM4.024,28.339a22.084,22.084,0,0,1,6.969-1,22.084,22.084,0,0,1,6.969,1c1.824.634,2.471,1.353,2.471,1.777s-.647,1.143-2.471,1.777a22.084,22.084,0,0,1-6.969,1,22.083,22.083,0,0,1-6.969-1C2.2,31.259,1.553,30.54,1.553,30.116s.647-1.143,2.471-1.777ZM17.962,44.274a22.084,22.084,0,0,1-6.969,1,22.083,22.083,0,0,1-6.969-1C2.2,43.641,1.553,42.921,1.553,42.5V38.631a9.067,9.067,0,0,0,1.961.92,23.65,23.65,0,0,0,7.479,1.083,23.649,23.649,0,0,0,7.479-1.083,9.067,9.067,0,0,0,1.961-.92V42.5C20.433,42.921,19.786,43.641,17.962,44.274Zm25.954-1.325a1.141,1.141,0,0,1-1.14,1.139H21.986v-9.7a18.622,18.622,0,0,0,3.3,1.391,6.011,6.011,0,0,0,5.935,4.339,5.987,5.987,0,0,0,5.954-4.422,18.6,18.6,0,0,0,3.814-1.748A13.576,13.576,0,0,1,43.916,42.949Zm6.542-15.51a9.037,9.037,0,0,1-6.311,8.641,14.414,14.414,0,0,0-1.859-3,16.186,16.186,0,0,0,6.273-9.093,3.554,3.554,0,0,0,1.069.07,7.307,7.307,0,0,1,.829,3.382Z" transform="translate(0 0)"/>
          <path id="Trazado_1060156" data-name="Trazado 1060156" d="M256.1,238.345a5.269,5.269,0,0,0,5.061-3.838,1.747,1.747,0,0,0-1.674-2.192H252.71a1.747,1.747,0,0,0-1.674,2.192A5.27,5.27,0,0,0,256.1,238.345Zm-3.535-4.4a.183.183,0,0,1,.149-.074h6.774a.18.18,0,0,1,.178.221,3.7,3.7,0,0,1-7.13,0A.163.163,0,0,1,252.561,233.944Z" transform="translate(-224.986 -208.261)"/>
          <path id="Trazado_1060157" data-name="Trazado 1060157" d="M23.393,337.606a.776.776,0,1,0,.419-1.014A.781.781,0,0,0,23.393,337.606Z" transform="translate(-20.918 -301.688)"/>
          <path id="Trazado_1060158" data-name="Trazado 1060158" d="M48.149,344.706a.776.776,0,1,0,.407-1.008A.781.781,0,0,0,48.149,344.706Z" transform="translate(-43.112 -308.053)"/>
          <path id="Trazado_1060159" data-name="Trazado 1060159" d="M72.913,348.718a.777.777,0,1,0,.42-1.015.785.785,0,0,0-.42,1.015Z" transform="translate(-65.314 -311.648)"/>
          <path id="Trazado_1060160" data-name="Trazado 1060160" d="M24.826,395.459a.776.776,0,1,0-.468,1.032A.786.786,0,0,0,24.826,395.459Z" transform="translate(-20.917 -354.083)"/>
          <path id="Trazado_1060161" data-name="Trazado 1060161" d="M49.581,402.551a.776.776,0,1,0-.444,1.023A.784.784,0,0,0,49.581,402.551Z" transform="translate(-43.11 -360.44)"/>
          <path id="Trazado_1060162" data-name="Trazado 1060162" d="M74.335,406.57a.776.776,0,1,0-.421,1.013A.784.784,0,0,0,74.335,406.57Z" transform="translate(-65.3 -364.043)"/>
          <path id="Trazado_1060163" data-name="Trazado 1060163" d="M24.774,455.628a.776.776,0,1,0-.215,1.077A.786.786,0,0,0,24.774,455.628Z" transform="translate(-20.937 -408.142)"/>
          <path id="Trazado_1060164" data-name="Trazado 1060164" d="M49.519,462.726A.777.777,0,1,0,49.3,463.8.786.786,0,0,0,49.519,462.726Z" transform="translate(-43.119 -414.506)"/>
          <path id="Trazado_1060165" data-name="Trazado 1060165" d="M74.269,466.744a.777.777,0,1,0-.215,1.077A.785.785,0,0,0,74.269,466.744Z" transform="translate(-65.306 -418.108)"/>
        </g>
      </g>
    </g>
  </g>
</svg>
