<svg xmlns="http://www.w3.org/2000/svg" xmlns:xlink="http://www.w3.org/1999/xlink" width="108" height="108" viewBox="0 0 108 108">
  <defs>
    <filter id="Trazado_904820" x="0" y="0" width="108" height="108" filterUnits="userSpaceOnUse">
      <feOffset dy="3" input="SourceAlpha"/>
      <feGaussianBlur stdDeviation="3" result="blur"/>
      <feFlood flood-opacity="0.161"/>
      <feComposite operator="in" in2="blur"/>
      <feComposite in="SourceGraphic"/>
    </filter>
  </defs>
  <g id="Grupo_1225713" data-name="Grupo 1225713" transform="translate(-198.999 -1004)">
    <g id="Grupo_1211534" data-name="Grupo 1211534" transform="translate(207.999 1010)">
      <g id="Grupo_1173585" data-name="Grupo 1173585" transform="translate(0 0)">
        <g id="Grupo_1173428" data-name="Grupo 1173428">
          <g id="Grupo_1171958" data-name="Grupo 1171958">
            <g id="Grupo_1167341" data-name="Grupo 1167341">
              <g id="Grupo_1166792" data-name="Grupo 1166792">
                <g transform="matrix(1, 0, 0, 1, -9, -6)" filter="url(#Trazado_904820)">
                  <g id="Trazado_904820-2" data-name="Trazado 904820" transform="translate(9 6)" fill="#efecfa">
                    <path d="M 44.99999618530273 88.50003814697266 C 39.12687301635742 88.50003814697266 33.43022155761719 87.35011291503906 28.06829643249512 85.08219909667969 C 22.88852119445801 82.89134979248047 18.23629570007324 79.75462341308594 14.24084663391113 75.75917053222656 C 10.24540901184082 71.76372528076172 7.108683586120605 67.11149597167969 4.917821407318115 61.93172454833984 C 2.649921178817749 56.56979751586914 1.499996185302734 50.87314605712891 1.499996185302734 45.00002288818359 C 1.499996185302734 39.12689971923828 2.649921178817749 33.43024826049805 4.917821407318115 28.06832313537598 C 7.108683586120605 22.88854789733887 10.24540901184082 18.2363224029541 14.24084663391113 14.24087333679199 C 18.23629570007324 10.24543571472168 22.88852119445801 7.108710289001465 28.06829643249512 4.917848110198975 C 33.43022155761719 2.649947881698608 39.12687301635742 1.500022888183594 44.99999618530273 1.500022888183594 C 50.87311935424805 1.500022888183594 56.56977081298828 2.649947881698608 61.93169784545898 4.917848110198975 C 67.11147308349609 7.108710289001465 71.76369476318359 10.24543571472168 75.75914764404297 14.24087333679199 C 79.75458526611328 18.2363224029541 82.89131164550781 22.88854789733887 85.08216857910156 28.06832313537598 C 87.35007476806641 33.43024826049805 88.5 39.12689971923828 88.5 45.00002288818359 C 88.5 50.87314605712891 87.35007476806641 56.56979751586914 85.08216857910156 61.93172454833984 C 82.89131164550781 67.11149597167969 79.75458526611328 71.76372528076172 75.75914764404297 75.75917053222656 C 71.76369476318359 79.75462341308594 67.11147308349609 82.89134979248047 61.93169784545898 85.08219909667969 C 56.56977081298828 87.35011291503906 50.87311935424805 88.50003814697266 44.99999618530273 88.50003814697266 Z" stroke="none"/>
                    <path d="M 44.99999618530273 3.000007629394531 C 39.32870864868164 3.000007629394531 33.82865142822266 4.110069274902344 28.65262603759766 6.299354553222656 C 23.65165710449219 8.414581298828125 19.15968322753906 11.44335174560547 15.301513671875 15.30153656005859 C 11.44333648681641 19.15970611572266 8.414566040039062 23.65166473388672 6.299339294433594 28.65265274047852 C 4.110054016113281 33.82867813110352 2.999992370605469 39.3287353515625 2.999992370605469 45.00002288818359 C 2.999992370605469 50.67131042480469 4.110054016113281 56.17135238647461 6.299339294433594 61.34739685058594 C 8.414566040039062 66.34836578369141 11.44333648681641 70.84032440185547 15.301513671875 74.69850921630859 C 19.15968322753906 78.55667877197266 23.65165710449219 81.58544921875 28.65262603759766 83.70068359375 C 33.82865142822266 85.88996887207031 39.32870864868164 87.00002288818359 44.99999618530273 87.00002288818359 C 50.67128372192383 87.00002288818359 56.17134094238281 85.88996887207031 61.34736633300781 83.70068359375 C 66.34834289550781 81.58544921875 70.84030914306641 78.55667877197266 74.69847869873047 74.69850921630859 C 78.55665588378906 70.84032440185547 81.58542633056641 66.34836578369141 83.70065307617188 61.34739685058594 C 85.88993835449219 56.17135238647461 87 50.67131042480469 87 45.00002288818359 C 87 39.3287353515625 85.88993835449219 33.82867813110352 83.70065307617188 28.65265274047852 C 81.58542633056641 23.65166473388672 78.55665588378906 19.15970611572266 74.69847869873047 15.30153656005859 C 70.84030914306641 11.44335174560547 66.34834289550781 8.414581298828125 61.34736633300781 6.299354553222656 C 56.17134094238281 4.110069274902344 50.67128372192383 3.000007629394531 44.99999618530273 3.000007629394531 M 44.99999618530273 7.62939453125e-06 C 69.85281372070312 7.62939453125e-06 90 20.14720916748047 90 45.00002288818359 C 90 69.85282135009766 69.85281372070312 90.00002288818359 44.99999618530273 90.00002288818359 C 20.14717864990234 90.00002288818359 -7.62939453125e-06 69.85282135009766 -7.62939453125e-06 45.00002288818359 C -7.62939453125e-06 20.14720916748047 20.14717864990234 7.62939453125e-06 44.99999618530273 7.62939453125e-06 Z" stroke="none" fill="#c3b7ef"/>
                  </g>
                </g>
              </g>
            </g>
          </g>
        </g>
      </g>
    </g>
    <g id="desarrollador-de-software_3_" data-name="desarrollador-de-software (3)" transform="translate(220.26 1023)">
      <path id="Trazado_1059486" data-name="Trazado 1059486" d="M51,38V11H11V38L7,47H55Z" fill="#596c80"/>
      <path id="Trazado_1059487" data-name="Trazado 1059487" d="M11,11H51V38H11Z" fill="#bce1fb"/>
      <path id="Trazado_1059488" data-name="Trazado 1059488" d="M49.4,15.181a3.584,3.584,0,0,1-2-3.207A3.381,3.381,0,0,1,47.556,11h-6.1a9.362,9.362,0,0,0-.056,1,9.534,9.534,0,0,0,3.667,7.5v2.029A5.941,5.941,0,0,0,51,27.467V17.235a3,3,0,0,0-1.6-2.054Z" fill="#b2d5ed"/>
      <path id="Trazado_1059489" data-name="Trazado 1059489" d="M57.6,11.961a6.6,6.6,0,0,0-6.8-6.6,6.672,6.672,0,0,0-6.4,6.621,6.594,6.594,0,0,0,3.667,5.882V21.53a2.933,2.933,0,1,0,5.866,0V17.867A6.593,6.593,0,0,0,57.6,11.961Z" fill="#ffeb8c"/>
      <path id="Trazado_1059490" data-name="Trazado 1059490" d="M53.93,19.33v2.2a2.93,2.93,0,0,1-5.86,0v-2.2Z" fill="#748ca6"/>
      <path id="Trazado_1059491" data-name="Trazado 1059491" d="M48.52,45.5a1.5,1.5,0,0,0-1.5,1.5V45a1.5,1.5,0,1,0-3,0V43a1.5,1.5,0,1,0-3,0v1.976a1.5,1.5,0,1,0-3,.024v8L36.5,51.717a1.785,1.785,0,0,0-3.14.48,1.829,1.829,0,0,0,.09,1.34L36.14,58.2A3.175,3.175,0,0,0,39,60v3h8V60a5.7,5.7,0,0,0,3.02-5V47a1.5,1.5,0,0,0-1.5-1.5Z" fill="#e6cdad"/>
      <path id="Trazado_1059492" data-name="Trazado 1059492" d="M26.937,50.977a1.769,1.769,0,0,0-1.44.74L23.98,53V45a1.5,1.5,0,1,0-3-.024V43a1.5,1.5,0,0,0-3,0v2a1.5,1.5,0,0,0-3,0v2a1.5,1.5,0,0,0-3,0v8A5.7,5.7,0,0,0,15,60v3h8V60a3.175,3.175,0,0,0,2.86-1.8l2.687-4.663a1.829,1.829,0,0,0,.09-1.34,1.76,1.76,0,0,0-1.7-1.22Z" fill="#e6cdad"/>
      <path id="Trazado_1059493" data-name="Trazado 1059493" d="M10,11V37.788L6.086,46.594A1,1,0,0,0,7,48h3.98v7A6.614,6.614,0,0,0,14,60.554V63h2V60a1,1,0,0,0-.5-.867A4.72,4.72,0,0,1,12.98,55V47a.5.5,0,0,1,1,0v3h2V45a.5.5,0,0,1,1,0v5h2V43a.5.5,0,0,1,1,0v7h2V44.988a.5.5,0,0,1,1,.012v8a1,1,0,0,0,1.646.764l1.517-1.284a1.008,1.008,0,0,0,.166-.179.768.768,0,0,1,.628-.324.76.76,0,0,1,.747.523.827.827,0,0,1,0,.538L24.962,57.76A2.183,2.183,0,0,1,23,59a1,1,0,0,0-1,1v3h2V60.88a4.113,4.113,0,0,0,2.726-2.18l2.724-4.731a2.824,2.824,0,0,0,.138-2.08,2.785,2.785,0,0,0-4.608-1.1V48H37.02v2.787A2.785,2.785,0,0,0,32.41,51.9a2.848,2.848,0,0,0,.177,2.141l2.656,4.6A4.179,4.179,0,0,0,38,60.88V63h2V60a1,1,0,0,0-1-1,2.219,2.219,0,0,1-1.994-1.3l-2.65-4.6a.814.814,0,0,1-.042-.6.784.784,0,0,1,1.377-.206,1.008,1.008,0,0,0,.166.179l1.517,1.284A1,1,0,0,0,39.02,53V45a.5.5,0,1,1,1-.012V50h2V43a.5.5,0,0,1,1,0v7h2V45a.5.5,0,0,1,1,0v5h2V47a.5.5,0,0,1,1,0v8a4.72,4.72,0,0,1-2.52,4.133A1,1,0,0,0,46,60v3h2V60.554A6.614,6.614,0,0,0,51.02,55V48H55a1,1,0,0,0,.914-1.406L52,37.788V25.322a3.93,3.93,0,0,0,2.933-3.789V18.457a7.595,7.595,0,1,0-11.26-8.472L11,10a1,1,0,0,0-1,1ZM52.933,21.533a1.933,1.933,0,1,1-3.866,0v-1.2h3.866ZM50.827,6.364H51a5.6,5.6,0,0,1,2.486,10.61,1,1,0,0,0-.555.9v.467H49.067v-.467a1,1,0,0,0-.555-.9A5.572,5.572,0,0,1,45.4,11.98a5.7,5.7,0,0,1,5.427-5.616ZM12,12l31.4-.015a7.553,7.553,0,0,0,3.667,6.469V21.53A3.93,3.93,0,0,0,50,25.322V37H12ZM50.35,39l3.111,7H50.808a2.475,2.475,0,0,0-2.834-1.436A2.5,2.5,0,0,0,45.518,42.5a2.448,2.448,0,0,0-.545.064,2.493,2.493,0,0,0-4.911,0A2.486,2.486,0,0,0,37.02,45v1H24.98V45a2.486,2.486,0,0,0-3.042-2.437,2.493,2.493,0,0,0-4.911,0,2.448,2.448,0,0,0-.545-.064,2.5,2.5,0,0,0-2.456,2.064A2.475,2.475,0,0,0,11.192,46H8.539l3.111-7Z"/>
      <path id="Trazado_1059494" data-name="Trazado 1059494" d="M25.985,20.643l-5,3a1,1,0,0,0,0,1.714l5,3,1.03-1.714L23.444,24.5l3.571-2.143Z"/>
      <path id="Trazado_1059495" data-name="Trazado 1059495" d="M41.015,23.643l-5-3-1.03,1.714L38.556,24.5l-3.571,2.143,1.03,1.714,5-3a1,1,0,0,0,0-1.714Z"/>
      <path id="Trazado_1059496" data-name="Trazado 1059496" d="M26.728,23.5h8.544v2H26.728Z" transform="translate(-2.832 44.912) rotate(-69.444)"/>
      <path id="Trazado_1059497" data-name="Trazado 1059497" d="M50,1h2V3.2H50Z"/>
      <path id="Trazado_1059498" data-name="Trazado 1059498" d="M43,3.9h2V6.1H43Z" transform="translate(9.352 32.577) rotate(-45)"/>
      <path id="Trazado_1059499" data-name="Trazado 1059499" d="M56.9,4h2.2V6H56.9Z" transform="translate(13.453 42.477) rotate(-45)"/>
    </g>
  </g>
</svg>
