<svg xmlns="http://www.w3.org/2000/svg" xmlns:xlink="http://www.w3.org/1999/xlink" width="113" height="113" viewBox="0 0 113 113">
  <defs>
    <filter id="Trazado_982547" x="0" y="0" width="113" height="113" filterUnits="userSpaceOnUse">
      <feOffset dy="3" input="SourceAlpha"/>
      <feGaussianBlur stdDeviation="3" result="blur"/>
      <feFlood flood-opacity="0.161"/>
      <feComposite operator="in" in2="blur"/>
      <feComposite in="SourceGraphic"/>
    </filter>
  </defs>
  <g id="Grupo_1223811" data-name="Grupo 1223811" transform="translate(-743.5 -1424.712)">
    <g id="Grupo_1211532" data-name="Grupo 1211532" transform="translate(418.729 -678)">
      <g id="Grupo_1210969" data-name="Grupo 1210969" transform="translate(333.771 2108.712)">
        <g id="Grupo_1210937" data-name="Grupo 1210937" transform="translate(0 0)">
          <g id="Grupo_1174742" data-name="Grupo 1174742">
            <g id="Grupo_1163948" data-name="Grupo 1163948">
              <g id="Grupo_1158168" data-name="Grupo 1158168" transform="translate(0)">
                <g id="Grupo_1152576" data-name="Grupo 1152576">
                  <g id="Grupo_1148633" data-name="Grupo 1148633">
                    <g id="Grupo_1148525" data-name="Grupo 1148525">
                      <g transform="matrix(1, 0, 0, 1, -9, -6)" filter="url(#Trazado_982547)">
                        <g id="Trazado_982547-2" data-name="Trazado 982547" transform="translate(9 6)" fill="#fbe7b2">
                          <path d="M 47.5 93.5 C 41.28937149047852 93.5 35.26533508300781 92.28397369384766 29.59518623352051 89.88570404052734 C 24.11771965026855 87.56893157958984 19.19813346862793 84.25196075439453 14.97309303283691 80.02691650390625 C 10.74804019927979 75.80186462402344 7.431066513061523 70.88229370117188 5.114293098449707 65.40481567382812 C 2.716026782989502 59.73468017578125 1.5 53.71062850952148 1.5 47.5 C 1.5 41.28937149047852 2.716026782989502 35.26533508300781 5.114293098449707 29.59518623352051 C 7.431066513061523 24.11771965026855 10.74804019927979 19.19813346862793 14.97309303283691 14.97309303283691 C 19.19813346862793 10.74804019927979 24.11771965026855 7.431066513061523 29.59518623352051 5.114293098449707 C 35.26533508300781 2.716026782989502 41.28937149047852 1.5 47.5 1.5 C 53.71062850952148 1.5 59.73468017578125 2.716026782989502 65.40481567382812 5.114293098449707 C 70.88229370117188 7.431066513061523 75.80186462402344 10.74804019927979 80.02691650390625 14.97309303283691 C 84.25196075439453 19.19813346862793 87.56893157958984 24.11771965026855 89.88570404052734 29.59518623352051 C 92.28397369384766 35.26533508300781 93.5 41.28937149047852 93.5 47.5 C 93.5 53.71062850952148 92.28397369384766 59.73468017578125 89.88570404052734 65.40481567382812 C 87.56893157958984 70.88229370117188 84.25196075439453 75.80186462402344 80.02691650390625 80.02691650390625 C 75.80186462402344 84.25196075439453 70.88229370117188 87.56893157958984 65.40481567382812 89.88570404052734 C 59.73468017578125 92.28397369384766 53.71062850952148 93.5 47.5 93.5 Z" stroke="none"/>
                          <path d="M 47.5 3 C 41.49121475219727 3 35.66376876831055 4.176155090332031 30.17950439453125 6.495796203613281 C 24.88084411621094 8.736953735351562 20.12152099609375 11.94598388671875 16.03375244140625 16.03375244140625 C 11.94598388671875 20.12152099609375 8.736953735351562 24.88084411621094 6.495796203613281 30.17950439453125 C 4.176155090332031 35.66376876831055 3 41.49121475219727 3 47.5 C 3 53.50878524780273 4.176155090332031 59.33623123168945 6.495796203613281 64.82049560546875 C 8.736953735351562 70.11915588378906 11.94598388671875 74.87847900390625 16.03375244140625 78.96624755859375 C 20.12152099609375 83.05401611328125 24.88084411621094 86.26304626464844 30.17950439453125 88.50419616699219 C 35.66376876831055 90.82384490966797 41.49121475219727 92 47.5 92 C 53.50878524780273 92 59.33623123168945 90.82384490966797 64.82049560546875 88.50419616699219 C 70.11915588378906 86.26304626464844 74.87847900390625 83.05401611328125 78.96624755859375 78.96624755859375 C 83.05401611328125 74.87847900390625 86.26304626464844 70.11915588378906 88.50419616699219 64.82049560546875 C 90.82384490966797 59.33623123168945 92 53.50878524780273 92 47.5 C 92 41.49121475219727 90.82384490966797 35.66376876831055 88.50419616699219 30.17950439453125 C 86.26304626464844 24.88084411621094 83.05401611328125 20.12152099609375 78.96624755859375 16.03375244140625 C 74.87847900390625 11.94598388671875 70.11915588378906 8.736953735351562 64.82049560546875 6.495796203613281 C 59.33623123168945 4.176155090332031 53.50878524780273 3 47.5 3 M 47.5 0 C 73.7335205078125 0 95 21.2664794921875 95 47.5 C 95 73.7335205078125 73.7335205078125 95 47.5 95 C 21.2664794921875 95 0 73.7335205078125 0 47.5 C 0 21.2664794921875 21.2664794921875 0 47.5 0 Z" stroke="none" fill="#f5b104"/>
                        </g>
                      </g>
                    </g>
                  </g>
                </g>
              </g>
            </g>
          </g>
        </g>
      </g>
    </g>
    <g id="votacion" transform="translate(771.067 1449.315)">
      <g id="Grupo_1223810" data-name="Grupo 1223810" transform="translate(0.887 0.846)">
        <g id="Grupo_1223804" data-name="Grupo 1223804" transform="translate(0.253 0.142)">
          <path id="Trazado_1057945" data-name="Trazado 1057945" d="M303.916,33.961h-9.925a1.127,1.127,0,0,1-1.1-.883,15.965,15.965,0,0,0-3.917-7.409q-.361-.391-.751-.755a16.152,16.152,0,0,0-7.4-3.988,1.127,1.127,0,0,1-.874-1.1V9.886a1.131,1.131,0,0,1,1.294-1.117,28.022,28.022,0,0,1,23.787,23.9,1.13,1.13,0,0,1-1.117,1.289Z" transform="translate(-249.46 -8.757)" fill="#98d5b9"/>
          <path id="Trazado_1057946" data-name="Trazado 1057946" d="M34.875,9.886v9.933a1.127,1.127,0,0,1-.877,1.1,15.969,15.969,0,0,0-7.26,3.832q-.542.5-1.036,1.043a15.98,15.98,0,0,0-3.768,7.284,1.128,1.128,0,0,1-1.1.885H10.911a1.13,1.13,0,0,1-1.117-1.29,27.8,27.8,0,0,1,1.38-5.62A28.031,28.031,0,0,1,33.581,8.769a1.131,1.131,0,0,1,1.294,1.117Z" transform="translate(-9.783 -8.757)" fill="#fd9468"/>
        </g>
        <g id="Grupo_1223805" data-name="Grupo 1223805" transform="translate(0.253 30.745)">
          <path id="Trazado_1057947" data-name="Trazado 1057947" d="M305.034,281.209a27.811,27.811,0,0,1-1.38,5.621,28.031,28.031,0,0,1-22.407,18.282,1.131,1.131,0,0,1-1.294-1.117v-9.942a1.127,1.127,0,0,1,.874-1.1,16.152,16.152,0,0,0,7.4-3.988q.389-.364.75-.755a15.965,15.965,0,0,0,3.917-7.409,1.127,1.127,0,0,1,1.1-.883h9.925A1.13,1.13,0,0,1,305.034,281.209Z" transform="translate(-249.46 -279.92)" fill="#fe646f"/>
          <path id="Trazado_1057948" data-name="Trazado 1057948" d="M34.875,294.062v9.933a1.131,1.131,0,0,1-1.294,1.117,28.021,28.021,0,0,1-23.787-23.9,1.13,1.13,0,0,1,1.117-1.289h9.921a1.127,1.127,0,0,1,1.1.885,15.98,15.98,0,0,0,3.768,7.284q.494.545,1.036,1.043A15.97,15.97,0,0,0,34,292.963,1.127,1.127,0,0,1,34.875,294.062Z" transform="translate(-9.783 -279.92)" fill="#fee45a"/>
        </g>
        <g id="Grupo_1223806" data-name="Grupo 1223806" transform="translate(37.501 37.501)">
          <path id="Trazado_1057949" data-name="Trazado 1057949" d="M356.767,339.935A28.12,28.12,0,0,1,339.993,356.8a6.458,6.458,0,0,1-.172-1.48v-9.108a6.407,6.407,0,0,1,1.516-4.143,6.5,6.5,0,0,1,.751-.755,6.411,6.411,0,0,1,4.168-1.536h9.108A6.4,6.4,0,0,1,356.767,339.935Z" transform="translate(-339.821 -339.78)" fill="#fd4755"/>
          <path id="Trazado_1057950" data-name="Trazado 1057950" d="M381.98,384.988h-9.107a3.048,3.048,0,0,1-3.048-3.048v-9.107a3.048,3.048,0,0,1,3.048-3.048h9.107a3.048,3.048,0,0,1,3.048,3.048v9.107A3.048,3.048,0,0,1,381.98,384.988Z" transform="translate(-366.439 -366.398)" fill="#918291"/>
          <circle id="Elipse_12616" data-name="Elipse 12616" cx="3.681" cy="3.681" r="3.681" transform="translate(7.307 6.435)" fill="#ffcebf"/>
          <path id="Trazado_1057951" data-name="Trazado 1057951" d="M390.266,466.821h9.107a3.044,3.044,0,0,0,.836-.117,5.444,5.444,0,0,0-10.779,0A3.044,3.044,0,0,0,390.266,466.821Z" transform="translate(-383.831 -448.231)" fill="#8ac9fe"/>
        </g>
        <g id="Grupo_1223807" data-name="Grupo 1223807" transform="translate(0 37.501)">
          <path id="Trazado_1057952" data-name="Trazado 1057952" d="M39.057,346.214v9.108a6.458,6.458,0,0,1-.172,1.48,28.12,28.12,0,0,1-16.774-16.867,6.4,6.4,0,0,1,1.4-.155h9.108a6.442,6.442,0,0,1,6.434,6.434Z" transform="translate(-20.467 -339.78)" fill="#fedf30"/>
          <path id="Trazado_1057953" data-name="Trazado 1057953" d="M19.7,384.988H10.589a3.048,3.048,0,0,1-3.048-3.048v-9.107a3.048,3.048,0,0,1,3.048-3.048H19.7a3.048,3.048,0,0,1,3.048,3.048v9.107A3.048,3.048,0,0,1,19.7,384.988Z" transform="translate(-7.541 -366.398)" fill="#918291"/>
          <circle id="Elipse_12617" data-name="Elipse 12617" cx="3.681" cy="3.681" r="3.681" transform="translate(3.921 6.435)" fill="#ffcebf"/>
          <path id="Trazado_1057954" data-name="Trazado 1057954" d="M27.982,466.821h9.107a3.044,3.044,0,0,0,.836-.117,5.444,5.444,0,0,0-10.779,0A3.044,3.044,0,0,0,27.982,466.821Z" transform="translate(-24.933 -448.231)" fill="#8ac9fe"/>
        </g>
        <g id="Grupo_1223808" data-name="Grupo 1223808" transform="translate(37.501)">
          <path id="Trazado_1057955" data-name="Trazado 1057955" d="M356.767,38.267a6.4,6.4,0,0,1-1.4.155h-9.108a6.411,6.411,0,0,1-4.168-1.536,6.5,6.5,0,0,1-.751-.755,6.407,6.407,0,0,1-1.516-4.143V22.88a6.458,6.458,0,0,1,.172-1.48A28.12,28.12,0,0,1,356.767,38.267Z" transform="translate(-339.821 -19.831)" fill="#57be92"/>
          <path id="Trazado_1057956" data-name="Trazado 1057956" d="M381.98,22.7h-9.107a3.048,3.048,0,0,1-3.048-3.048V10.548A3.048,3.048,0,0,1,372.873,7.5h9.107a3.048,3.048,0,0,1,3.048,3.048v9.107A3.048,3.048,0,0,1,381.98,22.7Z" transform="translate(-366.439 -7.5)" fill="#918291"/>
          <circle id="Elipse_12618" data-name="Elipse 12618" cx="3.681" cy="3.681" r="3.681" transform="translate(7.307 3.048)" fill="#ffcebf"/>
          <path id="Trazado_1057957" data-name="Trazado 1057957" d="M390.266,104.537h9.107a3.044,3.044,0,0,0,.836-.117,5.444,5.444,0,0,0-10.779,0A3.049,3.049,0,0,0,390.266,104.537Z" transform="translate(-383.831 -89.333)" fill="#8ac9fe"/>
        </g>
        <g id="Grupo_1223809" data-name="Grupo 1223809">
          <path id="Trazado_1057958" data-name="Trazado 1057958" d="M39.057,22.88v9.108a6.444,6.444,0,0,1-6.434,6.434H23.515a6.4,6.4,0,0,1-1.4-.155A28.12,28.12,0,0,1,38.885,21.4a6.458,6.458,0,0,1,.172,1.48Z" transform="translate(-20.467 -19.831)" fill="#fe7d43"/>
          <path id="Trazado_1057959" data-name="Trazado 1057959" d="M19.7,22.7H10.589a3.048,3.048,0,0,1-3.048-3.048V10.548A3.048,3.048,0,0,1,10.589,7.5H19.7a3.048,3.048,0,0,1,3.048,3.048v9.107A3.048,3.048,0,0,1,19.7,22.7Z" transform="translate(-7.541 -7.5)" fill="#918291"/>
          <circle id="Elipse_12619" data-name="Elipse 12619" cx="3.681" cy="3.681" r="3.681" transform="translate(3.921 3.048)" fill="#ffcebf"/>
          <path id="Trazado_1057960" data-name="Trazado 1057960" d="M27.982,104.537h9.107a3.044,3.044,0,0,0,.836-.117,5.444,5.444,0,0,0-10.779,0A3.049,3.049,0,0,0,27.982,104.537Z" transform="translate(-24.933 -89.333)" fill="#8ac9fe"/>
        </g>
      </g>
      <path id="Trazado_1057961" data-name="Trazado 1057961" d="M25.6,36.912a.846.846,0,0,0,1.108-.453l6.21-14.8a.846.846,0,0,0-1.561-.655l-6.21,14.8a.847.847,0,0,0,.453,1.108ZM21.149,23.833a3.836,3.836,0,0,0,3.59,4.035,3.837,3.837,0,0,0,3.59-4.035,3.837,3.837,0,0,0-3.59-4.035A3.837,3.837,0,0,0,21.149,23.833Zm5.488,0a2.158,2.158,0,0,1-1.9,2.342,2.158,2.158,0,0,1-1.9-2.342,2.158,2.158,0,0,1,1.9-2.342A2.158,2.158,0,0,1,26.637,23.833ZM2.68,16.687A28.65,28.65,0,0,0,.311,24.8a1.994,1.994,0,0,0,1.958,2.238h9.922a1.962,1.962,0,0,0,1.927-1.549A15.238,15.238,0,0,1,25.546,13.974,1.964,1.964,0,0,0,27.08,12.05V2.117A1.994,1.994,0,0,0,24.833.161a28.634,28.634,0,0,0-8.124,2.419A3.9,3.9,0,0,0,13.043,0H3.936A3.9,3.9,0,0,0,.041,3.895V13A3.9,3.9,0,0,0,2.68,16.687ZM16.938,13V4.347a26.947,26.947,0,0,1,8.133-2.51.271.271,0,0,1,.217.065.282.282,0,0,1,.1.216V12.05a.28.28,0,0,1-.218.274,16.938,16.938,0,0,0-12.7,12.8.28.28,0,0,1-.274.221H2.269a.263.263,0,0,1-.281-.315A26.964,26.964,0,0,1,4.453,16.9h8.59A3.916,3.916,0,0,0,16.938,13Zm-8.448-.9a4.621,4.621,0,0,1,4.346,3.1H4.328a.837.837,0,0,0-.163-.057A4.621,4.621,0,0,1,8.489,12.1ZM5.655,7.576a2.835,2.835,0,1,1,2.835,2.835A2.838,2.838,0,0,1,5.655,7.576ZM1.734,3.895a2.2,2.2,0,0,1,2.2-2.2h9.107a2.2,2.2,0,0,1,2.2,2.2V13a2.2,2.2,0,0,1-.795,1.692,6.336,6.336,0,0,0-3.12-3.6,4.527,4.527,0,1,0-5.683,0,6.336,6.336,0,0,0-3.12,3.6A2.2,2.2,0,0,1,1.734,13V3.895ZM25.546,43.809A15.216,15.216,0,0,1,13.958,31.456a.846.846,0,0,0-.835-.711H1a.846.846,0,0,0-.843.923,28.76,28.76,0,0,0,1.71,7.492.846.846,0,1,0,1.585-.594,27.055,27.055,0,0,1-1.509-6.128H12.418a16.914,16.914,0,0,0,12.75,13.021.28.28,0,0,1,.218.274v9.933a.262.262,0,0,1-.316.281,26.958,26.958,0,0,1-8.133-2.509V44.782a3.9,3.9,0,0,0-3.895-3.895H3.936A3.9,3.9,0,0,0,.041,44.782v9.107a3.894,3.894,0,0,0,3.895,3.895h9.107A4.089,4.089,0,0,0,16.708,55.2a28.646,28.646,0,0,0,8.124,2.418,1.974,1.974,0,0,0,2.247-1.957V45.733a1.964,1.964,0,0,0-1.534-1.924ZM4.143,56.091a4.6,4.6,0,0,1,8.694,0Zm1.512-7.628A2.835,2.835,0,1,1,8.489,51.3a2.838,2.838,0,0,1-2.835-2.835Zm9.59,5.426a2.2,2.2,0,0,1-.795,1.692,6.336,6.336,0,0,0-3.12-3.6,4.527,4.527,0,1,0-5.683,0,6.336,6.336,0,0,0-3.12,3.6,2.2,2.2,0,0,1-.795-1.692V44.782a2.2,2.2,0,0,1,2.2-2.2h9.107a2.2,2.2,0,0,1,2.2,2.2v9.107ZM55.186,41.1a28.628,28.628,0,0,0,2.369-8.114A1.974,1.974,0,0,0,55.6,30.745H45.672a1.962,1.962,0,0,0-1.926,1.545A15.319,15.319,0,0,1,32.312,43.8a1.966,1.966,0,0,0-1.527,1.923v9.942a1.974,1.974,0,0,0,2.247,1.957,28.648,28.648,0,0,0,8.125-2.418,3.922,3.922,0,0,0,3.665,2.578H53.93a3.917,3.917,0,0,0,3.895-3.895V44.782A3.9,3.9,0,0,0,55.186,41.1ZM40.928,44.782v8.656a26.959,26.959,0,0,1-8.133,2.509.27.27,0,0,1-.217-.065.283.283,0,0,1-.1-.216V45.724a.28.28,0,0,1,.218-.274A17.021,17.021,0,0,0,45.4,32.658a.279.279,0,0,1,.274-.22H55.6a.283.283,0,0,1,.215.1.271.271,0,0,1,.066.217,26.938,26.938,0,0,1-2.465,8.134h-8.59a3.9,3.9,0,0,0-3.895,3.895Zm4.1,11.309a4.6,4.6,0,0,1,8.692,0Zm1.512-7.628A2.835,2.835,0,1,1,49.376,51.3,2.838,2.838,0,0,1,46.542,48.463Zm9.59,5.426a2.2,2.2,0,0,1-.795,1.692,6.336,6.336,0,0,0-3.12-3.6,4.527,4.527,0,1,0-5.683,0,6.335,6.335,0,0,0-3.12,3.6,2.2,2.2,0,0,1-.795-1.692V44.782a2.2,2.2,0,0,1,2.2-2.2h9.046a.846.846,0,0,0,.1,0,2.2,2.2,0,0,1,2.164,2.2v9.107ZM53.93,0H44.823a3.9,3.9,0,0,0-3.665,2.578A28.648,28.648,0,0,0,33.033.161a1.992,1.992,0,0,0-2.247,1.957v9.942a1.966,1.966,0,0,0,1.527,1.923A15.319,15.319,0,0,1,43.746,25.494a1.962,1.962,0,0,0,1.926,1.545H55.6A2,2,0,0,0,57.555,24.8,28.774,28.774,0,0,0,56.132,19a.846.846,0,1,0-1.593.572,27.083,27.083,0,0,1,1.34,5.463.262.262,0,0,1-.281.315H45.672a.279.279,0,0,1-.274-.22A17.021,17.021,0,0,0,32.7,12.333a.28.28,0,0,1-.218-.274V2.117a.264.264,0,0,1,.316-.281,26.958,26.958,0,0,1,8.133,2.509V13A3.919,3.919,0,0,0,44.823,16.9H53.93A3.957,3.957,0,0,0,57.824,13V3.895A3.9,3.9,0,0,0,53.93,0Zm-8.9,15.2a4.6,4.6,0,0,1,8.692,0Zm1.512-7.628a2.835,2.835,0,1,1,2.835,2.835A2.838,2.838,0,0,1,46.542,7.576ZM56.132,13a2.2,2.2,0,0,1-.795,1.692,6.336,6.336,0,0,0-3.12-3.6,4.527,4.527,0,1,0-5.683,0,6.336,6.336,0,0,0-3.12,3.6A2.2,2.2,0,0,1,42.621,13V3.895a2.2,2.2,0,0,1,2.2-2.2H53.93a2.2,2.2,0,0,1,2.2,2.2V13ZM36.717,33.95a3.836,3.836,0,0,0-3.59-4.035,3.837,3.837,0,0,0-3.59,4.035,3.837,3.837,0,0,0,3.59,4.035A3.837,3.837,0,0,0,36.717,33.95Zm-5.488,0a2.158,2.158,0,0,1,1.9-2.342,2.158,2.158,0,0,1,1.9,2.342,2.158,2.158,0,0,1-1.9,2.342A2.158,2.158,0,0,1,31.229,33.95Z"/>
    </g>
  </g>
</svg>
