<svg xmlns="http://www.w3.org/2000/svg" xmlns:xlink="http://www.w3.org/1999/xlink" width="113" height="113" viewBox="0 0 113 113">
  <defs>
    <filter id="Trazado_982547" x="0" y="0" width="113" height="113" filterUnits="userSpaceOnUse">
      <feOffset dy="3" input="SourceAlpha"/>
      <feGaussianBlur stdDeviation="3" result="blur"/>
      <feFlood flood-opacity="0.161"/>
      <feComposite operator="in" in2="blur"/>
      <feComposite in="SourceGraphic"/>
    </filter>
  </defs>
  <g id="Grupo_1223812" data-name="Grupo 1223812" transform="translate(-1165 -1424.712)">
    <g id="Grupo_1211533" data-name="Grupo 1211533" transform="translate(840.229 -678)">
      <g id="Grupo_1210969" data-name="Grupo 1210969" transform="translate(333.771 2108.712)">
        <g id="Grupo_1210937" data-name="Grupo 1210937" transform="translate(0 0)">
          <g id="Grupo_1174742" data-name="Grupo 1174742">
            <g id="Grupo_1163948" data-name="Grupo 1163948">
              <g id="Grupo_1158168" data-name="Grupo 1158168" transform="translate(0)">
                <g id="Grupo_1152576" data-name="Grupo 1152576">
                  <g id="Grupo_1148633" data-name="Grupo 1148633">
                    <g id="Grupo_1148525" data-name="Grupo 1148525">
                      <g transform="matrix(1, 0, 0, 1, -9, -6)" filter="url(#Trazado_982547)">
                        <g id="Trazado_982547-2" data-name="Trazado 982547" transform="translate(9 6)" fill="#fbe7b2">
                          <path d="M 47.5 93.5 C 41.28937149047852 93.5 35.26533508300781 92.28397369384766 29.59518623352051 89.88570404052734 C 24.11771965026855 87.56893157958984 19.19813346862793 84.25196075439453 14.97309303283691 80.02691650390625 C 10.74804019927979 75.80186462402344 7.431066513061523 70.88229370117188 5.114293098449707 65.40481567382812 C 2.716026782989502 59.73468017578125 1.5 53.71062850952148 1.5 47.5 C 1.5 41.28937149047852 2.716026782989502 35.26533508300781 5.114293098449707 29.59518623352051 C 7.431066513061523 24.11771965026855 10.74804019927979 19.19813346862793 14.97309303283691 14.97309303283691 C 19.19813346862793 10.74804019927979 24.11771965026855 7.431066513061523 29.59518623352051 5.114293098449707 C 35.26533508300781 2.716026782989502 41.28937149047852 1.5 47.5 1.5 C 53.71062850952148 1.5 59.73468017578125 2.716026782989502 65.40481567382812 5.114293098449707 C 70.88229370117188 7.431066513061523 75.80186462402344 10.74804019927979 80.02691650390625 14.97309303283691 C 84.25196075439453 19.19813346862793 87.56893157958984 24.11771965026855 89.88570404052734 29.59518623352051 C 92.28397369384766 35.26533508300781 93.5 41.28937149047852 93.5 47.5 C 93.5 53.71062850952148 92.28397369384766 59.73468017578125 89.88570404052734 65.40481567382812 C 87.56893157958984 70.88229370117188 84.25196075439453 75.80186462402344 80.02691650390625 80.02691650390625 C 75.80186462402344 84.25196075439453 70.88229370117188 87.56893157958984 65.40481567382812 89.88570404052734 C 59.73468017578125 92.28397369384766 53.71062850952148 93.5 47.5 93.5 Z" stroke="none"/>
                          <path d="M 47.5 3 C 41.49121475219727 3 35.66376876831055 4.176155090332031 30.17950439453125 6.495796203613281 C 24.88084411621094 8.736953735351562 20.12152099609375 11.94598388671875 16.03375244140625 16.03375244140625 C 11.94598388671875 20.12152099609375 8.736953735351562 24.88084411621094 6.495796203613281 30.17950439453125 C 4.176155090332031 35.66376876831055 3 41.49121475219727 3 47.5 C 3 53.50878524780273 4.176155090332031 59.33623123168945 6.495796203613281 64.82049560546875 C 8.736953735351562 70.11915588378906 11.94598388671875 74.87847900390625 16.03375244140625 78.96624755859375 C 20.12152099609375 83.05401611328125 24.88084411621094 86.26304626464844 30.17950439453125 88.50419616699219 C 35.66376876831055 90.82384490966797 41.49121475219727 92 47.5 92 C 53.50878524780273 92 59.33623123168945 90.82384490966797 64.82049560546875 88.50419616699219 C 70.11915588378906 86.26304626464844 74.87847900390625 83.05401611328125 78.96624755859375 78.96624755859375 C 83.05401611328125 74.87847900390625 86.26304626464844 70.11915588378906 88.50419616699219 64.82049560546875 C 90.82384490966797 59.33623123168945 92 53.50878524780273 92 47.5 C 92 41.49121475219727 90.82384490966797 35.66376876831055 88.50419616699219 30.17950439453125 C 86.26304626464844 24.88084411621094 83.05401611328125 20.12152099609375 78.96624755859375 16.03375244140625 C 74.87847900390625 11.94598388671875 70.11915588378906 8.736953735351562 64.82049560546875 6.495796203613281 C 59.33623123168945 4.176155090332031 53.50878524780273 3 47.5 3 M 47.5 0 C 73.7335205078125 0 95 21.2664794921875 95 47.5 C 95 73.7335205078125 73.7335205078125 95 47.5 95 C 21.2664794921875 95 0 73.7335205078125 0 47.5 C 0 21.2664794921875 21.2664794921875 0 47.5 0 Z" stroke="none" fill="#f5b104"/>
                        </g>
                      </g>
                    </g>
                  </g>
                </g>
              </g>
            </g>
          </g>
        </g>
      </g>
    </g>
    <g id="lluvia-de-ideas_3_" data-name="lluvia-de-ideas (3)" transform="translate(1190.791 1445.641)">
      <path id="Trazado_1057962" data-name="Trazado 1057962" d="M215.121,137v2.79a1,1,0,0,0,1,1h2.257a1,1,0,0,0,1-1V137a1,1,0,0,0-1-1h-2.257A1,1,0,0,0,215.121,137Zm0,0" transform="translate(-185.282 -117.132)" fill="#86919e"/>
      <path id="Trazado_1057963" data-name="Trazado 1057963" d="M28.014,101.684,17.072,83.537a2.611,2.611,0,0,0-3.588-.886L8.728,85.527a2.62,2.62,0,0,0-.887,3.593l11.244,18.646Zm0,0" transform="translate(-6.43 -70.861)" fill="#84eaf5"/>
      <path id="Trazado_1057964" data-name="Trazado 1057964" d="M188.056,15.617a8.145,8.145,0,1,0-11.4,7.465v1.935a1.785,1.785,0,0,0,1.785,1.785h2.946a1.785,1.785,0,0,0,1.785-1.785V23.081a8.145,8.145,0,0,0,4.887-7.465Zm0,0" transform="translate(-147.942 -6.435)" fill="#feda5f"/>
      <path id="Trazado_1057965" data-name="Trazado 1057965" d="M340.887,101.175l5.078-8.42-.07-10.481-9.3,4.835-5.013,8.311Zm0,0" transform="translate(-285.585 -70.861)" fill="#fce49d"/>
      <path id="Trazado_1057966" data-name="Trazado 1057966" d="M312.226,121.248v0l-3.9-4.121-9.566,15.889,3.526,4.77,5.6,1.313,9.816-16.326Zm0,0" transform="translate(-257.314 -100.882)" fill="#f4c84e"/>
      <path id="Trazado_1057967" data-name="Trazado 1057967" d="M340.5,164.681l9.816-16.326-5.469-1.527-8.218,13.567Zm0,0" transform="translate(-289.935 -126.461)" fill="#feda5f"/>
      <path id="Trazado_1057968" data-name="Trazado 1057968" d="M414.163,82.273,410.84,84l3.349,2.061Zm0,0" transform="translate(-353.853 -70.861)" fill="#86919e"/>
      <path id="Trazado_1057969" data-name="Trazado 1057969" d="M71.8,223.556H85.314a7.984,7.984,0,0,0,.553-15.948A7.984,7.984,0,0,0,74.2,198.879a7.986,7.986,0,0,0-14.753,0,7.983,7.983,0,0,0-11.661,8.751,7.985,7.985,0,0,0,.828,15.926Zm0,0" transform="translate(-34.993 -167.05)" fill="#f0a8d0"/>
      <path id="Trazado_1057970" data-name="Trazado 1057970" d="M299.507,231.96a7.984,7.984,0,0,0-10.831-9.132,7.982,7.982,0,0,1,4.748,9.132,7.983,7.983,0,0,1-.553,15.948h6.083a7.983,7.983,0,0,0,.553-15.948Zm0,0" transform="translate(-248.634 -191.401)" fill="#ea89bf"/>
      <path id="Trazado_1057971" data-name="Trazado 1057971" d="M178.627,293.324l7.552.095-4.172,10.78,6.9.181-14.7,18.253,5.115-13.492-6.374-.08Zm0,0" transform="translate(-148.956 -252.637)" fill="#feda5f"/>
      <path id="Trazado_1057972" data-name="Trazado 1057972" d="M296.815,110.453l2.212,1.383a1.038,1.038,0,0,0,1.1-1.759l-2.212-1.382A1.037,1.037,0,0,0,296.815,110.453Zm0,0" transform="translate(-255.233 -93.475)"/>
      <path id="Trazado_1057973" data-name="Trazado 1057973" d="M299.409,4.352a1.034,1.034,0,0,0,.549-.158l2.212-1.383a1.037,1.037,0,0,0-1.1-1.759l-2.212,1.383a1.045,1.045,0,0,0,.55,1.916Zm0,0" transform="translate(-257 -0.764)"/>
      <path id="Trazado_1057974" data-name="Trazado 1057974" d="M310.219,60.787a1.037,1.037,0,0,0,1.037,1.037h2.765a1.037,1.037,0,0,0,0-2.074h-2.765a1.036,1.036,0,0,0-1.037,1.037Zm0,0" transform="translate(-267.189 -51.462)"/>
      <path id="Trazado_1057975" data-name="Trazado 1057975" d="M136.577,108.7l-2.212,1.382a1.037,1.037,0,0,0,1.1,1.759l2.212-1.383A1.037,1.037,0,0,0,136.577,108.7Zm0,0" transform="translate(-115.318 -93.476)"/>
      <path id="Trazado_1057976" data-name="Trazado 1057976" d="M132.362,2.81l2.212,1.382a1.037,1.037,0,0,0,1.1-1.758l-2.212-1.383a1.038,1.038,0,0,0-1.1,1.759Zm0,0" transform="translate(-113.591 -0.763)"/>
      <path id="Trazado_1057977" data-name="Trazado 1057977" d="M117.11,61.824h2.765a1.037,1.037,0,0,0,0-2.074H117.11A1.037,1.037,0,0,0,117.11,61.824Zm0,0" transform="translate(-100.002 -51.462)"/>
      <path id="Trazado_1057978" data-name="Trazado 1057978" d="M169.175,17.3v1.285a2.816,2.816,0,0,0,1.127,2.251v2.826a1.037,1.037,0,0,0,1.037,1.037H175.6a1.037,1.037,0,0,0,1.037-1.037V20.833a2.815,2.815,0,0,0,1.127-2.251V17.3A9.19,9.19,0,0,0,182.6,8.175a1.037,1.037,0,0,0-2.061.226,7.117,7.117,0,0,1-4.223,7.3,1.038,1.038,0,0,0-.621.95v1.935a.749.749,0,0,1-.748.748H172a.749.749,0,0,1-.748-.748V16.646a1.036,1.036,0,0,0-.621-.95,7.108,7.108,0,1,1,6.823-12.4,1.037,1.037,0,0,0,1.163-1.717A9.182,9.182,0,1,0,169.175,17.3Zm3.2,5.325V21.4h2.187v1.219Zm0,0" transform="translate(-141.499 0)"/>
      <path id="Trazado_1057979" data-name="Trazado 1057979" d="M56.186,95.273l0-.007,5.078-8.421a1.054,1.054,0,0,0,.149-.542l-.07-10.481a1.046,1.046,0,0,0-1.515-.914l-9.306,4.835c-.6.313-.909,1.212-1.231,1.745L41.546,94.341a9.029,9.029,0,0,0-1.859.528,9.024,9.024,0,0,0-15.714,0,9.059,9.059,0,0,0-1.7-.5L11.53,76.558A3.649,3.649,0,0,0,6.517,75.32L1.762,78.2A3.661,3.661,0,0,0,.524,83.212l11.161,18.509a9.031,9.031,0,0,0-.081,2.423,9.023,9.023,0,0,0,2.017,17.817h3.143a1.037,1.037,0,0,0,0-2.074H13.62a6.948,6.948,0,0,1-.721-13.859,1.046,1.046,0,0,0,.9-1.26,6.944,6.944,0,0,1,6.774-8.489,7.125,7.125,0,0,1,5.7,2.956,1.037,1.037,0,0,0,1.643-1.264,11.04,11.04,0,0,0-2.129-2.1,6.949,6.949,0,0,1,12.458.774,1.047,1.047,0,0,0,1.462.508,6.948,6.948,0,0,1,10.319,6.075,6.839,6.839,0,0,1-.049.807,7.44,7.44,0,0,0-4.129,1.728,1.037,1.037,0,0,0,1.467,1.466,5.86,5.86,0,0,1,3.583-1.176c3.544,0,6.366,3.521,6.366,6.887a6.955,6.955,0,0,1-6.947,6.948H38.281l2.478-3.077a1.053,1.053,0,0,0-.781-1.687l-5.429-.143,3.641-9.408a1.047,1.047,0,0,0-.954-1.411l-7.552-.094a1.031,1.031,0,0,0-.988.685l-5.672,15.713a1.053,1.053,0,0,0,.929,1.5h4.909l-4.582,12.085a1.044,1.044,0,0,0,1.777,1.018l10.569-13.121a1.043,1.043,0,0,0,.185.017H50.32a9.021,9.021,0,0,0,1.743-17.872c.054-.557-.2-1.644.068-2.092ZM12.544,99.13,2.3,82.141a1.584,1.584,0,0,1,.536-2.171L7.59,77.095a1.573,1.573,0,0,1,2.164.534l1.077,1.785L8.883,80.592a1.037,1.037,0,0,0,1.073,1.775L11.9,81.19,14,84.676l-3.116,1.885a1.037,1.037,0,0,0,1.073,1.775l3.113-1.883,2.1,3.486-1.947,1.177A1.037,1.037,0,1,0,16.3,92.89l1.945-1.176,1.525,2.53a9.035,9.035,0,0,0-7.229,4.886Zm18.789,22.16a1.037,1.037,0,0,0-.956-1.4l-4.917-.062L30.4,106.151l5.321.067-3.632,9.388a1.037,1.037,0,0,0,.94,1.411l4.8.126-9.3,11.548ZM44.019,94.254l2.856-4.735.006-.009,4.308-7.145,2.424,2.557L47.324,95.268a8.963,8.963,0,0,0-3.305-1.014ZM55.464,83.862,52.7,80.95l4.208-2.186L59.3,80.2l.031,4.738Zm3.823-6.089-.217-.13.215-.112ZM49.031,96.453,55.39,85.994l3.4.949L51.26,99.424a9.071,9.071,0,0,0-2.23-2.971Zm0,0" transform="translate(0 -64.417)"/>
    </g>
  </g>
</svg>
