<svg xmlns="http://www.w3.org/2000/svg" xmlns:xlink="http://www.w3.org/1999/xlink" width="108" height="108" viewBox="0 0 108 108">
  <defs>
    <filter id="Trazado_904820" x="0" y="0" width="108" height="108" filterUnits="userSpaceOnUse">
      <feOffset dy="3" input="SourceAlpha"/>
      <feGaussianBlur stdDeviation="3" result="blur"/>
      <feFlood flood-opacity="0.161"/>
      <feComposite operator="in" in2="blur"/>
      <feComposite in="SourceGraphic"/>
    </filter>
  </defs>
  <g id="Grupo_1226181" data-name="Grupo 1226181" transform="translate(-616 -3193.972)">
    <g id="Grupo_1211762" data-name="Grupo 1211762" transform="translate(625 3199.972)">
      <g id="Grupo_1173585" data-name="Grupo 1173585" transform="translate(0 0)">
        <g id="Grupo_1173428" data-name="Grupo 1173428">
          <g id="Grupo_1171958" data-name="Grupo 1171958">
            <g id="Grupo_1167341" data-name="Grupo 1167341">
              <g id="Grupo_1166792" data-name="Grupo 1166792">
                <g transform="matrix(1, 0, 0, 1, -9, -6)" filter="url(#Trazado_904820)">
                  <g id="Trazado_904820-2" data-name="Trazado 904820" transform="translate(9 6)" fill="#fceefb">
                    <path d="M 44.99999618530273 88.50004577636719 C 39.12687301635742 88.50004577636719 33.43022155761719 87.35012054443359 28.06829643249512 85.08220672607422 C 22.88852119445801 82.891357421875 18.23629570007324 79.75463104248047 14.24084663391113 75.75917816162109 C 10.24540901184082 71.76373291015625 7.108683586120605 67.11150360107422 4.917821407318115 61.93173217773438 C 2.649921178817749 56.56980514526367 1.499996185302734 50.87315368652344 1.499996185302734 45.00003051757812 C 1.499996185302734 39.12690734863281 2.649921178817749 33.43025588989258 4.917821407318115 28.06833076477051 C 7.108683586120605 22.8885555267334 10.24540901184082 18.23633003234863 14.24084663391113 14.24088096618652 C 18.23629570007324 10.2454309463501 22.88852119445801 7.108705520629883 28.06829643249512 4.917855739593506 C 33.43022155761719 2.649943113327026 39.12687301635742 1.500018000602722 44.99999618530273 1.500018000602722 C 50.87311935424805 1.500018000602722 56.56977081298828 2.649943113327026 61.93169784545898 4.917855739593506 C 67.11147308349609 7.108705520629883 71.76369476318359 10.2454309463501 75.75914764404297 14.24088096618652 C 79.75458526611328 18.23633003234863 82.89131164550781 22.8885555267334 85.08216857910156 28.06833076477051 C 87.35007476806641 33.43025588989258 88.5 39.12690734863281 88.5 45.00003051757812 C 88.5 50.87315368652344 87.35007476806641 56.56980514526367 85.08216857910156 61.93173217773438 C 82.89131164550781 67.11150360107422 79.75458526611328 71.76373291015625 75.75914764404297 75.75917816162109 C 71.76369476318359 79.75463104248047 67.11147308349609 82.891357421875 61.93169784545898 85.08220672607422 C 56.56977081298828 87.35012054443359 50.87311935424805 88.50004577636719 44.99999618530273 88.50004577636719 Z" stroke="none"/>
                    <path d="M 44.99999618530273 3.000015258789062 C 39.32870864868164 3.000015258789062 33.82865142822266 4.110076904296875 28.65262603759766 6.299362182617188 C 23.65165710449219 8.414588928222656 19.15968322753906 11.443359375 15.301513671875 15.30154418945312 C 11.44333648681641 19.15971374511719 8.414566040039062 23.65167236328125 6.299339294433594 28.65266036987305 C 4.110054016113281 33.82868576049805 2.999992370605469 39.32874298095703 2.999992370605469 45.00003051757812 C 2.999992370605469 50.67131805419922 4.110054016113281 56.1713752746582 6.299339294433594 61.34740447998047 C 8.414566040039062 66.348388671875 11.44333648681641 70.84034729003906 15.301513671875 74.69851684570312 C 19.15968322753906 78.55670166015625 23.65165710449219 81.58547210693359 28.65262603759766 83.70069885253906 C 33.82865142822266 85.88998413085938 39.32870864868164 87.00004577636719 44.99999618530273 87.00004577636719 C 50.67128372192383 87.00004577636719 56.17134094238281 85.88998413085938 61.34736633300781 83.70069885253906 C 66.34834289550781 81.58547210693359 70.84030914306641 78.55670166015625 74.69847869873047 74.69851684570312 C 78.55665588378906 70.84034729003906 81.58542633056641 66.348388671875 83.70065307617188 61.34740447998047 C 85.88993835449219 56.1713752746582 87 50.67131805419922 87 45.00003051757812 C 87 39.32874298095703 85.88993835449219 33.82868576049805 83.70065307617188 28.65266036987305 C 81.58542633056641 23.65167236328125 78.55665588378906 19.15971374511719 74.69847869873047 15.30154418945312 C 70.84030914306641 11.443359375 66.34834289550781 8.414588928222656 61.34736633300781 6.299362182617188 C 56.17134094238281 4.110076904296875 50.67128372192383 3.000015258789062 44.99999618530273 3.000015258789062 M 44.99999618530273 1.52587890625e-05 C 69.85281372070312 1.52587890625e-05 90 20.147216796875 90 45.00003051757812 C 90 69.85284423828125 69.85281372070312 90.00004577636719 44.99999618530273 90.00004577636719 C 20.14717864990234 90.00004577636719 -7.62939453125e-06 69.85284423828125 -7.62939453125e-06 45.00003051757812 C -7.62939453125e-06 20.147216796875 20.14717864990234 1.52587890625e-05 44.99999618530273 1.52587890625e-05 Z" stroke="none" fill="#e761e1"/>
                  </g>
                </g>
              </g>
            </g>
          </g>
        </g>
      </g>
    </g>
    <g id="trabajo-en-equipo_5_" data-name="trabajo-en-equipo (5)" transform="translate(639.885 3215.125)">
      <circle id="Elipse_12624" data-name="Elipse 12624" cx="12.678" cy="12.678" r="12.678" transform="translate(17.395 17.175)" fill="#ffb850"/>
      <path id="Trazado_1059940" data-name="Trazado 1059940" d="M27.728,343.506a9.961,9.961,0,1,1-9.961-9.961A9.923,9.923,0,0,1,27.728,343.506Z" transform="translate(-6.627 -294.648)" fill="#eaf6ff"/>
      <path id="Trazado_1059941" data-name="Trazado 1059941" d="M47.434,436.312v2.282a9.957,9.957,0,0,1-13.929,0v-2.282a1.6,1.6,0,0,1,1.081-1.515l4.863-1.672H41.49l4.862,1.672A1.6,1.6,0,0,1,47.434,436.312Z" transform="translate(-29.33 -382.616)" fill="#ffb850"/>
      <path id="Trazado_1059942" data-name="Trazado 1059942" d="M37,438.594a9.916,9.916,0,0,0,5.215,2.687,9.968,9.968,0,0,1-8.714-2.687v-2.282a1.6,1.6,0,0,1,1.081-1.515l4.863-1.672H41.49l.729.251L38.085,434.8A1.6,1.6,0,0,0,37,436.312Z" transform="translate(-29.33 -382.616)" fill="#f5a30f"/>
      <path id="Trazado_1059943" data-name="Trazado 1059943" d="M353.168,343.506a9.961,9.961,0,1,1-9.961-9.961A9.923,9.923,0,0,1,353.168,343.506Z" transform="translate(-294.116 -294.648)" fill="#eaf6ff"/>
      <path id="Trazado_1059944" data-name="Trazado 1059944" d="M372.874,436.312v2.282a9.957,9.957,0,0,1-13.929,0v-2.282a1.6,1.6,0,0,1,1.082-1.515l4.862-1.672h2.041l4.863,1.672A1.6,1.6,0,0,1,372.874,436.312Z" transform="translate(-316.819 -382.616)" fill="#88b4f5"/>
      <path id="Trazado_1059945" data-name="Trazado 1059945" d="M362.443,438.594a9.916,9.916,0,0,0,5.215,2.687,9.967,9.967,0,0,1-8.714-2.687v-2.282a1.6,1.6,0,0,1,1.082-1.515l4.862-1.672h2.041l.729.251-4.133,1.422a1.6,1.6,0,0,0-1.082,1.515Z" transform="translate(-316.819 -382.616)" fill="#6ea2f2"/>
      <path id="Trazado_1059946" data-name="Trazado 1059946" d="M353.168,17.466a9.925,9.925,0,0,1-3,7.121h0a9.96,9.96,0,0,1-13.929,0h0a9.961,9.961,0,1,1,16.926-7.121Z" transform="translate(-294.116 -6.63)" fill="#eaf6ff"/>
      <path id="Trazado_1059947" data-name="Trazado 1059947" d="M372.874,110.271v2.285a9.96,9.96,0,0,1-13.929,0v-2.285a1.6,1.6,0,0,1,1.082-1.515l4.862-1.671h2.041l4.863,1.671A1.6,1.6,0,0,1,372.874,110.271Z" transform="translate(-316.819 -94.597)" fill="#f07281"/>
      <path id="Trazado_1059948" data-name="Trazado 1059948" d="M362.443,112.555a9.922,9.922,0,0,0,5.215,2.686,9.97,9.97,0,0,1-8.714-2.686v-2.285a1.6,1.6,0,0,1,1.082-1.515l4.862-1.671h2.041l.729.251-4.133,1.42a1.6,1.6,0,0,0-1.082,1.515Z" transform="translate(-316.819 -94.597)" fill="#eb5569"/>
      <path id="Trazado_1059949" data-name="Trazado 1059949" d="M27.728,17.466a9.925,9.925,0,0,1-3,7.121h0a9.96,9.96,0,0,1-13.929,0h0a9.961,9.961,0,1,1,16.926-7.121Z" transform="translate(-6.627 -6.63)" fill="#eaf6ff"/>
      <path id="Trazado_1059950" data-name="Trazado 1059950" d="M47.434,110.271v2.285a9.96,9.96,0,0,1-13.929,0v-2.285a1.6,1.6,0,0,1,1.081-1.515l4.863-1.671H41.49l4.862,1.671A1.6,1.6,0,0,1,47.434,110.271Z" transform="translate(-29.33 -94.597)" fill="#ade194"/>
      <path id="Trazado_1059951" data-name="Trazado 1059951" d="M37,112.555a9.922,9.922,0,0,0,5.215,2.686,9.97,9.97,0,0,1-8.714-2.686v-2.285a1.6,1.6,0,0,1,1.081-1.515l4.863-1.671H41.49l.729.251-4.134,1.42A1.6,1.6,0,0,0,37,110.271Z" transform="translate(-29.33 -94.597)" fill="#87d469"/>
      <circle id="Elipse_12625" data-name="Elipse 12625" cx="9.329" cy="9.329" r="9.329" transform="matrix(0.987, -0.16, 0.16, 0.987, 19.364, 22.141)" fill="#fbd94f"/>
      <path id="Trazado_1059952" data-name="Trazado 1059952" d="M220.7,217.277l1.423,2.884,3.182.462-2.3,2.245.544,3.169-2.846-1.5-2.846,1.5.544-3.169-2.3-2.245,3.182-.462Z" transform="translate(-190.628 -191.939)" fill="#ffb850"/>
      <circle id="Elipse_12626" data-name="Elipse 12626" cx="3.599" cy="3.599" r="3.599" transform="translate(45.492 5.285)" fill="#ffeee6"/>
      <path id="Trazado_1059953" data-name="Trazado 1059953" d="M393.153,52.06a3.6,3.6,0,1,1,0-6.291,3.6,3.6,0,0,0,0,6.291Z" transform="translate(-342.313 -40.031)" fill="#ffdfcf"/>
      <circle id="Elipse_12627" data-name="Elipse 12627" cx="3.599" cy="3.599" r="3.599" transform="translate(7.54 5.285)" fill="#ffcebf"/>
      <path id="Trazado_1059954" data-name="Trazado 1059954" d="M67.7,52.06a3.6,3.6,0,1,1,0-6.291,3.6,3.6,0,0,0,0,6.291Z" transform="translate(-54.816 -40.031)" fill="#ffb09e"/>
      <circle id="Elipse_12628" data-name="Elipse 12628" cx="3.599" cy="3.599" r="3.599" transform="translate(45.492 43.307)" fill="#ffcebf"/>
      <path id="Trazado_1059955" data-name="Trazado 1059955" d="M393.153,378.11a3.6,3.6,0,1,1,0-6.291,3.6,3.6,0,0,0,0,6.291Z" transform="translate(-342.313 -328.058)" fill="#ffb09e"/>
      <circle id="Elipse_12629" data-name="Elipse 12629" cx="3.599" cy="3.599" r="3.599" transform="translate(7.54 43.307)" fill="#ffeee6"/>
      <path id="Trazado_1059956" data-name="Trazado 1059956" d="M67.7,378.11a3.6,3.6,0,1,1,0-6.291,3.6,3.6,0,0,0,0,6.291Z" transform="translate(-54.816 -328.058)" fill="#ffdfcf"/>
      <g id="Grupo_1226180" data-name="Grupo 1226180" transform="translate(0.303 0)">
        <path id="Trazado_1059957" data-name="Trazado 1059957" d="M168.085,178.708a10.2,10.2,0,0,0,18.531,5.893.875.875,0,1,0-1.426-1.013,8.408,8.408,0,1,1,1.381-3.173.875.875,0,1,0,1.713.354,10.2,10.2,0,1,0-20.2-2.062Z" transform="translate(-148.519 -148.854)"/>
        <path id="Trazado_1059958" data-name="Trazado 1059958" d="M218.33,212.34l-2.727-.4-1.22-2.471c-.393-.847-1.209-.73-1.569,0l-1.22,2.471-2.727.4c-.912.075-1.029.95-.485,1.492l1.973,1.924-.466,2.716q.061,1.25,1.269.922l2.439-1.282,2.439,1.282a.888.888,0,0,0,1.269-.922l-.466-2.716,1.973-1.924A.815.815,0,0,0,218.33,212.34Zm-3.039,2.484a.875.875,0,0,0-.252.774l.244,1.423-1.278-.672a.875.875,0,0,0-.814,0l-1.278.672.244-1.423a.875.875,0,0,0-.252-.774l-1.034-1.008,1.429-.208a.874.874,0,0,0,.659-.478l.639-1.295.639,1.295a.874.874,0,0,0,.659.478l1.429.208Z" transform="translate(-183.829 -184.521)"/>
        <path id="Trazado_1059959" data-name="Trazado 1059959" d="M52.842,38.692a24.486,24.486,0,0,0,0-17.688,10.966,10.966,0,0,0,7.089-10.168,10.836,10.836,0,0,0-21-3.747A24.484,24.484,0,0,0,21.3,7.062,10.836,10.836,0,0,0,.3,10.836,10.966,10.966,0,0,0,7.32,20.977a24.481,24.481,0,0,0,0,17.743A10.854,10.854,0,0,0,.3,48.858,10.974,10.974,0,0,0,11.139,59.694a10.96,10.96,0,0,0,10.153-7.05,24.483,24.483,0,0,0,17.635-.028A10.836,10.836,0,1,0,52.842,38.692ZM55.18,17.574a9.069,9.069,0,0,1-12.179,0v-1.9a.726.726,0,0,1,.491-.688l4.724-1.624h1.749l4.725,1.624a.726.726,0,0,1,.49.688v1.9Zm-8.814-8.69a2.725,2.725,0,1,1,2.725,2.725A2.728,2.728,0,0,1,46.366,8.884Zm2.725-7.135a9.081,9.081,0,0,1,7.827,13.7,2.473,2.473,0,0,0-1.66-2.113l-3.2-1.1a4.474,4.474,0,1,0-5.929,0l-3.2,1.1a2.474,2.474,0,0,0-1.661,2.113,9.081,9.081,0,0,1,7.827-13.7ZM3.312,15.444a9.085,9.085,0,1,1,16.914-4.608,9.029,9.029,0,0,1-1.26,4.608,2.473,2.473,0,0,0-1.66-2.113l-3.2-1.1a4.474,4.474,0,1,0-5.929,0l-3.2,1.1a2.474,2.474,0,0,0-1.661,2.113Zm10.552-6.56a2.725,2.725,0,1,1-2.725-2.725A2.728,2.728,0,0,1,13.864,8.884Zm-8.814,8.69v-1.9a.726.726,0,0,1,.491-.688l4.724-1.624h1.749l4.725,1.624a.726.726,0,0,1,.49.688v1.9a9.069,9.069,0,0,1-12.179,0ZM17.228,55.6a9.069,9.069,0,0,1-12.179,0V53.7a.726.726,0,0,1,.491-.688l4.724-1.624h1.749l4.725,1.624a.726.726,0,0,1,.49.688Zm-8.814-8.69a2.725,2.725,0,1,1,2.725,2.725A2.728,2.728,0,0,1,8.414,46.906Zm30.039,4.017a22.739,22.739,0,0,1-16.682.03A11.032,11.032,0,0,0,18.01,40.48a.875.875,0,1,0-1.11,1.352,9.2,9.2,0,0,1,2.066,11.635,2.473,2.473,0,0,0-1.66-2.112l-3.2-1.1a4.474,4.474,0,1,0-5.929,0l-3.2,1.1a2.474,2.474,0,0,0-1.661,2.112,9.03,9.03,0,0,1-1.26-4.608A9.177,9.177,0,0,1,13.84,40.18a.875.875,0,0,0,.521-1.67A11.078,11.078,0,0,0,9,38.234a22.735,22.735,0,0,1,0-16.772A10.94,10.94,0,0,0,21.773,8.753a22.737,22.737,0,0,1,16.677.03A10.941,10.941,0,0,0,51.144,21.476a22.74,22.74,0,0,1,0,16.743,10.965,10.965,0,0,0-12.7,12.7ZM43,55.6V53.7a.726.726,0,0,1,.491-.688l4.724-1.624h1.749l4.725,1.624a.726.726,0,0,1,.49.688v1.9A9.069,9.069,0,0,1,43,55.6Zm6.09-5.966a2.725,2.725,0,1,1,2.725-2.725A2.728,2.728,0,0,1,49.091,49.631Zm7.827,3.835a2.473,2.473,0,0,0-1.66-2.112l-3.2-1.1a4.474,4.474,0,1,0-5.929,0l-3.2,1.1a2.474,2.474,0,0,0-1.661,2.113,9.087,9.087,0,1,1,15.654,0Z" transform="translate(-0.303 0)"/>
        <path id="Trazado_1059960" data-name="Trazado 1059960" d="M163.176,145.5a13.569,13.569,0,0,0-8.153-4.54.875.875,0,1,0-.271,1.728,11.806,11.806,0,1,1-3.55-.017.875.875,0,1,0-.253-1.731,13.564,13.564,0,1,0,12.227,4.56Z" transform="translate(-123.148 -124.498)"/>
      </g>
    </g>
  </g>
</svg>
